%TF.GenerationSoftware,KiCad,Pcbnew,9.0.7-9.0.7~ubuntu24.04.1*%
%TF.CreationDate,2026-02-18T20:44:34+01:00*%
%TF.ProjectId,ESP32-C3_Dev,45535033-322d-4433-935f-4465762e6b69,rev?*%
%TF.SameCoordinates,Original*%
%TF.FileFunction,Legend,Bot*%
%TF.FilePolarity,Positive*%
%FSLAX46Y46*%
G04 Gerber Fmt 4.6, Leading zero omitted, Abs format (unit mm)*
G04 Created by KiCad (PCBNEW 9.0.7-9.0.7~ubuntu24.04.1) date 2026-02-18 20:44:34*
%MOMM*%
%LPD*%
G01*
G04 APERTURE LIST*
%ADD10C,0.100000*%
%ADD11C,0.150000*%
%ADD12C,0.120000*%
%ADD13C,0.000000*%
G04 APERTURE END LIST*
D10*
X154322782Y-95400940D02*
X154703734Y-95400940D01*
X154703734Y-95400940D02*
X154703734Y-94600940D01*
X154056115Y-95400940D02*
X154056115Y-94867606D01*
X154056115Y-94600940D02*
X154094211Y-94639035D01*
X154094211Y-94639035D02*
X154056115Y-94677130D01*
X154056115Y-94677130D02*
X154018020Y-94639035D01*
X154018020Y-94639035D02*
X154056115Y-94600940D01*
X154056115Y-94600940D02*
X154056115Y-94677130D01*
X153332306Y-95362845D02*
X153408497Y-95400940D01*
X153408497Y-95400940D02*
X153560878Y-95400940D01*
X153560878Y-95400940D02*
X153637068Y-95362845D01*
X153637068Y-95362845D02*
X153675163Y-95324749D01*
X153675163Y-95324749D02*
X153713259Y-95248559D01*
X153713259Y-95248559D02*
X153713259Y-95019987D01*
X153713259Y-95019987D02*
X153675163Y-94943797D01*
X153675163Y-94943797D02*
X153637068Y-94905702D01*
X153637068Y-94905702D02*
X153560878Y-94867606D01*
X153560878Y-94867606D02*
X153408497Y-94867606D01*
X153408497Y-94867606D02*
X153332306Y-94905702D01*
X152684687Y-95362845D02*
X152760878Y-95400940D01*
X152760878Y-95400940D02*
X152913259Y-95400940D01*
X152913259Y-95400940D02*
X152989449Y-95362845D01*
X152989449Y-95362845D02*
X153027545Y-95286654D01*
X153027545Y-95286654D02*
X153027545Y-94981892D01*
X153027545Y-94981892D02*
X152989449Y-94905702D01*
X152989449Y-94905702D02*
X152913259Y-94867606D01*
X152913259Y-94867606D02*
X152760878Y-94867606D01*
X152760878Y-94867606D02*
X152684687Y-94905702D01*
X152684687Y-94905702D02*
X152646592Y-94981892D01*
X152646592Y-94981892D02*
X152646592Y-95058083D01*
X152646592Y-95058083D02*
X153027545Y-95134273D01*
X152303735Y-94867606D02*
X152303735Y-95400940D01*
X152303735Y-94943797D02*
X152265640Y-94905702D01*
X152265640Y-94905702D02*
X152189450Y-94867606D01*
X152189450Y-94867606D02*
X152075164Y-94867606D01*
X152075164Y-94867606D02*
X151998973Y-94905702D01*
X151998973Y-94905702D02*
X151960878Y-94981892D01*
X151960878Y-94981892D02*
X151960878Y-95400940D01*
X151618021Y-95362845D02*
X151541830Y-95400940D01*
X151541830Y-95400940D02*
X151389449Y-95400940D01*
X151389449Y-95400940D02*
X151313259Y-95362845D01*
X151313259Y-95362845D02*
X151275163Y-95286654D01*
X151275163Y-95286654D02*
X151275163Y-95248559D01*
X151275163Y-95248559D02*
X151313259Y-95172368D01*
X151313259Y-95172368D02*
X151389449Y-95134273D01*
X151389449Y-95134273D02*
X151503735Y-95134273D01*
X151503735Y-95134273D02*
X151579925Y-95096178D01*
X151579925Y-95096178D02*
X151618021Y-95019987D01*
X151618021Y-95019987D02*
X151618021Y-94981892D01*
X151618021Y-94981892D02*
X151579925Y-94905702D01*
X151579925Y-94905702D02*
X151503735Y-94867606D01*
X151503735Y-94867606D02*
X151389449Y-94867606D01*
X151389449Y-94867606D02*
X151313259Y-94905702D01*
X150627544Y-95362845D02*
X150703735Y-95400940D01*
X150703735Y-95400940D02*
X150856116Y-95400940D01*
X150856116Y-95400940D02*
X150932306Y-95362845D01*
X150932306Y-95362845D02*
X150970402Y-95286654D01*
X150970402Y-95286654D02*
X150970402Y-94981892D01*
X150970402Y-94981892D02*
X150932306Y-94905702D01*
X150932306Y-94905702D02*
X150856116Y-94867606D01*
X150856116Y-94867606D02*
X150703735Y-94867606D01*
X150703735Y-94867606D02*
X150627544Y-94905702D01*
X150627544Y-94905702D02*
X150589449Y-94981892D01*
X150589449Y-94981892D02*
X150589449Y-95058083D01*
X150589449Y-95058083D02*
X150970402Y-95134273D01*
X149903735Y-95400940D02*
X149903735Y-94600940D01*
X149903735Y-95362845D02*
X149979926Y-95400940D01*
X149979926Y-95400940D02*
X150132307Y-95400940D01*
X150132307Y-95400940D02*
X150208497Y-95362845D01*
X150208497Y-95362845D02*
X150246592Y-95324749D01*
X150246592Y-95324749D02*
X150284688Y-95248559D01*
X150284688Y-95248559D02*
X150284688Y-95019987D01*
X150284688Y-95019987D02*
X150246592Y-94943797D01*
X150246592Y-94943797D02*
X150208497Y-94905702D01*
X150208497Y-94905702D02*
X150132307Y-94867606D01*
X150132307Y-94867606D02*
X149979926Y-94867606D01*
X149979926Y-94867606D02*
X149903735Y-94905702D01*
X148570401Y-94867606D02*
X148570401Y-95400940D01*
X148913258Y-94867606D02*
X148913258Y-95286654D01*
X148913258Y-95286654D02*
X148875163Y-95362845D01*
X148875163Y-95362845D02*
X148798973Y-95400940D01*
X148798973Y-95400940D02*
X148684687Y-95400940D01*
X148684687Y-95400940D02*
X148608496Y-95362845D01*
X148608496Y-95362845D02*
X148570401Y-95324749D01*
X148189448Y-94867606D02*
X148189448Y-95400940D01*
X148189448Y-94943797D02*
X148151353Y-94905702D01*
X148151353Y-94905702D02*
X148075163Y-94867606D01*
X148075163Y-94867606D02*
X147960877Y-94867606D01*
X147960877Y-94867606D02*
X147884686Y-94905702D01*
X147884686Y-94905702D02*
X147846591Y-94981892D01*
X147846591Y-94981892D02*
X147846591Y-95400940D01*
X147579924Y-94867606D02*
X147275162Y-94867606D01*
X147465638Y-94600940D02*
X147465638Y-95286654D01*
X147465638Y-95286654D02*
X147427543Y-95362845D01*
X147427543Y-95362845D02*
X147351353Y-95400940D01*
X147351353Y-95400940D02*
X147275162Y-95400940D01*
X146703733Y-95362845D02*
X146779924Y-95400940D01*
X146779924Y-95400940D02*
X146932305Y-95400940D01*
X146932305Y-95400940D02*
X147008495Y-95362845D01*
X147008495Y-95362845D02*
X147046591Y-95286654D01*
X147046591Y-95286654D02*
X147046591Y-94981892D01*
X147046591Y-94981892D02*
X147008495Y-94905702D01*
X147008495Y-94905702D02*
X146932305Y-94867606D01*
X146932305Y-94867606D02*
X146779924Y-94867606D01*
X146779924Y-94867606D02*
X146703733Y-94905702D01*
X146703733Y-94905702D02*
X146665638Y-94981892D01*
X146665638Y-94981892D02*
X146665638Y-95058083D01*
X146665638Y-95058083D02*
X147046591Y-95134273D01*
X146322781Y-95400940D02*
X146322781Y-94867606D01*
X146322781Y-95019987D02*
X146284686Y-94943797D01*
X146284686Y-94943797D02*
X146246591Y-94905702D01*
X146246591Y-94905702D02*
X146170400Y-94867606D01*
X146170400Y-94867606D02*
X146094210Y-94867606D01*
X144760876Y-95324749D02*
X144798972Y-95362845D01*
X144798972Y-95362845D02*
X144913257Y-95400940D01*
X144913257Y-95400940D02*
X144989448Y-95400940D01*
X144989448Y-95400940D02*
X145103734Y-95362845D01*
X145103734Y-95362845D02*
X145179924Y-95286654D01*
X145179924Y-95286654D02*
X145218019Y-95210464D01*
X145218019Y-95210464D02*
X145256115Y-95058083D01*
X145256115Y-95058083D02*
X145256115Y-94943797D01*
X145256115Y-94943797D02*
X145218019Y-94791416D01*
X145218019Y-94791416D02*
X145179924Y-94715225D01*
X145179924Y-94715225D02*
X145103734Y-94639035D01*
X145103734Y-94639035D02*
X144989448Y-94600940D01*
X144989448Y-94600940D02*
X144913257Y-94600940D01*
X144913257Y-94600940D02*
X144798972Y-94639035D01*
X144798972Y-94639035D02*
X144760876Y-94677130D01*
X144418019Y-94981892D02*
X144151353Y-94981892D01*
X144037067Y-95400940D02*
X144418019Y-95400940D01*
X144418019Y-95400940D02*
X144418019Y-94600940D01*
X144418019Y-94600940D02*
X144037067Y-94600940D01*
X143237066Y-95400940D02*
X143503733Y-95019987D01*
X143694209Y-95400940D02*
X143694209Y-94600940D01*
X143694209Y-94600940D02*
X143389447Y-94600940D01*
X143389447Y-94600940D02*
X143313257Y-94639035D01*
X143313257Y-94639035D02*
X143275162Y-94677130D01*
X143275162Y-94677130D02*
X143237066Y-94753321D01*
X143237066Y-94753321D02*
X143237066Y-94867606D01*
X143237066Y-94867606D02*
X143275162Y-94943797D01*
X143275162Y-94943797D02*
X143313257Y-94981892D01*
X143313257Y-94981892D02*
X143389447Y-95019987D01*
X143389447Y-95019987D02*
X143694209Y-95019987D01*
X142894209Y-95400940D02*
X142894209Y-94600940D01*
X142894209Y-94600940D02*
X142437066Y-95400940D01*
X142437066Y-95400940D02*
X142437066Y-94600940D01*
X142056114Y-95096178D02*
X141446591Y-95096178D01*
X140913257Y-94600940D02*
X140760876Y-94600940D01*
X140760876Y-94600940D02*
X140684686Y-94639035D01*
X140684686Y-94639035D02*
X140608495Y-94715225D01*
X140608495Y-94715225D02*
X140570400Y-94867606D01*
X140570400Y-94867606D02*
X140570400Y-95134273D01*
X140570400Y-95134273D02*
X140608495Y-95286654D01*
X140608495Y-95286654D02*
X140684686Y-95362845D01*
X140684686Y-95362845D02*
X140760876Y-95400940D01*
X140760876Y-95400940D02*
X140913257Y-95400940D01*
X140913257Y-95400940D02*
X140989448Y-95362845D01*
X140989448Y-95362845D02*
X141065638Y-95286654D01*
X141065638Y-95286654D02*
X141103734Y-95134273D01*
X141103734Y-95134273D02*
X141103734Y-94867606D01*
X141103734Y-94867606D02*
X141065638Y-94715225D01*
X141065638Y-94715225D02*
X140989448Y-94639035D01*
X140989448Y-94639035D02*
X140913257Y-94600940D01*
X140227543Y-95400940D02*
X140227543Y-94600940D01*
X140227543Y-94981892D02*
X139770400Y-94981892D01*
X139770400Y-95400940D02*
X139770400Y-94600940D01*
X139008496Y-95400940D02*
X139389448Y-95400940D01*
X139389448Y-95400940D02*
X139389448Y-94600940D01*
X138741829Y-95096178D02*
X138132306Y-95096178D01*
X137789449Y-95362845D02*
X137675163Y-95400940D01*
X137675163Y-95400940D02*
X137484687Y-95400940D01*
X137484687Y-95400940D02*
X137408496Y-95362845D01*
X137408496Y-95362845D02*
X137370401Y-95324749D01*
X137370401Y-95324749D02*
X137332306Y-95248559D01*
X137332306Y-95248559D02*
X137332306Y-95172368D01*
X137332306Y-95172368D02*
X137370401Y-95096178D01*
X137370401Y-95096178D02*
X137408496Y-95058083D01*
X137408496Y-95058083D02*
X137484687Y-95019987D01*
X137484687Y-95019987D02*
X137637068Y-94981892D01*
X137637068Y-94981892D02*
X137713258Y-94943797D01*
X137713258Y-94943797D02*
X137751353Y-94905702D01*
X137751353Y-94905702D02*
X137789449Y-94829511D01*
X137789449Y-94829511D02*
X137789449Y-94753321D01*
X137789449Y-94753321D02*
X137751353Y-94677130D01*
X137751353Y-94677130D02*
X137713258Y-94639035D01*
X137713258Y-94639035D02*
X137637068Y-94600940D01*
X137637068Y-94600940D02*
X137446591Y-94600940D01*
X137446591Y-94600940D02*
X137332306Y-94639035D01*
X136456115Y-94867606D02*
X136265639Y-95400940D01*
X136265639Y-95400940D02*
X136075162Y-94867606D01*
X135808496Y-94677130D02*
X135770400Y-94639035D01*
X135770400Y-94639035D02*
X135694210Y-94600940D01*
X135694210Y-94600940D02*
X135503734Y-94600940D01*
X135503734Y-94600940D02*
X135427543Y-94639035D01*
X135427543Y-94639035D02*
X135389448Y-94677130D01*
X135389448Y-94677130D02*
X135351353Y-94753321D01*
X135351353Y-94753321D02*
X135351353Y-94829511D01*
X135351353Y-94829511D02*
X135389448Y-94943797D01*
X135389448Y-94943797D02*
X135846591Y-95400940D01*
X135846591Y-95400940D02*
X135351353Y-95400940D01*
X154360877Y-96155561D02*
X154360877Y-96803180D01*
X154360877Y-96803180D02*
X154398972Y-96879371D01*
X154398972Y-96879371D02*
X154437068Y-96917466D01*
X154437068Y-96917466D02*
X154513258Y-96955561D01*
X154513258Y-96955561D02*
X154627544Y-96955561D01*
X154627544Y-96955561D02*
X154703734Y-96917466D01*
X154360877Y-96650800D02*
X154437068Y-96688895D01*
X154437068Y-96688895D02*
X154589449Y-96688895D01*
X154589449Y-96688895D02*
X154665639Y-96650800D01*
X154665639Y-96650800D02*
X154703734Y-96612704D01*
X154703734Y-96612704D02*
X154741830Y-96536514D01*
X154741830Y-96536514D02*
X154741830Y-96307942D01*
X154741830Y-96307942D02*
X154703734Y-96231752D01*
X154703734Y-96231752D02*
X154665639Y-96193657D01*
X154665639Y-96193657D02*
X154589449Y-96155561D01*
X154589449Y-96155561D02*
X154437068Y-96155561D01*
X154437068Y-96155561D02*
X154360877Y-96193657D01*
X153979924Y-96688895D02*
X153979924Y-96155561D01*
X153979924Y-95888895D02*
X154018020Y-95926990D01*
X154018020Y-95926990D02*
X153979924Y-95965085D01*
X153979924Y-95965085D02*
X153941829Y-95926990D01*
X153941829Y-95926990D02*
X153979924Y-95888895D01*
X153979924Y-95888895D02*
X153979924Y-95965085D01*
X153713258Y-96155561D02*
X153408496Y-96155561D01*
X153598972Y-95888895D02*
X153598972Y-96574609D01*
X153598972Y-96574609D02*
X153560877Y-96650800D01*
X153560877Y-96650800D02*
X153484687Y-96688895D01*
X153484687Y-96688895D02*
X153408496Y-96688895D01*
X153141829Y-96688895D02*
X153141829Y-95888895D01*
X152798972Y-96688895D02*
X152798972Y-96269847D01*
X152798972Y-96269847D02*
X152837067Y-96193657D01*
X152837067Y-96193657D02*
X152913258Y-96155561D01*
X152913258Y-96155561D02*
X153027544Y-96155561D01*
X153027544Y-96155561D02*
X153103734Y-96193657D01*
X153103734Y-96193657D02*
X153141829Y-96231752D01*
X152075162Y-96155561D02*
X152075162Y-96688895D01*
X152418019Y-96155561D02*
X152418019Y-96574609D01*
X152418019Y-96574609D02*
X152379924Y-96650800D01*
X152379924Y-96650800D02*
X152303734Y-96688895D01*
X152303734Y-96688895D02*
X152189448Y-96688895D01*
X152189448Y-96688895D02*
X152113257Y-96650800D01*
X152113257Y-96650800D02*
X152075162Y-96612704D01*
X151694209Y-96688895D02*
X151694209Y-95888895D01*
X151694209Y-96193657D02*
X151618019Y-96155561D01*
X151618019Y-96155561D02*
X151465638Y-96155561D01*
X151465638Y-96155561D02*
X151389447Y-96193657D01*
X151389447Y-96193657D02*
X151351352Y-96231752D01*
X151351352Y-96231752D02*
X151313257Y-96307942D01*
X151313257Y-96307942D02*
X151313257Y-96536514D01*
X151313257Y-96536514D02*
X151351352Y-96612704D01*
X151351352Y-96612704D02*
X151389447Y-96650800D01*
X151389447Y-96650800D02*
X151465638Y-96688895D01*
X151465638Y-96688895D02*
X151618019Y-96688895D01*
X151618019Y-96688895D02*
X151694209Y-96650800D01*
X150970399Y-96612704D02*
X150932304Y-96650800D01*
X150932304Y-96650800D02*
X150970399Y-96688895D01*
X150970399Y-96688895D02*
X151008495Y-96650800D01*
X151008495Y-96650800D02*
X150970399Y-96612704D01*
X150970399Y-96612704D02*
X150970399Y-96688895D01*
X150246590Y-96650800D02*
X150322781Y-96688895D01*
X150322781Y-96688895D02*
X150475162Y-96688895D01*
X150475162Y-96688895D02*
X150551352Y-96650800D01*
X150551352Y-96650800D02*
X150589447Y-96612704D01*
X150589447Y-96612704D02*
X150627543Y-96536514D01*
X150627543Y-96536514D02*
X150627543Y-96307942D01*
X150627543Y-96307942D02*
X150589447Y-96231752D01*
X150589447Y-96231752D02*
X150551352Y-96193657D01*
X150551352Y-96193657D02*
X150475162Y-96155561D01*
X150475162Y-96155561D02*
X150322781Y-96155561D01*
X150322781Y-96155561D02*
X150246590Y-96193657D01*
X149789448Y-96688895D02*
X149865638Y-96650800D01*
X149865638Y-96650800D02*
X149903733Y-96612704D01*
X149903733Y-96612704D02*
X149941829Y-96536514D01*
X149941829Y-96536514D02*
X149941829Y-96307942D01*
X149941829Y-96307942D02*
X149903733Y-96231752D01*
X149903733Y-96231752D02*
X149865638Y-96193657D01*
X149865638Y-96193657D02*
X149789448Y-96155561D01*
X149789448Y-96155561D02*
X149675162Y-96155561D01*
X149675162Y-96155561D02*
X149598971Y-96193657D01*
X149598971Y-96193657D02*
X149560876Y-96231752D01*
X149560876Y-96231752D02*
X149522781Y-96307942D01*
X149522781Y-96307942D02*
X149522781Y-96536514D01*
X149522781Y-96536514D02*
X149560876Y-96612704D01*
X149560876Y-96612704D02*
X149598971Y-96650800D01*
X149598971Y-96650800D02*
X149675162Y-96688895D01*
X149675162Y-96688895D02*
X149789448Y-96688895D01*
X149179923Y-96688895D02*
X149179923Y-96155561D01*
X149179923Y-96231752D02*
X149141828Y-96193657D01*
X149141828Y-96193657D02*
X149065638Y-96155561D01*
X149065638Y-96155561D02*
X148951352Y-96155561D01*
X148951352Y-96155561D02*
X148875161Y-96193657D01*
X148875161Y-96193657D02*
X148837066Y-96269847D01*
X148837066Y-96269847D02*
X148837066Y-96688895D01*
X148837066Y-96269847D02*
X148798971Y-96193657D01*
X148798971Y-96193657D02*
X148722780Y-96155561D01*
X148722780Y-96155561D02*
X148608495Y-96155561D01*
X148608495Y-96155561D02*
X148532304Y-96193657D01*
X148532304Y-96193657D02*
X148494209Y-96269847D01*
X148494209Y-96269847D02*
X148494209Y-96688895D01*
X147541828Y-95850800D02*
X148227542Y-96879371D01*
X147275161Y-96155561D02*
X147275161Y-96955561D01*
X147275161Y-96193657D02*
X147198971Y-96155561D01*
X147198971Y-96155561D02*
X147046590Y-96155561D01*
X147046590Y-96155561D02*
X146970399Y-96193657D01*
X146970399Y-96193657D02*
X146932304Y-96231752D01*
X146932304Y-96231752D02*
X146894209Y-96307942D01*
X146894209Y-96307942D02*
X146894209Y-96536514D01*
X146894209Y-96536514D02*
X146932304Y-96612704D01*
X146932304Y-96612704D02*
X146970399Y-96650800D01*
X146970399Y-96650800D02*
X147046590Y-96688895D01*
X147046590Y-96688895D02*
X147198971Y-96688895D01*
X147198971Y-96688895D02*
X147275161Y-96650800D01*
X146246589Y-96650800D02*
X146322780Y-96688895D01*
X146322780Y-96688895D02*
X146475161Y-96688895D01*
X146475161Y-96688895D02*
X146551351Y-96650800D01*
X146551351Y-96650800D02*
X146589447Y-96574609D01*
X146589447Y-96574609D02*
X146589447Y-96269847D01*
X146589447Y-96269847D02*
X146551351Y-96193657D01*
X146551351Y-96193657D02*
X146475161Y-96155561D01*
X146475161Y-96155561D02*
X146322780Y-96155561D01*
X146322780Y-96155561D02*
X146246589Y-96193657D01*
X146246589Y-96193657D02*
X146208494Y-96269847D01*
X146208494Y-96269847D02*
X146208494Y-96346038D01*
X146208494Y-96346038D02*
X146589447Y-96422228D01*
X145751352Y-96688895D02*
X145827542Y-96650800D01*
X145827542Y-96650800D02*
X145865637Y-96574609D01*
X145865637Y-96574609D02*
X145865637Y-95888895D01*
X145332304Y-96688895D02*
X145408494Y-96650800D01*
X145408494Y-96650800D02*
X145446589Y-96574609D01*
X145446589Y-96574609D02*
X145446589Y-95888895D01*
X144722779Y-96650800D02*
X144798970Y-96688895D01*
X144798970Y-96688895D02*
X144951351Y-96688895D01*
X144951351Y-96688895D02*
X145027541Y-96650800D01*
X145027541Y-96650800D02*
X145065637Y-96574609D01*
X145065637Y-96574609D02*
X145065637Y-96269847D01*
X145065637Y-96269847D02*
X145027541Y-96193657D01*
X145027541Y-96193657D02*
X144951351Y-96155561D01*
X144951351Y-96155561D02*
X144798970Y-96155561D01*
X144798970Y-96155561D02*
X144722779Y-96193657D01*
X144722779Y-96193657D02*
X144684684Y-96269847D01*
X144684684Y-96269847D02*
X144684684Y-96346038D01*
X144684684Y-96346038D02*
X145065637Y-96422228D01*
X144341827Y-96688895D02*
X144341827Y-96155561D01*
X144341827Y-96231752D02*
X144303732Y-96193657D01*
X144303732Y-96193657D02*
X144227542Y-96155561D01*
X144227542Y-96155561D02*
X144113256Y-96155561D01*
X144113256Y-96155561D02*
X144037065Y-96193657D01*
X144037065Y-96193657D02*
X143998970Y-96269847D01*
X143998970Y-96269847D02*
X143998970Y-96688895D01*
X143998970Y-96269847D02*
X143960875Y-96193657D01*
X143960875Y-96193657D02*
X143884684Y-96155561D01*
X143884684Y-96155561D02*
X143770399Y-96155561D01*
X143770399Y-96155561D02*
X143694208Y-96193657D01*
X143694208Y-96193657D02*
X143656113Y-96269847D01*
X143656113Y-96269847D02*
X143656113Y-96688895D01*
X142932303Y-96688895D02*
X142932303Y-96269847D01*
X142932303Y-96269847D02*
X142970398Y-96193657D01*
X142970398Y-96193657D02*
X143046589Y-96155561D01*
X143046589Y-96155561D02*
X143198970Y-96155561D01*
X143198970Y-96155561D02*
X143275160Y-96193657D01*
X142932303Y-96650800D02*
X143008494Y-96688895D01*
X143008494Y-96688895D02*
X143198970Y-96688895D01*
X143198970Y-96688895D02*
X143275160Y-96650800D01*
X143275160Y-96650800D02*
X143313256Y-96574609D01*
X143313256Y-96574609D02*
X143313256Y-96498419D01*
X143313256Y-96498419D02*
X143275160Y-96422228D01*
X143275160Y-96422228D02*
X143198970Y-96384133D01*
X143198970Y-96384133D02*
X143008494Y-96384133D01*
X143008494Y-96384133D02*
X142932303Y-96346038D01*
X142665636Y-96155561D02*
X142360874Y-96155561D01*
X142551350Y-95888895D02*
X142551350Y-96574609D01*
X142551350Y-96574609D02*
X142513255Y-96650800D01*
X142513255Y-96650800D02*
X142437065Y-96688895D01*
X142437065Y-96688895D02*
X142360874Y-96688895D01*
X142094207Y-96688895D02*
X142094207Y-96155561D01*
X142094207Y-96307942D02*
X142056112Y-96231752D01*
X142056112Y-96231752D02*
X142018017Y-96193657D01*
X142018017Y-96193657D02*
X141941826Y-96155561D01*
X141941826Y-96155561D02*
X141865636Y-96155561D01*
X141484684Y-96688895D02*
X141560874Y-96650800D01*
X141560874Y-96650800D02*
X141598969Y-96612704D01*
X141598969Y-96612704D02*
X141637065Y-96536514D01*
X141637065Y-96536514D02*
X141637065Y-96307942D01*
X141637065Y-96307942D02*
X141598969Y-96231752D01*
X141598969Y-96231752D02*
X141560874Y-96193657D01*
X141560874Y-96193657D02*
X141484684Y-96155561D01*
X141484684Y-96155561D02*
X141370398Y-96155561D01*
X141370398Y-96155561D02*
X141294207Y-96193657D01*
X141294207Y-96193657D02*
X141256112Y-96231752D01*
X141256112Y-96231752D02*
X141218017Y-96307942D01*
X141218017Y-96307942D02*
X141218017Y-96536514D01*
X141218017Y-96536514D02*
X141256112Y-96612704D01*
X141256112Y-96612704D02*
X141294207Y-96650800D01*
X141294207Y-96650800D02*
X141370398Y-96688895D01*
X141370398Y-96688895D02*
X141484684Y-96688895D01*
X140913255Y-96650800D02*
X140837064Y-96688895D01*
X140837064Y-96688895D02*
X140684683Y-96688895D01*
X140684683Y-96688895D02*
X140608493Y-96650800D01*
X140608493Y-96650800D02*
X140570397Y-96574609D01*
X140570397Y-96574609D02*
X140570397Y-96536514D01*
X140570397Y-96536514D02*
X140608493Y-96460323D01*
X140608493Y-96460323D02*
X140684683Y-96422228D01*
X140684683Y-96422228D02*
X140798969Y-96422228D01*
X140798969Y-96422228D02*
X140875159Y-96384133D01*
X140875159Y-96384133D02*
X140913255Y-96307942D01*
X140913255Y-96307942D02*
X140913255Y-96269847D01*
X140913255Y-96269847D02*
X140875159Y-96193657D01*
X140875159Y-96193657D02*
X140798969Y-96155561D01*
X140798969Y-96155561D02*
X140684683Y-96155561D01*
X140684683Y-96155561D02*
X140608493Y-96193657D01*
X139922778Y-96650800D02*
X139998969Y-96688895D01*
X139998969Y-96688895D02*
X140151350Y-96688895D01*
X140151350Y-96688895D02*
X140227540Y-96650800D01*
X140227540Y-96650800D02*
X140265636Y-96574609D01*
X140265636Y-96574609D02*
X140265636Y-96269847D01*
X140265636Y-96269847D02*
X140227540Y-96193657D01*
X140227540Y-96193657D02*
X140151350Y-96155561D01*
X140151350Y-96155561D02*
X139998969Y-96155561D01*
X139998969Y-96155561D02*
X139922778Y-96193657D01*
X139922778Y-96193657D02*
X139884683Y-96269847D01*
X139884683Y-96269847D02*
X139884683Y-96346038D01*
X139884683Y-96346038D02*
X140265636Y-96422228D01*
X138970398Y-95850800D02*
X139656112Y-96879371D01*
X138703731Y-96269847D02*
X138437065Y-96269847D01*
X138322779Y-96688895D02*
X138703731Y-96688895D01*
X138703731Y-96688895D02*
X138703731Y-95888895D01*
X138703731Y-95888895D02*
X138322779Y-95888895D01*
X138018017Y-96650800D02*
X137903731Y-96688895D01*
X137903731Y-96688895D02*
X137713255Y-96688895D01*
X137713255Y-96688895D02*
X137637064Y-96650800D01*
X137637064Y-96650800D02*
X137598969Y-96612704D01*
X137598969Y-96612704D02*
X137560874Y-96536514D01*
X137560874Y-96536514D02*
X137560874Y-96460323D01*
X137560874Y-96460323D02*
X137598969Y-96384133D01*
X137598969Y-96384133D02*
X137637064Y-96346038D01*
X137637064Y-96346038D02*
X137713255Y-96307942D01*
X137713255Y-96307942D02*
X137865636Y-96269847D01*
X137865636Y-96269847D02*
X137941826Y-96231752D01*
X137941826Y-96231752D02*
X137979921Y-96193657D01*
X137979921Y-96193657D02*
X138018017Y-96117466D01*
X138018017Y-96117466D02*
X138018017Y-96041276D01*
X138018017Y-96041276D02*
X137979921Y-95965085D01*
X137979921Y-95965085D02*
X137941826Y-95926990D01*
X137941826Y-95926990D02*
X137865636Y-95888895D01*
X137865636Y-95888895D02*
X137675159Y-95888895D01*
X137675159Y-95888895D02*
X137560874Y-95926990D01*
X137218016Y-96688895D02*
X137218016Y-95888895D01*
X137218016Y-95888895D02*
X136913254Y-95888895D01*
X136913254Y-95888895D02*
X136837064Y-95926990D01*
X136837064Y-95926990D02*
X136798969Y-95965085D01*
X136798969Y-95965085D02*
X136760873Y-96041276D01*
X136760873Y-96041276D02*
X136760873Y-96155561D01*
X136760873Y-96155561D02*
X136798969Y-96231752D01*
X136798969Y-96231752D02*
X136837064Y-96269847D01*
X136837064Y-96269847D02*
X136913254Y-96307942D01*
X136913254Y-96307942D02*
X137218016Y-96307942D01*
X136494207Y-95888895D02*
X135998969Y-95888895D01*
X135998969Y-95888895D02*
X136265635Y-96193657D01*
X136265635Y-96193657D02*
X136151350Y-96193657D01*
X136151350Y-96193657D02*
X136075159Y-96231752D01*
X136075159Y-96231752D02*
X136037064Y-96269847D01*
X136037064Y-96269847D02*
X135998969Y-96346038D01*
X135998969Y-96346038D02*
X135998969Y-96536514D01*
X135998969Y-96536514D02*
X136037064Y-96612704D01*
X136037064Y-96612704D02*
X136075159Y-96650800D01*
X136075159Y-96650800D02*
X136151350Y-96688895D01*
X136151350Y-96688895D02*
X136379921Y-96688895D01*
X136379921Y-96688895D02*
X136456112Y-96650800D01*
X136456112Y-96650800D02*
X136494207Y-96612704D01*
X135694207Y-95965085D02*
X135656111Y-95926990D01*
X135656111Y-95926990D02*
X135579921Y-95888895D01*
X135579921Y-95888895D02*
X135389445Y-95888895D01*
X135389445Y-95888895D02*
X135313254Y-95926990D01*
X135313254Y-95926990D02*
X135275159Y-95965085D01*
X135275159Y-95965085D02*
X135237064Y-96041276D01*
X135237064Y-96041276D02*
X135237064Y-96117466D01*
X135237064Y-96117466D02*
X135275159Y-96231752D01*
X135275159Y-96231752D02*
X135732302Y-96688895D01*
X135732302Y-96688895D02*
X135237064Y-96688895D01*
X134894206Y-96384133D02*
X134284683Y-96384133D01*
X133446587Y-96612704D02*
X133484683Y-96650800D01*
X133484683Y-96650800D02*
X133598968Y-96688895D01*
X133598968Y-96688895D02*
X133675159Y-96688895D01*
X133675159Y-96688895D02*
X133789445Y-96650800D01*
X133789445Y-96650800D02*
X133865635Y-96574609D01*
X133865635Y-96574609D02*
X133903730Y-96498419D01*
X133903730Y-96498419D02*
X133941826Y-96346038D01*
X133941826Y-96346038D02*
X133941826Y-96231752D01*
X133941826Y-96231752D02*
X133903730Y-96079371D01*
X133903730Y-96079371D02*
X133865635Y-96003180D01*
X133865635Y-96003180D02*
X133789445Y-95926990D01*
X133789445Y-95926990D02*
X133675159Y-95888895D01*
X133675159Y-95888895D02*
X133598968Y-95888895D01*
X133598968Y-95888895D02*
X133484683Y-95926990D01*
X133484683Y-95926990D02*
X133446587Y-95965085D01*
X133179921Y-95888895D02*
X132684683Y-95888895D01*
X132684683Y-95888895D02*
X132951349Y-96193657D01*
X132951349Y-96193657D02*
X132837064Y-96193657D01*
X132837064Y-96193657D02*
X132760873Y-96231752D01*
X132760873Y-96231752D02*
X132722778Y-96269847D01*
X132722778Y-96269847D02*
X132684683Y-96346038D01*
X132684683Y-96346038D02*
X132684683Y-96536514D01*
X132684683Y-96536514D02*
X132722778Y-96612704D01*
X132722778Y-96612704D02*
X132760873Y-96650800D01*
X132760873Y-96650800D02*
X132837064Y-96688895D01*
X132837064Y-96688895D02*
X133065635Y-96688895D01*
X133065635Y-96688895D02*
X133141826Y-96650800D01*
X133141826Y-96650800D02*
X133179921Y-96612704D01*
X132532302Y-96765085D02*
X131922778Y-96765085D01*
X131770397Y-96650800D02*
X131656111Y-96688895D01*
X131656111Y-96688895D02*
X131465635Y-96688895D01*
X131465635Y-96688895D02*
X131389444Y-96650800D01*
X131389444Y-96650800D02*
X131351349Y-96612704D01*
X131351349Y-96612704D02*
X131313254Y-96536514D01*
X131313254Y-96536514D02*
X131313254Y-96460323D01*
X131313254Y-96460323D02*
X131351349Y-96384133D01*
X131351349Y-96384133D02*
X131389444Y-96346038D01*
X131389444Y-96346038D02*
X131465635Y-96307942D01*
X131465635Y-96307942D02*
X131618016Y-96269847D01*
X131618016Y-96269847D02*
X131694206Y-96231752D01*
X131694206Y-96231752D02*
X131732301Y-96193657D01*
X131732301Y-96193657D02*
X131770397Y-96117466D01*
X131770397Y-96117466D02*
X131770397Y-96041276D01*
X131770397Y-96041276D02*
X131732301Y-95965085D01*
X131732301Y-95965085D02*
X131694206Y-95926990D01*
X131694206Y-95926990D02*
X131618016Y-95888895D01*
X131618016Y-95888895D02*
X131427539Y-95888895D01*
X131427539Y-95888895D02*
X131313254Y-95926990D01*
X130665634Y-96650800D02*
X130741825Y-96688895D01*
X130741825Y-96688895D02*
X130894206Y-96688895D01*
X130894206Y-96688895D02*
X130970396Y-96650800D01*
X130970396Y-96650800D02*
X131008492Y-96574609D01*
X131008492Y-96574609D02*
X131008492Y-96269847D01*
X131008492Y-96269847D02*
X130970396Y-96193657D01*
X130970396Y-96193657D02*
X130894206Y-96155561D01*
X130894206Y-96155561D02*
X130741825Y-96155561D01*
X130741825Y-96155561D02*
X130665634Y-96193657D01*
X130665634Y-96193657D02*
X130627539Y-96269847D01*
X130627539Y-96269847D02*
X130627539Y-96346038D01*
X130627539Y-96346038D02*
X131008492Y-96422228D01*
X130284682Y-96155561D02*
X130284682Y-96688895D01*
X130284682Y-96231752D02*
X130246587Y-96193657D01*
X130246587Y-96193657D02*
X130170397Y-96155561D01*
X130170397Y-96155561D02*
X130056111Y-96155561D01*
X130056111Y-96155561D02*
X129979920Y-96193657D01*
X129979920Y-96193657D02*
X129941825Y-96269847D01*
X129941825Y-96269847D02*
X129941825Y-96688895D01*
X129598968Y-96650800D02*
X129522777Y-96688895D01*
X129522777Y-96688895D02*
X129370396Y-96688895D01*
X129370396Y-96688895D02*
X129294206Y-96650800D01*
X129294206Y-96650800D02*
X129256110Y-96574609D01*
X129256110Y-96574609D02*
X129256110Y-96536514D01*
X129256110Y-96536514D02*
X129294206Y-96460323D01*
X129294206Y-96460323D02*
X129370396Y-96422228D01*
X129370396Y-96422228D02*
X129484682Y-96422228D01*
X129484682Y-96422228D02*
X129560872Y-96384133D01*
X129560872Y-96384133D02*
X129598968Y-96307942D01*
X129598968Y-96307942D02*
X129598968Y-96269847D01*
X129598968Y-96269847D02*
X129560872Y-96193657D01*
X129560872Y-96193657D02*
X129484682Y-96155561D01*
X129484682Y-96155561D02*
X129370396Y-96155561D01*
X129370396Y-96155561D02*
X129294206Y-96193657D01*
X128798968Y-96688895D02*
X128875158Y-96650800D01*
X128875158Y-96650800D02*
X128913253Y-96612704D01*
X128913253Y-96612704D02*
X128951349Y-96536514D01*
X128951349Y-96536514D02*
X128951349Y-96307942D01*
X128951349Y-96307942D02*
X128913253Y-96231752D01*
X128913253Y-96231752D02*
X128875158Y-96193657D01*
X128875158Y-96193657D02*
X128798968Y-96155561D01*
X128798968Y-96155561D02*
X128684682Y-96155561D01*
X128684682Y-96155561D02*
X128608491Y-96193657D01*
X128608491Y-96193657D02*
X128570396Y-96231752D01*
X128570396Y-96231752D02*
X128532301Y-96307942D01*
X128532301Y-96307942D02*
X128532301Y-96536514D01*
X128532301Y-96536514D02*
X128570396Y-96612704D01*
X128570396Y-96612704D02*
X128608491Y-96650800D01*
X128608491Y-96650800D02*
X128684682Y-96688895D01*
X128684682Y-96688895D02*
X128798968Y-96688895D01*
X128189443Y-96688895D02*
X128189443Y-96155561D01*
X128189443Y-96307942D02*
X128151348Y-96231752D01*
X128151348Y-96231752D02*
X128113253Y-96193657D01*
X128113253Y-96193657D02*
X128037062Y-96155561D01*
X128037062Y-96155561D02*
X127960872Y-96155561D01*
X127122777Y-95850800D02*
X127808491Y-96879371D01*
D11*
X135429580Y-69533333D02*
X135477200Y-69485714D01*
X135477200Y-69485714D02*
X135524819Y-69342857D01*
X135524819Y-69342857D02*
X135524819Y-69247619D01*
X135524819Y-69247619D02*
X135477200Y-69104762D01*
X135477200Y-69104762D02*
X135381961Y-69009524D01*
X135381961Y-69009524D02*
X135286723Y-68961905D01*
X135286723Y-68961905D02*
X135096247Y-68914286D01*
X135096247Y-68914286D02*
X134953390Y-68914286D01*
X134953390Y-68914286D02*
X134762914Y-68961905D01*
X134762914Y-68961905D02*
X134667676Y-69009524D01*
X134667676Y-69009524D02*
X134572438Y-69104762D01*
X134572438Y-69104762D02*
X134524819Y-69247619D01*
X134524819Y-69247619D02*
X134524819Y-69342857D01*
X134524819Y-69342857D02*
X134572438Y-69485714D01*
X134572438Y-69485714D02*
X134620057Y-69533333D01*
X134524819Y-69866667D02*
X134524819Y-70533333D01*
X134524819Y-70533333D02*
X135524819Y-70104762D01*
X132564819Y-79149142D02*
X132088628Y-78815809D01*
X132564819Y-78577714D02*
X131564819Y-78577714D01*
X131564819Y-78577714D02*
X131564819Y-78958666D01*
X131564819Y-78958666D02*
X131612438Y-79053904D01*
X131612438Y-79053904D02*
X131660057Y-79101523D01*
X131660057Y-79101523D02*
X131755295Y-79149142D01*
X131755295Y-79149142D02*
X131898152Y-79149142D01*
X131898152Y-79149142D02*
X131993390Y-79101523D01*
X131993390Y-79101523D02*
X132041009Y-79053904D01*
X132041009Y-79053904D02*
X132088628Y-78958666D01*
X132088628Y-78958666D02*
X132088628Y-78577714D01*
X131564819Y-79482476D02*
X131564819Y-80101523D01*
X131564819Y-80101523D02*
X131945771Y-79768190D01*
X131945771Y-79768190D02*
X131945771Y-79911047D01*
X131945771Y-79911047D02*
X131993390Y-80006285D01*
X131993390Y-80006285D02*
X132041009Y-80053904D01*
X132041009Y-80053904D02*
X132136247Y-80101523D01*
X132136247Y-80101523D02*
X132374342Y-80101523D01*
X132374342Y-80101523D02*
X132469580Y-80053904D01*
X132469580Y-80053904D02*
X132517200Y-80006285D01*
X132517200Y-80006285D02*
X132564819Y-79911047D01*
X132564819Y-79911047D02*
X132564819Y-79625333D01*
X132564819Y-79625333D02*
X132517200Y-79530095D01*
X132517200Y-79530095D02*
X132469580Y-79482476D01*
X131564819Y-81006285D02*
X131564819Y-80530095D01*
X131564819Y-80530095D02*
X132041009Y-80482476D01*
X132041009Y-80482476D02*
X131993390Y-80530095D01*
X131993390Y-80530095D02*
X131945771Y-80625333D01*
X131945771Y-80625333D02*
X131945771Y-80863428D01*
X131945771Y-80863428D02*
X131993390Y-80958666D01*
X131993390Y-80958666D02*
X132041009Y-81006285D01*
X132041009Y-81006285D02*
X132136247Y-81053904D01*
X132136247Y-81053904D02*
X132374342Y-81053904D01*
X132374342Y-81053904D02*
X132469580Y-81006285D01*
X132469580Y-81006285D02*
X132517200Y-80958666D01*
X132517200Y-80958666D02*
X132564819Y-80863428D01*
X132564819Y-80863428D02*
X132564819Y-80625333D01*
X132564819Y-80625333D02*
X132517200Y-80530095D01*
X132517200Y-80530095D02*
X132469580Y-80482476D01*
X141521904Y-82454819D02*
X141521904Y-83264342D01*
X141521904Y-83264342D02*
X141474285Y-83359580D01*
X141474285Y-83359580D02*
X141426666Y-83407200D01*
X141426666Y-83407200D02*
X141331428Y-83454819D01*
X141331428Y-83454819D02*
X141140952Y-83454819D01*
X141140952Y-83454819D02*
X141045714Y-83407200D01*
X141045714Y-83407200D02*
X140998095Y-83359580D01*
X140998095Y-83359580D02*
X140950476Y-83264342D01*
X140950476Y-83264342D02*
X140950476Y-82454819D01*
X139998095Y-82454819D02*
X140474285Y-82454819D01*
X140474285Y-82454819D02*
X140521904Y-82931009D01*
X140521904Y-82931009D02*
X140474285Y-82883390D01*
X140474285Y-82883390D02*
X140379047Y-82835771D01*
X140379047Y-82835771D02*
X140140952Y-82835771D01*
X140140952Y-82835771D02*
X140045714Y-82883390D01*
X140045714Y-82883390D02*
X139998095Y-82931009D01*
X139998095Y-82931009D02*
X139950476Y-83026247D01*
X139950476Y-83026247D02*
X139950476Y-83264342D01*
X139950476Y-83264342D02*
X139998095Y-83359580D01*
X139998095Y-83359580D02*
X140045714Y-83407200D01*
X140045714Y-83407200D02*
X140140952Y-83454819D01*
X140140952Y-83454819D02*
X140379047Y-83454819D01*
X140379047Y-83454819D02*
X140474285Y-83407200D01*
X140474285Y-83407200D02*
X140521904Y-83359580D01*
D12*
%TO.C,C7*%
X135990000Y-69559420D02*
X135990000Y-69840580D01*
X137010000Y-69559420D02*
X137010000Y-69840580D01*
D10*
%TO.C,SW1*%
X142800000Y-68150000D02*
X138800000Y-68150000D01*
X142800000Y-71250000D02*
X138800000Y-71250000D01*
D13*
%TO.C,kibuzzard-68E97F46*%
G36*
X142562585Y-71957590D02*
G01*
X142606204Y-71962436D01*
X142606204Y-72191838D01*
X142528659Y-72191838D01*
X142413958Y-72158721D01*
X142375186Y-72067444D01*
X142386494Y-72010094D01*
X142417189Y-71976168D01*
X142462423Y-71960013D01*
X142515735Y-71955974D01*
X142562585Y-71957590D01*
G37*
G36*
X142606204Y-72628026D02*
G01*
X142560162Y-72632872D01*
X142510889Y-72634488D01*
X142444653Y-72628834D01*
X142387302Y-72607832D01*
X142346107Y-72564213D01*
X142329952Y-72492323D01*
X142375994Y-72388123D01*
X142499580Y-72356620D01*
X142606204Y-72356620D01*
X142606204Y-72628026D01*
G37*
G36*
X138516543Y-71951935D02*
G01*
X138556931Y-71988284D01*
X138579548Y-72041596D01*
X138586817Y-72106216D01*
X138551276Y-72222533D01*
X138503619Y-72252824D01*
X138431729Y-72262921D01*
X138367108Y-72256459D01*
X138312181Y-72238688D01*
X138309758Y-72207186D01*
X138308950Y-72170837D01*
X138316220Y-72089254D01*
X138340452Y-72014132D01*
X138385687Y-71959205D01*
X138455961Y-71938204D01*
X138516543Y-71951935D01*
G37*
G36*
X140955153Y-71972129D02*
G01*
X141002811Y-72047250D01*
X141025428Y-72157913D01*
X141029669Y-72223341D01*
X141031082Y-72293616D01*
X141029669Y-72364092D01*
X141025428Y-72430126D01*
X141002811Y-72540788D01*
X140955153Y-72615102D01*
X140872763Y-72642565D01*
X140791179Y-72615102D01*
X140742714Y-72539981D01*
X140720097Y-72429318D01*
X140715856Y-72363890D01*
X140714443Y-72293616D01*
X140715856Y-72223139D01*
X140720097Y-72157105D01*
X140742714Y-72046443D01*
X140790372Y-71972129D01*
X140872763Y-71944666D01*
X140955153Y-71972129D01*
G37*
G36*
X141762908Y-71972129D02*
G01*
X141810565Y-72047250D01*
X141833183Y-72157913D01*
X141837423Y-72223341D01*
X141838837Y-72293616D01*
X141837423Y-72364092D01*
X141833183Y-72430126D01*
X141810565Y-72540788D01*
X141762908Y-72615102D01*
X141680517Y-72642565D01*
X141598934Y-72615102D01*
X141550468Y-72539981D01*
X141527851Y-72429318D01*
X141523611Y-72363890D01*
X141522197Y-72293616D01*
X141523611Y-72223139D01*
X141527851Y-72157105D01*
X141550468Y-72046443D01*
X141598126Y-71972129D01*
X141680517Y-71944666D01*
X141762908Y-71972129D01*
G37*
G36*
X143141475Y-72950051D02*
G01*
X142804911Y-72950051D01*
X142527044Y-72950051D01*
X141678901Y-72950051D01*
X140871147Y-72950051D01*
X139964847Y-72950051D01*
X138712827Y-72950051D01*
X138115089Y-72950051D01*
X137778525Y-72950051D01*
X137383694Y-72950051D01*
X137609704Y-72196685D01*
X138115089Y-72196685D01*
X138125590Y-72333801D01*
X138157092Y-72454359D01*
X138208183Y-72557549D01*
X138277447Y-72642565D01*
X138363877Y-72709407D01*
X138466462Y-72758074D01*
X138583384Y-72787759D01*
X138712827Y-72797654D01*
X138719289Y-72626410D01*
X138596914Y-72611669D01*
X138488271Y-72570675D01*
X138401438Y-72501006D01*
X138344491Y-72400239D01*
X138457577Y-72427703D01*
X138538352Y-72421443D01*
X138606204Y-72402662D01*
X138706365Y-72334003D01*
X138762908Y-72233034D01*
X138780679Y-72109447D01*
X138760485Y-71990708D01*
X138743344Y-71959205D01*
X139701519Y-71959205D01*
X139964847Y-71959205D01*
X139964847Y-72794423D01*
X140165170Y-72794423D01*
X140165170Y-72293616D01*
X140512504Y-72293616D01*
X140518360Y-72414930D01*
X140535929Y-72520393D01*
X140565210Y-72610003D01*
X140606204Y-72683761D01*
X140677286Y-72756908D01*
X140765600Y-72800796D01*
X140871147Y-72815425D01*
X140979296Y-72800796D01*
X141068957Y-72756908D01*
X141140129Y-72683761D01*
X141180769Y-72610003D01*
X141209798Y-72520393D01*
X141227215Y-72414930D01*
X141233021Y-72293616D01*
X141320258Y-72293616D01*
X141326115Y-72414930D01*
X141343683Y-72520393D01*
X141372964Y-72610003D01*
X141413958Y-72683761D01*
X141485040Y-72756908D01*
X141573355Y-72800796D01*
X141678901Y-72815425D01*
X141787051Y-72800796D01*
X141876712Y-72756908D01*
X141947884Y-72683761D01*
X141988524Y-72610003D01*
X142017553Y-72520393D01*
X142022189Y-72492323D01*
X142134475Y-72492323D01*
X142142149Y-72575320D01*
X142165170Y-72643373D01*
X142248368Y-72740304D01*
X142305719Y-72771402D01*
X142372763Y-72792000D01*
X142447278Y-72803511D01*
X142527044Y-72807347D01*
X142594491Y-72805530D01*
X142664362Y-72800078D01*
X142735040Y-72790990D01*
X142804911Y-72778268D01*
X142804911Y-71807347D01*
X142680517Y-71790384D01*
X142546430Y-71783115D01*
X142443845Y-71788971D01*
X142362262Y-71806540D01*
X142250792Y-71867929D01*
X142195864Y-71952743D01*
X142181325Y-72046443D01*
X142190008Y-72113486D01*
X142216058Y-72172452D01*
X142308950Y-72259690D01*
X142223530Y-72303309D01*
X142170824Y-72359851D01*
X142143562Y-72424472D01*
X142134475Y-72492323D01*
X142022189Y-72492323D01*
X142034970Y-72414930D01*
X142040775Y-72293616D01*
X142034818Y-72172301D01*
X142016947Y-72066838D01*
X141987161Y-71977228D01*
X141945460Y-71903470D01*
X141873660Y-71830323D01*
X141785346Y-71786435D01*
X141680517Y-71771806D01*
X141572457Y-71786435D01*
X141483066Y-71830323D01*
X141412342Y-71903470D01*
X141372056Y-71977228D01*
X141343279Y-72066838D01*
X141326014Y-72172301D01*
X141320258Y-72293616D01*
X141233021Y-72293616D01*
X141227064Y-72172301D01*
X141209192Y-72066838D01*
X141179406Y-71977228D01*
X141137706Y-71903470D01*
X141065906Y-71830323D01*
X140977591Y-71786435D01*
X140872763Y-71771806D01*
X140764703Y-71786435D01*
X140675311Y-71830323D01*
X140604588Y-71903470D01*
X140564301Y-71977228D01*
X140535525Y-72066838D01*
X140518259Y-72172301D01*
X140512504Y-72293616D01*
X140165170Y-72293616D01*
X140165170Y-71959205D01*
X140428498Y-71959205D01*
X140428498Y-71794423D01*
X139701519Y-71794423D01*
X139701519Y-71959205D01*
X138743344Y-71959205D01*
X138700711Y-71880853D01*
X138601357Y-71800078D01*
X138536333Y-71776451D01*
X138460808Y-71768575D01*
X138357595Y-71781140D01*
X138271973Y-71818835D01*
X138203942Y-71881661D01*
X138154579Y-71966924D01*
X138124961Y-72071932D01*
X138115089Y-72196685D01*
X137609704Y-72196685D01*
X137778525Y-71633949D01*
X138115089Y-71633949D01*
X142804911Y-71633949D01*
X143141475Y-71633949D01*
X143536306Y-71633949D01*
X143141475Y-72950051D01*
G37*
%TO.C,kibuzzard-69307756*%
G36*
X152338568Y-90968201D02*
G01*
X151901034Y-90968201D01*
X151172278Y-90968201D01*
X151018966Y-90968201D01*
X150581432Y-90968201D01*
X150581432Y-90364055D01*
X151172278Y-90364055D01*
X151172278Y-90618174D01*
X151747722Y-90618174D01*
X151747722Y-90364055D01*
X151348691Y-90364055D01*
X151172278Y-90364055D01*
X150581432Y-90364055D01*
X150581432Y-87747254D01*
X151018966Y-87747254D01*
X151018966Y-87959370D01*
X151348691Y-87959370D01*
X151348691Y-88324798D01*
X151571309Y-88324798D01*
X151571309Y-87959370D01*
X151901034Y-87959370D01*
X151901034Y-87747254D01*
X151571309Y-87747254D01*
X151571309Y-87381826D01*
X151348691Y-87381826D01*
X151348691Y-87747254D01*
X151018966Y-87747254D01*
X150581432Y-87747254D01*
X150581432Y-87031799D01*
X151018966Y-87031799D01*
X151901034Y-87031799D01*
X152338568Y-87031799D01*
X152338568Y-90968201D01*
G37*
%TO.C,kibuzzard-679A571E*%
G36*
X137206624Y-62935945D02*
G01*
X137267528Y-62982149D01*
X137305331Y-63049354D01*
X137323183Y-63127060D01*
X136928352Y-63127060D01*
X136938853Y-63050404D01*
X136972456Y-62984249D01*
X137031260Y-62936995D01*
X137119467Y-62919144D01*
X137206624Y-62935945D01*
G37*
G36*
X139306785Y-62935945D02*
G01*
X139367690Y-62982149D01*
X139405493Y-63049354D01*
X139423344Y-63127060D01*
X139028514Y-63127060D01*
X139039015Y-63050404D01*
X139072617Y-62984249D01*
X139131422Y-62936995D01*
X139219628Y-62919144D01*
X139306785Y-62935945D01*
G37*
G36*
X142457027Y-62935945D02*
G01*
X142517932Y-62982149D01*
X142555735Y-63049354D01*
X142573586Y-63127060D01*
X142178756Y-63127060D01*
X142189257Y-63050404D01*
X142222859Y-62984249D01*
X142281664Y-62936995D01*
X142369871Y-62919144D01*
X142457027Y-62935945D01*
G37*
G36*
X145581018Y-63291922D02*
G01*
X145647173Y-63309774D01*
X145692326Y-63345477D01*
X145709128Y-63406381D01*
X145658724Y-63501939D01*
X145528514Y-63530291D01*
X145446607Y-63529241D01*
X145377302Y-63523990D01*
X145377302Y-63297173D01*
X145438207Y-63289822D01*
X145503312Y-63286672D01*
X145581018Y-63291922D01*
G37*
G36*
X151881502Y-63291922D02*
G01*
X151947658Y-63309774D01*
X151992811Y-63345477D01*
X152009612Y-63406381D01*
X151959208Y-63501939D01*
X151828998Y-63530291D01*
X151747092Y-63529241D01*
X151677787Y-63523990D01*
X151677787Y-63297173D01*
X151738691Y-63289822D01*
X151803796Y-63286672D01*
X151881502Y-63291922D01*
G37*
G36*
X141437399Y-62948021D02*
G01*
X141492003Y-63003150D01*
X141523506Y-63092932D01*
X141534006Y-63215267D01*
X141521668Y-63335501D01*
X141484653Y-63431583D01*
X141420335Y-63494588D01*
X141326090Y-63515590D01*
X141267286Y-63513489D01*
X141210582Y-63507189D01*
X141210582Y-62969548D01*
X141277787Y-62941195D01*
X141357593Y-62929645D01*
X141437399Y-62948021D01*
G37*
G36*
X149838045Y-62948021D02*
G01*
X149892649Y-63003150D01*
X149924152Y-63092932D01*
X149934653Y-63215267D01*
X149922314Y-63335501D01*
X149885299Y-63431583D01*
X149820981Y-63494588D01*
X149726737Y-63515590D01*
X149667932Y-63513489D01*
X149611228Y-63507189D01*
X149611228Y-62969548D01*
X149678433Y-62941195D01*
X149758239Y-62929645D01*
X149838045Y-62948021D01*
G37*
G36*
X133016014Y-62947758D02*
G01*
X133079806Y-63008401D01*
X133118397Y-63102120D01*
X133131260Y-63221567D01*
X133119447Y-63341276D01*
X133084006Y-63435784D01*
X133022314Y-63497213D01*
X132931745Y-63517690D01*
X132843275Y-63497213D01*
X132779483Y-63435784D01*
X132740893Y-63341276D01*
X132728029Y-63221567D01*
X132739842Y-63102120D01*
X132775283Y-63008401D01*
X132836975Y-62947758D01*
X132927544Y-62927544D01*
X133016014Y-62947758D01*
G37*
G36*
X153711443Y-63917421D02*
G01*
X153273910Y-63917421D01*
X151847900Y-63917421D01*
X150379887Y-63917421D01*
X149728837Y-63917421D01*
X147492165Y-63917421D01*
X146658401Y-63917421D01*
X145547415Y-63917421D01*
X144713651Y-63917421D01*
X143279241Y-63917421D01*
X142298465Y-63917421D01*
X141328191Y-63917421D01*
X139148223Y-63917421D01*
X138014136Y-63917421D01*
X137048061Y-63917421D01*
X135941276Y-63917421D01*
X134878595Y-63917421D01*
X134057431Y-63917421D01*
X132927544Y-63917421D01*
X131478433Y-63917421D01*
X130653069Y-63917421D01*
X129640792Y-63917421D01*
X128777625Y-63917421D01*
X128326090Y-63917421D01*
X127888557Y-63917421D01*
X127338104Y-63917421D01*
X127480705Y-63442084D01*
X128326090Y-63442084D01*
X128349192Y-63557593D01*
X128425848Y-63652100D01*
X128565509Y-63715105D01*
X128661591Y-63732431D01*
X128777625Y-63738207D01*
X128896284Y-63730856D01*
X128996042Y-63708805D01*
X129048211Y-63689903D01*
X129325767Y-63689903D01*
X129458078Y-63724556D01*
X129542609Y-63734794D01*
X129640792Y-63738207D01*
X129781240Y-63728231D01*
X129900162Y-63698304D01*
X129952666Y-63673102D01*
X130373748Y-63673102D01*
X130523910Y-63724556D01*
X130653069Y-63738207D01*
X130745739Y-63730856D01*
X130822132Y-63708805D01*
X130931341Y-63623748D01*
X130989095Y-63488288D01*
X131001696Y-63402706D01*
X131005897Y-63305574D01*
X131005897Y-63158562D01*
X131478433Y-63158562D01*
X131478433Y-63715105D01*
X131736753Y-63715105D01*
X131736753Y-63192165D01*
X131744628Y-63072981D01*
X131768255Y-62992649D01*
X131896365Y-62931745D01*
X131954120Y-62933845D01*
X132013974Y-62940145D01*
X132013974Y-63715105D01*
X132272294Y-63715105D01*
X132272294Y-63219467D01*
X132463409Y-63219467D01*
X132471809Y-63331563D01*
X132497011Y-63432633D01*
X132537439Y-63521628D01*
X132591519Y-63597496D01*
X132658461Y-63658926D01*
X132737480Y-63704604D01*
X132827524Y-63732956D01*
X132927544Y-63742407D01*
X133027565Y-63732956D01*
X133117609Y-63704604D01*
X133196890Y-63658926D01*
X133264620Y-63597496D01*
X133319487Y-63521628D01*
X133360178Y-63432633D01*
X133385380Y-63331563D01*
X133393780Y-63219467D01*
X133385117Y-63108946D01*
X133359128Y-63008401D01*
X133317649Y-62919669D01*
X133262520Y-62844588D01*
X133194527Y-62784208D01*
X133135183Y-62751131D01*
X133540792Y-62751131D01*
X133586995Y-62990549D01*
X133646850Y-62977948D01*
X133717205Y-62966397D01*
X133786511Y-62959047D01*
X133843215Y-62956947D01*
X133950323Y-62962197D01*
X134057431Y-62982149D01*
X134057431Y-63715105D01*
X134317851Y-63715105D01*
X134317851Y-63683603D01*
X134563570Y-63683603D01*
X134717932Y-63725606D01*
X134878595Y-63738207D01*
X135038207Y-63723506D01*
X135107901Y-63689903D01*
X135626252Y-63689903D01*
X135758562Y-63724556D01*
X135843094Y-63734794D01*
X135941276Y-63738207D01*
X136081725Y-63728231D01*
X136200646Y-63698304D01*
X136299091Y-63651050D01*
X136378110Y-63589095D01*
X136438227Y-63513489D01*
X136479968Y-63425283D01*
X136504382Y-63327100D01*
X136512520Y-63221567D01*
X136511502Y-63208966D01*
X136678433Y-63208966D01*
X136679483Y-63261470D01*
X136682633Y-63305574D01*
X137323183Y-63305574D01*
X137303231Y-63391943D01*
X137243376Y-63457835D01*
X137152019Y-63499576D01*
X137037561Y-63513489D01*
X136889499Y-63496688D01*
X136770840Y-63463086D01*
X136735137Y-63683603D01*
X136877948Y-63722456D01*
X137048061Y-63738207D01*
X137167508Y-63730069D01*
X137273829Y-63705654D01*
X137348234Y-63673102D01*
X137724313Y-63673102D01*
X137752666Y-63687803D01*
X137810420Y-63709855D01*
X137897577Y-63729806D01*
X138014136Y-63738207D01*
X138168498Y-63711692D01*
X138274556Y-63632149D01*
X138335985Y-63501676D01*
X138356462Y-63322375D01*
X138356462Y-63208966D01*
X138778595Y-63208966D01*
X138779645Y-63261470D01*
X138782795Y-63305574D01*
X139423344Y-63305574D01*
X139403393Y-63391943D01*
X139343538Y-63457835D01*
X139252181Y-63499576D01*
X139137722Y-63513489D01*
X138989661Y-63496688D01*
X138871002Y-63463086D01*
X138835299Y-63683603D01*
X138978110Y-63722456D01*
X139148223Y-63738207D01*
X139267670Y-63730069D01*
X139373990Y-63705654D01*
X139419592Y-63685703D01*
X140952262Y-63685703D01*
X141031543Y-63706704D01*
X141126575Y-63723506D01*
X141228433Y-63734532D01*
X141328191Y-63738207D01*
X141469718Y-63723039D01*
X141586277Y-63677535D01*
X141677868Y-63601696D01*
X141743789Y-63499488D01*
X141783342Y-63374879D01*
X141796527Y-63227868D01*
X141795127Y-63208966D01*
X141928837Y-63208966D01*
X141929887Y-63261470D01*
X141933037Y-63305574D01*
X142573586Y-63305574D01*
X142553635Y-63391943D01*
X142493780Y-63457835D01*
X142402423Y-63499576D01*
X142287964Y-63513489D01*
X142139903Y-63496688D01*
X142021244Y-63463086D01*
X141985541Y-63683603D01*
X142128352Y-63722456D01*
X142298465Y-63738207D01*
X142417912Y-63730069D01*
X142524233Y-63705654D01*
X142574635Y-63683603D01*
X142964216Y-63683603D01*
X143118578Y-63725606D01*
X143279241Y-63738207D01*
X143438853Y-63723506D01*
X143556462Y-63666801D01*
X143629968Y-63548142D01*
X143648869Y-63459673D01*
X143655170Y-63347577D01*
X143655170Y-62942246D01*
X143879887Y-62942246D01*
X143879887Y-62728029D01*
X143655170Y-62728029D01*
X143655170Y-62480210D01*
X143396850Y-62438207D01*
X143396850Y-62728029D01*
X142983118Y-62728029D01*
X142983118Y-62942246D01*
X143396850Y-62942246D01*
X143396850Y-63341276D01*
X143386349Y-63429483D01*
X143356947Y-63481987D01*
X143310743Y-63507189D01*
X143249838Y-63513489D01*
X143183683Y-63511389D01*
X143124879Y-63504039D01*
X143066074Y-63488288D01*
X142999919Y-63460985D01*
X142964216Y-63683603D01*
X142574635Y-63683603D01*
X142616640Y-63665226D01*
X142694346Y-63609047D01*
X142756563Y-63537379D01*
X142802504Y-63450485D01*
X142830856Y-63348102D01*
X142840307Y-63229968D01*
X142830331Y-63107633D01*
X142800404Y-63001050D01*
X142754200Y-62910481D01*
X142695396Y-62836187D01*
X142625565Y-62778170D01*
X142546284Y-62736430D01*
X142461228Y-62711228D01*
X142374071Y-62702827D01*
X142240127Y-62717178D01*
X142129519Y-62760232D01*
X142042246Y-62831987D01*
X141979241Y-62931278D01*
X141941438Y-63056938D01*
X141928837Y-63208966D01*
X141795127Y-63208966D01*
X141785442Y-63078173D01*
X141752190Y-62951113D01*
X141696769Y-62846688D01*
X141619646Y-62769099D01*
X141521289Y-62722545D01*
X141401696Y-62707027D01*
X141298788Y-62718578D01*
X141210582Y-62751131D01*
X141210582Y-62322698D01*
X143972294Y-62322698D01*
X144016397Y-62532714D01*
X144137157Y-62498061D01*
X144274717Y-62480210D01*
X144342973Y-62486511D01*
X144399677Y-62513813D01*
X144438530Y-62573667D01*
X144453231Y-62675525D01*
X144453231Y-62728029D01*
X144047900Y-62728029D01*
X144047900Y-62942246D01*
X144453231Y-62942246D01*
X144453231Y-63715105D01*
X144713651Y-63715105D01*
X144713651Y-63103958D01*
X145129483Y-63103958D01*
X145129483Y-63692003D01*
X145297496Y-63721405D01*
X145415630Y-63734006D01*
X145547415Y-63738207D01*
X145718578Y-63721405D01*
X145849838Y-63665751D01*
X145933845Y-63564943D01*
X145963247Y-63412682D01*
X145929645Y-63267771D01*
X145839338Y-63173263D01*
X145709128Y-63121809D01*
X145555816Y-63106058D01*
X145460784Y-63110258D01*
X145377302Y-63122859D01*
X145377302Y-63091357D01*
X145423506Y-62968498D01*
X145486511Y-62931482D01*
X145583118Y-62919144D01*
X145724879Y-62929645D01*
X145835137Y-62954847D01*
X145870119Y-62751131D01*
X146141761Y-62751131D01*
X146187964Y-62990549D01*
X146247819Y-62977948D01*
X146318174Y-62966397D01*
X146387480Y-62959047D01*
X146444184Y-62956947D01*
X146551292Y-62962197D01*
X146658401Y-62982149D01*
X146658401Y-63715105D01*
X146918821Y-63715105D01*
X146918821Y-63689903D01*
X147177141Y-63689903D01*
X147309451Y-63724556D01*
X147393982Y-63734794D01*
X147492165Y-63738207D01*
X147632613Y-63728231D01*
X147751535Y-63698304D01*
X147777787Y-63685703D01*
X149352908Y-63685703D01*
X149432189Y-63706704D01*
X149527221Y-63723506D01*
X149629079Y-63734532D01*
X149728837Y-63738207D01*
X149870364Y-63723039D01*
X149986923Y-63677535D01*
X150078514Y-63601696D01*
X150144435Y-63499488D01*
X150183989Y-63374879D01*
X150197173Y-63227868D01*
X150192041Y-63158562D01*
X150379887Y-63158562D01*
X150379887Y-63715105D01*
X150638207Y-63715105D01*
X150638207Y-63192165D01*
X150646082Y-63072981D01*
X150669709Y-62992649D01*
X150797819Y-62931745D01*
X150855574Y-62933845D01*
X150915428Y-62940145D01*
X150915428Y-63715105D01*
X151173748Y-63715105D01*
X151173748Y-63103958D01*
X151429968Y-63103958D01*
X151429968Y-63692003D01*
X151597981Y-63721405D01*
X151716115Y-63734006D01*
X151847900Y-63738207D01*
X152019063Y-63721405D01*
X152150323Y-63665751D01*
X152234330Y-63564943D01*
X152263732Y-63412682D01*
X152230129Y-63267771D01*
X152139822Y-63173263D01*
X152102620Y-63158562D01*
X152480048Y-63158562D01*
X152480048Y-63715105D01*
X152738368Y-63715105D01*
X152738368Y-63192165D01*
X152746244Y-63072981D01*
X152769871Y-62992649D01*
X152889580Y-62931745D01*
X152959935Y-62940145D01*
X153015590Y-62954847D01*
X153015590Y-63715105D01*
X153273910Y-63715105D01*
X153273910Y-62301696D01*
X153015590Y-62257593D01*
X153015590Y-62736430D01*
X152939984Y-62716478D01*
X152862278Y-62707027D01*
X152761995Y-62715166D01*
X152679564Y-62739580D01*
X152561955Y-62831987D01*
X152498950Y-62974798D01*
X152484774Y-63062217D01*
X152480048Y-63158562D01*
X152102620Y-63158562D01*
X152009612Y-63121809D01*
X151856300Y-63106058D01*
X151761268Y-63110258D01*
X151677787Y-63122859D01*
X151677787Y-63091357D01*
X151723990Y-62968498D01*
X151786995Y-62931482D01*
X151883603Y-62919144D01*
X152025363Y-62929645D01*
X152135622Y-62954847D01*
X152171325Y-62746931D01*
X152034814Y-62716478D01*
X151945032Y-62706240D01*
X151852100Y-62702827D01*
X151740529Y-62709915D01*
X151649435Y-62731179D01*
X151520275Y-62810985D01*
X151450969Y-62936995D01*
X151429968Y-63103958D01*
X151173748Y-63103958D01*
X151173748Y-62759532D01*
X151096305Y-62741155D01*
X151002585Y-62723829D01*
X150896264Y-62711228D01*
X150781018Y-62707027D01*
X150673384Y-62715166D01*
X150585703Y-62739580D01*
X150462843Y-62831987D01*
X150398788Y-62974798D01*
X150384612Y-63062217D01*
X150379887Y-63158562D01*
X150192041Y-63158562D01*
X150186089Y-63078173D01*
X150152836Y-62951113D01*
X150097415Y-62846688D01*
X150020293Y-62769099D01*
X149921935Y-62722545D01*
X149802342Y-62707027D01*
X149699435Y-62718578D01*
X149611228Y-62751131D01*
X149611228Y-62301696D01*
X149352908Y-62257593D01*
X149352908Y-63685703D01*
X147777787Y-63685703D01*
X147849980Y-63651050D01*
X147928998Y-63589095D01*
X147989116Y-63513489D01*
X148030856Y-63425283D01*
X148055271Y-63327100D01*
X148063409Y-63221567D01*
X148055008Y-63117609D01*
X148029806Y-63019952D01*
X147987278Y-62931482D01*
X147926898Y-62855089D01*
X147848405Y-62792084D01*
X147751535Y-62743780D01*
X147635238Y-62713065D01*
X147498465Y-62702827D01*
X147338853Y-62715428D01*
X147193942Y-62757431D01*
X147250646Y-62965347D01*
X147344103Y-62939095D01*
X147475363Y-62927544D01*
X147629725Y-62949596D01*
X147729483Y-63010501D01*
X147784087Y-63103958D01*
X147800889Y-63221567D01*
X147781725Y-63343376D01*
X147724233Y-63435784D01*
X147620537Y-63494063D01*
X147462763Y-63513489D01*
X147335703Y-63505089D01*
X147214943Y-63477787D01*
X147177141Y-63689903D01*
X146918821Y-63689903D01*
X146918821Y-62793134D01*
X146814600Y-62759006D01*
X146707754Y-62732229D01*
X146590408Y-62714903D01*
X146454685Y-62709128D01*
X146394830Y-62711228D01*
X146311874Y-62718578D01*
X146222617Y-62731179D01*
X146141761Y-62751131D01*
X145870119Y-62751131D01*
X145870840Y-62746931D01*
X145734330Y-62716478D01*
X145644548Y-62706240D01*
X145551616Y-62702827D01*
X145440044Y-62709915D01*
X145348950Y-62731179D01*
X145219790Y-62810985D01*
X145150485Y-62936995D01*
X145129483Y-63103958D01*
X144713651Y-63103958D01*
X144713651Y-62942246D01*
X144929968Y-62942246D01*
X144929968Y-62728029D01*
X144713651Y-62728029D01*
X144713651Y-62671325D01*
X144704988Y-62561854D01*
X144678998Y-62472859D01*
X144585541Y-62346850D01*
X144451131Y-62279645D01*
X144295719Y-62259693D01*
X144127706Y-62274394D01*
X143972294Y-62322698D01*
X141210582Y-62322698D01*
X141210582Y-62301696D01*
X140952262Y-62257593D01*
X140952262Y-63685703D01*
X139419592Y-63685703D01*
X139466397Y-63665226D01*
X139544103Y-63609047D01*
X139606321Y-63537379D01*
X139652262Y-63450485D01*
X139680614Y-63348102D01*
X139690065Y-63229968D01*
X139680089Y-63107633D01*
X139650162Y-63001050D01*
X139603958Y-62910481D01*
X139545153Y-62836187D01*
X139475323Y-62778170D01*
X139396042Y-62736430D01*
X139310985Y-62711228D01*
X139223829Y-62702827D01*
X139089885Y-62717178D01*
X138979277Y-62760232D01*
X138892003Y-62831987D01*
X138828998Y-62931278D01*
X138791195Y-63056938D01*
X138778595Y-63208966D01*
X138356462Y-63208966D01*
X138356462Y-62484410D01*
X138629483Y-62484410D01*
X138629483Y-62270194D01*
X138098142Y-62270194D01*
X138098142Y-63341276D01*
X138058239Y-63477787D01*
X137957431Y-63513489D01*
X137827221Y-63492488D01*
X137757916Y-63465186D01*
X137724313Y-63673102D01*
X137348234Y-63673102D01*
X137366236Y-63665226D01*
X137443942Y-63609047D01*
X137506159Y-63537379D01*
X137552100Y-63450485D01*
X137580452Y-63348102D01*
X137589903Y-63229968D01*
X137579927Y-63107633D01*
X137550000Y-63001050D01*
X137503796Y-62910481D01*
X137444992Y-62836187D01*
X137375162Y-62778170D01*
X137295880Y-62736430D01*
X137210824Y-62711228D01*
X137123667Y-62702827D01*
X136989724Y-62717178D01*
X136879115Y-62760232D01*
X136791842Y-62831987D01*
X136728837Y-62931278D01*
X136691034Y-63056938D01*
X136678433Y-63208966D01*
X136511502Y-63208966D01*
X136504120Y-63117609D01*
X136478918Y-63019952D01*
X136436389Y-62931482D01*
X136376010Y-62855089D01*
X136297516Y-62792084D01*
X136200646Y-62743780D01*
X136084350Y-62713065D01*
X135947577Y-62702827D01*
X135787964Y-62715428D01*
X135643053Y-62757431D01*
X135699758Y-62965347D01*
X135793215Y-62939095D01*
X135924475Y-62927544D01*
X136078837Y-62949596D01*
X136178595Y-63010501D01*
X136233199Y-63103958D01*
X136250000Y-63221567D01*
X136230836Y-63343376D01*
X136173344Y-63435784D01*
X136069649Y-63494063D01*
X135911874Y-63513489D01*
X135784814Y-63505089D01*
X135664055Y-63477787D01*
X135626252Y-63689903D01*
X135107901Y-63689903D01*
X135155816Y-63666801D01*
X135229321Y-63548142D01*
X135248223Y-63459673D01*
X135254523Y-63347577D01*
X135254523Y-62942246D01*
X135479241Y-62942246D01*
X135479241Y-62728029D01*
X135254523Y-62728029D01*
X135254523Y-62480210D01*
X134996204Y-62438207D01*
X134996204Y-62728029D01*
X134582472Y-62728029D01*
X134582472Y-62942246D01*
X134996204Y-62942246D01*
X134996204Y-63341276D01*
X134985703Y-63429483D01*
X134956300Y-63481987D01*
X134910097Y-63507189D01*
X134849192Y-63513489D01*
X134783037Y-63511389D01*
X134724233Y-63504039D01*
X134665428Y-63488288D01*
X134599273Y-63460985D01*
X134563570Y-63683603D01*
X134317851Y-63683603D01*
X134317851Y-62793134D01*
X134213631Y-62759006D01*
X134106785Y-62732229D01*
X133989439Y-62714903D01*
X133853716Y-62709128D01*
X133793861Y-62711228D01*
X133710905Y-62718578D01*
X133621648Y-62731179D01*
X133540792Y-62751131D01*
X133135183Y-62751131D01*
X133114459Y-62739580D01*
X133024677Y-62712015D01*
X132927544Y-62702827D01*
X132829099Y-62712015D01*
X132739580Y-62739580D01*
X132660299Y-62784208D01*
X132592569Y-62844588D01*
X132537702Y-62919669D01*
X132497011Y-63008401D01*
X132471809Y-63108946D01*
X132463409Y-63219467D01*
X132272294Y-63219467D01*
X132272294Y-62759532D01*
X132194851Y-62741155D01*
X132101131Y-62723829D01*
X131994810Y-62711228D01*
X131879564Y-62707027D01*
X131771931Y-62715166D01*
X131684249Y-62739580D01*
X131561389Y-62831987D01*
X131497334Y-62974798D01*
X131483158Y-63062217D01*
X131478433Y-63158562D01*
X131005897Y-63158562D01*
X131005897Y-62942246D01*
X131278918Y-62942246D01*
X131278918Y-62728029D01*
X130921890Y-62728029D01*
X130747577Y-62728029D01*
X130747577Y-63339176D01*
X130715024Y-63470436D01*
X130606866Y-63513489D01*
X130520759Y-63504039D01*
X130407351Y-63465186D01*
X130373748Y-63673102D01*
X129952666Y-63673102D01*
X129998607Y-63651050D01*
X130077625Y-63589095D01*
X130137742Y-63513489D01*
X130179483Y-63425283D01*
X130203897Y-63327100D01*
X130212036Y-63221567D01*
X130203635Y-63117609D01*
X130178433Y-63019952D01*
X130135905Y-62931482D01*
X130075525Y-62855089D01*
X129997032Y-62792084D01*
X129900162Y-62743780D01*
X129783865Y-62713065D01*
X129647092Y-62702827D01*
X129487480Y-62715428D01*
X129342569Y-62757431D01*
X129399273Y-62965347D01*
X129492730Y-62939095D01*
X129623990Y-62927544D01*
X129778352Y-62949596D01*
X129878110Y-63010501D01*
X129932714Y-63103958D01*
X129949515Y-63221567D01*
X129930351Y-63343376D01*
X129872859Y-63435784D01*
X129769164Y-63494063D01*
X129611389Y-63513489D01*
X129484330Y-63505089D01*
X129363570Y-63477787D01*
X129325767Y-63689903D01*
X129048211Y-63689903D01*
X129140953Y-63656300D01*
X129101050Y-63439984D01*
X128944588Y-63494588D01*
X128775525Y-63519790D01*
X128630614Y-63506139D01*
X128580210Y-63450485D01*
X128595961Y-63404281D01*
X128640065Y-63371729D01*
X128705170Y-63345477D01*
X128781826Y-63320275D01*
X128897334Y-63281422D01*
X129004443Y-63225767D01*
X129084249Y-63140711D01*
X129115751Y-63011551D01*
X129091599Y-62892892D01*
X129015994Y-62794184D01*
X128884733Y-62726979D01*
X128797052Y-62708865D01*
X128693619Y-62702827D01*
X128600424Y-62706502D01*
X128514055Y-62717528D01*
X128370194Y-62759532D01*
X128410097Y-62977948D01*
X128521405Y-62943296D01*
X128691519Y-62919144D01*
X128824879Y-62943296D01*
X128859532Y-62994750D01*
X128843780Y-63035703D01*
X128801777Y-63068255D01*
X128740872Y-63096607D01*
X128666317Y-63122859D01*
X128548708Y-63164863D01*
X128438449Y-63222617D01*
X128357593Y-63310824D01*
X128326090Y-63442084D01*
X127480705Y-63442084D01*
X127779978Y-62444507D01*
X130758078Y-62444507D01*
X130806381Y-62564216D01*
X130921890Y-62608320D01*
X131036349Y-62564216D01*
X131083603Y-62444507D01*
X131036349Y-62322698D01*
X130921890Y-62278595D01*
X130806381Y-62322698D01*
X130758078Y-62444507D01*
X127779978Y-62444507D01*
X127888557Y-62082579D01*
X128326090Y-62082579D01*
X153273910Y-62082579D01*
X153711443Y-62082579D01*
X154261896Y-62082579D01*
X153711443Y-63917421D01*
G37*
%TO.C,kibuzzard-68E983D3*%
G36*
X133253635Y-70994750D02*
G01*
X133327544Y-71000808D01*
X133327544Y-71485460D01*
X133206381Y-71485460D01*
X133080977Y-71471224D01*
X132990711Y-71428514D01*
X132936187Y-71351272D01*
X132918013Y-71233441D01*
X132935884Y-71121668D01*
X132989499Y-71048061D01*
X133072799Y-71007169D01*
X133179725Y-70993538D01*
X133253635Y-70994750D01*
G37*
G36*
X128411349Y-71005351D02*
G01*
X128490711Y-71106220D01*
X128527060Y-71209478D01*
X128548869Y-71339930D01*
X128556139Y-71497577D01*
X128548869Y-71656570D01*
X128527060Y-71787830D01*
X128490711Y-71891357D01*
X128411349Y-71992225D01*
X128304120Y-72025848D01*
X128301696Y-72025099D01*
X128195376Y-71992225D01*
X128116317Y-71891357D01*
X128080641Y-71787830D01*
X128059235Y-71656570D01*
X128052100Y-71497577D01*
X128053197Y-71473344D01*
X128168417Y-71473344D01*
X128205977Y-71586026D01*
X128301696Y-71633279D01*
X128401050Y-71586026D01*
X128437399Y-71473344D01*
X128401050Y-71359451D01*
X128301696Y-71310985D01*
X128205977Y-71359451D01*
X128168417Y-71473344D01*
X128053197Y-71473344D01*
X128059235Y-71339930D01*
X128080641Y-71209478D01*
X128116317Y-71106220D01*
X128195376Y-71005351D01*
X128304120Y-70971729D01*
X128411349Y-71005351D01*
G37*
G36*
X129622981Y-71005351D02*
G01*
X129702342Y-71106220D01*
X129738691Y-71209478D01*
X129760501Y-71339930D01*
X129767771Y-71497577D01*
X129760501Y-71656570D01*
X129738691Y-71787830D01*
X129702342Y-71891357D01*
X129622981Y-71992225D01*
X129515751Y-72025848D01*
X129513328Y-72025099D01*
X129407007Y-71992225D01*
X129327948Y-71891357D01*
X129292272Y-71787830D01*
X129270867Y-71656570D01*
X129263732Y-71497577D01*
X129264829Y-71473344D01*
X129380048Y-71473344D01*
X129417609Y-71586026D01*
X129513328Y-71633279D01*
X129612682Y-71586026D01*
X129649031Y-71473344D01*
X129612682Y-71359451D01*
X129513328Y-71310985D01*
X129417609Y-71359451D01*
X129380048Y-71473344D01*
X129264829Y-71473344D01*
X129270867Y-71339930D01*
X129292272Y-71209478D01*
X129327948Y-71106220D01*
X129407007Y-71005351D01*
X129515751Y-70971729D01*
X129622981Y-71005351D01*
G37*
G36*
X134029483Y-72686591D02*
G01*
X133625606Y-72686591D01*
X133327544Y-72686591D01*
X131788772Y-72686591D01*
X130220921Y-72686591D01*
X129515751Y-72686591D01*
X128304120Y-72686591D01*
X127090065Y-72686591D01*
X125374394Y-72686591D01*
X124970517Y-72686591D01*
X124970517Y-72004039D01*
X125374394Y-72004039D01*
X125374394Y-72251212D01*
X126285541Y-72251212D01*
X126285541Y-72059774D01*
X126874394Y-72059774D01*
X126939822Y-72222132D01*
X127090065Y-72277868D01*
X127172456Y-72263328D01*
X127241519Y-72220921D01*
X127289984Y-72153069D01*
X127308158Y-72059774D01*
X127289984Y-71968901D01*
X127241519Y-71902262D01*
X127172456Y-71861066D01*
X127090065Y-71846527D01*
X126939822Y-71902262D01*
X126874394Y-72059774D01*
X126285541Y-72059774D01*
X126285541Y-72004039D01*
X125970517Y-72004039D01*
X125970517Y-71497577D01*
X127783118Y-71497577D01*
X127791448Y-71683562D01*
X127816438Y-71844103D01*
X127858088Y-71979200D01*
X127916397Y-72088853D01*
X128018713Y-72196554D01*
X128147954Y-72261174D01*
X128304120Y-72282714D01*
X128460285Y-72261174D01*
X128589526Y-72196554D01*
X128691842Y-72088853D01*
X128750151Y-71979200D01*
X128791801Y-71844103D01*
X128816791Y-71683562D01*
X128825121Y-71497577D01*
X128994750Y-71497577D01*
X129003080Y-71683562D01*
X129028069Y-71844103D01*
X129069719Y-71979200D01*
X129128029Y-72088853D01*
X129230345Y-72196554D01*
X129359585Y-72261174D01*
X129515751Y-72282714D01*
X129671917Y-72261174D01*
X129801158Y-72196554D01*
X129903473Y-72088853D01*
X129948574Y-72004039D01*
X130220921Y-72004039D01*
X130220921Y-72251212D01*
X131132068Y-72251212D01*
X131132068Y-72004039D01*
X130817044Y-72004039D01*
X130817044Y-71165590D01*
X130972132Y-71251616D01*
X131119952Y-71310985D01*
X131216882Y-71063813D01*
X131090872Y-71008078D01*
X131073361Y-70998384D01*
X131393780Y-70998384D01*
X131788772Y-70998384D01*
X131788772Y-72251212D01*
X132089257Y-72251212D01*
X132089257Y-71235864D01*
X132612682Y-71235864D01*
X132630318Y-71398627D01*
X132683226Y-71528271D01*
X132771405Y-71624798D01*
X132891896Y-71691438D01*
X133041734Y-71731422D01*
X133220921Y-71744750D01*
X133327544Y-71744750D01*
X133327544Y-72251212D01*
X133625606Y-72251212D01*
X133625606Y-70770598D01*
X133527464Y-70753635D01*
X133417205Y-70742730D01*
X133308158Y-70736672D01*
X133213651Y-70734249D01*
X133037291Y-70747307D01*
X132889472Y-70786484D01*
X132770194Y-70851777D01*
X132682687Y-70946688D01*
X132630183Y-71074717D01*
X132612682Y-71235864D01*
X132089257Y-71235864D01*
X132089257Y-70998384D01*
X132484249Y-70998384D01*
X132484249Y-70751212D01*
X131393780Y-70751212D01*
X131393780Y-70998384D01*
X131073361Y-70998384D01*
X130955170Y-70932956D01*
X130826737Y-70845719D01*
X130722536Y-70751212D01*
X130518982Y-70751212D01*
X130518982Y-72004039D01*
X130220921Y-72004039D01*
X129948574Y-72004039D01*
X129961783Y-71979200D01*
X130003433Y-71844103D01*
X130028423Y-71683562D01*
X130036753Y-71497577D01*
X130028271Y-71313712D01*
X130002827Y-71154685D01*
X129960420Y-71020497D01*
X129901050Y-70911147D01*
X129797927Y-70803446D01*
X129669494Y-70738826D01*
X129515751Y-70717286D01*
X129359585Y-70738691D01*
X129230345Y-70802908D01*
X129128029Y-70909935D01*
X129069719Y-71018907D01*
X129028069Y-71153170D01*
X129003080Y-71312727D01*
X128994750Y-71497577D01*
X128825121Y-71497577D01*
X128816640Y-71313712D01*
X128791195Y-71154685D01*
X128748788Y-71020497D01*
X128689418Y-70911147D01*
X128586295Y-70803446D01*
X128457862Y-70738826D01*
X128304120Y-70717286D01*
X128147954Y-70738691D01*
X128018713Y-70802908D01*
X127916397Y-70909935D01*
X127858088Y-71018907D01*
X127816438Y-71153170D01*
X127791448Y-71312727D01*
X127783118Y-71497577D01*
X125970517Y-71497577D01*
X125970517Y-71165590D01*
X126125606Y-71251616D01*
X126273425Y-71310985D01*
X126370355Y-71063813D01*
X126244346Y-71008078D01*
X126108643Y-70932956D01*
X125980210Y-70845719D01*
X125876010Y-70751212D01*
X125672456Y-70751212D01*
X125672456Y-72004039D01*
X125374394Y-72004039D01*
X124970517Y-72004039D01*
X124970517Y-70313409D01*
X125374394Y-70313409D01*
X133625606Y-70313409D01*
X134029483Y-70313409D01*
X134029483Y-72686591D01*
G37*
%TO.C,kibuzzard-68E983DB*%
G36*
X155757270Y-70994750D02*
G01*
X155831179Y-71000808D01*
X155831179Y-71485460D01*
X155710016Y-71485460D01*
X155584612Y-71471224D01*
X155494346Y-71428514D01*
X155439822Y-71351272D01*
X155421648Y-71233441D01*
X155439519Y-71121668D01*
X155493134Y-71048061D01*
X155576434Y-71007169D01*
X155683360Y-70993538D01*
X155757270Y-70994750D01*
G37*
G36*
X150914984Y-71005351D02*
G01*
X150994346Y-71106220D01*
X151030695Y-71209478D01*
X151052504Y-71339930D01*
X151059774Y-71497577D01*
X151052504Y-71656570D01*
X151030695Y-71787830D01*
X150994346Y-71891357D01*
X150914984Y-71992225D01*
X150807754Y-72025848D01*
X150805331Y-72025099D01*
X150699011Y-71992225D01*
X150619952Y-71891357D01*
X150584276Y-71787830D01*
X150562870Y-71656570D01*
X150555735Y-71497577D01*
X150556832Y-71473344D01*
X150672052Y-71473344D01*
X150709612Y-71586026D01*
X150805331Y-71633279D01*
X150904685Y-71586026D01*
X150941034Y-71473344D01*
X150904685Y-71359451D01*
X150805331Y-71310985D01*
X150709612Y-71359451D01*
X150672052Y-71473344D01*
X150556832Y-71473344D01*
X150562870Y-71339930D01*
X150584276Y-71209478D01*
X150619952Y-71106220D01*
X150699011Y-71005351D01*
X150807754Y-70971729D01*
X150914984Y-71005351D01*
G37*
G36*
X152126616Y-71005351D02*
G01*
X152205977Y-71106220D01*
X152242326Y-71209478D01*
X152264136Y-71339930D01*
X152271405Y-71497577D01*
X152264136Y-71656570D01*
X152242326Y-71787830D01*
X152205977Y-71891357D01*
X152126616Y-71992225D01*
X152019386Y-72025848D01*
X152016963Y-72025099D01*
X151910642Y-71992225D01*
X151831583Y-71891357D01*
X151795907Y-71787830D01*
X151774502Y-71656570D01*
X151767367Y-71497577D01*
X151768464Y-71473344D01*
X151883683Y-71473344D01*
X151921244Y-71586026D01*
X152016963Y-71633279D01*
X152116317Y-71586026D01*
X152152666Y-71473344D01*
X152116317Y-71359451D01*
X152016963Y-71310985D01*
X151921244Y-71359451D01*
X151883683Y-71473344D01*
X151768464Y-71473344D01*
X151774502Y-71339930D01*
X151795907Y-71209478D01*
X151831583Y-71106220D01*
X151910642Y-71005351D01*
X152019386Y-70971729D01*
X152126616Y-71005351D01*
G37*
G36*
X156533118Y-72686591D02*
G01*
X156129241Y-72686591D01*
X155831179Y-72686591D01*
X154292407Y-72686591D01*
X152724556Y-72686591D01*
X152019386Y-72686591D01*
X150807754Y-72686591D01*
X149593700Y-72686591D01*
X147870759Y-72686591D01*
X147466882Y-72686591D01*
X147466882Y-72004039D01*
X147870759Y-72004039D01*
X147870759Y-72251212D01*
X148849758Y-72251212D01*
X148855816Y-72190630D01*
X148854604Y-72139742D01*
X148846899Y-72059774D01*
X149378029Y-72059774D01*
X149443457Y-72222132D01*
X149593700Y-72277868D01*
X149676090Y-72263328D01*
X149745153Y-72220921D01*
X149793619Y-72153069D01*
X149811793Y-72059774D01*
X149793619Y-71968901D01*
X149745153Y-71902262D01*
X149676090Y-71861066D01*
X149593700Y-71846527D01*
X149443457Y-71902262D01*
X149378029Y-72059774D01*
X148846899Y-72059774D01*
X148843397Y-72023425D01*
X148809774Y-71916801D01*
X148758885Y-71818962D01*
X148695880Y-71728998D01*
X148624394Y-71646002D01*
X148548061Y-71569063D01*
X148472687Y-71497577D01*
X150286753Y-71497577D01*
X150295083Y-71683562D01*
X150320073Y-71844103D01*
X150361723Y-71979200D01*
X150420032Y-72088853D01*
X150522348Y-72196554D01*
X150651589Y-72261174D01*
X150807754Y-72282714D01*
X150963920Y-72261174D01*
X151093161Y-72196554D01*
X151195477Y-72088853D01*
X151253786Y-71979200D01*
X151295436Y-71844103D01*
X151320426Y-71683562D01*
X151328756Y-71497577D01*
X151498384Y-71497577D01*
X151506714Y-71683562D01*
X151531704Y-71844103D01*
X151573354Y-71979200D01*
X151631664Y-72088853D01*
X151733980Y-72196554D01*
X151863220Y-72261174D01*
X152019386Y-72282714D01*
X152175552Y-72261174D01*
X152304793Y-72196554D01*
X152407108Y-72088853D01*
X152452209Y-72004039D01*
X152724556Y-72004039D01*
X152724556Y-72251212D01*
X153635703Y-72251212D01*
X153635703Y-72004039D01*
X153320679Y-72004039D01*
X153320679Y-71165590D01*
X153475767Y-71251616D01*
X153623586Y-71310985D01*
X153720517Y-71063813D01*
X153594507Y-71008078D01*
X153576996Y-70998384D01*
X153897415Y-70998384D01*
X154292407Y-70998384D01*
X154292407Y-72251212D01*
X154592892Y-72251212D01*
X154592892Y-71235864D01*
X155116317Y-71235864D01*
X155133953Y-71398627D01*
X155186861Y-71528271D01*
X155275040Y-71624798D01*
X155395530Y-71691438D01*
X155545369Y-71731422D01*
X155724556Y-71744750D01*
X155831179Y-71744750D01*
X155831179Y-72251212D01*
X156129241Y-72251212D01*
X156129241Y-70770598D01*
X156031099Y-70753635D01*
X155920840Y-70742730D01*
X155811793Y-70736672D01*
X155717286Y-70734249D01*
X155540926Y-70747307D01*
X155393107Y-70786484D01*
X155273829Y-70851777D01*
X155186322Y-70946688D01*
X155133818Y-71074717D01*
X155116317Y-71235864D01*
X154592892Y-71235864D01*
X154592892Y-70998384D01*
X154987884Y-70998384D01*
X154987884Y-70751212D01*
X153897415Y-70751212D01*
X153897415Y-70998384D01*
X153576996Y-70998384D01*
X153458805Y-70932956D01*
X153330372Y-70845719D01*
X153226171Y-70751212D01*
X153022617Y-70751212D01*
X153022617Y-72004039D01*
X152724556Y-72004039D01*
X152452209Y-72004039D01*
X152465418Y-71979200D01*
X152507068Y-71844103D01*
X152532058Y-71683562D01*
X152540388Y-71497577D01*
X152531906Y-71313712D01*
X152506462Y-71154685D01*
X152464055Y-71020497D01*
X152404685Y-70911147D01*
X152301562Y-70803446D01*
X152173129Y-70738826D01*
X152019386Y-70717286D01*
X151863220Y-70738691D01*
X151733980Y-70802908D01*
X151631664Y-70909935D01*
X151573354Y-71018907D01*
X151531704Y-71153170D01*
X151506714Y-71312727D01*
X151498384Y-71497577D01*
X151328756Y-71497577D01*
X151320275Y-71313712D01*
X151294830Y-71154685D01*
X151252423Y-71020497D01*
X151193053Y-70911147D01*
X151089930Y-70803446D01*
X150961497Y-70738826D01*
X150807754Y-70717286D01*
X150651589Y-70738691D01*
X150522348Y-70802908D01*
X150420032Y-70909935D01*
X150361723Y-71018907D01*
X150320073Y-71153170D01*
X150295083Y-71312727D01*
X150286753Y-71497577D01*
X148472687Y-71497577D01*
X148471729Y-71496668D01*
X148400242Y-71427302D01*
X148286349Y-71296446D01*
X148241519Y-71168013D01*
X148297254Y-71026252D01*
X148437803Y-70976575D01*
X148585622Y-71010501D01*
X148738288Y-71124394D01*
X148886107Y-70915994D01*
X148781603Y-70827544D01*
X148661955Y-70765751D01*
X148535036Y-70729402D01*
X148408724Y-70717286D01*
X148231826Y-70743942D01*
X148081583Y-70823910D01*
X147977383Y-70958401D01*
X147938611Y-71146204D01*
X147967690Y-71295234D01*
X148045234Y-71434572D01*
X148154281Y-71565428D01*
X148277868Y-71686591D01*
X148350565Y-71755654D01*
X148428110Y-71838045D01*
X148489903Y-71924071D01*
X148515347Y-72004039D01*
X147870759Y-72004039D01*
X147466882Y-72004039D01*
X147466882Y-70313409D01*
X147870759Y-70313409D01*
X156129241Y-70313409D01*
X156533118Y-70313409D01*
X156533118Y-72686591D01*
G37*
%TO.C,kibuzzard-69738792*%
G36*
X139512924Y-101042003D02*
G01*
X139582229Y-101065105D01*
X139585380Y-101102908D01*
X139586430Y-101142811D01*
X139578029Y-101259370D01*
X139548627Y-101359128D01*
X139490872Y-101429483D01*
X139399515Y-101455735D01*
X139323910Y-101434733D01*
X139272456Y-101382229D01*
X139243053Y-101312924D01*
X139233603Y-101239418D01*
X139277706Y-101087157D01*
X139338086Y-101046991D01*
X139431018Y-101033603D01*
X139512924Y-101042003D01*
G37*
G36*
X138454968Y-100571305D02*
G01*
X138523748Y-100658724D01*
X138555250Y-100748214D01*
X138574152Y-100861273D01*
X138580452Y-100997900D01*
X138574152Y-101135694D01*
X138555250Y-101249453D01*
X138523748Y-101339176D01*
X138454968Y-101426595D01*
X138362036Y-101455735D01*
X138359935Y-101455086D01*
X138267791Y-101426595D01*
X138199273Y-101339176D01*
X138168354Y-101249453D01*
X138149803Y-101135694D01*
X138143619Y-100997900D01*
X138144570Y-100976898D01*
X138244426Y-100976898D01*
X138276979Y-101074556D01*
X138359935Y-101115509D01*
X138446042Y-101074556D01*
X138477544Y-100976898D01*
X138446042Y-100878191D01*
X138359935Y-100836187D01*
X138276979Y-100878191D01*
X138244426Y-100976898D01*
X138144570Y-100976898D01*
X138149803Y-100861273D01*
X138168354Y-100748214D01*
X138199273Y-100658724D01*
X138267791Y-100571305D01*
X138362036Y-100542165D01*
X138454968Y-100571305D01*
G37*
G36*
X142655291Y-100571305D02*
G01*
X142724071Y-100658724D01*
X142755574Y-100748214D01*
X142774475Y-100861273D01*
X142780775Y-100997900D01*
X142774475Y-101135694D01*
X142755574Y-101249453D01*
X142724071Y-101339176D01*
X142655291Y-101426595D01*
X142562359Y-101455735D01*
X142560258Y-101455086D01*
X142468114Y-101426595D01*
X142399596Y-101339176D01*
X142368677Y-101249453D01*
X142350126Y-101135694D01*
X142343942Y-100997900D01*
X142344893Y-100976898D01*
X142444750Y-100976898D01*
X142477302Y-101074556D01*
X142560258Y-101115509D01*
X142646365Y-101074556D01*
X142677868Y-100976898D01*
X142646365Y-100878191D01*
X142560258Y-100836187D01*
X142477302Y-100878191D01*
X142444750Y-100976898D01*
X142344893Y-100976898D01*
X142350126Y-100861273D01*
X142368677Y-100748214D01*
X142399596Y-100658724D01*
X142468114Y-100571305D01*
X142562359Y-100542165D01*
X142655291Y-100571305D01*
G37*
G36*
X146647873Y-101853366D02*
G01*
X146210339Y-101853366D01*
X145847011Y-101853366D01*
X144217286Y-101853366D01*
X143610339Y-101853366D01*
X142562359Y-101853366D01*
X140016963Y-101853366D01*
X139393215Y-101853366D01*
X138362036Y-101853366D01*
X136873021Y-101853366D01*
X135816640Y-101853366D01*
X135289499Y-101853366D01*
X134789661Y-101853366D01*
X134352127Y-101853366D01*
X133840108Y-101853366D01*
X134016732Y-101264620D01*
X134789661Y-101264620D01*
X134819063Y-101430533D01*
X134909370Y-101561793D01*
X134978675Y-101611147D01*
X135064782Y-101647900D01*
X135168215Y-101670739D01*
X135289499Y-101678352D01*
X135391357Y-101671002D01*
X135494265Y-101653150D01*
X135585622Y-101630048D01*
X135650727Y-101606947D01*
X135611089Y-101436834D01*
X135816640Y-101436834D01*
X135816640Y-101651050D01*
X136665105Y-101651050D01*
X136670355Y-101598546D01*
X136669305Y-101554443D01*
X136659592Y-101453635D01*
X136654294Y-101436834D01*
X136873021Y-101436834D01*
X136873021Y-101651050D01*
X137662682Y-101651050D01*
X137662682Y-101436834D01*
X137389661Y-101436834D01*
X137389661Y-100997900D01*
X137910501Y-100997900D01*
X137917720Y-101159087D01*
X137939378Y-101298223D01*
X137975475Y-101415307D01*
X138026010Y-101510339D01*
X138114683Y-101603680D01*
X138226692Y-101659684D01*
X138362036Y-101678352D01*
X138497379Y-101659684D01*
X138609388Y-101603680D01*
X138698061Y-101510339D01*
X138748597Y-101415307D01*
X138784693Y-101298223D01*
X138794500Y-101235218D01*
X138981583Y-101235218D01*
X139005735Y-101388530D01*
X139080291Y-101531341D01*
X139208401Y-101637399D01*
X139293457Y-101668114D01*
X139393215Y-101678352D01*
X139527275Y-101663301D01*
X139638234Y-101618148D01*
X139726090Y-101542892D01*
X139788987Y-101436834D01*
X140016963Y-101436834D01*
X140016963Y-101651050D01*
X140865428Y-101651050D01*
X140870679Y-101598546D01*
X140869628Y-101554443D01*
X140859915Y-101453635D01*
X140830775Y-101361228D01*
X140786672Y-101276434D01*
X140732068Y-101198465D01*
X140670113Y-101126535D01*
X140603958Y-101059855D01*
X140538634Y-100997900D01*
X142110824Y-100997900D01*
X142118043Y-101159087D01*
X142139701Y-101298223D01*
X142175798Y-101415307D01*
X142226333Y-101510339D01*
X142315006Y-101603680D01*
X142427015Y-101659684D01*
X142562359Y-101678352D01*
X142697702Y-101659684D01*
X142809711Y-101603680D01*
X142898384Y-101510339D01*
X142911786Y-101485137D01*
X143423425Y-101485137D01*
X143480129Y-101625848D01*
X143610339Y-101674152D01*
X143681745Y-101661551D01*
X143741599Y-101624798D01*
X143783603Y-101565994D01*
X143799354Y-101485137D01*
X143789694Y-101436834D01*
X144217286Y-101436834D01*
X144217286Y-101651050D01*
X145065751Y-101651050D01*
X145071002Y-101598546D01*
X145069952Y-101554443D01*
X145060238Y-101453635D01*
X145031099Y-101361228D01*
X144986995Y-101276434D01*
X144932391Y-101198465D01*
X144870436Y-101126535D01*
X144804281Y-101059855D01*
X144738126Y-100997112D01*
X144676171Y-100936995D01*
X144577464Y-100823586D01*
X144538611Y-100712278D01*
X144586914Y-100589418D01*
X144708724Y-100546365D01*
X144836834Y-100575767D01*
X144969144Y-100674475D01*
X145097254Y-100493861D01*
X145006684Y-100417205D01*
X144902989Y-100363651D01*
X144858990Y-100351050D01*
X145212763Y-100351050D01*
X145240852Y-100484410D01*
X145274717Y-100632472D01*
X145314095Y-100791821D01*
X145358724Y-100959047D01*
X145391276Y-101073856D01*
X145425929Y-101190065D01*
X145462682Y-101307674D01*
X145500951Y-101424699D01*
X145540154Y-101539158D01*
X145580291Y-101651050D01*
X145847011Y-101651050D01*
X145898990Y-101496688D01*
X145954120Y-101323425D01*
X145991222Y-101201732D01*
X146026925Y-101080273D01*
X146061228Y-100959047D01*
X146093664Y-100840154D01*
X146123766Y-100725696D01*
X146151535Y-100615670D01*
X146186187Y-100468659D01*
X146210339Y-100351050D01*
X145937318Y-100351050D01*
X145921567Y-100459996D01*
X145899515Y-100585218D01*
X145873001Y-100720679D01*
X145843861Y-100860339D01*
X145812359Y-101001050D01*
X145778756Y-101139661D01*
X145744366Y-101270133D01*
X145710501Y-101386430D01*
X145676898Y-101271708D01*
X145643296Y-101141761D01*
X145610743Y-101003150D01*
X145580291Y-100862439D01*
X145551939Y-100722516D01*
X145525687Y-100586268D01*
X145502585Y-100460258D01*
X145483683Y-100351050D01*
X145212763Y-100351050D01*
X144858990Y-100351050D01*
X144792993Y-100332149D01*
X144683522Y-100321648D01*
X144530210Y-100344750D01*
X144400000Y-100414055D01*
X144309693Y-100530614D01*
X144276090Y-100693376D01*
X144301292Y-100822536D01*
X144368498Y-100943296D01*
X144463005Y-101056704D01*
X144570113Y-101161712D01*
X144633118Y-101221567D01*
X144700323Y-101292973D01*
X144753877Y-101367528D01*
X144775929Y-101436834D01*
X144217286Y-101436834D01*
X143789694Y-101436834D01*
X143783603Y-101406381D01*
X143741599Y-101348627D01*
X143681745Y-101312924D01*
X143610339Y-101300323D01*
X143480129Y-101348627D01*
X143423425Y-101485137D01*
X142911786Y-101485137D01*
X142948920Y-101415307D01*
X142985016Y-101298223D01*
X143006674Y-101159087D01*
X143013893Y-100997900D01*
X143006543Y-100838550D01*
X142984491Y-100700727D01*
X142947738Y-100584431D01*
X142896284Y-100489661D01*
X142806911Y-100396320D01*
X142695602Y-100340316D01*
X142562359Y-100321648D01*
X142427015Y-100340199D01*
X142315006Y-100395854D01*
X142226333Y-100488611D01*
X142175798Y-100583052D01*
X142139701Y-100699414D01*
X142118043Y-100837697D01*
X142110824Y-100997900D01*
X140538634Y-100997900D01*
X140537803Y-100997112D01*
X140475848Y-100936995D01*
X140377141Y-100823586D01*
X140338288Y-100712278D01*
X140386591Y-100589418D01*
X140508401Y-100546365D01*
X140636511Y-100575767D01*
X140768821Y-100674475D01*
X140896931Y-100493861D01*
X140806361Y-100417205D01*
X140702666Y-100363651D01*
X140592670Y-100332149D01*
X140483199Y-100321648D01*
X140329887Y-100344750D01*
X140199677Y-100414055D01*
X140109370Y-100530614D01*
X140075767Y-100693376D01*
X140100969Y-100822536D01*
X140168174Y-100943296D01*
X140262682Y-101056704D01*
X140369790Y-101161712D01*
X140432795Y-101221567D01*
X140500000Y-101292973D01*
X140553554Y-101367528D01*
X140575606Y-101436834D01*
X140016963Y-101436834D01*
X139788987Y-101436834D01*
X139789679Y-101435667D01*
X139827832Y-101294606D01*
X139840549Y-101119709D01*
X139826636Y-100941721D01*
X139784895Y-100785784D01*
X139717427Y-100652423D01*
X139626333Y-100542165D01*
X139512924Y-100455533D01*
X139378514Y-100393053D01*
X139225727Y-100355250D01*
X139057189Y-100342649D01*
X139042488Y-100563166D01*
X139206300Y-100579968D01*
X139353312Y-100629321D01*
X139469871Y-100718578D01*
X139542326Y-100855089D01*
X139464620Y-100828837D01*
X139397415Y-100819386D01*
X139292670Y-100827787D01*
X139205250Y-100852989D01*
X139076090Y-100943296D01*
X139003635Y-101075606D01*
X138981583Y-101235218D01*
X138794500Y-101235218D01*
X138806351Y-101159087D01*
X138813570Y-100997900D01*
X138806220Y-100838550D01*
X138784168Y-100700727D01*
X138747415Y-100584431D01*
X138695961Y-100489661D01*
X138606588Y-100396320D01*
X138495279Y-100340316D01*
X138362036Y-100321648D01*
X138226692Y-100340199D01*
X138114683Y-100395854D01*
X138026010Y-100488611D01*
X137975475Y-100583052D01*
X137939378Y-100699414D01*
X137917720Y-100837697D01*
X137910501Y-100997900D01*
X137389661Y-100997900D01*
X137389661Y-100710178D01*
X137524071Y-100784733D01*
X137652181Y-100836187D01*
X137736187Y-100621971D01*
X137626979Y-100573667D01*
X137509370Y-100508562D01*
X137398061Y-100432956D01*
X137307754Y-100351050D01*
X137131341Y-100351050D01*
X137131341Y-101436834D01*
X136873021Y-101436834D01*
X136654294Y-101436834D01*
X136630452Y-101361228D01*
X136586349Y-101276434D01*
X136531745Y-101198465D01*
X136469790Y-101126535D01*
X136403635Y-101059855D01*
X136337480Y-100997112D01*
X136275525Y-100936995D01*
X136176817Y-100823586D01*
X136137964Y-100712278D01*
X136186268Y-100589418D01*
X136308078Y-100546365D01*
X136436187Y-100575767D01*
X136568498Y-100674475D01*
X136696607Y-100493861D01*
X136606038Y-100417205D01*
X136502342Y-100363651D01*
X136392347Y-100332149D01*
X136282876Y-100321648D01*
X136129564Y-100344750D01*
X135999354Y-100414055D01*
X135909047Y-100530614D01*
X135875444Y-100693376D01*
X135900646Y-100822536D01*
X135967851Y-100943296D01*
X136062359Y-101056704D01*
X136169467Y-101161712D01*
X136232472Y-101221567D01*
X136299677Y-101292973D01*
X136353231Y-101367528D01*
X136375283Y-101436834D01*
X135816640Y-101436834D01*
X135611089Y-101436834D01*
X135600323Y-101390630D01*
X135475363Y-101434733D01*
X135391095Y-101452060D01*
X135291599Y-101457835D01*
X135178978Y-101443659D01*
X135105735Y-101401131D01*
X135052181Y-101260420D01*
X135072658Y-101173001D01*
X135134087Y-101116559D01*
X135227019Y-101085844D01*
X135342003Y-101075606D01*
X135421809Y-101075606D01*
X135421809Y-100861389D01*
X135325202Y-100861389D01*
X135245396Y-100852989D01*
X135173990Y-100825687D01*
X135122536Y-100775283D01*
X135102585Y-100695477D01*
X135145638Y-100583118D01*
X135264297Y-100542165D01*
X135410258Y-100566317D01*
X135535218Y-100626171D01*
X135627625Y-100437157D01*
X135477464Y-100360501D01*
X135377968Y-100331361D01*
X135266397Y-100321648D01*
X135164277Y-100328473D01*
X135076333Y-100348950D01*
X134942973Y-100425606D01*
X134865267Y-100542165D01*
X134840065Y-100687076D01*
X134884168Y-100836187D01*
X135001777Y-100945396D01*
X134912258Y-100997375D01*
X134845315Y-101069305D01*
X134803574Y-101159087D01*
X134789661Y-101264620D01*
X134016732Y-101264620D01*
X134352127Y-100146634D01*
X134789661Y-100146634D01*
X146210339Y-100146634D01*
X146647873Y-100146634D01*
X147159892Y-100146634D01*
X146647873Y-101853366D01*
G37*
%TO.C,kibuzzard-68E9848D*%
G36*
X140671680Y-60062116D02*
G01*
X140713683Y-60067367D01*
X140713683Y-60457997D01*
X140656979Y-60457997D01*
X140543045Y-60445133D01*
X140465864Y-60406543D01*
X140407060Y-60260582D01*
X140422811Y-60171325D01*
X140470065Y-60109370D01*
X140543045Y-60073142D01*
X140635977Y-60061066D01*
X140671680Y-60062116D01*
G37*
G36*
X135399225Y-60062116D02*
G01*
X135463279Y-60067367D01*
X135463279Y-60487399D01*
X135358271Y-60487399D01*
X135249588Y-60475061D01*
X135171357Y-60438045D01*
X135124103Y-60371103D01*
X135108352Y-60268982D01*
X135123841Y-60172112D01*
X135170307Y-60108320D01*
X135242500Y-60072880D01*
X135335170Y-60061066D01*
X135399225Y-60062116D01*
G37*
G36*
X149050275Y-60062116D02*
G01*
X149114330Y-60067367D01*
X149114330Y-60487399D01*
X149009321Y-60487399D01*
X148900638Y-60475061D01*
X148822407Y-60438045D01*
X148775153Y-60371103D01*
X148759402Y-60268982D01*
X148774891Y-60172112D01*
X148821357Y-60108320D01*
X148893550Y-60072880D01*
X148986220Y-60061066D01*
X149050275Y-60062116D01*
G37*
G36*
X138567318Y-60082068D02*
G01*
X138629273Y-60179725D01*
X138658675Y-60323586D01*
X138664188Y-60408643D01*
X138666026Y-60500000D01*
X138664188Y-60591620D01*
X138658675Y-60677464D01*
X138629273Y-60821325D01*
X138567318Y-60917932D01*
X138460210Y-60953635D01*
X138354152Y-60917932D01*
X138291147Y-60820275D01*
X138261745Y-60676414D01*
X138256232Y-60591357D01*
X138254394Y-60500000D01*
X138256232Y-60408380D01*
X138261745Y-60322536D01*
X138291147Y-60178675D01*
X138353102Y-60082068D01*
X138460210Y-60046365D01*
X138567318Y-60082068D01*
G37*
G36*
X139617399Y-60082068D02*
G01*
X139679354Y-60179725D01*
X139708756Y-60323586D01*
X139714269Y-60408643D01*
X139716107Y-60500000D01*
X139714269Y-60591620D01*
X139708756Y-60677464D01*
X139679354Y-60821325D01*
X139617399Y-60917932D01*
X139510291Y-60953635D01*
X139404233Y-60917932D01*
X139341228Y-60820275D01*
X139311826Y-60676414D01*
X139306313Y-60591357D01*
X139304475Y-60500000D01*
X139306313Y-60408380D01*
X139311826Y-60322536D01*
X139341228Y-60178675D01*
X139403183Y-60082068D01*
X139510291Y-60046365D01*
X139617399Y-60082068D01*
G37*
G36*
X131202577Y-60071305D02*
G01*
X131271357Y-60158724D01*
X131302859Y-60248214D01*
X131321761Y-60361273D01*
X131328061Y-60497900D01*
X131321761Y-60635694D01*
X131302859Y-60749453D01*
X131271357Y-60839176D01*
X131202577Y-60926595D01*
X131109645Y-60955735D01*
X131107544Y-60955086D01*
X131015400Y-60926595D01*
X130946882Y-60839176D01*
X130915963Y-60749453D01*
X130897412Y-60635694D01*
X130891228Y-60497900D01*
X130892179Y-60476898D01*
X130992036Y-60476898D01*
X131024588Y-60574556D01*
X131107544Y-60615509D01*
X131193651Y-60574556D01*
X131225153Y-60476898D01*
X131193651Y-60378191D01*
X131107544Y-60336187D01*
X131024588Y-60378191D01*
X130992036Y-60476898D01*
X130892179Y-60476898D01*
X130897412Y-60361273D01*
X130915963Y-60248214D01*
X130946882Y-60158724D01*
X131015400Y-60071305D01*
X131109645Y-60042165D01*
X131202577Y-60071305D01*
G37*
G36*
X132252658Y-60071305D02*
G01*
X132321438Y-60158724D01*
X132352940Y-60248214D01*
X132371842Y-60361273D01*
X132378142Y-60497900D01*
X132371842Y-60635694D01*
X132352940Y-60749453D01*
X132321438Y-60839176D01*
X132252658Y-60926595D01*
X132159725Y-60955735D01*
X132157625Y-60955086D01*
X132065481Y-60926595D01*
X131996963Y-60839176D01*
X131966044Y-60749453D01*
X131947492Y-60635694D01*
X131941309Y-60497900D01*
X131942259Y-60476898D01*
X132042116Y-60476898D01*
X132074669Y-60574556D01*
X132157625Y-60615509D01*
X132243732Y-60574556D01*
X132275234Y-60476898D01*
X132243732Y-60378191D01*
X132157625Y-60336187D01*
X132074669Y-60378191D01*
X132042116Y-60476898D01*
X131942259Y-60476898D01*
X131947492Y-60361273D01*
X131966044Y-60248214D01*
X131996963Y-60158724D01*
X132065481Y-60071305D01*
X132159725Y-60042165D01*
X132252658Y-60071305D01*
G37*
G36*
X151891443Y-61353366D02*
G01*
X151453910Y-61353366D01*
X150048901Y-61353366D01*
X149114330Y-61353366D01*
X147988643Y-61353366D01*
X146415622Y-61353366D01*
X145523053Y-61353366D01*
X144664087Y-61353366D01*
X143788320Y-61353366D01*
X142372811Y-61353366D01*
X141207221Y-61353366D01*
X140058433Y-61353366D01*
X139508191Y-61353366D01*
X138458110Y-61353366D01*
X136933393Y-61353366D01*
X135463279Y-61353366D01*
X134129677Y-61353366D01*
X132770872Y-61353366D01*
X132159725Y-61353366D01*
X131109645Y-61353366D01*
X130658110Y-61353366D01*
X130220576Y-61353366D01*
X129708557Y-61353366D01*
X129965196Y-60497900D01*
X130658110Y-60497900D01*
X130665329Y-60659087D01*
X130686987Y-60798223D01*
X130723084Y-60915307D01*
X130773619Y-61010339D01*
X130862292Y-61103680D01*
X130974301Y-61159684D01*
X131109645Y-61178352D01*
X131244988Y-61159684D01*
X131356997Y-61103680D01*
X131445670Y-61010339D01*
X131496206Y-60915307D01*
X131532302Y-60798223D01*
X131553960Y-60659087D01*
X131561179Y-60497900D01*
X131708191Y-60497900D01*
X131715410Y-60659087D01*
X131737068Y-60798223D01*
X131773164Y-60915307D01*
X131823700Y-61010339D01*
X131912373Y-61103680D01*
X132024382Y-61159684D01*
X132159725Y-61178352D01*
X132295069Y-61159684D01*
X132407078Y-61103680D01*
X132495751Y-61010339D01*
X132534839Y-60936834D01*
X132770872Y-60936834D01*
X132770872Y-61151050D01*
X133560533Y-61151050D01*
X133560533Y-60936834D01*
X133287512Y-60936834D01*
X133287512Y-60210178D01*
X133421922Y-60284733D01*
X133550032Y-60336187D01*
X133634039Y-60121971D01*
X133524830Y-60073667D01*
X133509656Y-60065267D01*
X133787351Y-60065267D01*
X134129677Y-60065267D01*
X134129677Y-61151050D01*
X134390097Y-61151050D01*
X134390097Y-60271082D01*
X134843732Y-60271082D01*
X134859016Y-60412143D01*
X134904870Y-60524502D01*
X134981292Y-60608158D01*
X135085717Y-60665913D01*
X135215577Y-60700565D01*
X135370872Y-60712116D01*
X135463279Y-60712116D01*
X135463279Y-61151050D01*
X135721599Y-61151050D01*
X136933393Y-61151050D01*
X137170711Y-61151050D01*
X137158110Y-60140872D01*
X137317722Y-60691115D01*
X137506737Y-60691115D01*
X137660048Y-60140872D01*
X137649548Y-61151050D01*
X137886866Y-61151050D01*
X137880303Y-60988288D01*
X137873215Y-60819225D01*
X137865602Y-60647536D01*
X137858566Y-60500000D01*
X137991874Y-60500000D01*
X137999487Y-60657709D01*
X138022326Y-60794810D01*
X138060392Y-60911304D01*
X138113683Y-61007189D01*
X138206090Y-61102280D01*
X138320899Y-61159334D01*
X138458110Y-61178352D01*
X138598704Y-61159334D01*
X138715263Y-61102280D01*
X138807787Y-61007189D01*
X138860619Y-60911304D01*
X138898356Y-60794810D01*
X138920999Y-60657709D01*
X138928546Y-60500000D01*
X139041955Y-60500000D01*
X139049568Y-60657709D01*
X139072407Y-60794810D01*
X139110473Y-60911304D01*
X139163764Y-61007189D01*
X139256171Y-61102280D01*
X139370980Y-61159334D01*
X139508191Y-61178352D01*
X139648785Y-61159334D01*
X139665709Y-61151050D01*
X140058433Y-61151050D01*
X140329354Y-61151050D01*
X140381595Y-61027403D01*
X140441712Y-60908481D01*
X140508130Y-60791135D01*
X140579273Y-60672213D01*
X140713683Y-60672213D01*
X140713683Y-61151050D01*
X140972003Y-61151050D01*
X140972003Y-59869952D01*
X140889047Y-59854200D01*
X140861640Y-59851050D01*
X141133716Y-59851050D01*
X141140016Y-60013025D01*
X141146317Y-60179725D01*
X141153142Y-60348263D01*
X141161018Y-60515751D01*
X141170206Y-60681401D01*
X141180969Y-60844426D01*
X141193308Y-61001939D01*
X141207221Y-61151050D01*
X141421438Y-61151050D01*
X141467641Y-61013752D01*
X141513845Y-60866478D01*
X141560048Y-60717629D01*
X141606252Y-60575606D01*
X141653506Y-60713691D01*
X141702859Y-60863328D01*
X141751163Y-61012964D01*
X141795267Y-61151050D01*
X142009483Y-61151050D01*
X142025234Y-61001676D01*
X142038885Y-60843376D01*
X142044565Y-60764620D01*
X143288481Y-60764620D01*
X143317884Y-60930533D01*
X143408191Y-61061793D01*
X143477496Y-61111147D01*
X143563603Y-61147900D01*
X143667036Y-61170739D01*
X143788320Y-61178352D01*
X143890178Y-61171002D01*
X143993086Y-61153150D01*
X144084443Y-61130048D01*
X144149548Y-61106947D01*
X144145144Y-61088045D01*
X144300759Y-61088045D01*
X144448821Y-61150000D01*
X144549366Y-61171264D01*
X144664087Y-61178352D01*
X144833034Y-61158751D01*
X144973044Y-61099946D01*
X145084120Y-61001939D01*
X145126442Y-60936834D01*
X146415622Y-60936834D01*
X146415622Y-61151050D01*
X147264087Y-61151050D01*
X147269338Y-61098546D01*
X147268288Y-61054443D01*
X147258574Y-60953635D01*
X147229435Y-60861228D01*
X147185331Y-60776434D01*
X147177057Y-60764620D01*
X147488805Y-60764620D01*
X147518207Y-60930533D01*
X147608514Y-61061793D01*
X147677819Y-61111147D01*
X147763926Y-61147900D01*
X147867359Y-61170739D01*
X147988643Y-61178352D01*
X148090501Y-61171002D01*
X148193409Y-61153150D01*
X148284766Y-61130048D01*
X148349871Y-61106947D01*
X148299467Y-60890630D01*
X148174507Y-60934733D01*
X148090238Y-60952060D01*
X147990743Y-60957835D01*
X147878122Y-60943659D01*
X147804879Y-60901131D01*
X147751325Y-60760420D01*
X147771801Y-60673001D01*
X147833231Y-60616559D01*
X147926163Y-60585844D01*
X148041147Y-60575606D01*
X148120953Y-60575606D01*
X148120953Y-60361389D01*
X148024346Y-60361389D01*
X147944540Y-60352989D01*
X147873134Y-60325687D01*
X147821680Y-60275283D01*
X147820630Y-60271082D01*
X148494782Y-60271082D01*
X148510066Y-60412143D01*
X148555920Y-60524502D01*
X148632342Y-60608158D01*
X148736767Y-60665913D01*
X148866627Y-60700565D01*
X149021922Y-60712116D01*
X149114330Y-60712116D01*
X149114330Y-61151050D01*
X149372649Y-61151050D01*
X149372649Y-60796123D01*
X149570065Y-60796123D01*
X149599729Y-60958098D01*
X149688724Y-61078595D01*
X149781481Y-61134015D01*
X149901540Y-61167268D01*
X150048901Y-61178352D01*
X150194338Y-61169689D01*
X150307221Y-61143700D01*
X150452132Y-61079645D01*
X150400721Y-60936834D01*
X150620145Y-60936834D01*
X150620145Y-61151050D01*
X151453910Y-61151050D01*
X151453910Y-59851050D01*
X150666349Y-59851050D01*
X150666349Y-60065267D01*
X151195590Y-60065267D01*
X151195590Y-60357189D01*
X150735654Y-60357189D01*
X150735654Y-60571405D01*
X151195590Y-60571405D01*
X151195590Y-60936834D01*
X150620145Y-60936834D01*
X150400721Y-60936834D01*
X150376527Y-60869628D01*
X150241066Y-60932633D01*
X150153647Y-60954685D01*
X150048901Y-60962036D01*
X149940743Y-60948384D01*
X149872488Y-60910582D01*
X149837835Y-60855977D01*
X149828384Y-60794023D01*
X149851486Y-60722617D01*
X149910291Y-60666963D01*
X149990097Y-60622859D01*
X150078304Y-60586107D01*
X150200113Y-60537803D01*
X150314572Y-60468498D01*
X150399628Y-60364540D01*
X150433231Y-60210178D01*
X150403566Y-60047415D01*
X150314572Y-59924556D01*
X150225548Y-59867385D01*
X150116690Y-59833082D01*
X149987997Y-59821648D01*
X149875901Y-59828473D01*
X149779031Y-59848950D01*
X149628869Y-59909855D01*
X149704475Y-60109370D01*
X149821034Y-60058966D01*
X149969095Y-60037964D01*
X150083437Y-60054532D01*
X150152043Y-60104236D01*
X150174911Y-60187076D01*
X150153910Y-60253231D01*
X150100355Y-60303635D01*
X150026850Y-60342488D01*
X149945994Y-60373990D01*
X149818934Y-60425444D01*
X149697124Y-60501050D01*
X149605767Y-60618659D01*
X149578990Y-60698203D01*
X149570065Y-60796123D01*
X149372649Y-60796123D01*
X149372649Y-59867851D01*
X149287593Y-59853150D01*
X149192036Y-59843700D01*
X149097528Y-59838449D01*
X149015622Y-59836349D01*
X148862777Y-59847666D01*
X148734667Y-59881619D01*
X148631292Y-59938207D01*
X148555453Y-60020463D01*
X148509950Y-60131422D01*
X148494782Y-60271082D01*
X147820630Y-60271082D01*
X147801729Y-60195477D01*
X147844782Y-60083118D01*
X147963441Y-60042165D01*
X148109402Y-60066317D01*
X148234362Y-60126171D01*
X148326769Y-59937157D01*
X148176607Y-59860501D01*
X148077112Y-59831361D01*
X147965541Y-59821648D01*
X147863421Y-59828473D01*
X147775477Y-59848950D01*
X147642116Y-59925606D01*
X147564410Y-60042165D01*
X147539208Y-60187076D01*
X147583312Y-60336187D01*
X147700921Y-60445396D01*
X147611401Y-60497375D01*
X147544459Y-60569305D01*
X147502718Y-60659087D01*
X147488805Y-60764620D01*
X147177057Y-60764620D01*
X147130727Y-60698465D01*
X147068772Y-60626535D01*
X147002617Y-60559855D01*
X146936462Y-60497112D01*
X146874507Y-60436995D01*
X146775800Y-60323586D01*
X146736947Y-60212278D01*
X146785250Y-60089418D01*
X146907060Y-60046365D01*
X147035170Y-60075767D01*
X147167480Y-60174475D01*
X147295590Y-59993861D01*
X147205020Y-59917205D01*
X147101325Y-59863651D01*
X146991329Y-59832149D01*
X146881858Y-59821648D01*
X146728546Y-59844750D01*
X146598336Y-59914055D01*
X146508029Y-60030614D01*
X146474426Y-60193376D01*
X146499628Y-60322536D01*
X146566834Y-60443296D01*
X146661341Y-60556704D01*
X146768449Y-60661712D01*
X146831454Y-60721567D01*
X146898659Y-60792973D01*
X146952213Y-60867528D01*
X146974265Y-60936834D01*
X146415622Y-60936834D01*
X145126442Y-60936834D01*
X145147518Y-60904412D01*
X145192803Y-60788247D01*
X145202645Y-60739418D01*
X145523053Y-60739418D01*
X146098498Y-60739418D01*
X146098498Y-60485299D01*
X145523053Y-60485299D01*
X145523053Y-60739418D01*
X145202645Y-60739418D01*
X145219974Y-60653443D01*
X145229031Y-60500000D01*
X145218005Y-60347213D01*
X145184927Y-60212278D01*
X145132161Y-60095981D01*
X145062068Y-59999111D01*
X144975961Y-59922456D01*
X144875153Y-59866801D01*
X144762007Y-59832936D01*
X144638885Y-59821648D01*
X144513926Y-59833199D01*
X144416268Y-59859451D01*
X144345913Y-59890953D01*
X144302859Y-59916155D01*
X144370065Y-60121971D01*
X144486624Y-60068417D01*
X144643086Y-60046365D01*
X144761745Y-60068417D01*
X144864653Y-60141922D01*
X144938158Y-60279483D01*
X144959422Y-60376090D01*
X144966511Y-60493700D01*
X144957993Y-60630560D01*
X144932441Y-60744319D01*
X144889855Y-60834976D01*
X144788784Y-60923970D01*
X144638885Y-60953635D01*
X144471922Y-60930533D01*
X144365864Y-60884330D01*
X144300759Y-61088045D01*
X144145144Y-61088045D01*
X144099144Y-60890630D01*
X143974184Y-60934733D01*
X143889915Y-60952060D01*
X143790420Y-60957835D01*
X143677799Y-60943659D01*
X143604556Y-60901131D01*
X143551002Y-60760420D01*
X143571478Y-60673001D01*
X143632908Y-60616559D01*
X143725840Y-60585844D01*
X143840824Y-60575606D01*
X143920630Y-60575606D01*
X143920630Y-60361389D01*
X143824023Y-60361389D01*
X143744216Y-60352989D01*
X143672811Y-60325687D01*
X143621357Y-60275283D01*
X143601405Y-60195477D01*
X143644459Y-60083118D01*
X143763118Y-60042165D01*
X143909079Y-60066317D01*
X144034039Y-60126171D01*
X144126446Y-59937157D01*
X143976284Y-59860501D01*
X143876789Y-59831361D01*
X143765218Y-59821648D01*
X143663098Y-59828473D01*
X143575153Y-59848950D01*
X143441793Y-59925606D01*
X143364087Y-60042165D01*
X143338885Y-60187076D01*
X143382989Y-60336187D01*
X143500598Y-60445396D01*
X143411078Y-60497375D01*
X143344136Y-60569305D01*
X143302395Y-60659087D01*
X143288481Y-60764620D01*
X142044565Y-60764620D01*
X142046382Y-60739418D01*
X142372811Y-60739418D01*
X142948255Y-60739418D01*
X142948255Y-60485299D01*
X142372811Y-60485299D01*
X142372811Y-60739418D01*
X142046382Y-60739418D01*
X142050699Y-60679564D01*
X142060937Y-60513651D01*
X142069600Y-60346163D01*
X142076688Y-60177625D01*
X142082464Y-60011450D01*
X142087189Y-59851050D01*
X141847771Y-59851050D01*
X141849871Y-59977060D01*
X141851971Y-60107270D01*
X141854071Y-60239317D01*
X141856171Y-60370840D01*
X141858271Y-60500525D01*
X141860372Y-60627060D01*
X141861947Y-60748082D01*
X141862472Y-60861228D01*
X141819418Y-60714216D01*
X141773215Y-60556704D01*
X141732262Y-60413893D01*
X141702859Y-60310985D01*
X141513845Y-60310985D01*
X141488643Y-60409693D01*
X141451890Y-60539903D01*
X141407787Y-60693215D01*
X141360533Y-60861228D01*
X141361058Y-60748082D01*
X141362633Y-60627060D01*
X141364733Y-60500788D01*
X141366834Y-60371890D01*
X141368934Y-60240893D01*
X141371034Y-60108320D01*
X141372609Y-59977322D01*
X141373134Y-59851050D01*
X141133716Y-59851050D01*
X140861640Y-59851050D01*
X140797690Y-59843700D01*
X140709483Y-59838449D01*
X140635977Y-59836349D01*
X140529919Y-59842649D01*
X140434362Y-59861551D01*
X140350355Y-59893578D01*
X140278950Y-59939257D01*
X140179192Y-60072617D01*
X140153203Y-60160561D01*
X140144540Y-60262682D01*
X140156090Y-60370840D01*
X140190743Y-60468498D01*
X140252173Y-60549879D01*
X140344055Y-60609208D01*
X140268449Y-60729968D01*
X140190743Y-60868578D01*
X140118288Y-61013489D01*
X140058433Y-61151050D01*
X139665709Y-61151050D01*
X139765344Y-61102280D01*
X139857868Y-61007189D01*
X139910700Y-60911304D01*
X139948437Y-60794810D01*
X139971079Y-60657709D01*
X139978627Y-60500000D01*
X139970882Y-60342291D01*
X139947649Y-60205190D01*
X139908928Y-60088696D01*
X139854717Y-59992811D01*
X139761377Y-59897720D01*
X139646568Y-59840666D01*
X139510291Y-59821648D01*
X139369813Y-59840666D01*
X139253604Y-59897720D01*
X139161664Y-59992811D01*
X139109291Y-60088696D01*
X139071882Y-60205190D01*
X139049437Y-60342291D01*
X139041955Y-60500000D01*
X138928546Y-60500000D01*
X138920802Y-60342291D01*
X138897569Y-60205190D01*
X138858847Y-60088696D01*
X138804637Y-59992811D01*
X138711296Y-59897720D01*
X138596487Y-59840666D01*
X138460210Y-59821648D01*
X138319733Y-59840666D01*
X138203524Y-59897720D01*
X138111583Y-59992811D01*
X138059210Y-60088696D01*
X138021801Y-60205190D01*
X137999356Y-60342291D01*
X137991874Y-60500000D01*
X137858566Y-60500000D01*
X137857464Y-60476898D01*
X137848275Y-60309410D01*
X137837512Y-60147173D01*
X137825174Y-59993336D01*
X137811260Y-59851050D01*
X137597044Y-59851050D01*
X137560291Y-59964459D01*
X137513037Y-60113570D01*
X137462633Y-60275283D01*
X137414330Y-60426494D01*
X137361826Y-60265832D01*
X137309321Y-60106220D01*
X137263118Y-59962359D01*
X137225315Y-59851050D01*
X137011099Y-59851050D01*
X136996660Y-60019063D01*
X136982746Y-60182876D01*
X136970145Y-60343800D01*
X136959645Y-60503150D01*
X136950981Y-60662237D01*
X136943893Y-60822375D01*
X136938118Y-60984875D01*
X136933393Y-61151050D01*
X135721599Y-61151050D01*
X135721599Y-59867851D01*
X135636543Y-59853150D01*
X135540985Y-59843700D01*
X135446478Y-59838449D01*
X135364572Y-59836349D01*
X135211727Y-59847666D01*
X135083617Y-59881619D01*
X134980242Y-59938207D01*
X134904403Y-60020463D01*
X134858900Y-60131422D01*
X134843732Y-60271082D01*
X134390097Y-60271082D01*
X134390097Y-60065267D01*
X134732423Y-60065267D01*
X134732423Y-59851050D01*
X133787351Y-59851050D01*
X133787351Y-60065267D01*
X133509656Y-60065267D01*
X133407221Y-60008562D01*
X133295913Y-59932956D01*
X133205606Y-59851050D01*
X133029192Y-59851050D01*
X133029192Y-60936834D01*
X132770872Y-60936834D01*
X132534839Y-60936834D01*
X132546286Y-60915307D01*
X132582383Y-60798223D01*
X132604041Y-60659087D01*
X132611260Y-60497900D01*
X132603910Y-60338550D01*
X132581858Y-60200727D01*
X132545105Y-60084431D01*
X132493651Y-59989661D01*
X132404278Y-59896320D01*
X132292969Y-59840316D01*
X132159725Y-59821648D01*
X132024382Y-59840199D01*
X131912373Y-59895854D01*
X131823700Y-59988611D01*
X131773164Y-60083052D01*
X131737068Y-60199414D01*
X131715410Y-60337697D01*
X131708191Y-60497900D01*
X131561179Y-60497900D01*
X131553829Y-60338550D01*
X131531777Y-60200727D01*
X131495024Y-60084431D01*
X131443570Y-59989661D01*
X131354197Y-59896320D01*
X131242888Y-59840316D01*
X131109645Y-59821648D01*
X130974301Y-59840199D01*
X130862292Y-59895854D01*
X130773619Y-59988611D01*
X130723084Y-60083052D01*
X130686987Y-60199414D01*
X130665329Y-60337697D01*
X130658110Y-60497900D01*
X129965196Y-60497900D01*
X130220576Y-59646634D01*
X130658110Y-59646634D01*
X151453910Y-59646634D01*
X151891443Y-59646634D01*
X151891443Y-61353366D01*
G37*
%TO.C,G\u002A\u002A\u002A*%
G36*
X128795830Y-65449725D02*
G01*
X128797681Y-65457744D01*
X128795704Y-65459359D01*
X128779696Y-65457744D01*
X128777585Y-65453687D01*
X128788688Y-65448752D01*
X128795830Y-65449725D01*
G37*
G36*
X129996361Y-65719507D02*
G01*
X129998212Y-65727527D01*
X129996235Y-65729141D01*
X129980227Y-65727527D01*
X129978116Y-65723469D01*
X129989219Y-65718534D01*
X129996361Y-65719507D01*
G37*
G36*
X130095048Y-66101685D02*
G01*
X130097794Y-66103478D01*
X130110217Y-66116806D01*
X130104673Y-66123207D01*
X130101639Y-66122001D01*
X130089100Y-66107634D01*
X130085818Y-66100096D01*
X130095048Y-66101685D01*
G37*
G36*
X129412043Y-64591934D02*
G01*
X129557568Y-64597784D01*
X129637417Y-64601638D01*
X129738060Y-64607006D01*
X129831996Y-64612555D01*
X129901129Y-64617107D01*
X129914163Y-64617965D01*
X129979500Y-64622919D01*
X130022942Y-64627097D01*
X130062862Y-64632474D01*
X130190749Y-64659053D01*
X130314668Y-64700706D01*
X130440967Y-64759866D01*
X130575996Y-64838965D01*
X130605204Y-64855919D01*
X130646399Y-64874625D01*
X130695606Y-64890944D01*
X130756605Y-64905766D01*
X130833171Y-64919979D01*
X130929082Y-64934474D01*
X131048115Y-64950139D01*
X131079130Y-64954167D01*
X131183757Y-64969146D01*
X131298773Y-64987257D01*
X131412248Y-65006572D01*
X131512253Y-65025162D01*
X131561382Y-65035102D01*
X131673149Y-65060411D01*
X131774464Y-65088303D01*
X131869870Y-65120765D01*
X131963910Y-65159784D01*
X132061127Y-65207350D01*
X132166062Y-65265449D01*
X132283259Y-65336069D01*
X132417260Y-65421199D01*
X132426007Y-65426861D01*
X132494114Y-65471077D01*
X132547953Y-65504724D01*
X132592673Y-65528902D01*
X132633421Y-65544713D01*
X132675348Y-65553257D01*
X132723601Y-65555635D01*
X132783328Y-65552947D01*
X132859680Y-65546296D01*
X132957803Y-65536781D01*
X133176780Y-65516242D01*
X133431499Y-65493147D01*
X133695839Y-65469921D01*
X133962513Y-65447184D01*
X134224233Y-65425556D01*
X134473712Y-65405659D01*
X134703665Y-65388111D01*
X134773702Y-65382817D01*
X134882575Y-65374355D01*
X135005207Y-65364621D01*
X135134195Y-65354209D01*
X135262142Y-65343713D01*
X135381644Y-65333727D01*
X135409765Y-65331353D01*
X135508464Y-65323069D01*
X135597641Y-65315655D01*
X135673824Y-65309394D01*
X135733541Y-65304571D01*
X135773320Y-65301468D01*
X135789690Y-65300371D01*
X135791886Y-65312776D01*
X135793970Y-65351864D01*
X135795845Y-65417371D01*
X135797509Y-65509013D01*
X135798958Y-65626505D01*
X135800191Y-65769562D01*
X135801206Y-65937900D01*
X135801999Y-66131234D01*
X135802569Y-66349279D01*
X135802912Y-66591750D01*
X135803027Y-66858364D01*
X135803027Y-68416356D01*
X135771682Y-68416356D01*
X135767580Y-68416221D01*
X135737248Y-68413896D01*
X135682668Y-68408850D01*
X135605807Y-68401288D01*
X135508634Y-68391414D01*
X135393117Y-68379435D01*
X135261223Y-68365555D01*
X135114920Y-68349980D01*
X134956177Y-68332914D01*
X134786961Y-68314564D01*
X134609241Y-68295134D01*
X134552453Y-68288946D01*
X134484297Y-68281653D01*
X134413566Y-68274249D01*
X134338238Y-68266541D01*
X134256286Y-68258335D01*
X134165687Y-68249436D01*
X134064416Y-68239651D01*
X133950448Y-68228785D01*
X133821760Y-68216644D01*
X133676326Y-68203035D01*
X133512122Y-68187763D01*
X133327124Y-68170634D01*
X133119307Y-68151455D01*
X132886647Y-68130031D01*
X132864752Y-68128044D01*
X132796593Y-68122593D01*
X132746933Y-68120571D01*
X132709214Y-68122164D01*
X132676875Y-68127560D01*
X132643360Y-68136943D01*
X132607322Y-68151227D01*
X132545565Y-68181730D01*
X132466965Y-68224883D01*
X132374247Y-68278899D01*
X132270142Y-68341995D01*
X132157377Y-68412384D01*
X132038680Y-68488282D01*
X131916780Y-68567902D01*
X131794404Y-68649461D01*
X131674280Y-68731172D01*
X131559138Y-68811251D01*
X131451704Y-68887912D01*
X131354707Y-68959369D01*
X131270875Y-69023839D01*
X131202936Y-69079534D01*
X131167220Y-69109670D01*
X131101874Y-69163130D01*
X131025822Y-69223848D01*
X130942244Y-69289415D01*
X130854319Y-69357424D01*
X130765227Y-69425467D01*
X130678148Y-69491135D01*
X130596261Y-69552020D01*
X130522746Y-69605715D01*
X130460783Y-69649811D01*
X130413550Y-69681900D01*
X130384229Y-69699573D01*
X130345035Y-69718432D01*
X130311658Y-69730812D01*
X130278174Y-69736728D01*
X130235649Y-69737707D01*
X130175148Y-69735273D01*
X130108174Y-69729661D01*
X130035985Y-69718183D01*
X129953882Y-69699496D01*
X129854328Y-69672117D01*
X129824235Y-69663535D01*
X129750555Y-69643276D01*
X129658221Y-69618579D01*
X129552150Y-69590731D01*
X129437258Y-69561018D01*
X129318462Y-69530726D01*
X129200678Y-69501140D01*
X129120908Y-69481203D01*
X129011765Y-69453709D01*
X128909604Y-69427733D01*
X128818268Y-69404263D01*
X128741597Y-69384290D01*
X128683436Y-69368802D01*
X128647625Y-69358787D01*
X128629449Y-69353241D01*
X128502765Y-69304813D01*
X128399703Y-69245398D01*
X128318666Y-69173262D01*
X128258061Y-69086669D01*
X128216292Y-68983887D01*
X128191763Y-68863181D01*
X128176171Y-68739652D01*
X128121596Y-68724869D01*
X128111395Y-68722254D01*
X128071979Y-68712869D01*
X128012920Y-68699320D01*
X127938841Y-68682650D01*
X127854363Y-68663904D01*
X127764108Y-68644126D01*
X127664174Y-68621712D01*
X127546688Y-68592580D01*
X127450608Y-68564145D01*
X127372835Y-68534747D01*
X127310271Y-68502724D01*
X127259816Y-68466419D01*
X127218373Y-68424169D01*
X127182843Y-68374317D01*
X127150127Y-68315200D01*
X127144955Y-68304764D01*
X127126716Y-68262669D01*
X127115304Y-68221769D01*
X127110830Y-68188592D01*
X127262626Y-68188592D01*
X127337118Y-68279643D01*
X127349472Y-68294442D01*
X127386969Y-68336074D01*
X127419994Y-68368330D01*
X127442555Y-68385210D01*
X127469111Y-68395657D01*
X127519543Y-68412442D01*
X127585070Y-68432470D01*
X127659694Y-68454016D01*
X127737417Y-68475353D01*
X127812242Y-68494759D01*
X127878173Y-68510506D01*
X127897658Y-68514952D01*
X127961213Y-68530321D01*
X128019552Y-68545576D01*
X128062087Y-68557983D01*
X128105589Y-68569860D01*
X128150679Y-68577128D01*
X128183119Y-68576707D01*
X128196459Y-68568109D01*
X128196991Y-68562637D01*
X128198499Y-68529304D01*
X128199550Y-68478523D01*
X128200100Y-68417636D01*
X128200107Y-68353983D01*
X128199528Y-68294905D01*
X128198321Y-68247743D01*
X128196547Y-68211694D01*
X128192043Y-68144541D01*
X128185940Y-68069947D01*
X128178755Y-67992818D01*
X128171007Y-67918061D01*
X128163215Y-67850582D01*
X128155897Y-67795286D01*
X128149572Y-67757081D01*
X128144757Y-67740870D01*
X128131198Y-67734029D01*
X128097968Y-67721979D01*
X128053938Y-67708432D01*
X128018611Y-67697431D01*
X127964090Y-67677603D01*
X127921009Y-67658733D01*
X127905010Y-67651129D01*
X127882797Y-67643713D01*
X127878452Y-67647929D01*
X127878680Y-67648306D01*
X127876491Y-67656861D01*
X127857102Y-67654619D01*
X127827006Y-67643334D01*
X127792696Y-67624761D01*
X127769238Y-67613073D01*
X127754120Y-67611909D01*
X127751101Y-67612831D01*
X127730132Y-67607520D01*
X127698162Y-67592753D01*
X127653547Y-67575919D01*
X127594924Y-67567486D01*
X127539096Y-67571317D01*
X127496542Y-67587676D01*
X127471837Y-67603881D01*
X127436051Y-67624771D01*
X127408262Y-67644126D01*
X127367895Y-67682348D01*
X127327985Y-67728420D01*
X127295465Y-67774187D01*
X127277269Y-67811496D01*
X127272351Y-67840579D01*
X127267969Y-67890683D01*
X127264853Y-67953744D01*
X127263474Y-68022575D01*
X127262626Y-68188592D01*
X127110830Y-68188592D01*
X127108684Y-68172678D01*
X127104825Y-68106005D01*
X127105464Y-68019038D01*
X127126431Y-67875316D01*
X127172416Y-67741496D01*
X127243195Y-67618148D01*
X127338548Y-67505841D01*
X127362596Y-67482364D01*
X127406790Y-67440913D01*
X127444600Y-67407500D01*
X127469780Y-67387745D01*
X127505729Y-67364073D01*
X127483796Y-67293321D01*
X127482765Y-67289907D01*
X127469408Y-67221277D01*
X127465442Y-67167924D01*
X127607862Y-67167924D01*
X127611253Y-67222527D01*
X127618550Y-67260093D01*
X127619960Y-67263839D01*
X127639602Y-67299417D01*
X127670537Y-67341411D01*
X127707474Y-67384075D01*
X127745121Y-67421664D01*
X127778188Y-67448430D01*
X127801382Y-67458629D01*
X127809826Y-67459643D01*
X127842680Y-67467441D01*
X127890333Y-67481263D01*
X127945619Y-67499097D01*
X127972894Y-67508112D01*
X128025248Y-67524247D01*
X128066431Y-67535400D01*
X128089310Y-67539564D01*
X128100601Y-67536682D01*
X128121136Y-67520753D01*
X128134976Y-67499544D01*
X128134173Y-67483066D01*
X128133399Y-67482185D01*
X128126463Y-67463351D01*
X128121834Y-67433355D01*
X128120960Y-67417581D01*
X128316569Y-67417581D01*
X128316818Y-67418535D01*
X128331510Y-67429788D01*
X128364390Y-67446562D01*
X128409180Y-67465602D01*
X128424848Y-67471861D01*
X128493555Y-67503625D01*
X128540820Y-67535451D01*
X128571019Y-67570955D01*
X128588530Y-67613754D01*
X128594378Y-67642753D01*
X128602090Y-67701407D01*
X128609134Y-67776345D01*
X128615147Y-67861389D01*
X128619766Y-67950359D01*
X128622631Y-68037075D01*
X128623379Y-68115358D01*
X128621648Y-68179028D01*
X128620325Y-68198323D01*
X128603944Y-68300347D01*
X128573143Y-68380188D01*
X128528132Y-68437564D01*
X128469117Y-68472196D01*
X128396305Y-68483802D01*
X128375114Y-68484396D01*
X128341199Y-68488384D01*
X128324798Y-68494890D01*
X128321946Y-68502748D01*
X128318049Y-68536517D01*
X128317131Y-68587735D01*
X128318852Y-68650007D01*
X128322874Y-68716937D01*
X128328856Y-68782131D01*
X128336459Y-68839194D01*
X128345342Y-68881731D01*
X128364681Y-68947995D01*
X128383026Y-69003043D01*
X128400200Y-69041145D01*
X128419043Y-69067220D01*
X128442393Y-69086183D01*
X128473090Y-69102950D01*
X128510057Y-69120758D01*
X128586690Y-69154870D01*
X128667286Y-69186183D01*
X128685984Y-69193332D01*
X128733340Y-69212670D01*
X128782156Y-69233787D01*
X128807831Y-69244829D01*
X128853008Y-69262420D01*
X128886824Y-69273359D01*
X128913819Y-69282820D01*
X128931248Y-69294643D01*
X128943540Y-69302261D01*
X128971771Y-69306638D01*
X128996016Y-69309053D01*
X129028303Y-69318936D01*
X129046257Y-69325788D01*
X129085280Y-69336691D01*
X129132661Y-69347327D01*
X129169594Y-69355236D01*
X129212972Y-69366021D01*
X129240574Y-69374730D01*
X129245027Y-69376432D01*
X129279434Y-69385597D01*
X129321508Y-69392878D01*
X129335886Y-69394716D01*
X129430044Y-69407655D01*
X129505904Y-69419753D01*
X129560606Y-69430517D01*
X129591291Y-69439452D01*
X129598656Y-69442436D01*
X129636918Y-69454900D01*
X129688398Y-69469136D01*
X129742907Y-69482448D01*
X129790255Y-69492136D01*
X129815741Y-69499410D01*
X129827350Y-69508978D01*
X129838904Y-69516330D01*
X129870298Y-69526059D01*
X129914574Y-69535867D01*
X129958001Y-69545986D01*
X129996666Y-69559008D01*
X130017394Y-69571117D01*
X130026600Y-69577918D01*
X130063241Y-69586946D01*
X130125049Y-69589909D01*
X130142739Y-69589573D01*
X130235609Y-69574427D01*
X130316870Y-69535706D01*
X130389809Y-69471945D01*
X130408801Y-69452283D01*
X130431977Y-69435107D01*
X130443406Y-69439364D01*
X130443587Y-69439793D01*
X130452934Y-69445701D01*
X130466432Y-69426283D01*
X130488972Y-69398460D01*
X130522235Y-69374491D01*
X130524842Y-69373138D01*
X130552980Y-69356180D01*
X130567115Y-69343398D01*
X130567768Y-69342281D01*
X130584450Y-69329106D01*
X130614327Y-69312837D01*
X130650883Y-69294539D01*
X130728668Y-69250762D01*
X130814411Y-69197580D01*
X130902822Y-69138683D01*
X130988613Y-69077765D01*
X131066494Y-69018517D01*
X131131177Y-68964631D01*
X131177371Y-68919800D01*
X131180292Y-68916597D01*
X131209380Y-68886882D01*
X131248047Y-68849822D01*
X131291455Y-68809755D01*
X131334762Y-68771021D01*
X131373129Y-68737957D01*
X131401716Y-68714902D01*
X131415683Y-68706193D01*
X131416064Y-68706156D01*
X131432306Y-68697682D01*
X131463238Y-68677263D01*
X131502511Y-68649076D01*
X131543494Y-68620909D01*
X131601777Y-68585771D01*
X131653837Y-68559134D01*
X131673399Y-68549547D01*
X131724338Y-68519954D01*
X131782404Y-68481787D01*
X131838468Y-68440893D01*
X131876448Y-68411851D01*
X131941325Y-68363752D01*
X132005186Y-68318032D01*
X132063944Y-68277487D01*
X132113512Y-68244915D01*
X132149804Y-68223111D01*
X132168732Y-68214873D01*
X132169784Y-68214740D01*
X132189221Y-68203692D01*
X132214583Y-68180659D01*
X132236406Y-68161921D01*
X132269454Y-68138912D01*
X132306576Y-68116073D01*
X132341212Y-68097207D01*
X132366804Y-68086117D01*
X132376793Y-68086606D01*
X132378665Y-68087708D01*
X132396598Y-68082360D01*
X132427377Y-68067843D01*
X132471319Y-68045224D01*
X132522939Y-68021330D01*
X132568013Y-68006072D01*
X132614919Y-67997475D01*
X132672036Y-67993565D01*
X132747743Y-67992368D01*
X132793682Y-67992363D01*
X132955948Y-67997210D01*
X133093750Y-68009742D01*
X133206373Y-68029902D01*
X133220505Y-68033053D01*
X133291705Y-68044674D01*
X133384136Y-68054681D01*
X133493230Y-68062646D01*
X133614419Y-68068141D01*
X133641789Y-68069742D01*
X133673061Y-68074036D01*
X133685236Y-68079471D01*
X133690934Y-68081763D01*
X133719050Y-68085730D01*
X133766651Y-68089972D01*
X133829241Y-68094109D01*
X133902320Y-68097761D01*
X133936744Y-68099407D01*
X134020754Y-68104709D01*
X134100920Y-68111381D01*
X134169534Y-68118734D01*
X134218888Y-68126077D01*
X134246162Y-68130590D01*
X134313636Y-68138545D01*
X134390137Y-68144527D01*
X134463806Y-68147500D01*
X134505765Y-68148593D01*
X134573554Y-68151863D01*
X134633089Y-68156439D01*
X134675007Y-68161693D01*
X134704677Y-68166081D01*
X134764662Y-68171938D01*
X134823388Y-68174771D01*
X134857852Y-68176477D01*
X134920190Y-68183688D01*
X134973447Y-68194344D01*
X135002473Y-68200433D01*
X135058507Y-68208346D01*
X135125987Y-68215044D01*
X135196017Y-68219521D01*
X135312574Y-68225621D01*
X135418491Y-68233601D01*
X135498670Y-68242836D01*
X135553757Y-68253389D01*
X135562690Y-68255415D01*
X135606887Y-68261093D01*
X135654926Y-68262662D01*
X135669463Y-68262212D01*
X135699806Y-68258615D01*
X135712788Y-68248450D01*
X135715683Y-68227509D01*
X135715698Y-68220919D01*
X135715667Y-68188999D01*
X135715565Y-68132997D01*
X135715398Y-68054786D01*
X135715169Y-67956239D01*
X135714883Y-67839231D01*
X135714546Y-67705636D01*
X135714162Y-67557326D01*
X135713735Y-67396175D01*
X135713270Y-67224058D01*
X135712772Y-67042847D01*
X135712245Y-66854417D01*
X135711982Y-66762823D01*
X135711327Y-66551736D01*
X135710652Y-66365424D01*
X135709927Y-66202315D01*
X135709125Y-66060834D01*
X135708214Y-65939407D01*
X135707166Y-65836461D01*
X135705953Y-65750422D01*
X135704543Y-65679716D01*
X135702910Y-65622769D01*
X135701022Y-65578008D01*
X135698851Y-65543858D01*
X135696368Y-65518746D01*
X135693544Y-65501098D01*
X135690348Y-65489341D01*
X135686753Y-65481900D01*
X135679276Y-65472017D01*
X135657019Y-65455936D01*
X135623968Y-65449182D01*
X135575095Y-65451187D01*
X135505372Y-65461383D01*
X135469607Y-65466900D01*
X135405679Y-65474998D01*
X135344397Y-65481086D01*
X135300984Y-65485091D01*
X135257037Y-65490248D01*
X135229740Y-65494788D01*
X135228770Y-65495015D01*
X135204800Y-65498371D01*
X135160265Y-65502182D01*
X135093885Y-65506524D01*
X135004381Y-65511475D01*
X134890471Y-65517110D01*
X134750876Y-65523507D01*
X134714170Y-65525437D01*
X134644527Y-65530465D01*
X134581414Y-65536600D01*
X134535051Y-65542925D01*
X134479163Y-65551907D01*
X134392954Y-65563376D01*
X134304099Y-65573010D01*
X134222325Y-65579783D01*
X134157355Y-65582674D01*
X134109447Y-65584127D01*
X134040389Y-65587461D01*
X133957271Y-65592240D01*
X133866559Y-65598032D01*
X133774719Y-65604406D01*
X133688217Y-65610931D01*
X133613519Y-65617175D01*
X133557090Y-65622707D01*
X133508549Y-65626727D01*
X133439169Y-65629243D01*
X133378851Y-65628206D01*
X133339306Y-65627701D01*
X133276004Y-65630187D01*
X133202957Y-65635469D01*
X133129302Y-65643007D01*
X133069418Y-65649987D01*
X132989351Y-65658864D01*
X132914929Y-65666663D01*
X132856715Y-65672253D01*
X132822522Y-65675915D01*
X132763849Y-65688307D01*
X132723674Y-65709798D01*
X132696313Y-65744269D01*
X132676083Y-65795602D01*
X132663348Y-65826603D01*
X132637873Y-65873770D01*
X132607285Y-65920871D01*
X132576303Y-65965547D01*
X132536320Y-66026016D01*
X132500404Y-66082947D01*
X132492772Y-66095156D01*
X132410950Y-66200675D01*
X132308222Y-66297113D01*
X132189619Y-66380862D01*
X132060171Y-66448312D01*
X131924907Y-66495854D01*
X131809599Y-66516736D01*
X131678562Y-66523020D01*
X131543510Y-66514555D01*
X131413451Y-66491918D01*
X131297390Y-66455684D01*
X131220845Y-66419009D01*
X131117581Y-66354784D01*
X131013570Y-66275800D01*
X130915085Y-66187335D01*
X130828397Y-66094671D01*
X130759778Y-66003086D01*
X130752192Y-65991067D01*
X130721492Y-65934797D01*
X130706207Y-65891345D01*
X130706961Y-65863344D01*
X130724376Y-65853425D01*
X130733770Y-65855525D01*
X130744610Y-65871679D01*
X130748159Y-65880220D01*
X130767802Y-65885587D01*
X130808896Y-65883755D01*
X130834808Y-65881650D01*
X130864451Y-65883782D01*
X130885325Y-65897438D01*
X130908768Y-65927593D01*
X130915920Y-65937383D01*
X130961138Y-65992549D01*
X131016060Y-66051838D01*
X131072270Y-66106527D01*
X131121348Y-66147893D01*
X131134475Y-66157781D01*
X131162118Y-66179480D01*
X131176261Y-66191932D01*
X131190303Y-66204601D01*
X131228794Y-66229338D01*
X131281487Y-66257085D01*
X131341501Y-66284319D01*
X131401954Y-66307515D01*
X131440708Y-66319271D01*
X131553652Y-66340372D01*
X131674165Y-66346949D01*
X131792254Y-66338835D01*
X131897929Y-66315860D01*
X131990303Y-66280344D01*
X132114286Y-66211410D01*
X132224915Y-66124231D01*
X132318048Y-66022234D01*
X132389545Y-65908848D01*
X132400418Y-65887944D01*
X132428026Y-65840384D01*
X132453034Y-65804236D01*
X132471096Y-65786044D01*
X132485865Y-65773010D01*
X132497484Y-65738152D01*
X132492651Y-65693015D01*
X132471352Y-65644564D01*
X132456006Y-65625714D01*
X132424039Y-65595432D01*
X132384335Y-65562740D01*
X132343713Y-65532889D01*
X132308998Y-65511128D01*
X132287011Y-65502708D01*
X132275356Y-65497512D01*
X132252987Y-65480300D01*
X132248596Y-65476541D01*
X132212205Y-65451462D01*
X132159778Y-65420960D01*
X132098919Y-65388901D01*
X132037229Y-65359151D01*
X131982312Y-65335576D01*
X131941769Y-65322042D01*
X131916220Y-65312393D01*
X131904674Y-65300114D01*
X131902236Y-65293899D01*
X131884007Y-65286882D01*
X131879571Y-65286544D01*
X131850396Y-65279222D01*
X131813189Y-65265345D01*
X131809242Y-65263705D01*
X131760032Y-65248642D01*
X131711384Y-65240804D01*
X131702686Y-65240109D01*
X131668951Y-65233533D01*
X131650683Y-65223617D01*
X131649526Y-65222142D01*
X131628496Y-65210589D01*
X131594424Y-65201689D01*
X131592055Y-65201298D01*
X131536729Y-65191269D01*
X131475527Y-65178825D01*
X131414926Y-65165450D01*
X131361403Y-65152628D01*
X131321436Y-65141843D01*
X131301501Y-65134579D01*
X131283735Y-65129241D01*
X131246058Y-65123945D01*
X131198417Y-65120620D01*
X131156039Y-65117172D01*
X131115177Y-65109879D01*
X131091817Y-65100719D01*
X131084239Y-65096389D01*
X131051880Y-65088551D01*
X131010042Y-65086533D01*
X130992531Y-65086656D01*
X130954107Y-65083062D01*
X130930702Y-65075313D01*
X130920696Y-65069635D01*
X130888069Y-65056848D01*
X130845778Y-65044120D01*
X130822233Y-65037249D01*
X130782177Y-65022230D01*
X130757037Y-65008304D01*
X130737156Y-64997262D01*
X130702156Y-64990122D01*
X130651061Y-64983577D01*
X130586666Y-64964766D01*
X130523952Y-64937995D01*
X130474881Y-64907608D01*
X130442964Y-64887039D01*
X130387611Y-64861179D01*
X130325415Y-64839858D01*
X130316481Y-64837327D01*
X130267979Y-64822780D01*
X130230591Y-64810258D01*
X130211790Y-64802233D01*
X130206834Y-64799400D01*
X130183874Y-64790217D01*
X130142776Y-64776730D01*
X130080887Y-64758095D01*
X129995553Y-64733467D01*
X129987104Y-64731234D01*
X129940746Y-64723358D01*
X129901129Y-64722530D01*
X129889856Y-64724199D01*
X129865844Y-64735979D01*
X129856872Y-64763486D01*
X129856686Y-64765197D01*
X129858848Y-64789888D01*
X129874787Y-64811037D01*
X129909888Y-64836009D01*
X129925781Y-64845707D01*
X129973392Y-64872080D01*
X130015257Y-64892070D01*
X130049587Y-64906981D01*
X130105666Y-64932365D01*
X130176998Y-64965310D01*
X130258898Y-65003652D01*
X130346681Y-65045226D01*
X130422071Y-65090393D01*
X130485507Y-65153212D01*
X130529149Y-65231473D01*
X130554035Y-65327098D01*
X130561205Y-65442007D01*
X130555901Y-65525606D01*
X130528827Y-65648144D01*
X130477898Y-65759925D01*
X130402002Y-65863897D01*
X130397953Y-65868598D01*
X130385996Y-65886347D01*
X130381336Y-65907107D01*
X130383298Y-65938693D01*
X130391208Y-65988921D01*
X130396992Y-66028383D01*
X130404301Y-66110997D01*
X130406968Y-66198734D01*
X130405289Y-66286267D01*
X130399564Y-66368274D01*
X130390089Y-66439428D01*
X130377163Y-66494405D01*
X130361082Y-66527881D01*
X130347134Y-66547874D01*
X130324546Y-66584375D01*
X130298991Y-66628441D01*
X130279860Y-66658318D01*
X130240689Y-66710114D01*
X130192691Y-66766740D01*
X130142265Y-66820361D01*
X130030672Y-66931954D01*
X130050804Y-66989016D01*
X130054307Y-67000145D01*
X130065218Y-67046930D01*
X130075664Y-67106951D01*
X130083789Y-67170021D01*
X130084596Y-67178043D01*
X130088613Y-67262467D01*
X130080982Y-67334914D01*
X130059629Y-67406110D01*
X130022475Y-67486784D01*
X130006926Y-67515768D01*
X129959306Y-67593889D01*
X129905032Y-67670989D01*
X129847915Y-67742483D01*
X129791770Y-67803784D01*
X129740410Y-67850305D01*
X129697648Y-67877459D01*
X129682211Y-67884936D01*
X129649386Y-67907386D01*
X129632269Y-67929140D01*
X129627814Y-67937659D01*
X129607300Y-67954405D01*
X129568076Y-67972438D01*
X129506266Y-67993744D01*
X129479596Y-68002237D01*
X129432197Y-68017500D01*
X129398557Y-68028568D01*
X129384663Y-68033485D01*
X129384457Y-68035892D01*
X129388960Y-68057413D01*
X129399410Y-68096207D01*
X129414219Y-68146213D01*
X129419682Y-68164635D01*
X129432692Y-68215363D01*
X129440015Y-68255259D01*
X129440186Y-68276957D01*
X129438878Y-68281721D01*
X129442701Y-68289447D01*
X129459744Y-68293098D01*
X129494556Y-68293219D01*
X129551686Y-68290359D01*
X129559937Y-68289865D01*
X129614506Y-68286028D01*
X129650606Y-68280663D01*
X129675786Y-68271035D01*
X129697594Y-68254406D01*
X129723577Y-68228040D01*
X129744847Y-68207061D01*
X129783309Y-68174196D01*
X129815209Y-68152622D01*
X129828858Y-68144767D01*
X129849175Y-68122197D01*
X129854328Y-68086197D01*
X129849399Y-68051692D01*
X129831994Y-68027503D01*
X129828974Y-68025756D01*
X129818555Y-68015289D01*
X129822177Y-67999151D01*
X129841066Y-67969504D01*
X129844628Y-67964420D01*
X129870900Y-67928840D01*
X129906343Y-67882762D01*
X129944335Y-67834823D01*
X129956722Y-67819293D01*
X129987109Y-67779658D01*
X130008262Y-67749755D01*
X130016198Y-67735109D01*
X130016474Y-67733327D01*
X130028374Y-67712743D01*
X130055409Y-67677612D01*
X130094215Y-67631802D01*
X130141427Y-67579183D01*
X130193680Y-67523622D01*
X130247611Y-67468991D01*
X130353426Y-67364695D01*
X130353426Y-67450644D01*
X130353426Y-67536593D01*
X130294590Y-67564249D01*
X130292773Y-67565104D01*
X130270197Y-67576454D01*
X130251955Y-67588989D01*
X130235487Y-67606615D01*
X130218236Y-67633239D01*
X130197644Y-67672769D01*
X130171154Y-67729112D01*
X130136206Y-67806176D01*
X130115181Y-67848600D01*
X130084449Y-67901854D01*
X130055944Y-67943117D01*
X130033954Y-67977906D01*
X130007400Y-68037322D01*
X129984454Y-68105777D01*
X129968330Y-68173418D01*
X129962241Y-68230392D01*
X129957155Y-68258249D01*
X129941716Y-68276699D01*
X129933058Y-68281881D01*
X129934659Y-68294257D01*
X129956084Y-68316914D01*
X129980576Y-68347861D01*
X129986727Y-68386177D01*
X129979379Y-68406871D01*
X129948632Y-68434605D01*
X129898043Y-68453954D01*
X129831567Y-68463629D01*
X129753160Y-68462340D01*
X129719905Y-68459928D01*
X129653698Y-68456494D01*
X129578230Y-68453744D01*
X129504200Y-68452117D01*
X129349664Y-68450079D01*
X129330584Y-68500137D01*
X129330569Y-68500175D01*
X129316046Y-68527232D01*
X129292107Y-68561248D01*
X129263004Y-68597457D01*
X129232992Y-68631092D01*
X129206323Y-68657384D01*
X129187252Y-68671567D01*
X129180033Y-68668874D01*
X129181834Y-68655809D01*
X129189216Y-68621809D01*
X129200327Y-68578226D01*
X129201351Y-68574301D01*
X129210859Y-68510431D01*
X129213408Y-68429910D01*
X129209622Y-68341316D01*
X129200125Y-68253225D01*
X129185540Y-68174211D01*
X129166491Y-68112851D01*
X129165398Y-68110127D01*
X129155786Y-68076481D01*
X129148053Y-68035161D01*
X129147672Y-68032579D01*
X129135186Y-67987036D01*
X129115897Y-67947482D01*
X129108807Y-67936333D01*
X129086292Y-67895129D01*
X129065130Y-67849814D01*
X129039703Y-67795403D01*
X128961109Y-67670996D01*
X128860359Y-67559322D01*
X128739843Y-67463220D01*
X128729528Y-67456382D01*
X128692744Y-67435107D01*
X128655441Y-67420763D01*
X128608810Y-67410589D01*
X128544044Y-67401822D01*
X128482881Y-67396258D01*
X128416724Y-67394322D01*
X128364018Y-67397434D01*
X128329166Y-67405288D01*
X128316569Y-67417581D01*
X128120960Y-67417581D01*
X128120076Y-67401637D01*
X128121757Y-67377631D01*
X128127441Y-67370777D01*
X128133175Y-67372804D01*
X128141211Y-67362692D01*
X128146182Y-67346805D01*
X128163619Y-67321335D01*
X128179244Y-67301592D01*
X128201083Y-67266377D01*
X128209132Y-67254877D01*
X128238165Y-67228019D01*
X128276471Y-67202396D01*
X128297240Y-67191404D01*
X128327218Y-67179476D01*
X128361183Y-67172646D01*
X128406790Y-67169606D01*
X128471694Y-67169050D01*
X128501405Y-67169287D01*
X128561402Y-67171617D01*
X128608051Y-67177754D01*
X128651076Y-67189360D01*
X128700201Y-67208096D01*
X128707728Y-67211224D01*
X128825185Y-67267384D01*
X128918461Y-67327185D01*
X128986190Y-67389759D01*
X129004699Y-67409880D01*
X129041652Y-67443862D01*
X129073314Y-67466074D01*
X129075399Y-67467172D01*
X129101621Y-67485056D01*
X129112427Y-67500239D01*
X129110388Y-67505700D01*
X129095566Y-67504551D01*
X129092354Y-67503451D01*
X129096805Y-67512653D01*
X129115799Y-67534844D01*
X129122833Y-67542758D01*
X129144415Y-67572502D01*
X129153316Y-67594259D01*
X129156121Y-67607225D01*
X129168350Y-67640272D01*
X129186916Y-67681200D01*
X129200110Y-67709202D01*
X129214553Y-67743742D01*
X129220217Y-67763155D01*
X129227126Y-67783750D01*
X129254219Y-67809720D01*
X129294462Y-67828864D01*
X129339909Y-67836325D01*
X129372630Y-67834403D01*
X129428228Y-67818307D01*
X129478130Y-67782953D01*
X129528256Y-67724835D01*
X129555414Y-67691194D01*
X129589195Y-67656092D01*
X129616209Y-67635081D01*
X129640621Y-67615115D01*
X129652765Y-67587869D01*
X129656319Y-67571055D01*
X129670791Y-67534405D01*
X129692468Y-67492352D01*
X129705837Y-67468990D01*
X129738350Y-67411119D01*
X129767687Y-67357724D01*
X129787633Y-67312404D01*
X129807035Y-67230687D01*
X129809495Y-67147883D01*
X129794066Y-67074190D01*
X129789724Y-67062150D01*
X129778284Y-67024510D01*
X129773597Y-66998979D01*
X129768694Y-66980031D01*
X129739527Y-66948039D01*
X129684992Y-66916517D01*
X129606092Y-66886142D01*
X129600775Y-66884386D01*
X129539547Y-66861548D01*
X129479849Y-66835323D01*
X129433904Y-66811042D01*
X129405673Y-66794800D01*
X129369608Y-66777429D01*
X129346746Y-66770685D01*
X129334226Y-66769192D01*
X129298409Y-66762392D01*
X129247612Y-66751351D01*
X129188452Y-66737456D01*
X129141190Y-66726300D01*
X129061525Y-66708979D01*
X128990030Y-66695230D01*
X128931202Y-66685817D01*
X128889533Y-66681508D01*
X128869520Y-66683069D01*
X128859575Y-66683259D01*
X128825736Y-66673984D01*
X128768537Y-66653246D01*
X128687520Y-66620888D01*
X128663105Y-66614704D01*
X128619938Y-66608106D01*
X128568945Y-66603027D01*
X128521571Y-66598610D01*
X128483878Y-66593382D01*
X128464897Y-66588549D01*
X128459522Y-66586350D01*
X128431738Y-66580475D01*
X128392469Y-66575727D01*
X128378238Y-66574205D01*
X128335938Y-66566477D01*
X128306262Y-66556562D01*
X128283128Y-66548824D01*
X128240719Y-66540155D01*
X128190358Y-66533336D01*
X128167493Y-66531332D01*
X128112918Y-66530701D01*
X128057595Y-66537867D01*
X127989429Y-66554079D01*
X127971823Y-66558903D01*
X127920287Y-66574063D01*
X127879812Y-66587471D01*
X127857940Y-66596683D01*
X127856732Y-66597428D01*
X127829608Y-66612150D01*
X127793987Y-66629451D01*
X127786017Y-66633488D01*
X127758875Y-66654931D01*
X127732454Y-66690736D01*
X127702311Y-66746579D01*
X127696665Y-66757940D01*
X127673128Y-66803958D01*
X127653901Y-66839530D01*
X127642697Y-66857733D01*
X127635547Y-66871713D01*
X127625386Y-66911918D01*
X127617139Y-66968281D01*
X127611203Y-67034162D01*
X127607978Y-67102923D01*
X127607862Y-67167924D01*
X127465442Y-67167924D01*
X127463107Y-67136507D01*
X127463811Y-67044922D01*
X127471470Y-66955844D01*
X127486034Y-66878598D01*
X127487160Y-66874375D01*
X127534501Y-66743248D01*
X127594924Y-66637009D01*
X127601088Y-66626171D01*
X127684659Y-66525874D01*
X127782950Y-66445092D01*
X127893696Y-66386556D01*
X127947582Y-66364995D01*
X127930020Y-66281196D01*
X127914113Y-66143776D01*
X127918220Y-66081825D01*
X128069334Y-66081825D01*
X128070065Y-66131652D01*
X128073680Y-66164482D01*
X128080968Y-66186187D01*
X128092717Y-66202641D01*
X128106867Y-66223194D01*
X128102038Y-66231120D01*
X128094847Y-66233237D01*
X128096185Y-66247982D01*
X128102143Y-66260341D01*
X128110831Y-66291367D01*
X128112918Y-66298460D01*
X128119616Y-66321225D01*
X128149107Y-66362416D01*
X128191021Y-66385406D01*
X128221020Y-66398366D01*
X128251223Y-66423491D01*
X128259316Y-66432655D01*
X128279269Y-66445041D01*
X128310621Y-66451136D01*
X128361119Y-66453024D01*
X128404016Y-66454441D01*
X128434091Y-66457612D01*
X128443754Y-66461830D01*
X128448785Y-66468214D01*
X128474414Y-66478220D01*
X128515814Y-66489386D01*
X128566921Y-66500426D01*
X128621674Y-66510055D01*
X128674011Y-66516988D01*
X128717871Y-66519940D01*
X128757855Y-66521674D01*
X128789893Y-66525632D01*
X128802178Y-66530830D01*
X128804125Y-66534460D01*
X128820131Y-66533634D01*
X128831751Y-66532377D01*
X128867626Y-66535955D01*
X128918770Y-66545222D01*
X128978689Y-66558672D01*
X129040888Y-66574805D01*
X129098873Y-66592115D01*
X129146150Y-66609100D01*
X129161274Y-66613693D01*
X129200432Y-66621438D01*
X129247318Y-66627645D01*
X129261557Y-66629326D01*
X129315788Y-66637955D01*
X129381105Y-66650581D01*
X129446374Y-66665109D01*
X129465095Y-66669554D01*
X129521595Y-66681690D01*
X129560961Y-66686923D01*
X129590106Y-66685818D01*
X129615945Y-66678938D01*
X129641988Y-66672260D01*
X129691525Y-66665422D01*
X129744971Y-66662772D01*
X129747194Y-66662764D01*
X129807776Y-66656908D01*
X129862535Y-66641908D01*
X129906188Y-66620349D01*
X129933453Y-66594811D01*
X129939049Y-66567878D01*
X129937092Y-66556233D01*
X129944919Y-66544272D01*
X129973122Y-66541370D01*
X129999158Y-66537808D01*
X130047300Y-66512188D01*
X130089875Y-66464690D01*
X130123351Y-66398668D01*
X130124199Y-66396369D01*
X130140789Y-66333088D01*
X130149828Y-66260717D01*
X130151139Y-66187948D01*
X130144547Y-66123476D01*
X130129876Y-66075995D01*
X130121753Y-66061318D01*
X130090468Y-66017108D01*
X130058000Y-65986357D01*
X130030033Y-65974827D01*
X130019338Y-65973668D01*
X129995290Y-65962998D01*
X129990512Y-65959951D01*
X129963702Y-65948244D01*
X129920571Y-65932329D01*
X129867817Y-65914741D01*
X129849145Y-65908741D01*
X129792627Y-65889825D01*
X129744191Y-65872578D01*
X129712693Y-65860117D01*
X129711898Y-65859763D01*
X129680257Y-65847797D01*
X129630109Y-65830988D01*
X129568663Y-65811565D01*
X129503127Y-65791758D01*
X129440709Y-65773795D01*
X129388619Y-65759905D01*
X129365941Y-65753449D01*
X129320467Y-65738635D01*
X129271229Y-65721068D01*
X129247310Y-65713152D01*
X129177702Y-65697380D01*
X129109694Y-65690226D01*
X129069041Y-65687846D01*
X129030143Y-65682525D01*
X129009157Y-65675711D01*
X129003720Y-65672559D01*
X128974700Y-65663418D01*
X128934967Y-65656427D01*
X128922747Y-65654660D01*
X128878941Y-65643985D01*
X128846423Y-65630001D01*
X128832497Y-65621301D01*
X128821442Y-65617977D01*
X128824261Y-65630810D01*
X128825857Y-65635148D01*
X128827277Y-65648209D01*
X128814413Y-65648758D01*
X128782051Y-65637640D01*
X128775130Y-65635095D01*
X128755682Y-65630835D01*
X128756279Y-65639724D01*
X128759333Y-65646145D01*
X128753354Y-65647194D01*
X128730935Y-65634410D01*
X128689561Y-65606542D01*
X128670215Y-65594902D01*
X128643952Y-65586640D01*
X128608100Y-65584764D01*
X128554117Y-65588110D01*
X128460648Y-65601036D01*
X128369369Y-65622999D01*
X128287242Y-65651826D01*
X128220206Y-65685428D01*
X128174202Y-65721715D01*
X128160502Y-65739254D01*
X128135016Y-65778499D01*
X128109838Y-65823384D01*
X128098470Y-65846525D01*
X128085105Y-65881107D01*
X128076930Y-65918587D01*
X128072433Y-65966989D01*
X128070102Y-66034336D01*
X128069334Y-66081825D01*
X127918220Y-66081825D01*
X127923146Y-66007519D01*
X127955699Y-65876563D01*
X128010114Y-65753910D01*
X128084732Y-65642564D01*
X128177895Y-65545526D01*
X128287943Y-65465801D01*
X128413219Y-65406390D01*
X128491928Y-65377691D01*
X128492235Y-65324309D01*
X128659932Y-65324309D01*
X128661416Y-65375907D01*
X128664809Y-65407995D01*
X128674731Y-65439096D01*
X128692842Y-65455190D01*
X128728481Y-65464221D01*
X128740465Y-65466569D01*
X128785262Y-65477190D01*
X128842700Y-65492452D01*
X128903346Y-65509891D01*
X128935185Y-65518910D01*
X129011987Y-65538155D01*
X129095696Y-65556625D01*
X129173128Y-65571319D01*
X129233027Y-65581558D01*
X129305640Y-65594678D01*
X129365276Y-65606829D01*
X129420139Y-65619861D01*
X129478434Y-65635624D01*
X129548366Y-65655970D01*
X129608812Y-65672962D01*
X129700915Y-65695952D01*
X129792465Y-65715832D01*
X129877161Y-65731369D01*
X129948704Y-65741331D01*
X130000794Y-65744486D01*
X130046173Y-65741362D01*
X130102483Y-65727061D01*
X130156586Y-65697804D01*
X130217056Y-65649839D01*
X130218422Y-65648634D01*
X130260125Y-65608073D01*
X130283452Y-65574692D01*
X130293024Y-65541926D01*
X130298681Y-65497327D01*
X130305159Y-65448752D01*
X130303571Y-65395268D01*
X130286267Y-65330262D01*
X130256783Y-65268233D01*
X130219214Y-65220072D01*
X130206515Y-65208447D01*
X130181702Y-65187336D01*
X130168996Y-65178969D01*
X130157723Y-65173348D01*
X130130427Y-65154249D01*
X130093914Y-65126142D01*
X130054294Y-65093757D01*
X130017677Y-65061824D01*
X130008784Y-65053811D01*
X129975249Y-65026434D01*
X129941957Y-65006388D01*
X129900093Y-64989091D01*
X129840839Y-64969964D01*
X129811135Y-64959431D01*
X129765209Y-64937789D01*
X129732926Y-64915969D01*
X129723872Y-64908559D01*
X129684031Y-64885590D01*
X129638503Y-64868646D01*
X129625713Y-64864880D01*
X129576191Y-64844612D01*
X129534884Y-64820281D01*
X129530592Y-64817098D01*
X129490822Y-64791418D01*
X129453949Y-64772741D01*
X129451578Y-64771900D01*
X129419091Y-64766304D01*
X129366030Y-64762479D01*
X129298025Y-64760399D01*
X129220702Y-64760038D01*
X129139691Y-64761368D01*
X129060620Y-64764362D01*
X128989116Y-64768994D01*
X128930810Y-64775237D01*
X128928012Y-64775637D01*
X128861251Y-64789649D01*
X128815160Y-64811617D01*
X128783881Y-64845728D01*
X128761556Y-64896166D01*
X128756948Y-64909192D01*
X128743810Y-64938115D01*
X128733673Y-64949654D01*
X128731529Y-64950304D01*
X128716549Y-64965164D01*
X128697062Y-64993494D01*
X128693360Y-65000033D01*
X128681854Y-65028650D01*
X128673514Y-65067710D01*
X128667416Y-65122724D01*
X128662640Y-65199203D01*
X128660434Y-65260604D01*
X128659932Y-65324309D01*
X128492235Y-65324309D01*
X128492402Y-65295192D01*
X128493888Y-65252290D01*
X128512771Y-65124497D01*
X128551531Y-65002553D01*
X128607911Y-64890403D01*
X128608100Y-64890144D01*
X128679654Y-64791992D01*
X128764505Y-64711264D01*
X128860207Y-64652164D01*
X128864910Y-64649984D01*
X128915874Y-64629266D01*
X128970350Y-64613122D01*
X129031671Y-64601294D01*
X129103169Y-64593521D01*
X129188175Y-64589543D01*
X129220702Y-64589402D01*
X129290022Y-64589101D01*
X129412043Y-64591934D01*
G37*
D12*
%TO.C,R35*%
X129725000Y-80019064D02*
X129725000Y-79564936D01*
X131195000Y-80019064D02*
X131195000Y-79564936D01*
D13*
%TO.C,kibuzzard-68E985AE*%
G36*
X153571405Y-92740630D02*
G01*
X153605008Y-92870840D01*
X153634410Y-93000000D01*
X153660662Y-93134410D01*
X153406543Y-93134410D01*
X153431745Y-93000000D01*
X153460097Y-92870840D01*
X153493700Y-92740630D01*
X153532553Y-92600969D01*
X153571405Y-92740630D01*
G37*
G36*
X154677141Y-92561066D02*
G01*
X154733845Y-92567367D01*
X154733845Y-92865590D01*
X154633037Y-92865590D01*
X154483926Y-92822536D01*
X154433522Y-92703877D01*
X154448223Y-92629321D01*
X154488126Y-92585218D01*
X154546931Y-92564216D01*
X154616236Y-92558966D01*
X154677141Y-92561066D01*
G37*
G36*
X154733845Y-93432633D02*
G01*
X154673990Y-93438934D01*
X154609935Y-93441034D01*
X154523829Y-93433683D01*
X154449273Y-93406381D01*
X154395719Y-93349677D01*
X154374717Y-93256220D01*
X154434572Y-93120759D01*
X154595234Y-93079806D01*
X154733845Y-93079806D01*
X154733845Y-93432633D01*
G37*
G36*
X155429698Y-94015778D02*
G01*
X154992165Y-94015778D01*
X154630937Y-94015778D01*
X153301535Y-94015778D01*
X152350162Y-94015778D01*
X152007835Y-94015778D01*
X151570302Y-94015778D01*
X151570302Y-92563166D01*
X152007835Y-92563166D01*
X152350162Y-92563166D01*
X152350162Y-93648950D01*
X152610582Y-93648950D01*
X153024313Y-93648950D01*
X153301535Y-93648950D01*
X153362439Y-93348627D01*
X153708966Y-93348627D01*
X153767771Y-93648950D01*
X154036591Y-93648950D01*
X153999544Y-93497948D01*
X153962330Y-93352407D01*
X153936661Y-93256220D01*
X154120598Y-93256220D01*
X154130574Y-93364116D01*
X154160501Y-93452585D01*
X154268659Y-93578595D01*
X154343215Y-93619023D01*
X154430372Y-93645800D01*
X154527242Y-93660763D01*
X154630937Y-93665751D01*
X154718619Y-93663389D01*
X154809451Y-93656300D01*
X154901333Y-93644487D01*
X154992165Y-93627948D01*
X154992165Y-92365751D01*
X154830452Y-92343700D01*
X154656139Y-92334249D01*
X154522779Y-92341862D01*
X154416721Y-92364701D01*
X154271809Y-92444507D01*
X154200404Y-92554766D01*
X154181502Y-92676575D01*
X154192791Y-92763732D01*
X154226656Y-92840388D01*
X154347415Y-92953796D01*
X154236369Y-93010501D01*
X154167851Y-93084006D01*
X154132411Y-93168013D01*
X154120598Y-93256220D01*
X153936661Y-93256220D01*
X153924947Y-93212326D01*
X153887396Y-93077706D01*
X153849677Y-92948546D01*
X153802817Y-92792543D01*
X153756745Y-92640610D01*
X153711460Y-92492745D01*
X153666963Y-92348950D01*
X153385541Y-92348950D01*
X153339403Y-92493927D01*
X153293397Y-92643235D01*
X153247521Y-92796875D01*
X153201777Y-92954847D01*
X153165444Y-93085099D01*
X153129532Y-93219635D01*
X153094039Y-93358456D01*
X153058966Y-93501561D01*
X153024313Y-93648950D01*
X152610582Y-93648950D01*
X152610582Y-92563166D01*
X152952908Y-92563166D01*
X152952908Y-92348950D01*
X152007835Y-92348950D01*
X152007835Y-92563166D01*
X151570302Y-92563166D01*
X151570302Y-91984222D01*
X152007835Y-91984222D01*
X154992165Y-91984222D01*
X155429698Y-91984222D01*
X155429698Y-94015778D01*
G37*
%TD*%
M02*
