%TF.GenerationSoftware,KiCad,Pcbnew,9.0.7-9.0.7~ubuntu24.04.1*%
%TF.CreationDate,2026-02-18T20:44:34+01:00*%
%TF.ProjectId,ESP32-C3_Dev,45535033-322d-4433-935f-4465762e6b69,rev?*%
%TF.SameCoordinates,Original*%
%TF.FileFunction,Other,Comment*%
%FSLAX46Y46*%
G04 Gerber Fmt 4.6, Leading zero omitted, Abs format (unit mm)*
G04 Created by KiCad (PCBNEW 9.0.7-9.0.7~ubuntu24.04.1) date 2026-02-18 20:44:34*
%MOMM*%
%LPD*%
G01*
G04 APERTURE LIST*
%ADD10C,0.100000*%
%ADD11C,0.150000*%
G04 APERTURE END LIST*
D10*
X148326109Y-50446095D02*
X148326109Y-50684190D01*
X148326109Y-50684190D02*
X148564204Y-50707999D01*
X148564204Y-50707999D02*
X148540395Y-50684190D01*
X148540395Y-50684190D02*
X148516585Y-50636571D01*
X148516585Y-50636571D02*
X148516585Y-50517523D01*
X148516585Y-50517523D02*
X148540395Y-50469904D01*
X148540395Y-50469904D02*
X148564204Y-50446095D01*
X148564204Y-50446095D02*
X148611823Y-50422285D01*
X148611823Y-50422285D02*
X148730871Y-50422285D01*
X148730871Y-50422285D02*
X148778490Y-50446095D01*
X148778490Y-50446095D02*
X148802300Y-50469904D01*
X148802300Y-50469904D02*
X148826109Y-50517523D01*
X148826109Y-50517523D02*
X148826109Y-50636571D01*
X148826109Y-50636571D02*
X148802300Y-50684190D01*
X148802300Y-50684190D02*
X148778490Y-50707999D01*
X148826109Y-49827048D02*
X148492776Y-49827048D01*
X148540395Y-49827048D02*
X148516585Y-49803238D01*
X148516585Y-49803238D02*
X148492776Y-49755619D01*
X148492776Y-49755619D02*
X148492776Y-49684191D01*
X148492776Y-49684191D02*
X148516585Y-49636572D01*
X148516585Y-49636572D02*
X148564204Y-49612762D01*
X148564204Y-49612762D02*
X148826109Y-49612762D01*
X148564204Y-49612762D02*
X148516585Y-49588953D01*
X148516585Y-49588953D02*
X148492776Y-49541334D01*
X148492776Y-49541334D02*
X148492776Y-49469905D01*
X148492776Y-49469905D02*
X148516585Y-49422286D01*
X148516585Y-49422286D02*
X148564204Y-49398476D01*
X148564204Y-49398476D02*
X148826109Y-49398476D01*
X148826109Y-49160381D02*
X148492776Y-49160381D01*
X148540395Y-49160381D02*
X148516585Y-49136571D01*
X148516585Y-49136571D02*
X148492776Y-49088952D01*
X148492776Y-49088952D02*
X148492776Y-49017524D01*
X148492776Y-49017524D02*
X148516585Y-48969905D01*
X148516585Y-48969905D02*
X148564204Y-48946095D01*
X148564204Y-48946095D02*
X148826109Y-48946095D01*
X148564204Y-48946095D02*
X148516585Y-48922286D01*
X148516585Y-48922286D02*
X148492776Y-48874667D01*
X148492776Y-48874667D02*
X148492776Y-48803238D01*
X148492776Y-48803238D02*
X148516585Y-48755619D01*
X148516585Y-48755619D02*
X148564204Y-48731809D01*
X148564204Y-48731809D02*
X148826109Y-48731809D01*
D11*
X134728571Y-50062819D02*
X134728571Y-49062819D01*
X135299999Y-50062819D02*
X134871428Y-49491390D01*
X135299999Y-49062819D02*
X134728571Y-49634247D01*
X135728571Y-49539009D02*
X136061904Y-49539009D01*
X136204761Y-50062819D02*
X135728571Y-50062819D01*
X135728571Y-50062819D02*
X135728571Y-49062819D01*
X135728571Y-49062819D02*
X136204761Y-49062819D01*
X136633333Y-49539009D02*
X136966666Y-49539009D01*
X137109523Y-50062819D02*
X136633333Y-50062819D01*
X136633333Y-50062819D02*
X136633333Y-49062819D01*
X136633333Y-49062819D02*
X137109523Y-49062819D01*
X137538095Y-50062819D02*
X137538095Y-49062819D01*
X137538095Y-49062819D02*
X137919047Y-49062819D01*
X137919047Y-49062819D02*
X138014285Y-49110438D01*
X138014285Y-49110438D02*
X138061904Y-49158057D01*
X138061904Y-49158057D02*
X138109523Y-49253295D01*
X138109523Y-49253295D02*
X138109523Y-49396152D01*
X138109523Y-49396152D02*
X138061904Y-49491390D01*
X138061904Y-49491390D02*
X138014285Y-49539009D01*
X138014285Y-49539009D02*
X137919047Y-49586628D01*
X137919047Y-49586628D02*
X137538095Y-49586628D01*
X138538095Y-49681866D02*
X139300000Y-49681866D01*
X139966666Y-49062819D02*
X140157142Y-49062819D01*
X140157142Y-49062819D02*
X140252380Y-49110438D01*
X140252380Y-49110438D02*
X140347618Y-49205676D01*
X140347618Y-49205676D02*
X140395237Y-49396152D01*
X140395237Y-49396152D02*
X140395237Y-49729485D01*
X140395237Y-49729485D02*
X140347618Y-49919961D01*
X140347618Y-49919961D02*
X140252380Y-50015200D01*
X140252380Y-50015200D02*
X140157142Y-50062819D01*
X140157142Y-50062819D02*
X139966666Y-50062819D01*
X139966666Y-50062819D02*
X139871428Y-50015200D01*
X139871428Y-50015200D02*
X139776190Y-49919961D01*
X139776190Y-49919961D02*
X139728571Y-49729485D01*
X139728571Y-49729485D02*
X139728571Y-49396152D01*
X139728571Y-49396152D02*
X139776190Y-49205676D01*
X139776190Y-49205676D02*
X139871428Y-49110438D01*
X139871428Y-49110438D02*
X139966666Y-49062819D01*
X140823809Y-49062819D02*
X140823809Y-49872342D01*
X140823809Y-49872342D02*
X140871428Y-49967580D01*
X140871428Y-49967580D02*
X140919047Y-50015200D01*
X140919047Y-50015200D02*
X141014285Y-50062819D01*
X141014285Y-50062819D02*
X141204761Y-50062819D01*
X141204761Y-50062819D02*
X141299999Y-50015200D01*
X141299999Y-50015200D02*
X141347618Y-49967580D01*
X141347618Y-49967580D02*
X141395237Y-49872342D01*
X141395237Y-49872342D02*
X141395237Y-49062819D01*
X141728571Y-49062819D02*
X142299999Y-49062819D01*
X142014285Y-50062819D02*
X142014285Y-49062819D01*
X143300000Y-49062819D02*
X143966666Y-49062819D01*
X143966666Y-49062819D02*
X143300000Y-50062819D01*
X143300000Y-50062819D02*
X143966666Y-50062819D01*
X144538095Y-49062819D02*
X144728571Y-49062819D01*
X144728571Y-49062819D02*
X144823809Y-49110438D01*
X144823809Y-49110438D02*
X144919047Y-49205676D01*
X144919047Y-49205676D02*
X144966666Y-49396152D01*
X144966666Y-49396152D02*
X144966666Y-49729485D01*
X144966666Y-49729485D02*
X144919047Y-49919961D01*
X144919047Y-49919961D02*
X144823809Y-50015200D01*
X144823809Y-50015200D02*
X144728571Y-50062819D01*
X144728571Y-50062819D02*
X144538095Y-50062819D01*
X144538095Y-50062819D02*
X144442857Y-50015200D01*
X144442857Y-50015200D02*
X144347619Y-49919961D01*
X144347619Y-49919961D02*
X144300000Y-49729485D01*
X144300000Y-49729485D02*
X144300000Y-49396152D01*
X144300000Y-49396152D02*
X144347619Y-49205676D01*
X144347619Y-49205676D02*
X144442857Y-49110438D01*
X144442857Y-49110438D02*
X144538095Y-49062819D01*
X145395238Y-50062819D02*
X145395238Y-49062819D01*
X145395238Y-49062819D02*
X145966666Y-50062819D01*
X145966666Y-50062819D02*
X145966666Y-49062819D01*
X146442857Y-49539009D02*
X146776190Y-49539009D01*
X146919047Y-50062819D02*
X146442857Y-50062819D01*
X146442857Y-50062819D02*
X146442857Y-49062819D01*
X146442857Y-49062819D02*
X146919047Y-49062819D01*
D10*
X151861904Y-54134109D02*
X151623809Y-54134109D01*
X151623809Y-54134109D02*
X151600000Y-54372204D01*
X151600000Y-54372204D02*
X151623809Y-54348395D01*
X151623809Y-54348395D02*
X151671428Y-54324585D01*
X151671428Y-54324585D02*
X151790476Y-54324585D01*
X151790476Y-54324585D02*
X151838095Y-54348395D01*
X151838095Y-54348395D02*
X151861904Y-54372204D01*
X151861904Y-54372204D02*
X151885714Y-54419823D01*
X151885714Y-54419823D02*
X151885714Y-54538871D01*
X151885714Y-54538871D02*
X151861904Y-54586490D01*
X151861904Y-54586490D02*
X151838095Y-54610300D01*
X151838095Y-54610300D02*
X151790476Y-54634109D01*
X151790476Y-54634109D02*
X151671428Y-54634109D01*
X151671428Y-54634109D02*
X151623809Y-54610300D01*
X151623809Y-54610300D02*
X151600000Y-54586490D01*
X152480951Y-54634109D02*
X152480951Y-54300776D01*
X152480951Y-54348395D02*
X152504761Y-54324585D01*
X152504761Y-54324585D02*
X152552380Y-54300776D01*
X152552380Y-54300776D02*
X152623808Y-54300776D01*
X152623808Y-54300776D02*
X152671427Y-54324585D01*
X152671427Y-54324585D02*
X152695237Y-54372204D01*
X152695237Y-54372204D02*
X152695237Y-54634109D01*
X152695237Y-54372204D02*
X152719046Y-54324585D01*
X152719046Y-54324585D02*
X152766665Y-54300776D01*
X152766665Y-54300776D02*
X152838094Y-54300776D01*
X152838094Y-54300776D02*
X152885713Y-54324585D01*
X152885713Y-54324585D02*
X152909523Y-54372204D01*
X152909523Y-54372204D02*
X152909523Y-54634109D01*
X153147618Y-54634109D02*
X153147618Y-54300776D01*
X153147618Y-54348395D02*
X153171428Y-54324585D01*
X153171428Y-54324585D02*
X153219047Y-54300776D01*
X153219047Y-54300776D02*
X153290475Y-54300776D01*
X153290475Y-54300776D02*
X153338094Y-54324585D01*
X153338094Y-54324585D02*
X153361904Y-54372204D01*
X153361904Y-54372204D02*
X153361904Y-54634109D01*
X153361904Y-54372204D02*
X153385713Y-54324585D01*
X153385713Y-54324585D02*
X153433332Y-54300776D01*
X153433332Y-54300776D02*
X153504761Y-54300776D01*
X153504761Y-54300776D02*
X153552380Y-54324585D01*
X153552380Y-54324585D02*
X153576190Y-54372204D01*
X153576190Y-54372204D02*
X153576190Y-54634109D01*
D11*
X138038095Y-55777104D02*
X138514285Y-55777104D01*
X137942857Y-56062819D02*
X138276190Y-55062819D01*
X138276190Y-55062819D02*
X138609523Y-56062819D01*
X138942857Y-55396152D02*
X138942857Y-56062819D01*
X138942857Y-55491390D02*
X138990476Y-55443771D01*
X138990476Y-55443771D02*
X139085714Y-55396152D01*
X139085714Y-55396152D02*
X139228571Y-55396152D01*
X139228571Y-55396152D02*
X139323809Y-55443771D01*
X139323809Y-55443771D02*
X139371428Y-55539009D01*
X139371428Y-55539009D02*
X139371428Y-56062819D01*
X139704762Y-55396152D02*
X140085714Y-55396152D01*
X139847619Y-55062819D02*
X139847619Y-55919961D01*
X139847619Y-55919961D02*
X139895238Y-56015200D01*
X139895238Y-56015200D02*
X139990476Y-56062819D01*
X139990476Y-56062819D02*
X140085714Y-56062819D01*
X140800000Y-56015200D02*
X140704762Y-56062819D01*
X140704762Y-56062819D02*
X140514286Y-56062819D01*
X140514286Y-56062819D02*
X140419048Y-56015200D01*
X140419048Y-56015200D02*
X140371429Y-55919961D01*
X140371429Y-55919961D02*
X140371429Y-55539009D01*
X140371429Y-55539009D02*
X140419048Y-55443771D01*
X140419048Y-55443771D02*
X140514286Y-55396152D01*
X140514286Y-55396152D02*
X140704762Y-55396152D01*
X140704762Y-55396152D02*
X140800000Y-55443771D01*
X140800000Y-55443771D02*
X140847619Y-55539009D01*
X140847619Y-55539009D02*
X140847619Y-55634247D01*
X140847619Y-55634247D02*
X140371429Y-55729485D01*
X141276191Y-55396152D02*
X141276191Y-56062819D01*
X141276191Y-55491390D02*
X141323810Y-55443771D01*
X141323810Y-55443771D02*
X141419048Y-55396152D01*
X141419048Y-55396152D02*
X141561905Y-55396152D01*
X141561905Y-55396152D02*
X141657143Y-55443771D01*
X141657143Y-55443771D02*
X141704762Y-55539009D01*
X141704762Y-55539009D02*
X141704762Y-56062819D01*
X142180953Y-55396152D02*
X142180953Y-56062819D01*
X142180953Y-55491390D02*
X142228572Y-55443771D01*
X142228572Y-55443771D02*
X142323810Y-55396152D01*
X142323810Y-55396152D02*
X142466667Y-55396152D01*
X142466667Y-55396152D02*
X142561905Y-55443771D01*
X142561905Y-55443771D02*
X142609524Y-55539009D01*
X142609524Y-55539009D02*
X142609524Y-56062819D01*
X143514286Y-56062819D02*
X143514286Y-55539009D01*
X143514286Y-55539009D02*
X143466667Y-55443771D01*
X143466667Y-55443771D02*
X143371429Y-55396152D01*
X143371429Y-55396152D02*
X143180953Y-55396152D01*
X143180953Y-55396152D02*
X143085715Y-55443771D01*
X143514286Y-56015200D02*
X143419048Y-56062819D01*
X143419048Y-56062819D02*
X143180953Y-56062819D01*
X143180953Y-56062819D02*
X143085715Y-56015200D01*
X143085715Y-56015200D02*
X143038096Y-55919961D01*
X143038096Y-55919961D02*
X143038096Y-55824723D01*
X143038096Y-55824723D02*
X143085715Y-55729485D01*
X143085715Y-55729485D02*
X143180953Y-55681866D01*
X143180953Y-55681866D02*
X143419048Y-55681866D01*
X143419048Y-55681866D02*
X143514286Y-55634247D01*
D10*
%TO.C,U1*%
X127000000Y-54908000D02*
X127200000Y-54708000D01*
X127000000Y-54908000D02*
X127200000Y-55108000D01*
X127000000Y-54908000D02*
X131600000Y-54908000D01*
X131600000Y-54908000D02*
X131400000Y-54708000D01*
X131600000Y-54908000D02*
X131400000Y-55108000D01*
X149100000Y-47708000D02*
X148900000Y-47908000D01*
X149100000Y-47708000D02*
X149300000Y-47908000D01*
X149100000Y-52308000D02*
X148900000Y-52108000D01*
X149100000Y-52308000D02*
X149100000Y-47708000D01*
X149100000Y-52308000D02*
X149300000Y-52108000D01*
X150000000Y-54908000D02*
X150200000Y-54708000D01*
X150000000Y-54908000D02*
X150200000Y-55108000D01*
X150000000Y-54908000D02*
X154600000Y-54908000D01*
X154600000Y-54908000D02*
X154400000Y-54708000D01*
X154600000Y-54908000D02*
X154400000Y-55108000D01*
%TD*%
M02*
