%TF.GenerationSoftware,KiCad,Pcbnew,9.0.7-9.0.7~ubuntu24.04.1*%
%TF.CreationDate,2026-02-18T20:08:42+01:00*%
%TF.ProjectId,ESP32-C3_Dev,45535033-322d-4433-935f-4465762e6b69,rev?*%
%TF.SameCoordinates,Original*%
%TF.FileFunction,Paste,Top*%
%TF.FilePolarity,Positive*%
%FSLAX46Y46*%
G04 Gerber Fmt 4.6, Leading zero omitted, Abs format (unit mm)*
G04 Created by KiCad (PCBNEW 9.0.7-9.0.7~ubuntu24.04.1) date 2026-02-18 20:08:42*
%MOMM*%
%LPD*%
G01*
G04 APERTURE LIST*
G04 Aperture macros list*
%AMRoundRect*
0 Rectangle with rounded corners*
0 $1 Rounding radius*
0 $2 $3 $4 $5 $6 $7 $8 $9 X,Y pos of 4 corners*
0 Add a 4 corners polygon primitive as box body*
4,1,4,$2,$3,$4,$5,$6,$7,$8,$9,$2,$3,0*
0 Add four circle primitives for the rounded corners*
1,1,$1+$1,$2,$3*
1,1,$1+$1,$4,$5*
1,1,$1+$1,$6,$7*
1,1,$1+$1,$8,$9*
0 Add four rect primitives between the rounded corners*
20,1,$1+$1,$2,$3,$4,$5,0*
20,1,$1+$1,$4,$5,$6,$7,0*
20,1,$1+$1,$6,$7,$8,$9,0*
20,1,$1+$1,$8,$9,$2,$3,0*%
G04 Aperture macros list end*
%ADD10C,0.010000*%
%ADD11C,1.255000*%
%ADD12RoundRect,0.200000X-0.275000X0.200000X-0.275000X-0.200000X0.275000X-0.200000X0.275000X0.200000X0*%
%ADD13RoundRect,0.200000X0.200000X0.275000X-0.200000X0.275000X-0.200000X-0.275000X0.200000X-0.275000X0*%
%ADD14RoundRect,0.200000X0.275000X-0.200000X0.275000X0.200000X-0.275000X0.200000X-0.275000X-0.200000X0*%
%ADD15RoundRect,0.200000X-0.200000X-0.275000X0.200000X-0.275000X0.200000X0.275000X-0.200000X0.275000X0*%
%ADD16RoundRect,0.225000X-0.250000X0.225000X-0.250000X-0.225000X0.250000X-0.225000X0.250000X0.225000X0*%
%ADD17RoundRect,0.150000X-0.512500X-0.150000X0.512500X-0.150000X0.512500X0.150000X-0.512500X0.150000X0*%
%ADD18RoundRect,0.225000X0.250000X-0.225000X0.250000X0.225000X-0.250000X0.225000X-0.250000X-0.225000X0*%
%ADD19RoundRect,0.225000X-0.225000X-0.250000X0.225000X-0.250000X0.225000X0.250000X-0.225000X0.250000X0*%
%ADD20RoundRect,0.250000X0.475000X-0.250000X0.475000X0.250000X-0.475000X0.250000X-0.475000X-0.250000X0*%
%ADD21R,1.800000X1.350000*%
%ADD22RoundRect,0.075000X0.175000X0.475000X-0.175000X0.475000X-0.175000X-0.475000X0.175000X-0.475000X0*%
%ADD23RoundRect,0.015750X-0.159250X-0.174250X0.159250X-0.174250X0.159250X0.174250X-0.159250X0.174250X0*%
%ADD24R,1.500000X0.900000*%
%ADD25RoundRect,0.112500X-0.112500X0.187500X-0.112500X-0.187500X0.112500X-0.187500X0.112500X0.187500X0*%
%ADD26RoundRect,0.150000X-0.150000X-0.200000X0.150000X-0.200000X0.150000X0.200000X-0.150000X0.200000X0*%
%ADD27RoundRect,0.150000X0.512500X0.150000X-0.512500X0.150000X-0.512500X-0.150000X0.512500X-0.150000X0*%
%ADD28RoundRect,0.182500X0.322500X-0.182500X0.322500X0.182500X-0.322500X0.182500X-0.322500X-0.182500X0*%
%ADD29RoundRect,0.062500X0.062500X-0.312500X0.062500X0.312500X-0.062500X0.312500X-0.062500X-0.312500X0*%
%ADD30RoundRect,0.250000X0.440000X-0.255000X0.440000X0.255000X-0.440000X0.255000X-0.440000X-0.255000X0*%
%ADD31RoundRect,0.150000X0.150000X-0.825000X0.150000X0.825000X-0.150000X0.825000X-0.150000X-0.825000X0*%
%ADD32RoundRect,0.218750X0.218750X0.256250X-0.218750X0.256250X-0.218750X-0.256250X0.218750X-0.256250X0*%
%ADD33RoundRect,0.150000X-0.150000X-0.425000X0.150000X-0.425000X0.150000X0.425000X-0.150000X0.425000X0*%
%ADD34RoundRect,0.075000X-0.075000X-0.500000X0.075000X-0.500000X0.075000X0.500000X-0.075000X0.500000X0*%
%ADD35O,1.000000X2.100000*%
%ADD36O,1.000000X1.800000*%
%ADD37RoundRect,0.218750X0.256250X-0.218750X0.256250X0.218750X-0.256250X0.218750X-0.256250X-0.218750X0*%
%ADD38RoundRect,0.150000X-0.200000X0.150000X-0.200000X-0.150000X0.200000X-0.150000X0.200000X0.150000X0*%
%ADD39RoundRect,0.075000X-0.650000X-0.075000X0.650000X-0.075000X0.650000X0.075000X-0.650000X0.075000X0*%
%ADD40RoundRect,0.150000X0.150000X0.200000X-0.150000X0.200000X-0.150000X-0.200000X0.150000X-0.200000X0*%
%ADD41RoundRect,0.225000X0.225000X0.250000X-0.225000X0.250000X-0.225000X-0.250000X0.225000X-0.250000X0*%
G04 APERTURE END LIST*
%TO.C,H\u002A*%
D10*
X125210000Y-54042000D02*
X128710000Y-54042000D01*
X128710000Y-54542000D01*
X125210000Y-54542000D01*
X125210000Y-54042000D01*
G36*
X125210000Y-54042000D02*
G01*
X128710000Y-54042000D01*
X128710000Y-54542000D01*
X125210000Y-54542000D01*
X125210000Y-54042000D01*
G37*
X126710000Y-52542000D02*
X127210000Y-52542000D01*
X127210000Y-56042000D01*
X126710000Y-56042000D01*
X126710000Y-52542000D01*
G36*
X126710000Y-52542000D02*
G01*
X127210000Y-52542000D01*
X127210000Y-56042000D01*
X126710000Y-56042000D01*
X126710000Y-52542000D01*
G37*
D11*
X127587500Y-54292000D02*
G75*
G02*
X126332500Y-54292000I-627500J0D01*
G01*
X126332500Y-54292000D02*
G75*
G02*
X127587500Y-54292000I627500J0D01*
G01*
D10*
X153210000Y-54042000D02*
X156710000Y-54042000D01*
X156710000Y-54542000D01*
X153210000Y-54542000D01*
X153210000Y-54042000D01*
G36*
X153210000Y-54042000D02*
G01*
X156710000Y-54042000D01*
X156710000Y-54542000D01*
X153210000Y-54542000D01*
X153210000Y-54042000D01*
G37*
X154710000Y-52542000D02*
X155210000Y-52542000D01*
X155210000Y-56042000D01*
X154710000Y-56042000D01*
X154710000Y-52542000D01*
G36*
X154710000Y-52542000D02*
G01*
X155210000Y-52542000D01*
X155210000Y-56042000D01*
X154710000Y-56042000D01*
X154710000Y-52542000D01*
G37*
D11*
X155587500Y-54292000D02*
G75*
G02*
X154332500Y-54292000I-627500J0D01*
G01*
X154332500Y-54292000D02*
G75*
G02*
X155587500Y-54292000I627500J0D01*
G01*
%TD*%
D12*
%TO.C,R26*%
X148300000Y-76865000D03*
X148300000Y-78515000D03*
%TD*%
D13*
%TO.C,R14*%
X148400000Y-81690000D03*
X146750000Y-81690000D03*
%TD*%
D14*
%TO.C,R32*%
X150960000Y-93617000D03*
X150960000Y-91967000D03*
%TD*%
D15*
%TO.C,R22*%
X151775000Y-70000000D03*
X153425000Y-70000000D03*
%TD*%
D16*
%TO.C,C4*%
X128500000Y-59583000D03*
X128500000Y-61133000D03*
%TD*%
D15*
%TO.C,R3*%
X136835000Y-84500000D03*
X138485000Y-84500000D03*
%TD*%
D17*
%TO.C,Q2*%
X153162500Y-92850000D03*
X153162500Y-94750000D03*
X155437500Y-93800000D03*
%TD*%
D12*
%TO.C,R29*%
X136300000Y-81365000D03*
X136300000Y-83015000D03*
%TD*%
D15*
%TO.C,R23*%
X151775000Y-68500000D03*
X153425000Y-68500000D03*
%TD*%
D18*
%TO.C,C3*%
X127960000Y-95287594D03*
X127960000Y-93737594D03*
%TD*%
D19*
%TO.C,C1*%
X151285000Y-61292000D03*
X152835000Y-61292000D03*
%TD*%
D15*
%TO.C,R16*%
X150600000Y-104200000D03*
X152250000Y-104200000D03*
%TD*%
D19*
%TO.C,C15*%
X154285000Y-62500000D03*
X155835000Y-62500000D03*
%TD*%
D20*
%TO.C,C13*%
X136960000Y-95217000D03*
X136960000Y-93317000D03*
%TD*%
D21*
%TO.C,SW2*%
X128600000Y-102867000D03*
X128600000Y-98717000D03*
%TD*%
D14*
%TO.C,R2*%
X139784000Y-95695000D03*
X139784000Y-94045000D03*
%TD*%
%TO.C,R27*%
X133300000Y-84740000D03*
X133300000Y-83090000D03*
%TD*%
D15*
%TO.C,R21*%
X148350000Y-86500000D03*
X150000000Y-86500000D03*
%TD*%
D14*
%TO.C,R6*%
X130100000Y-70000000D03*
X130100000Y-68350000D03*
%TD*%
D16*
%TO.C,C5*%
X130132000Y-59583000D03*
X130132000Y-61133000D03*
%TD*%
D13*
%TO.C,R13*%
X148400000Y-80090000D03*
X146750000Y-80090000D03*
%TD*%
D14*
%TO.C,R10*%
X134800000Y-78715000D03*
X134800000Y-77065000D03*
%TD*%
D16*
%TO.C,C6*%
X147600000Y-96925000D03*
X147600000Y-98475000D03*
%TD*%
D15*
%TO.C,R20*%
X145275000Y-86500000D03*
X146925000Y-86500000D03*
%TD*%
D22*
%TO.C,L1*%
X134510000Y-97542000D03*
X133710000Y-97542000D03*
%TD*%
D23*
%TO.C,U8*%
X153735000Y-64750000D03*
X153735000Y-65250000D03*
X154000000Y-65765000D03*
X154500000Y-65765000D03*
X155000000Y-65765000D03*
X155265000Y-65250000D03*
X155265000Y-64750000D03*
X155000000Y-64235000D03*
X154500000Y-64235000D03*
X154000000Y-64235000D03*
%TD*%
D20*
%TO.C,C18*%
X129666733Y-95462594D03*
X129666733Y-93562594D03*
%TD*%
D16*
%TO.C,C16*%
X155500000Y-67225000D03*
X155500000Y-68775000D03*
%TD*%
D24*
%TO.C,U1*%
X132050000Y-59608000D03*
X132050000Y-61108000D03*
X132050000Y-62608000D03*
X132050000Y-64108000D03*
X132050000Y-65608000D03*
X132050000Y-67108000D03*
X132050000Y-68608000D03*
X132050000Y-70108000D03*
X132050000Y-71608000D03*
X149550000Y-71608000D03*
X149550000Y-70108000D03*
X149550000Y-68608000D03*
X149550000Y-67108000D03*
X149550000Y-65608000D03*
X149550000Y-64108000D03*
X149550000Y-62608000D03*
X149550000Y-61108000D03*
X149550000Y-59608000D03*
%TD*%
D25*
%TO.C,D2*%
X145600000Y-93950000D03*
X145600000Y-96050000D03*
%TD*%
D15*
%TO.C,R9*%
X132975000Y-81690000D03*
X134625000Y-81690000D03*
%TD*%
D12*
%TO.C,R12*%
X145300000Y-81365000D03*
X145300000Y-83015000D03*
%TD*%
D26*
%TO.C,D1*%
X140230000Y-91822000D03*
X138830000Y-91822000D03*
%TD*%
D13*
%TO.C,R31*%
X134733499Y-75392901D03*
X133083499Y-75392901D03*
%TD*%
D15*
%TO.C,R30*%
X133083499Y-73892901D03*
X134733499Y-73892901D03*
%TD*%
D27*
%TO.C,U3*%
X146137500Y-89900000D03*
X146137500Y-88950000D03*
X146137500Y-88000000D03*
X143862500Y-88000000D03*
X143862500Y-88950000D03*
X143862500Y-89900000D03*
%TD*%
D14*
%TO.C,R33*%
X131460000Y-96092000D03*
X131460000Y-94442000D03*
%TD*%
%TO.C,R17*%
X136300000Y-80015000D03*
X136300000Y-78365000D03*
%TD*%
D13*
%TO.C,R7*%
X143887500Y-86450000D03*
X142237500Y-86450000D03*
%TD*%
D28*
%TO.C,U2*%
X133335000Y-94742000D03*
X134585000Y-94742000D03*
X133335000Y-93842000D03*
X134585000Y-93842000D03*
D29*
X132960000Y-95767000D03*
X133460000Y-95767000D03*
X133960000Y-95767000D03*
X134460000Y-95767000D03*
X134960000Y-95767000D03*
X134960000Y-92817000D03*
X134460000Y-92817000D03*
X133960000Y-92817000D03*
X133460000Y-92817000D03*
X132960000Y-92817000D03*
%TD*%
D12*
%TO.C,R28*%
X133300000Y-77065000D03*
X133300000Y-78715000D03*
%TD*%
%TO.C,R5*%
X128600000Y-68350000D03*
X128600000Y-70000000D03*
%TD*%
D30*
%TO.C,U6*%
X150575000Y-100100000D03*
X152225000Y-100100000D03*
X150575000Y-98900000D03*
X152225000Y-98900000D03*
D31*
X149495000Y-101975000D03*
X150765000Y-101975000D03*
X152035000Y-101975000D03*
X153305000Y-101975000D03*
X153305000Y-97025000D03*
X152035000Y-97025000D03*
X150765000Y-97025000D03*
X149495000Y-97025000D03*
%TD*%
D32*
%TO.C,D5*%
X141747500Y-84500000D03*
X140172500Y-84500000D03*
%TD*%
D14*
%TO.C,R24*%
X148300000Y-84740000D03*
X148300000Y-83090000D03*
%TD*%
D33*
%TO.C,J4*%
X137760000Y-98412000D03*
X138560000Y-98412000D03*
D34*
X139710000Y-98412000D03*
X140710000Y-98412000D03*
X141210000Y-98412000D03*
X142210000Y-98412000D03*
D33*
X143360000Y-98412000D03*
X144160000Y-98412000D03*
X144160000Y-98412000D03*
X143360000Y-98412000D03*
D34*
X142710000Y-98412000D03*
X141710000Y-98412000D03*
X140210000Y-98412000D03*
X139210000Y-98412000D03*
D33*
X138560000Y-98412000D03*
X137760000Y-98412000D03*
D35*
X136640000Y-98987000D03*
D36*
X136640000Y-103167000D03*
D35*
X145280000Y-98987000D03*
D36*
X145280000Y-103167000D03*
%TD*%
D37*
%TO.C,D6*%
X130100000Y-73036000D03*
X130100000Y-71461000D03*
%TD*%
D38*
%TO.C,D4*%
X143848000Y-95824000D03*
X143848000Y-94424000D03*
%TD*%
D14*
%TO.C,R34*%
X131460000Y-93092000D03*
X131460000Y-91442000D03*
%TD*%
D39*
%TO.C,U4*%
X138600000Y-79500000D03*
X138600000Y-80000000D03*
X138600000Y-80500000D03*
X138600000Y-81000000D03*
X138600000Y-81500000D03*
X143000000Y-81500000D03*
X143000000Y-81000000D03*
X143000000Y-80500000D03*
X143000000Y-80000000D03*
X143000000Y-79500000D03*
%TD*%
D14*
%TO.C,R15*%
X146800000Y-78515000D03*
X146800000Y-76865000D03*
%TD*%
%TO.C,R25*%
X145300000Y-80015000D03*
X145300000Y-78365000D03*
%TD*%
D16*
%TO.C,C11*%
X134800000Y-83140000D03*
X134800000Y-84690000D03*
%TD*%
D19*
%TO.C,C2*%
X151285000Y-62792000D03*
X152835000Y-62792000D03*
%TD*%
D14*
%TO.C,R1*%
X142070000Y-95695000D03*
X142070000Y-94045000D03*
%TD*%
D40*
%TO.C,D3*%
X141878000Y-91822000D03*
X143278000Y-91822000D03*
%TD*%
D16*
%TO.C,C8*%
X131460000Y-98517000D03*
X131460000Y-100067000D03*
%TD*%
%TO.C,C12*%
X146800000Y-83140000D03*
X146800000Y-84690000D03*
%TD*%
D27*
%TO.C,Q1*%
X150300000Y-89900000D03*
X150300000Y-88950000D03*
X150300000Y-88000000D03*
X148025000Y-88000000D03*
X148025000Y-88950000D03*
X148025000Y-89900000D03*
%TD*%
D15*
%TO.C,R8*%
X145337500Y-91450000D03*
X146987500Y-91450000D03*
%TD*%
D16*
%TO.C,C9*%
X142160000Y-88017000D03*
X142160000Y-89567000D03*
%TD*%
D15*
%TO.C,R11*%
X132975000Y-80190000D03*
X134625000Y-80190000D03*
%TD*%
D16*
%TO.C,C17*%
X155000000Y-96725000D03*
X155000000Y-98275000D03*
%TD*%
D13*
%TO.C,R4*%
X130325000Y-62975470D03*
X128675000Y-62975470D03*
%TD*%
D41*
%TO.C,C10*%
X141575000Y-78000000D03*
X140025000Y-78000000D03*
%TD*%
M02*
