%TF.GenerationSoftware,KiCad,Pcbnew,9.0.7-9.0.7~ubuntu24.04.1*%
%TF.CreationDate,2026-02-19T18:30:05+01:00*%
%TF.ProjectId,ESP32-C3_Sensor,45535033-322d-4433-935f-53656e736f72,rev?*%
%TF.SameCoordinates,Original*%
%TF.FileFunction,OtherDrawing,Comment*%
%FSLAX46Y46*%
G04 Gerber Fmt 4.6, Leading zero omitted, Abs format (unit mm)*
G04 Created by KiCad (PCBNEW 9.0.7-9.0.7~ubuntu24.04.1) date 2026-02-19 18:30:05*
%MOMM*%
%LPD*%
G01*
G04 APERTURE LIST*
%ADD10C,0.150000*%
%ADD11C,0.100000*%
%ADD12C,0.120000*%
G04 APERTURE END LIST*
D10*
X118804819Y-82787237D02*
X118804819Y-83263427D01*
X118804819Y-83263427D02*
X119281009Y-83311046D01*
X119281009Y-83311046D02*
X119233390Y-83263427D01*
X119233390Y-83263427D02*
X119185771Y-83168189D01*
X119185771Y-83168189D02*
X119185771Y-82930094D01*
X119185771Y-82930094D02*
X119233390Y-82834856D01*
X119233390Y-82834856D02*
X119281009Y-82787237D01*
X119281009Y-82787237D02*
X119376247Y-82739618D01*
X119376247Y-82739618D02*
X119614342Y-82739618D01*
X119614342Y-82739618D02*
X119709580Y-82787237D01*
X119709580Y-82787237D02*
X119757200Y-82834856D01*
X119757200Y-82834856D02*
X119804819Y-82930094D01*
X119804819Y-82930094D02*
X119804819Y-83168189D01*
X119804819Y-83168189D02*
X119757200Y-83263427D01*
X119757200Y-83263427D02*
X119709580Y-83311046D01*
X119138152Y-81882475D02*
X119804819Y-81882475D01*
X118757200Y-82120570D02*
X119471485Y-82358665D01*
X119471485Y-82358665D02*
X119471485Y-81739618D01*
X119709580Y-81358665D02*
X119757200Y-81311046D01*
X119757200Y-81311046D02*
X119804819Y-81358665D01*
X119804819Y-81358665D02*
X119757200Y-81406284D01*
X119757200Y-81406284D02*
X119709580Y-81358665D01*
X119709580Y-81358665D02*
X119804819Y-81358665D01*
X118900057Y-80930094D02*
X118852438Y-80882475D01*
X118852438Y-80882475D02*
X118804819Y-80787237D01*
X118804819Y-80787237D02*
X118804819Y-80549142D01*
X118804819Y-80549142D02*
X118852438Y-80453904D01*
X118852438Y-80453904D02*
X118900057Y-80406285D01*
X118900057Y-80406285D02*
X118995295Y-80358666D01*
X118995295Y-80358666D02*
X119090533Y-80358666D01*
X119090533Y-80358666D02*
X119233390Y-80406285D01*
X119233390Y-80406285D02*
X119804819Y-80977713D01*
X119804819Y-80977713D02*
X119804819Y-80358666D01*
X118804819Y-79739618D02*
X118804819Y-79644380D01*
X118804819Y-79644380D02*
X118852438Y-79549142D01*
X118852438Y-79549142D02*
X118900057Y-79501523D01*
X118900057Y-79501523D02*
X118995295Y-79453904D01*
X118995295Y-79453904D02*
X119185771Y-79406285D01*
X119185771Y-79406285D02*
X119423866Y-79406285D01*
X119423866Y-79406285D02*
X119614342Y-79453904D01*
X119614342Y-79453904D02*
X119709580Y-79501523D01*
X119709580Y-79501523D02*
X119757200Y-79549142D01*
X119757200Y-79549142D02*
X119804819Y-79644380D01*
X119804819Y-79644380D02*
X119804819Y-79739618D01*
X119804819Y-79739618D02*
X119757200Y-79834856D01*
X119757200Y-79834856D02*
X119709580Y-79882475D01*
X119709580Y-79882475D02*
X119614342Y-79930094D01*
X119614342Y-79930094D02*
X119423866Y-79977713D01*
X119423866Y-79977713D02*
X119185771Y-79977713D01*
X119185771Y-79977713D02*
X118995295Y-79930094D01*
X118995295Y-79930094D02*
X118900057Y-79882475D01*
X118900057Y-79882475D02*
X118852438Y-79834856D01*
X118852438Y-79834856D02*
X118804819Y-79739618D01*
X118804819Y-78787237D02*
X118804819Y-78691999D01*
X118804819Y-78691999D02*
X118852438Y-78596761D01*
X118852438Y-78596761D02*
X118900057Y-78549142D01*
X118900057Y-78549142D02*
X118995295Y-78501523D01*
X118995295Y-78501523D02*
X119185771Y-78453904D01*
X119185771Y-78453904D02*
X119423866Y-78453904D01*
X119423866Y-78453904D02*
X119614342Y-78501523D01*
X119614342Y-78501523D02*
X119709580Y-78549142D01*
X119709580Y-78549142D02*
X119757200Y-78596761D01*
X119757200Y-78596761D02*
X119804819Y-78691999D01*
X119804819Y-78691999D02*
X119804819Y-78787237D01*
X119804819Y-78787237D02*
X119757200Y-78882475D01*
X119757200Y-78882475D02*
X119709580Y-78930094D01*
X119709580Y-78930094D02*
X119614342Y-78977713D01*
X119614342Y-78977713D02*
X119423866Y-79025332D01*
X119423866Y-79025332D02*
X119185771Y-79025332D01*
X119185771Y-79025332D02*
X118995295Y-78977713D01*
X118995295Y-78977713D02*
X118900057Y-78930094D01*
X118900057Y-78930094D02*
X118852438Y-78882475D01*
X118852438Y-78882475D02*
X118804819Y-78787237D01*
X118804819Y-77834856D02*
X118804819Y-77739618D01*
X118804819Y-77739618D02*
X118852438Y-77644380D01*
X118852438Y-77644380D02*
X118900057Y-77596761D01*
X118900057Y-77596761D02*
X118995295Y-77549142D01*
X118995295Y-77549142D02*
X119185771Y-77501523D01*
X119185771Y-77501523D02*
X119423866Y-77501523D01*
X119423866Y-77501523D02*
X119614342Y-77549142D01*
X119614342Y-77549142D02*
X119709580Y-77596761D01*
X119709580Y-77596761D02*
X119757200Y-77644380D01*
X119757200Y-77644380D02*
X119804819Y-77739618D01*
X119804819Y-77739618D02*
X119804819Y-77834856D01*
X119804819Y-77834856D02*
X119757200Y-77930094D01*
X119757200Y-77930094D02*
X119709580Y-77977713D01*
X119709580Y-77977713D02*
X119614342Y-78025332D01*
X119614342Y-78025332D02*
X119423866Y-78072951D01*
X119423866Y-78072951D02*
X119185771Y-78072951D01*
X119185771Y-78072951D02*
X118995295Y-78025332D01*
X118995295Y-78025332D02*
X118900057Y-77977713D01*
X118900057Y-77977713D02*
X118852438Y-77930094D01*
X118852438Y-77930094D02*
X118804819Y-77834856D01*
X119804819Y-76311046D02*
X119138152Y-76311046D01*
X119233390Y-76311046D02*
X119185771Y-76263427D01*
X119185771Y-76263427D02*
X119138152Y-76168189D01*
X119138152Y-76168189D02*
X119138152Y-76025332D01*
X119138152Y-76025332D02*
X119185771Y-75930094D01*
X119185771Y-75930094D02*
X119281009Y-75882475D01*
X119281009Y-75882475D02*
X119804819Y-75882475D01*
X119281009Y-75882475D02*
X119185771Y-75834856D01*
X119185771Y-75834856D02*
X119138152Y-75739618D01*
X119138152Y-75739618D02*
X119138152Y-75596761D01*
X119138152Y-75596761D02*
X119185771Y-75501522D01*
X119185771Y-75501522D02*
X119281009Y-75453903D01*
X119281009Y-75453903D02*
X119804819Y-75453903D01*
X119804819Y-74977713D02*
X119138152Y-74977713D01*
X119233390Y-74977713D02*
X119185771Y-74930094D01*
X119185771Y-74930094D02*
X119138152Y-74834856D01*
X119138152Y-74834856D02*
X119138152Y-74691999D01*
X119138152Y-74691999D02*
X119185771Y-74596761D01*
X119185771Y-74596761D02*
X119281009Y-74549142D01*
X119281009Y-74549142D02*
X119804819Y-74549142D01*
X119281009Y-74549142D02*
X119185771Y-74501523D01*
X119185771Y-74501523D02*
X119138152Y-74406285D01*
X119138152Y-74406285D02*
X119138152Y-74263428D01*
X119138152Y-74263428D02*
X119185771Y-74168189D01*
X119185771Y-74168189D02*
X119281009Y-74120570D01*
X119281009Y-74120570D02*
X119804819Y-74120570D01*
D11*
X126500000Y-105792000D02*
X119913580Y-105792000D01*
X119913580Y-51592000D02*
X123960000Y-51592000D01*
X120500000Y-105792000D02*
X120500000Y-51592000D01*
X120500000Y-105792000D02*
X119913579Y-104665496D01*
X120500000Y-105792000D02*
X121086421Y-104665496D01*
X120500000Y-51592000D02*
X121086421Y-52718504D01*
X120500000Y-51592000D02*
X119913579Y-52718504D01*
D10*
X136293334Y-108804819D02*
X136912381Y-108804819D01*
X136912381Y-108804819D02*
X136579048Y-109185771D01*
X136579048Y-109185771D02*
X136721905Y-109185771D01*
X136721905Y-109185771D02*
X136817143Y-109233390D01*
X136817143Y-109233390D02*
X136864762Y-109281009D01*
X136864762Y-109281009D02*
X136912381Y-109376247D01*
X136912381Y-109376247D02*
X136912381Y-109614342D01*
X136912381Y-109614342D02*
X136864762Y-109709580D01*
X136864762Y-109709580D02*
X136817143Y-109757200D01*
X136817143Y-109757200D02*
X136721905Y-109804819D01*
X136721905Y-109804819D02*
X136436191Y-109804819D01*
X136436191Y-109804819D02*
X136340953Y-109757200D01*
X136340953Y-109757200D02*
X136293334Y-109709580D01*
X137245715Y-108804819D02*
X137864762Y-108804819D01*
X137864762Y-108804819D02*
X137531429Y-109185771D01*
X137531429Y-109185771D02*
X137674286Y-109185771D01*
X137674286Y-109185771D02*
X137769524Y-109233390D01*
X137769524Y-109233390D02*
X137817143Y-109281009D01*
X137817143Y-109281009D02*
X137864762Y-109376247D01*
X137864762Y-109376247D02*
X137864762Y-109614342D01*
X137864762Y-109614342D02*
X137817143Y-109709580D01*
X137817143Y-109709580D02*
X137769524Y-109757200D01*
X137769524Y-109757200D02*
X137674286Y-109804819D01*
X137674286Y-109804819D02*
X137388572Y-109804819D01*
X137388572Y-109804819D02*
X137293334Y-109757200D01*
X137293334Y-109757200D02*
X137245715Y-109709580D01*
X138293334Y-109709580D02*
X138340953Y-109757200D01*
X138340953Y-109757200D02*
X138293334Y-109804819D01*
X138293334Y-109804819D02*
X138245715Y-109757200D01*
X138245715Y-109757200D02*
X138293334Y-109709580D01*
X138293334Y-109709580D02*
X138293334Y-109804819D01*
X138960000Y-108804819D02*
X139055238Y-108804819D01*
X139055238Y-108804819D02*
X139150476Y-108852438D01*
X139150476Y-108852438D02*
X139198095Y-108900057D01*
X139198095Y-108900057D02*
X139245714Y-108995295D01*
X139245714Y-108995295D02*
X139293333Y-109185771D01*
X139293333Y-109185771D02*
X139293333Y-109423866D01*
X139293333Y-109423866D02*
X139245714Y-109614342D01*
X139245714Y-109614342D02*
X139198095Y-109709580D01*
X139198095Y-109709580D02*
X139150476Y-109757200D01*
X139150476Y-109757200D02*
X139055238Y-109804819D01*
X139055238Y-109804819D02*
X138960000Y-109804819D01*
X138960000Y-109804819D02*
X138864762Y-109757200D01*
X138864762Y-109757200D02*
X138817143Y-109709580D01*
X138817143Y-109709580D02*
X138769524Y-109614342D01*
X138769524Y-109614342D02*
X138721905Y-109423866D01*
X138721905Y-109423866D02*
X138721905Y-109185771D01*
X138721905Y-109185771D02*
X138769524Y-108995295D01*
X138769524Y-108995295D02*
X138817143Y-108900057D01*
X138817143Y-108900057D02*
X138864762Y-108852438D01*
X138864762Y-108852438D02*
X138960000Y-108804819D01*
X139912381Y-108804819D02*
X140007619Y-108804819D01*
X140007619Y-108804819D02*
X140102857Y-108852438D01*
X140102857Y-108852438D02*
X140150476Y-108900057D01*
X140150476Y-108900057D02*
X140198095Y-108995295D01*
X140198095Y-108995295D02*
X140245714Y-109185771D01*
X140245714Y-109185771D02*
X140245714Y-109423866D01*
X140245714Y-109423866D02*
X140198095Y-109614342D01*
X140198095Y-109614342D02*
X140150476Y-109709580D01*
X140150476Y-109709580D02*
X140102857Y-109757200D01*
X140102857Y-109757200D02*
X140007619Y-109804819D01*
X140007619Y-109804819D02*
X139912381Y-109804819D01*
X139912381Y-109804819D02*
X139817143Y-109757200D01*
X139817143Y-109757200D02*
X139769524Y-109709580D01*
X139769524Y-109709580D02*
X139721905Y-109614342D01*
X139721905Y-109614342D02*
X139674286Y-109423866D01*
X139674286Y-109423866D02*
X139674286Y-109185771D01*
X139674286Y-109185771D02*
X139721905Y-108995295D01*
X139721905Y-108995295D02*
X139769524Y-108900057D01*
X139769524Y-108900057D02*
X139817143Y-108852438D01*
X139817143Y-108852438D02*
X139912381Y-108804819D01*
X140864762Y-108804819D02*
X140960000Y-108804819D01*
X140960000Y-108804819D02*
X141055238Y-108852438D01*
X141055238Y-108852438D02*
X141102857Y-108900057D01*
X141102857Y-108900057D02*
X141150476Y-108995295D01*
X141150476Y-108995295D02*
X141198095Y-109185771D01*
X141198095Y-109185771D02*
X141198095Y-109423866D01*
X141198095Y-109423866D02*
X141150476Y-109614342D01*
X141150476Y-109614342D02*
X141102857Y-109709580D01*
X141102857Y-109709580D02*
X141055238Y-109757200D01*
X141055238Y-109757200D02*
X140960000Y-109804819D01*
X140960000Y-109804819D02*
X140864762Y-109804819D01*
X140864762Y-109804819D02*
X140769524Y-109757200D01*
X140769524Y-109757200D02*
X140721905Y-109709580D01*
X140721905Y-109709580D02*
X140674286Y-109614342D01*
X140674286Y-109614342D02*
X140626667Y-109423866D01*
X140626667Y-109423866D02*
X140626667Y-109185771D01*
X140626667Y-109185771D02*
X140674286Y-108995295D01*
X140674286Y-108995295D02*
X140721905Y-108900057D01*
X140721905Y-108900057D02*
X140769524Y-108852438D01*
X140769524Y-108852438D02*
X140864762Y-108804819D01*
X141817143Y-108804819D02*
X141912381Y-108804819D01*
X141912381Y-108804819D02*
X142007619Y-108852438D01*
X142007619Y-108852438D02*
X142055238Y-108900057D01*
X142055238Y-108900057D02*
X142102857Y-108995295D01*
X142102857Y-108995295D02*
X142150476Y-109185771D01*
X142150476Y-109185771D02*
X142150476Y-109423866D01*
X142150476Y-109423866D02*
X142102857Y-109614342D01*
X142102857Y-109614342D02*
X142055238Y-109709580D01*
X142055238Y-109709580D02*
X142007619Y-109757200D01*
X142007619Y-109757200D02*
X141912381Y-109804819D01*
X141912381Y-109804819D02*
X141817143Y-109804819D01*
X141817143Y-109804819D02*
X141721905Y-109757200D01*
X141721905Y-109757200D02*
X141674286Y-109709580D01*
X141674286Y-109709580D02*
X141626667Y-109614342D01*
X141626667Y-109614342D02*
X141579048Y-109423866D01*
X141579048Y-109423866D02*
X141579048Y-109185771D01*
X141579048Y-109185771D02*
X141626667Y-108995295D01*
X141626667Y-108995295D02*
X141674286Y-108900057D01*
X141674286Y-108900057D02*
X141721905Y-108852438D01*
X141721905Y-108852438D02*
X141817143Y-108804819D01*
X143340953Y-109804819D02*
X143340953Y-109138152D01*
X143340953Y-109233390D02*
X143388572Y-109185771D01*
X143388572Y-109185771D02*
X143483810Y-109138152D01*
X143483810Y-109138152D02*
X143626667Y-109138152D01*
X143626667Y-109138152D02*
X143721905Y-109185771D01*
X143721905Y-109185771D02*
X143769524Y-109281009D01*
X143769524Y-109281009D02*
X143769524Y-109804819D01*
X143769524Y-109281009D02*
X143817143Y-109185771D01*
X143817143Y-109185771D02*
X143912381Y-109138152D01*
X143912381Y-109138152D02*
X144055238Y-109138152D01*
X144055238Y-109138152D02*
X144150477Y-109185771D01*
X144150477Y-109185771D02*
X144198096Y-109281009D01*
X144198096Y-109281009D02*
X144198096Y-109804819D01*
X144674286Y-109804819D02*
X144674286Y-109138152D01*
X144674286Y-109233390D02*
X144721905Y-109185771D01*
X144721905Y-109185771D02*
X144817143Y-109138152D01*
X144817143Y-109138152D02*
X144960000Y-109138152D01*
X144960000Y-109138152D02*
X145055238Y-109185771D01*
X145055238Y-109185771D02*
X145102857Y-109281009D01*
X145102857Y-109281009D02*
X145102857Y-109804819D01*
X145102857Y-109281009D02*
X145150476Y-109185771D01*
X145150476Y-109185771D02*
X145245714Y-109138152D01*
X145245714Y-109138152D02*
X145388571Y-109138152D01*
X145388571Y-109138152D02*
X145483810Y-109185771D01*
X145483810Y-109185771D02*
X145531429Y-109281009D01*
X145531429Y-109281009D02*
X145531429Y-109804819D01*
D11*
X157460000Y-103752000D02*
X157460000Y-111086420D01*
X124460000Y-111086420D02*
X124460000Y-103752000D01*
X157460000Y-110500000D02*
X124460000Y-110500000D01*
X157460000Y-110500000D02*
X156333496Y-111086421D01*
X157460000Y-110500000D02*
X156333496Y-109913579D01*
X124460000Y-110500000D02*
X125586504Y-109913579D01*
X124460000Y-110500000D02*
X125586504Y-111086421D01*
X139245714Y-105418109D02*
X139245714Y-104918109D01*
X139245714Y-104918109D02*
X139436190Y-104918109D01*
X139436190Y-104918109D02*
X139483809Y-104941919D01*
X139483809Y-104941919D02*
X139507619Y-104965728D01*
X139507619Y-104965728D02*
X139531428Y-105013347D01*
X139531428Y-105013347D02*
X139531428Y-105084776D01*
X139531428Y-105084776D02*
X139507619Y-105132395D01*
X139507619Y-105132395D02*
X139483809Y-105156204D01*
X139483809Y-105156204D02*
X139436190Y-105180014D01*
X139436190Y-105180014D02*
X139245714Y-105180014D01*
X140031428Y-105370490D02*
X140007619Y-105394300D01*
X140007619Y-105394300D02*
X139936190Y-105418109D01*
X139936190Y-105418109D02*
X139888571Y-105418109D01*
X139888571Y-105418109D02*
X139817143Y-105394300D01*
X139817143Y-105394300D02*
X139769524Y-105346680D01*
X139769524Y-105346680D02*
X139745714Y-105299061D01*
X139745714Y-105299061D02*
X139721905Y-105203823D01*
X139721905Y-105203823D02*
X139721905Y-105132395D01*
X139721905Y-105132395D02*
X139745714Y-105037157D01*
X139745714Y-105037157D02*
X139769524Y-104989538D01*
X139769524Y-104989538D02*
X139817143Y-104941919D01*
X139817143Y-104941919D02*
X139888571Y-104918109D01*
X139888571Y-104918109D02*
X139936190Y-104918109D01*
X139936190Y-104918109D02*
X140007619Y-104941919D01*
X140007619Y-104941919D02*
X140031428Y-104965728D01*
X140412381Y-105156204D02*
X140483809Y-105180014D01*
X140483809Y-105180014D02*
X140507619Y-105203823D01*
X140507619Y-105203823D02*
X140531428Y-105251442D01*
X140531428Y-105251442D02*
X140531428Y-105322871D01*
X140531428Y-105322871D02*
X140507619Y-105370490D01*
X140507619Y-105370490D02*
X140483809Y-105394300D01*
X140483809Y-105394300D02*
X140436190Y-105418109D01*
X140436190Y-105418109D02*
X140245714Y-105418109D01*
X140245714Y-105418109D02*
X140245714Y-104918109D01*
X140245714Y-104918109D02*
X140412381Y-104918109D01*
X140412381Y-104918109D02*
X140460000Y-104941919D01*
X140460000Y-104941919D02*
X140483809Y-104965728D01*
X140483809Y-104965728D02*
X140507619Y-105013347D01*
X140507619Y-105013347D02*
X140507619Y-105060966D01*
X140507619Y-105060966D02*
X140483809Y-105108585D01*
X140483809Y-105108585D02*
X140460000Y-105132395D01*
X140460000Y-105132395D02*
X140412381Y-105156204D01*
X140412381Y-105156204D02*
X140245714Y-105156204D01*
X141126666Y-105156204D02*
X141293333Y-105156204D01*
X141364761Y-105418109D02*
X141126666Y-105418109D01*
X141126666Y-105418109D02*
X141126666Y-104918109D01*
X141126666Y-104918109D02*
X141364761Y-104918109D01*
X141793333Y-105418109D02*
X141793333Y-104918109D01*
X141793333Y-105394300D02*
X141745714Y-105418109D01*
X141745714Y-105418109D02*
X141650476Y-105418109D01*
X141650476Y-105418109D02*
X141602857Y-105394300D01*
X141602857Y-105394300D02*
X141579047Y-105370490D01*
X141579047Y-105370490D02*
X141555238Y-105322871D01*
X141555238Y-105322871D02*
X141555238Y-105180014D01*
X141555238Y-105180014D02*
X141579047Y-105132395D01*
X141579047Y-105132395D02*
X141602857Y-105108585D01*
X141602857Y-105108585D02*
X141650476Y-105084776D01*
X141650476Y-105084776D02*
X141745714Y-105084776D01*
X141745714Y-105084776D02*
X141793333Y-105108585D01*
X142245714Y-105084776D02*
X142245714Y-105489538D01*
X142245714Y-105489538D02*
X142221904Y-105537157D01*
X142221904Y-105537157D02*
X142198095Y-105560966D01*
X142198095Y-105560966D02*
X142150476Y-105584776D01*
X142150476Y-105584776D02*
X142079047Y-105584776D01*
X142079047Y-105584776D02*
X142031428Y-105560966D01*
X142245714Y-105394300D02*
X142198095Y-105418109D01*
X142198095Y-105418109D02*
X142102857Y-105418109D01*
X142102857Y-105418109D02*
X142055238Y-105394300D01*
X142055238Y-105394300D02*
X142031428Y-105370490D01*
X142031428Y-105370490D02*
X142007619Y-105322871D01*
X142007619Y-105322871D02*
X142007619Y-105180014D01*
X142007619Y-105180014D02*
X142031428Y-105132395D01*
X142031428Y-105132395D02*
X142055238Y-105108585D01*
X142055238Y-105108585D02*
X142102857Y-105084776D01*
X142102857Y-105084776D02*
X142198095Y-105084776D01*
X142198095Y-105084776D02*
X142245714Y-105108585D01*
X142674285Y-105394300D02*
X142626666Y-105418109D01*
X142626666Y-105418109D02*
X142531428Y-105418109D01*
X142531428Y-105418109D02*
X142483809Y-105394300D01*
X142483809Y-105394300D02*
X142460000Y-105346680D01*
X142460000Y-105346680D02*
X142460000Y-105156204D01*
X142460000Y-105156204D02*
X142483809Y-105108585D01*
X142483809Y-105108585D02*
X142531428Y-105084776D01*
X142531428Y-105084776D02*
X142626666Y-105084776D01*
X142626666Y-105084776D02*
X142674285Y-105108585D01*
X142674285Y-105108585D02*
X142698095Y-105156204D01*
X142698095Y-105156204D02*
X142698095Y-105203823D01*
X142698095Y-105203823D02*
X142460000Y-105251442D01*
%TO.C,J4*%
X145960000Y-105767000D02*
X135960000Y-105767000D01*
D12*
%TO.C,U5*%
X127760000Y-74000000D02*
X153760000Y-74000000D01*
X127760000Y-100000000D02*
X127760000Y-74000000D01*
X128430000Y-78570000D02*
X153130000Y-78570000D01*
X128430000Y-95470000D02*
X128430000Y-78570000D01*
X129890000Y-80050000D02*
X151630000Y-80050000D01*
X129890000Y-90910000D02*
X129890000Y-80050000D01*
X133760000Y-98000000D02*
X133760000Y-100000000D01*
X133760000Y-100000000D02*
X127760000Y-100000000D01*
X147760000Y-98000000D02*
X133760000Y-98000000D01*
X147760000Y-100000000D02*
X147760000Y-98000000D01*
X151630000Y-80050000D02*
X151630000Y-90910000D01*
X151630000Y-90910000D02*
X129890000Y-90910000D01*
X153130000Y-78570000D02*
X153130000Y-95470000D01*
X153130000Y-95470000D02*
X128430000Y-95470000D01*
X153760000Y-74000000D02*
X153760000Y-100000000D01*
X153760000Y-100000000D02*
X147760000Y-100000000D01*
%TD*%
M02*
