%TF.GenerationSoftware,KiCad,Pcbnew,9.0.7-9.0.7~ubuntu24.04.1*%
%TF.CreationDate,2026-02-18T22:07:06+01:00*%
%TF.ProjectId,ESP32-C3_Sensor,45535033-322d-4433-935f-53656e736f72,rev?*%
%TF.SameCoordinates,Original*%
%TF.FileFunction,AssemblyDrawing,Bot*%
%FSLAX46Y46*%
G04 Gerber Fmt 4.6, Leading zero omitted, Abs format (unit mm)*
G04 Created by KiCad (PCBNEW 9.0.7-9.0.7~ubuntu24.04.1) date 2026-02-18 22:07:06*
%MOMM*%
%LPD*%
G01*
G04 APERTURE LIST*
%ADD10C,0.150000*%
%ADD11C,0.060000*%
%ADD12C,0.080000*%
%ADD13C,0.100000*%
G04 APERTURE END LIST*
D10*
X138384819Y-68580952D02*
X138384819Y-68009524D01*
X138384819Y-68295238D02*
X137384819Y-68295238D01*
X137384819Y-68295238D02*
X137527676Y-68200000D01*
X137527676Y-68200000D02*
X137622914Y-68104762D01*
X137622914Y-68104762D02*
X137670533Y-68009524D01*
X137384819Y-69200000D02*
X137384819Y-69295238D01*
X137384819Y-69295238D02*
X137432438Y-69390476D01*
X137432438Y-69390476D02*
X137480057Y-69438095D01*
X137480057Y-69438095D02*
X137575295Y-69485714D01*
X137575295Y-69485714D02*
X137765771Y-69533333D01*
X137765771Y-69533333D02*
X138003866Y-69533333D01*
X138003866Y-69533333D02*
X138194342Y-69485714D01*
X138194342Y-69485714D02*
X138289580Y-69438095D01*
X138289580Y-69438095D02*
X138337200Y-69390476D01*
X138337200Y-69390476D02*
X138384819Y-69295238D01*
X138384819Y-69295238D02*
X138384819Y-69200000D01*
X138384819Y-69200000D02*
X138337200Y-69104762D01*
X138337200Y-69104762D02*
X138289580Y-69057143D01*
X138289580Y-69057143D02*
X138194342Y-69009524D01*
X138194342Y-69009524D02*
X138003866Y-68961905D01*
X138003866Y-68961905D02*
X137765771Y-68961905D01*
X137765771Y-68961905D02*
X137575295Y-69009524D01*
X137575295Y-69009524D02*
X137480057Y-69057143D01*
X137480057Y-69057143D02*
X137432438Y-69104762D01*
X137432438Y-69104762D02*
X137384819Y-69200000D01*
X137384819Y-70152381D02*
X137384819Y-70247619D01*
X137384819Y-70247619D02*
X137432438Y-70342857D01*
X137432438Y-70342857D02*
X137480057Y-70390476D01*
X137480057Y-70390476D02*
X137575295Y-70438095D01*
X137575295Y-70438095D02*
X137765771Y-70485714D01*
X137765771Y-70485714D02*
X138003866Y-70485714D01*
X138003866Y-70485714D02*
X138194342Y-70438095D01*
X138194342Y-70438095D02*
X138289580Y-70390476D01*
X138289580Y-70390476D02*
X138337200Y-70342857D01*
X138337200Y-70342857D02*
X138384819Y-70247619D01*
X138384819Y-70247619D02*
X138384819Y-70152381D01*
X138384819Y-70152381D02*
X138337200Y-70057143D01*
X138337200Y-70057143D02*
X138289580Y-70009524D01*
X138289580Y-70009524D02*
X138194342Y-69961905D01*
X138194342Y-69961905D02*
X138003866Y-69914286D01*
X138003866Y-69914286D02*
X137765771Y-69914286D01*
X137765771Y-69914286D02*
X137575295Y-69961905D01*
X137575295Y-69961905D02*
X137480057Y-70009524D01*
X137480057Y-70009524D02*
X137432438Y-70057143D01*
X137432438Y-70057143D02*
X137384819Y-70152381D01*
X137718152Y-70914286D02*
X138384819Y-70914286D01*
X137813390Y-70914286D02*
X137765771Y-70961905D01*
X137765771Y-70961905D02*
X137718152Y-71057143D01*
X137718152Y-71057143D02*
X137718152Y-71200000D01*
X137718152Y-71200000D02*
X137765771Y-71295238D01*
X137765771Y-71295238D02*
X137861009Y-71342857D01*
X137861009Y-71342857D02*
X138384819Y-71342857D01*
D11*
X136643832Y-69633333D02*
X136662880Y-69614285D01*
X136662880Y-69614285D02*
X136681927Y-69557143D01*
X136681927Y-69557143D02*
X136681927Y-69519047D01*
X136681927Y-69519047D02*
X136662880Y-69461904D01*
X136662880Y-69461904D02*
X136624784Y-69423809D01*
X136624784Y-69423809D02*
X136586689Y-69404762D01*
X136586689Y-69404762D02*
X136510499Y-69385714D01*
X136510499Y-69385714D02*
X136453356Y-69385714D01*
X136453356Y-69385714D02*
X136377165Y-69404762D01*
X136377165Y-69404762D02*
X136339070Y-69423809D01*
X136339070Y-69423809D02*
X136300975Y-69461904D01*
X136300975Y-69461904D02*
X136281927Y-69519047D01*
X136281927Y-69519047D02*
X136281927Y-69557143D01*
X136281927Y-69557143D02*
X136300975Y-69614285D01*
X136300975Y-69614285D02*
X136320022Y-69633333D01*
X136281927Y-69766666D02*
X136281927Y-70033333D01*
X136281927Y-70033333D02*
X136681927Y-69861904D01*
D10*
X144919047Y-64797200D02*
X144776190Y-64844819D01*
X144776190Y-64844819D02*
X144538095Y-64844819D01*
X144538095Y-64844819D02*
X144442857Y-64797200D01*
X144442857Y-64797200D02*
X144395238Y-64749580D01*
X144395238Y-64749580D02*
X144347619Y-64654342D01*
X144347619Y-64654342D02*
X144347619Y-64559104D01*
X144347619Y-64559104D02*
X144395238Y-64463866D01*
X144395238Y-64463866D02*
X144442857Y-64416247D01*
X144442857Y-64416247D02*
X144538095Y-64368628D01*
X144538095Y-64368628D02*
X144728571Y-64321009D01*
X144728571Y-64321009D02*
X144823809Y-64273390D01*
X144823809Y-64273390D02*
X144871428Y-64225771D01*
X144871428Y-64225771D02*
X144919047Y-64130533D01*
X144919047Y-64130533D02*
X144919047Y-64035295D01*
X144919047Y-64035295D02*
X144871428Y-63940057D01*
X144871428Y-63940057D02*
X144823809Y-63892438D01*
X144823809Y-63892438D02*
X144728571Y-63844819D01*
X144728571Y-63844819D02*
X144490476Y-63844819D01*
X144490476Y-63844819D02*
X144347619Y-63892438D01*
X144014285Y-63844819D02*
X143776190Y-64844819D01*
X143776190Y-64844819D02*
X143585714Y-64130533D01*
X143585714Y-64130533D02*
X143395238Y-64844819D01*
X143395238Y-64844819D02*
X143157143Y-63844819D01*
X143014286Y-64940057D02*
X142252381Y-64940057D01*
X142014285Y-64844819D02*
X142014285Y-63844819D01*
X142014285Y-63844819D02*
X141680952Y-64559104D01*
X141680952Y-64559104D02*
X141347619Y-63844819D01*
X141347619Y-63844819D02*
X141347619Y-64844819D01*
X140871428Y-64321009D02*
X140538095Y-64321009D01*
X140395238Y-64844819D02*
X140871428Y-64844819D01*
X140871428Y-64844819D02*
X140871428Y-63844819D01*
X140871428Y-63844819D02*
X140395238Y-63844819D01*
X139395238Y-64749580D02*
X139442857Y-64797200D01*
X139442857Y-64797200D02*
X139585714Y-64844819D01*
X139585714Y-64844819D02*
X139680952Y-64844819D01*
X139680952Y-64844819D02*
X139823809Y-64797200D01*
X139823809Y-64797200D02*
X139919047Y-64701961D01*
X139919047Y-64701961D02*
X139966666Y-64606723D01*
X139966666Y-64606723D02*
X140014285Y-64416247D01*
X140014285Y-64416247D02*
X140014285Y-64273390D01*
X140014285Y-64273390D02*
X139966666Y-64082914D01*
X139966666Y-64082914D02*
X139919047Y-63987676D01*
X139919047Y-63987676D02*
X139823809Y-63892438D01*
X139823809Y-63892438D02*
X139680952Y-63844819D01*
X139680952Y-63844819D02*
X139585714Y-63844819D01*
X139585714Y-63844819D02*
X139442857Y-63892438D01*
X139442857Y-63892438D02*
X139395238Y-63940057D01*
X139204762Y-64940057D02*
X138442857Y-64940057D01*
X137728571Y-63844819D02*
X138204761Y-63844819D01*
X138204761Y-63844819D02*
X138252380Y-64321009D01*
X138252380Y-64321009D02*
X138204761Y-64273390D01*
X138204761Y-64273390D02*
X138109523Y-64225771D01*
X138109523Y-64225771D02*
X137871428Y-64225771D01*
X137871428Y-64225771D02*
X137776190Y-64273390D01*
X137776190Y-64273390D02*
X137728571Y-64321009D01*
X137728571Y-64321009D02*
X137680952Y-64416247D01*
X137680952Y-64416247D02*
X137680952Y-64654342D01*
X137680952Y-64654342D02*
X137728571Y-64749580D01*
X137728571Y-64749580D02*
X137776190Y-64797200D01*
X137776190Y-64797200D02*
X137871428Y-64844819D01*
X137871428Y-64844819D02*
X138109523Y-64844819D01*
X138109523Y-64844819D02*
X138204761Y-64797200D01*
X138204761Y-64797200D02*
X138252380Y-64749580D01*
X136728571Y-63892438D02*
X136823809Y-63844819D01*
X136823809Y-63844819D02*
X136966666Y-63844819D01*
X136966666Y-63844819D02*
X137109523Y-63892438D01*
X137109523Y-63892438D02*
X137204761Y-63987676D01*
X137204761Y-63987676D02*
X137252380Y-64082914D01*
X137252380Y-64082914D02*
X137299999Y-64273390D01*
X137299999Y-64273390D02*
X137299999Y-64416247D01*
X137299999Y-64416247D02*
X137252380Y-64606723D01*
X137252380Y-64606723D02*
X137204761Y-64701961D01*
X137204761Y-64701961D02*
X137109523Y-64797200D01*
X137109523Y-64797200D02*
X136966666Y-64844819D01*
X136966666Y-64844819D02*
X136871428Y-64844819D01*
X136871428Y-64844819D02*
X136728571Y-64797200D01*
X136728571Y-64797200D02*
X136680952Y-64749580D01*
X136680952Y-64749580D02*
X136680952Y-64416247D01*
X136680952Y-64416247D02*
X136871428Y-64416247D01*
X142133332Y-66297200D02*
X141990475Y-66344819D01*
X141990475Y-66344819D02*
X141752380Y-66344819D01*
X141752380Y-66344819D02*
X141657142Y-66297200D01*
X141657142Y-66297200D02*
X141609523Y-66249580D01*
X141609523Y-66249580D02*
X141561904Y-66154342D01*
X141561904Y-66154342D02*
X141561904Y-66059104D01*
X141561904Y-66059104D02*
X141609523Y-65963866D01*
X141609523Y-65963866D02*
X141657142Y-65916247D01*
X141657142Y-65916247D02*
X141752380Y-65868628D01*
X141752380Y-65868628D02*
X141942856Y-65821009D01*
X141942856Y-65821009D02*
X142038094Y-65773390D01*
X142038094Y-65773390D02*
X142085713Y-65725771D01*
X142085713Y-65725771D02*
X142133332Y-65630533D01*
X142133332Y-65630533D02*
X142133332Y-65535295D01*
X142133332Y-65535295D02*
X142085713Y-65440057D01*
X142085713Y-65440057D02*
X142038094Y-65392438D01*
X142038094Y-65392438D02*
X141942856Y-65344819D01*
X141942856Y-65344819D02*
X141704761Y-65344819D01*
X141704761Y-65344819D02*
X141561904Y-65392438D01*
X141228570Y-65344819D02*
X140990475Y-66344819D01*
X140990475Y-66344819D02*
X140799999Y-65630533D01*
X140799999Y-65630533D02*
X140609523Y-66344819D01*
X140609523Y-66344819D02*
X140371428Y-65344819D01*
X139466666Y-66344819D02*
X140038094Y-66344819D01*
X139752380Y-66344819D02*
X139752380Y-65344819D01*
X139752380Y-65344819D02*
X139847618Y-65487676D01*
X139847618Y-65487676D02*
X139942856Y-65582914D01*
X139942856Y-65582914D02*
X140038094Y-65630533D01*
X129264819Y-77720571D02*
X128264819Y-77720571D01*
X128264819Y-77720571D02*
X128264819Y-78101523D01*
X128264819Y-78101523D02*
X128312438Y-78196761D01*
X128312438Y-78196761D02*
X128360057Y-78244380D01*
X128360057Y-78244380D02*
X128455295Y-78291999D01*
X128455295Y-78291999D02*
X128598152Y-78291999D01*
X128598152Y-78291999D02*
X128693390Y-78244380D01*
X128693390Y-78244380D02*
X128741009Y-78196761D01*
X128741009Y-78196761D02*
X128788628Y-78101523D01*
X128788628Y-78101523D02*
X128788628Y-77720571D01*
X128264819Y-78577714D02*
X128264819Y-79149142D01*
X129264819Y-78863428D02*
X128264819Y-78863428D01*
X129264819Y-80006285D02*
X129264819Y-79434857D01*
X129264819Y-79720571D02*
X128264819Y-79720571D01*
X128264819Y-79720571D02*
X128407676Y-79625333D01*
X128407676Y-79625333D02*
X128502914Y-79530095D01*
X128502914Y-79530095D02*
X128550533Y-79434857D01*
X128264819Y-80625333D02*
X128264819Y-80720571D01*
X128264819Y-80720571D02*
X128312438Y-80815809D01*
X128312438Y-80815809D02*
X128360057Y-80863428D01*
X128360057Y-80863428D02*
X128455295Y-80911047D01*
X128455295Y-80911047D02*
X128645771Y-80958666D01*
X128645771Y-80958666D02*
X128883866Y-80958666D01*
X128883866Y-80958666D02*
X129074342Y-80911047D01*
X129074342Y-80911047D02*
X129169580Y-80863428D01*
X129169580Y-80863428D02*
X129217200Y-80815809D01*
X129217200Y-80815809D02*
X129264819Y-80720571D01*
X129264819Y-80720571D02*
X129264819Y-80625333D01*
X129264819Y-80625333D02*
X129217200Y-80530095D01*
X129217200Y-80530095D02*
X129169580Y-80482476D01*
X129169580Y-80482476D02*
X129074342Y-80434857D01*
X129074342Y-80434857D02*
X128883866Y-80387238D01*
X128883866Y-80387238D02*
X128645771Y-80387238D01*
X128645771Y-80387238D02*
X128455295Y-80434857D01*
X128455295Y-80434857D02*
X128360057Y-80482476D01*
X128360057Y-80482476D02*
X128312438Y-80530095D01*
X128312438Y-80530095D02*
X128264819Y-80625333D01*
X128264819Y-81577714D02*
X128264819Y-81672952D01*
X128264819Y-81672952D02*
X128312438Y-81768190D01*
X128312438Y-81768190D02*
X128360057Y-81815809D01*
X128360057Y-81815809D02*
X128455295Y-81863428D01*
X128455295Y-81863428D02*
X128645771Y-81911047D01*
X128645771Y-81911047D02*
X128883866Y-81911047D01*
X128883866Y-81911047D02*
X129074342Y-81863428D01*
X129074342Y-81863428D02*
X129169580Y-81815809D01*
X129169580Y-81815809D02*
X129217200Y-81768190D01*
X129217200Y-81768190D02*
X129264819Y-81672952D01*
X129264819Y-81672952D02*
X129264819Y-81577714D01*
X129264819Y-81577714D02*
X129217200Y-81482476D01*
X129217200Y-81482476D02*
X129169580Y-81434857D01*
X129169580Y-81434857D02*
X129074342Y-81387238D01*
X129074342Y-81387238D02*
X128883866Y-81339619D01*
X128883866Y-81339619D02*
X128645771Y-81339619D01*
X128645771Y-81339619D02*
X128455295Y-81387238D01*
X128455295Y-81387238D02*
X128360057Y-81434857D01*
X128360057Y-81434857D02*
X128312438Y-81482476D01*
X128312438Y-81482476D02*
X128264819Y-81577714D01*
D12*
X130687149Y-79470571D02*
X130449054Y-79303905D01*
X130687149Y-79184857D02*
X130187149Y-79184857D01*
X130187149Y-79184857D02*
X130187149Y-79375333D01*
X130187149Y-79375333D02*
X130210959Y-79422952D01*
X130210959Y-79422952D02*
X130234768Y-79446762D01*
X130234768Y-79446762D02*
X130282387Y-79470571D01*
X130282387Y-79470571D02*
X130353816Y-79470571D01*
X130353816Y-79470571D02*
X130401435Y-79446762D01*
X130401435Y-79446762D02*
X130425244Y-79422952D01*
X130425244Y-79422952D02*
X130449054Y-79375333D01*
X130449054Y-79375333D02*
X130449054Y-79184857D01*
X130187149Y-79637238D02*
X130187149Y-79946762D01*
X130187149Y-79946762D02*
X130377625Y-79780095D01*
X130377625Y-79780095D02*
X130377625Y-79851524D01*
X130377625Y-79851524D02*
X130401435Y-79899143D01*
X130401435Y-79899143D02*
X130425244Y-79922952D01*
X130425244Y-79922952D02*
X130472863Y-79946762D01*
X130472863Y-79946762D02*
X130591911Y-79946762D01*
X130591911Y-79946762D02*
X130639530Y-79922952D01*
X130639530Y-79922952D02*
X130663340Y-79899143D01*
X130663340Y-79899143D02*
X130687149Y-79851524D01*
X130687149Y-79851524D02*
X130687149Y-79708667D01*
X130687149Y-79708667D02*
X130663340Y-79661048D01*
X130663340Y-79661048D02*
X130639530Y-79637238D01*
X130187149Y-80399142D02*
X130187149Y-80161047D01*
X130187149Y-80161047D02*
X130425244Y-80137238D01*
X130425244Y-80137238D02*
X130401435Y-80161047D01*
X130401435Y-80161047D02*
X130377625Y-80208666D01*
X130377625Y-80208666D02*
X130377625Y-80327714D01*
X130377625Y-80327714D02*
X130401435Y-80375333D01*
X130401435Y-80375333D02*
X130425244Y-80399142D01*
X130425244Y-80399142D02*
X130472863Y-80422952D01*
X130472863Y-80422952D02*
X130591911Y-80422952D01*
X130591911Y-80422952D02*
X130639530Y-80399142D01*
X130639530Y-80399142D02*
X130663340Y-80375333D01*
X130663340Y-80375333D02*
X130687149Y-80327714D01*
X130687149Y-80327714D02*
X130687149Y-80208666D01*
X130687149Y-80208666D02*
X130663340Y-80161047D01*
X130663340Y-80161047D02*
X130639530Y-80137238D01*
D10*
X145950476Y-84454819D02*
X145760000Y-84454819D01*
X145760000Y-84454819D02*
X145664762Y-84502438D01*
X145664762Y-84502438D02*
X145569524Y-84597676D01*
X145569524Y-84597676D02*
X145521905Y-84788152D01*
X145521905Y-84788152D02*
X145521905Y-85121485D01*
X145521905Y-85121485D02*
X145569524Y-85311961D01*
X145569524Y-85311961D02*
X145664762Y-85407200D01*
X145664762Y-85407200D02*
X145760000Y-85454819D01*
X145760000Y-85454819D02*
X145950476Y-85454819D01*
X145950476Y-85454819D02*
X146045714Y-85407200D01*
X146045714Y-85407200D02*
X146140952Y-85311961D01*
X146140952Y-85311961D02*
X146188571Y-85121485D01*
X146188571Y-85121485D02*
X146188571Y-84788152D01*
X146188571Y-84788152D02*
X146140952Y-84597676D01*
X146140952Y-84597676D02*
X146045714Y-84502438D01*
X146045714Y-84502438D02*
X145950476Y-84454819D01*
X144617143Y-85454819D02*
X145093333Y-85454819D01*
X145093333Y-85454819D02*
X145093333Y-84454819D01*
X144283809Y-84931009D02*
X143950476Y-84931009D01*
X143807619Y-85454819D02*
X144283809Y-85454819D01*
X144283809Y-85454819D02*
X144283809Y-84454819D01*
X144283809Y-84454819D02*
X143807619Y-84454819D01*
X143379047Y-85454819D02*
X143379047Y-84454819D01*
X143379047Y-84454819D02*
X143140952Y-84454819D01*
X143140952Y-84454819D02*
X142998095Y-84502438D01*
X142998095Y-84502438D02*
X142902857Y-84597676D01*
X142902857Y-84597676D02*
X142855238Y-84692914D01*
X142855238Y-84692914D02*
X142807619Y-84883390D01*
X142807619Y-84883390D02*
X142807619Y-85026247D01*
X142807619Y-85026247D02*
X142855238Y-85216723D01*
X142855238Y-85216723D02*
X142902857Y-85311961D01*
X142902857Y-85311961D02*
X142998095Y-85407200D01*
X142998095Y-85407200D02*
X143140952Y-85454819D01*
X143140952Y-85454819D02*
X143379047Y-85454819D01*
X142617143Y-85550057D02*
X141855238Y-85550057D01*
X141664761Y-85407200D02*
X141521904Y-85454819D01*
X141521904Y-85454819D02*
X141283809Y-85454819D01*
X141283809Y-85454819D02*
X141188571Y-85407200D01*
X141188571Y-85407200D02*
X141140952Y-85359580D01*
X141140952Y-85359580D02*
X141093333Y-85264342D01*
X141093333Y-85264342D02*
X141093333Y-85169104D01*
X141093333Y-85169104D02*
X141140952Y-85073866D01*
X141140952Y-85073866D02*
X141188571Y-85026247D01*
X141188571Y-85026247D02*
X141283809Y-84978628D01*
X141283809Y-84978628D02*
X141474285Y-84931009D01*
X141474285Y-84931009D02*
X141569523Y-84883390D01*
X141569523Y-84883390D02*
X141617142Y-84835771D01*
X141617142Y-84835771D02*
X141664761Y-84740533D01*
X141664761Y-84740533D02*
X141664761Y-84645295D01*
X141664761Y-84645295D02*
X141617142Y-84550057D01*
X141617142Y-84550057D02*
X141569523Y-84502438D01*
X141569523Y-84502438D02*
X141474285Y-84454819D01*
X141474285Y-84454819D02*
X141236190Y-84454819D01*
X141236190Y-84454819D02*
X141093333Y-84502438D01*
X140712380Y-85407200D02*
X140569523Y-85454819D01*
X140569523Y-85454819D02*
X140331428Y-85454819D01*
X140331428Y-85454819D02*
X140236190Y-85407200D01*
X140236190Y-85407200D02*
X140188571Y-85359580D01*
X140188571Y-85359580D02*
X140140952Y-85264342D01*
X140140952Y-85264342D02*
X140140952Y-85169104D01*
X140140952Y-85169104D02*
X140188571Y-85073866D01*
X140188571Y-85073866D02*
X140236190Y-85026247D01*
X140236190Y-85026247D02*
X140331428Y-84978628D01*
X140331428Y-84978628D02*
X140521904Y-84931009D01*
X140521904Y-84931009D02*
X140617142Y-84883390D01*
X140617142Y-84883390D02*
X140664761Y-84835771D01*
X140664761Y-84835771D02*
X140712380Y-84740533D01*
X140712380Y-84740533D02*
X140712380Y-84645295D01*
X140712380Y-84645295D02*
X140664761Y-84550057D01*
X140664761Y-84550057D02*
X140617142Y-84502438D01*
X140617142Y-84502438D02*
X140521904Y-84454819D01*
X140521904Y-84454819D02*
X140283809Y-84454819D01*
X140283809Y-84454819D02*
X140140952Y-84502438D01*
X139712380Y-85454819D02*
X139712380Y-84454819D01*
X139712380Y-84454819D02*
X139474285Y-84454819D01*
X139474285Y-84454819D02*
X139331428Y-84502438D01*
X139331428Y-84502438D02*
X139236190Y-84597676D01*
X139236190Y-84597676D02*
X139188571Y-84692914D01*
X139188571Y-84692914D02*
X139140952Y-84883390D01*
X139140952Y-84883390D02*
X139140952Y-85026247D01*
X139140952Y-85026247D02*
X139188571Y-85216723D01*
X139188571Y-85216723D02*
X139236190Y-85311961D01*
X139236190Y-85311961D02*
X139331428Y-85407200D01*
X139331428Y-85407200D02*
X139474285Y-85454819D01*
X139474285Y-85454819D02*
X139712380Y-85454819D01*
X138188571Y-85454819D02*
X138759999Y-85454819D01*
X138474285Y-85454819D02*
X138474285Y-84454819D01*
X138474285Y-84454819D02*
X138569523Y-84597676D01*
X138569523Y-84597676D02*
X138664761Y-84692914D01*
X138664761Y-84692914D02*
X138759999Y-84740533D01*
X137855237Y-84454819D02*
X137236190Y-84454819D01*
X137236190Y-84454819D02*
X137569523Y-84835771D01*
X137569523Y-84835771D02*
X137426666Y-84835771D01*
X137426666Y-84835771D02*
X137331428Y-84883390D01*
X137331428Y-84883390D02*
X137283809Y-84931009D01*
X137283809Y-84931009D02*
X137236190Y-85026247D01*
X137236190Y-85026247D02*
X137236190Y-85264342D01*
X137236190Y-85264342D02*
X137283809Y-85359580D01*
X137283809Y-85359580D02*
X137331428Y-85407200D01*
X137331428Y-85407200D02*
X137426666Y-85454819D01*
X137426666Y-85454819D02*
X137712380Y-85454819D01*
X137712380Y-85454819D02*
X137807618Y-85407200D01*
X137807618Y-85407200D02*
X137855237Y-85359580D01*
X136617142Y-84454819D02*
X136521904Y-84454819D01*
X136521904Y-84454819D02*
X136426666Y-84502438D01*
X136426666Y-84502438D02*
X136379047Y-84550057D01*
X136379047Y-84550057D02*
X136331428Y-84645295D01*
X136331428Y-84645295D02*
X136283809Y-84835771D01*
X136283809Y-84835771D02*
X136283809Y-85073866D01*
X136283809Y-85073866D02*
X136331428Y-85264342D01*
X136331428Y-85264342D02*
X136379047Y-85359580D01*
X136379047Y-85359580D02*
X136426666Y-85407200D01*
X136426666Y-85407200D02*
X136521904Y-85454819D01*
X136521904Y-85454819D02*
X136617142Y-85454819D01*
X136617142Y-85454819D02*
X136712380Y-85407200D01*
X136712380Y-85407200D02*
X136759999Y-85359580D01*
X136759999Y-85359580D02*
X136807618Y-85264342D01*
X136807618Y-85264342D02*
X136855237Y-85073866D01*
X136855237Y-85073866D02*
X136855237Y-84835771D01*
X136855237Y-84835771D02*
X136807618Y-84645295D01*
X136807618Y-84645295D02*
X136759999Y-84550057D01*
X136759999Y-84550057D02*
X136712380Y-84502438D01*
X136712380Y-84502438D02*
X136617142Y-84454819D01*
X135426666Y-84454819D02*
X135617142Y-84454819D01*
X135617142Y-84454819D02*
X135712380Y-84502438D01*
X135712380Y-84502438D02*
X135759999Y-84550057D01*
X135759999Y-84550057D02*
X135855237Y-84692914D01*
X135855237Y-84692914D02*
X135902856Y-84883390D01*
X135902856Y-84883390D02*
X135902856Y-85264342D01*
X135902856Y-85264342D02*
X135855237Y-85359580D01*
X135855237Y-85359580D02*
X135807618Y-85407200D01*
X135807618Y-85407200D02*
X135712380Y-85454819D01*
X135712380Y-85454819D02*
X135521904Y-85454819D01*
X135521904Y-85454819D02*
X135426666Y-85407200D01*
X135426666Y-85407200D02*
X135379047Y-85359580D01*
X135379047Y-85359580D02*
X135331428Y-85264342D01*
X135331428Y-85264342D02*
X135331428Y-85026247D01*
X135331428Y-85026247D02*
X135379047Y-84931009D01*
X135379047Y-84931009D02*
X135426666Y-84883390D01*
X135426666Y-84883390D02*
X135521904Y-84835771D01*
X135521904Y-84835771D02*
X135712380Y-84835771D01*
X135712380Y-84835771D02*
X135807618Y-84883390D01*
X135807618Y-84883390D02*
X135855237Y-84931009D01*
X135855237Y-84931009D02*
X135902856Y-85026247D01*
X141521904Y-86954819D02*
X141521904Y-87764342D01*
X141521904Y-87764342D02*
X141474285Y-87859580D01*
X141474285Y-87859580D02*
X141426666Y-87907200D01*
X141426666Y-87907200D02*
X141331428Y-87954819D01*
X141331428Y-87954819D02*
X141140952Y-87954819D01*
X141140952Y-87954819D02*
X141045714Y-87907200D01*
X141045714Y-87907200D02*
X140998095Y-87859580D01*
X140998095Y-87859580D02*
X140950476Y-87764342D01*
X140950476Y-87764342D02*
X140950476Y-86954819D01*
X139998095Y-86954819D02*
X140474285Y-86954819D01*
X140474285Y-86954819D02*
X140521904Y-87431009D01*
X140521904Y-87431009D02*
X140474285Y-87383390D01*
X140474285Y-87383390D02*
X140379047Y-87335771D01*
X140379047Y-87335771D02*
X140140952Y-87335771D01*
X140140952Y-87335771D02*
X140045714Y-87383390D01*
X140045714Y-87383390D02*
X139998095Y-87431009D01*
X139998095Y-87431009D02*
X139950476Y-87526247D01*
X139950476Y-87526247D02*
X139950476Y-87764342D01*
X139950476Y-87764342D02*
X139998095Y-87859580D01*
X139998095Y-87859580D02*
X140045714Y-87907200D01*
X140045714Y-87907200D02*
X140140952Y-87954819D01*
X140140952Y-87954819D02*
X140379047Y-87954819D01*
X140379047Y-87954819D02*
X140474285Y-87907200D01*
X140474285Y-87907200D02*
X140521904Y-87859580D01*
%TO.C,C7*%
D13*
X136100000Y-68900000D02*
X136900000Y-68900000D01*
X136900000Y-70500000D01*
X136100000Y-70500000D01*
X136100000Y-68900000D01*
%TO.C,SW1*%
X138800000Y-68160000D02*
X138800000Y-71240000D01*
X138800000Y-71240000D02*
X142800000Y-71240000D01*
X142800000Y-68160000D02*
X138800000Y-68160000D01*
X142800000Y-71240000D02*
X142800000Y-68160000D01*
X141558153Y-69700000D02*
G75*
G02*
X140041847Y-69700000I-758153J0D01*
G01*
X140041847Y-69700000D02*
G75*
G02*
X141558153Y-69700000I758153J0D01*
G01*
%TO.C,R35*%
X131085000Y-80792000D02*
X129835000Y-80792000D01*
X129835000Y-78792000D01*
X131085000Y-78792000D01*
X131085000Y-80792000D01*
%TD*%
M02*
