%TF.GenerationSoftware,KiCad,Pcbnew,9.0.7-9.0.7~ubuntu24.04.1*%
%TF.CreationDate,2026-02-18T22:07:05+01:00*%
%TF.ProjectId,ESP32-C3_Sensor,45535033-322d-4433-935f-53656e736f72,rev?*%
%TF.SameCoordinates,Original*%
%TF.FileFunction,Legend,Top*%
%TF.FilePolarity,Positive*%
%FSLAX46Y46*%
G04 Gerber Fmt 4.6, Leading zero omitted, Abs format (unit mm)*
G04 Created by KiCad (PCBNEW 9.0.7-9.0.7~ubuntu24.04.1) date 2026-02-18 22:07:05*
%MOMM*%
%LPD*%
G01*
G04 APERTURE LIST*
%ADD10C,0.150000*%
%ADD11C,0.062500*%
%ADD12C,0.120000*%
%ADD13C,0.000000*%
%ADD14C,0.100000*%
%ADD15C,0.127000*%
%ADD16C,0.200000*%
G04 APERTURE END LIST*
D10*
X150184819Y-78332857D02*
X149708628Y-78666190D01*
X150184819Y-78904285D02*
X149184819Y-78904285D01*
X149184819Y-78904285D02*
X149184819Y-78523333D01*
X149184819Y-78523333D02*
X149232438Y-78428095D01*
X149232438Y-78428095D02*
X149280057Y-78380476D01*
X149280057Y-78380476D02*
X149375295Y-78332857D01*
X149375295Y-78332857D02*
X149518152Y-78332857D01*
X149518152Y-78332857D02*
X149613390Y-78380476D01*
X149613390Y-78380476D02*
X149661009Y-78428095D01*
X149661009Y-78428095D02*
X149708628Y-78523333D01*
X149708628Y-78523333D02*
X149708628Y-78904285D01*
X149280057Y-77951904D02*
X149232438Y-77904285D01*
X149232438Y-77904285D02*
X149184819Y-77809047D01*
X149184819Y-77809047D02*
X149184819Y-77570952D01*
X149184819Y-77570952D02*
X149232438Y-77475714D01*
X149232438Y-77475714D02*
X149280057Y-77428095D01*
X149280057Y-77428095D02*
X149375295Y-77380476D01*
X149375295Y-77380476D02*
X149470533Y-77380476D01*
X149470533Y-77380476D02*
X149613390Y-77428095D01*
X149613390Y-77428095D02*
X150184819Y-77999523D01*
X150184819Y-77999523D02*
X150184819Y-77380476D01*
X149184819Y-76523333D02*
X149184819Y-76713809D01*
X149184819Y-76713809D02*
X149232438Y-76809047D01*
X149232438Y-76809047D02*
X149280057Y-76856666D01*
X149280057Y-76856666D02*
X149422914Y-76951904D01*
X149422914Y-76951904D02*
X149613390Y-76999523D01*
X149613390Y-76999523D02*
X149994342Y-76999523D01*
X149994342Y-76999523D02*
X150089580Y-76951904D01*
X150089580Y-76951904D02*
X150137200Y-76904285D01*
X150137200Y-76904285D02*
X150184819Y-76809047D01*
X150184819Y-76809047D02*
X150184819Y-76618571D01*
X150184819Y-76618571D02*
X150137200Y-76523333D01*
X150137200Y-76523333D02*
X150089580Y-76475714D01*
X150089580Y-76475714D02*
X149994342Y-76428095D01*
X149994342Y-76428095D02*
X149756247Y-76428095D01*
X149756247Y-76428095D02*
X149661009Y-76475714D01*
X149661009Y-76475714D02*
X149613390Y-76523333D01*
X149613390Y-76523333D02*
X149565771Y-76618571D01*
X149565771Y-76618571D02*
X149565771Y-76809047D01*
X149565771Y-76809047D02*
X149613390Y-76904285D01*
X149613390Y-76904285D02*
X149661009Y-76951904D01*
X149661009Y-76951904D02*
X149756247Y-76999523D01*
X146932142Y-83574819D02*
X146598809Y-83098628D01*
X146360714Y-83574819D02*
X146360714Y-82574819D01*
X146360714Y-82574819D02*
X146741666Y-82574819D01*
X146741666Y-82574819D02*
X146836904Y-82622438D01*
X146836904Y-82622438D02*
X146884523Y-82670057D01*
X146884523Y-82670057D02*
X146932142Y-82765295D01*
X146932142Y-82765295D02*
X146932142Y-82908152D01*
X146932142Y-82908152D02*
X146884523Y-83003390D01*
X146884523Y-83003390D02*
X146836904Y-83051009D01*
X146836904Y-83051009D02*
X146741666Y-83098628D01*
X146741666Y-83098628D02*
X146360714Y-83098628D01*
X147884523Y-83574819D02*
X147313095Y-83574819D01*
X147598809Y-83574819D02*
X147598809Y-82574819D01*
X147598809Y-82574819D02*
X147503571Y-82717676D01*
X147503571Y-82717676D02*
X147408333Y-82812914D01*
X147408333Y-82812914D02*
X147313095Y-82860533D01*
X148741666Y-82908152D02*
X148741666Y-83574819D01*
X148503571Y-82527200D02*
X148265476Y-83241485D01*
X148265476Y-83241485D02*
X148884523Y-83241485D01*
X149984819Y-93434857D02*
X149508628Y-93768190D01*
X149984819Y-94006285D02*
X148984819Y-94006285D01*
X148984819Y-94006285D02*
X148984819Y-93625333D01*
X148984819Y-93625333D02*
X149032438Y-93530095D01*
X149032438Y-93530095D02*
X149080057Y-93482476D01*
X149080057Y-93482476D02*
X149175295Y-93434857D01*
X149175295Y-93434857D02*
X149318152Y-93434857D01*
X149318152Y-93434857D02*
X149413390Y-93482476D01*
X149413390Y-93482476D02*
X149461009Y-93530095D01*
X149461009Y-93530095D02*
X149508628Y-93625333D01*
X149508628Y-93625333D02*
X149508628Y-94006285D01*
X148984819Y-93101523D02*
X148984819Y-92482476D01*
X148984819Y-92482476D02*
X149365771Y-92815809D01*
X149365771Y-92815809D02*
X149365771Y-92672952D01*
X149365771Y-92672952D02*
X149413390Y-92577714D01*
X149413390Y-92577714D02*
X149461009Y-92530095D01*
X149461009Y-92530095D02*
X149556247Y-92482476D01*
X149556247Y-92482476D02*
X149794342Y-92482476D01*
X149794342Y-92482476D02*
X149889580Y-92530095D01*
X149889580Y-92530095D02*
X149937200Y-92577714D01*
X149937200Y-92577714D02*
X149984819Y-92672952D01*
X149984819Y-92672952D02*
X149984819Y-92958666D01*
X149984819Y-92958666D02*
X149937200Y-93053904D01*
X149937200Y-93053904D02*
X149889580Y-93101523D01*
X149080057Y-92101523D02*
X149032438Y-92053904D01*
X149032438Y-92053904D02*
X148984819Y-91958666D01*
X148984819Y-91958666D02*
X148984819Y-91720571D01*
X148984819Y-91720571D02*
X149032438Y-91625333D01*
X149032438Y-91625333D02*
X149080057Y-91577714D01*
X149080057Y-91577714D02*
X149175295Y-91530095D01*
X149175295Y-91530095D02*
X149270533Y-91530095D01*
X149270533Y-91530095D02*
X149413390Y-91577714D01*
X149413390Y-91577714D02*
X149984819Y-92149142D01*
X149984819Y-92149142D02*
X149984819Y-91530095D01*
X151957142Y-69024819D02*
X151623809Y-68548628D01*
X151385714Y-69024819D02*
X151385714Y-68024819D01*
X151385714Y-68024819D02*
X151766666Y-68024819D01*
X151766666Y-68024819D02*
X151861904Y-68072438D01*
X151861904Y-68072438D02*
X151909523Y-68120057D01*
X151909523Y-68120057D02*
X151957142Y-68215295D01*
X151957142Y-68215295D02*
X151957142Y-68358152D01*
X151957142Y-68358152D02*
X151909523Y-68453390D01*
X151909523Y-68453390D02*
X151861904Y-68501009D01*
X151861904Y-68501009D02*
X151766666Y-68548628D01*
X151766666Y-68548628D02*
X151385714Y-68548628D01*
X152338095Y-68120057D02*
X152385714Y-68072438D01*
X152385714Y-68072438D02*
X152480952Y-68024819D01*
X152480952Y-68024819D02*
X152719047Y-68024819D01*
X152719047Y-68024819D02*
X152814285Y-68072438D01*
X152814285Y-68072438D02*
X152861904Y-68120057D01*
X152861904Y-68120057D02*
X152909523Y-68215295D01*
X152909523Y-68215295D02*
X152909523Y-68310533D01*
X152909523Y-68310533D02*
X152861904Y-68453390D01*
X152861904Y-68453390D02*
X152290476Y-69024819D01*
X152290476Y-69024819D02*
X152909523Y-69024819D01*
X153290476Y-68120057D02*
X153338095Y-68072438D01*
X153338095Y-68072438D02*
X153433333Y-68024819D01*
X153433333Y-68024819D02*
X153671428Y-68024819D01*
X153671428Y-68024819D02*
X153766666Y-68072438D01*
X153766666Y-68072438D02*
X153814285Y-68120057D01*
X153814285Y-68120057D02*
X153861904Y-68215295D01*
X153861904Y-68215295D02*
X153861904Y-68310533D01*
X153861904Y-68310533D02*
X153814285Y-68453390D01*
X153814285Y-68453390D02*
X153242857Y-69024819D01*
X153242857Y-69024819D02*
X153861904Y-69024819D01*
X130289580Y-60524666D02*
X130337200Y-60572285D01*
X130337200Y-60572285D02*
X130384819Y-60715142D01*
X130384819Y-60715142D02*
X130384819Y-60810380D01*
X130384819Y-60810380D02*
X130337200Y-60953237D01*
X130337200Y-60953237D02*
X130241961Y-61048475D01*
X130241961Y-61048475D02*
X130146723Y-61096094D01*
X130146723Y-61096094D02*
X129956247Y-61143713D01*
X129956247Y-61143713D02*
X129813390Y-61143713D01*
X129813390Y-61143713D02*
X129622914Y-61096094D01*
X129622914Y-61096094D02*
X129527676Y-61048475D01*
X129527676Y-61048475D02*
X129432438Y-60953237D01*
X129432438Y-60953237D02*
X129384819Y-60810380D01*
X129384819Y-60810380D02*
X129384819Y-60715142D01*
X129384819Y-60715142D02*
X129432438Y-60572285D01*
X129432438Y-60572285D02*
X129480057Y-60524666D01*
X129718152Y-59667523D02*
X130384819Y-59667523D01*
X129337200Y-59905618D02*
X130051485Y-60143713D01*
X130051485Y-60143713D02*
X130051485Y-59524666D01*
X137493333Y-83524819D02*
X137160000Y-83048628D01*
X136921905Y-83524819D02*
X136921905Y-82524819D01*
X136921905Y-82524819D02*
X137302857Y-82524819D01*
X137302857Y-82524819D02*
X137398095Y-82572438D01*
X137398095Y-82572438D02*
X137445714Y-82620057D01*
X137445714Y-82620057D02*
X137493333Y-82715295D01*
X137493333Y-82715295D02*
X137493333Y-82858152D01*
X137493333Y-82858152D02*
X137445714Y-82953390D01*
X137445714Y-82953390D02*
X137398095Y-83001009D01*
X137398095Y-83001009D02*
X137302857Y-83048628D01*
X137302857Y-83048628D02*
X136921905Y-83048628D01*
X137826667Y-82524819D02*
X138445714Y-82524819D01*
X138445714Y-82524819D02*
X138112381Y-82905771D01*
X138112381Y-82905771D02*
X138255238Y-82905771D01*
X138255238Y-82905771D02*
X138350476Y-82953390D01*
X138350476Y-82953390D02*
X138398095Y-83001009D01*
X138398095Y-83001009D02*
X138445714Y-83096247D01*
X138445714Y-83096247D02*
X138445714Y-83334342D01*
X138445714Y-83334342D02*
X138398095Y-83429580D01*
X138398095Y-83429580D02*
X138350476Y-83477200D01*
X138350476Y-83477200D02*
X138255238Y-83524819D01*
X138255238Y-83524819D02*
X137969524Y-83524819D01*
X137969524Y-83524819D02*
X137874286Y-83477200D01*
X137874286Y-83477200D02*
X137826667Y-83429580D01*
X154204761Y-91950057D02*
X154109523Y-91902438D01*
X154109523Y-91902438D02*
X154014285Y-91807200D01*
X154014285Y-91807200D02*
X153871428Y-91664342D01*
X153871428Y-91664342D02*
X153776190Y-91616723D01*
X153776190Y-91616723D02*
X153680952Y-91616723D01*
X153728571Y-91854819D02*
X153633333Y-91807200D01*
X153633333Y-91807200D02*
X153538095Y-91711961D01*
X153538095Y-91711961D02*
X153490476Y-91521485D01*
X153490476Y-91521485D02*
X153490476Y-91188152D01*
X153490476Y-91188152D02*
X153538095Y-90997676D01*
X153538095Y-90997676D02*
X153633333Y-90902438D01*
X153633333Y-90902438D02*
X153728571Y-90854819D01*
X153728571Y-90854819D02*
X153919047Y-90854819D01*
X153919047Y-90854819D02*
X154014285Y-90902438D01*
X154014285Y-90902438D02*
X154109523Y-90997676D01*
X154109523Y-90997676D02*
X154157142Y-91188152D01*
X154157142Y-91188152D02*
X154157142Y-91521485D01*
X154157142Y-91521485D02*
X154109523Y-91711961D01*
X154109523Y-91711961D02*
X154014285Y-91807200D01*
X154014285Y-91807200D02*
X153919047Y-91854819D01*
X153919047Y-91854819D02*
X153728571Y-91854819D01*
X154538095Y-90950057D02*
X154585714Y-90902438D01*
X154585714Y-90902438D02*
X154680952Y-90854819D01*
X154680952Y-90854819D02*
X154919047Y-90854819D01*
X154919047Y-90854819D02*
X155014285Y-90902438D01*
X155014285Y-90902438D02*
X155061904Y-90950057D01*
X155061904Y-90950057D02*
X155109523Y-91045295D01*
X155109523Y-91045295D02*
X155109523Y-91140533D01*
X155109523Y-91140533D02*
X155061904Y-91283390D01*
X155061904Y-91283390D02*
X154490476Y-91854819D01*
X154490476Y-91854819D02*
X155109523Y-91854819D01*
X138184819Y-82832857D02*
X137708628Y-83166190D01*
X138184819Y-83404285D02*
X137184819Y-83404285D01*
X137184819Y-83404285D02*
X137184819Y-83023333D01*
X137184819Y-83023333D02*
X137232438Y-82928095D01*
X137232438Y-82928095D02*
X137280057Y-82880476D01*
X137280057Y-82880476D02*
X137375295Y-82832857D01*
X137375295Y-82832857D02*
X137518152Y-82832857D01*
X137518152Y-82832857D02*
X137613390Y-82880476D01*
X137613390Y-82880476D02*
X137661009Y-82928095D01*
X137661009Y-82928095D02*
X137708628Y-83023333D01*
X137708628Y-83023333D02*
X137708628Y-83404285D01*
X137280057Y-82451904D02*
X137232438Y-82404285D01*
X137232438Y-82404285D02*
X137184819Y-82309047D01*
X137184819Y-82309047D02*
X137184819Y-82070952D01*
X137184819Y-82070952D02*
X137232438Y-81975714D01*
X137232438Y-81975714D02*
X137280057Y-81928095D01*
X137280057Y-81928095D02*
X137375295Y-81880476D01*
X137375295Y-81880476D02*
X137470533Y-81880476D01*
X137470533Y-81880476D02*
X137613390Y-81928095D01*
X137613390Y-81928095D02*
X138184819Y-82499523D01*
X138184819Y-82499523D02*
X138184819Y-81880476D01*
X138184819Y-81404285D02*
X138184819Y-81213809D01*
X138184819Y-81213809D02*
X138137200Y-81118571D01*
X138137200Y-81118571D02*
X138089580Y-81070952D01*
X138089580Y-81070952D02*
X137946723Y-80975714D01*
X137946723Y-80975714D02*
X137756247Y-80928095D01*
X137756247Y-80928095D02*
X137375295Y-80928095D01*
X137375295Y-80928095D02*
X137280057Y-80975714D01*
X137280057Y-80975714D02*
X137232438Y-81023333D01*
X137232438Y-81023333D02*
X137184819Y-81118571D01*
X137184819Y-81118571D02*
X137184819Y-81309047D01*
X137184819Y-81309047D02*
X137232438Y-81404285D01*
X137232438Y-81404285D02*
X137280057Y-81451904D01*
X137280057Y-81451904D02*
X137375295Y-81499523D01*
X137375295Y-81499523D02*
X137613390Y-81499523D01*
X137613390Y-81499523D02*
X137708628Y-81451904D01*
X137708628Y-81451904D02*
X137756247Y-81404285D01*
X137756247Y-81404285D02*
X137803866Y-81309047D01*
X137803866Y-81309047D02*
X137803866Y-81118571D01*
X137803866Y-81118571D02*
X137756247Y-81023333D01*
X137756247Y-81023333D02*
X137708628Y-80975714D01*
X137708628Y-80975714D02*
X137613390Y-80928095D01*
X150464819Y-88925333D02*
X151179104Y-88925333D01*
X151179104Y-88925333D02*
X151321961Y-88972952D01*
X151321961Y-88972952D02*
X151417200Y-89068190D01*
X151417200Y-89068190D02*
X151464819Y-89211047D01*
X151464819Y-89211047D02*
X151464819Y-89306285D01*
X150893390Y-88306285D02*
X150845771Y-88401523D01*
X150845771Y-88401523D02*
X150798152Y-88449142D01*
X150798152Y-88449142D02*
X150702914Y-88496761D01*
X150702914Y-88496761D02*
X150655295Y-88496761D01*
X150655295Y-88496761D02*
X150560057Y-88449142D01*
X150560057Y-88449142D02*
X150512438Y-88401523D01*
X150512438Y-88401523D02*
X150464819Y-88306285D01*
X150464819Y-88306285D02*
X150464819Y-88115809D01*
X150464819Y-88115809D02*
X150512438Y-88020571D01*
X150512438Y-88020571D02*
X150560057Y-87972952D01*
X150560057Y-87972952D02*
X150655295Y-87925333D01*
X150655295Y-87925333D02*
X150702914Y-87925333D01*
X150702914Y-87925333D02*
X150798152Y-87972952D01*
X150798152Y-87972952D02*
X150845771Y-88020571D01*
X150845771Y-88020571D02*
X150893390Y-88115809D01*
X150893390Y-88115809D02*
X150893390Y-88306285D01*
X150893390Y-88306285D02*
X150941009Y-88401523D01*
X150941009Y-88401523D02*
X150988628Y-88449142D01*
X150988628Y-88449142D02*
X151083866Y-88496761D01*
X151083866Y-88496761D02*
X151274342Y-88496761D01*
X151274342Y-88496761D02*
X151369580Y-88449142D01*
X151369580Y-88449142D02*
X151417200Y-88401523D01*
X151417200Y-88401523D02*
X151464819Y-88306285D01*
X151464819Y-88306285D02*
X151464819Y-88115809D01*
X151464819Y-88115809D02*
X151417200Y-88020571D01*
X151417200Y-88020571D02*
X151369580Y-87972952D01*
X151369580Y-87972952D02*
X151274342Y-87925333D01*
X151274342Y-87925333D02*
X151083866Y-87925333D01*
X151083866Y-87925333D02*
X150988628Y-87972952D01*
X150988628Y-87972952D02*
X150941009Y-88020571D01*
X150941009Y-88020571D02*
X150893390Y-88115809D01*
X151957142Y-67524819D02*
X151623809Y-67048628D01*
X151385714Y-67524819D02*
X151385714Y-66524819D01*
X151385714Y-66524819D02*
X151766666Y-66524819D01*
X151766666Y-66524819D02*
X151861904Y-66572438D01*
X151861904Y-66572438D02*
X151909523Y-66620057D01*
X151909523Y-66620057D02*
X151957142Y-66715295D01*
X151957142Y-66715295D02*
X151957142Y-66858152D01*
X151957142Y-66858152D02*
X151909523Y-66953390D01*
X151909523Y-66953390D02*
X151861904Y-67001009D01*
X151861904Y-67001009D02*
X151766666Y-67048628D01*
X151766666Y-67048628D02*
X151385714Y-67048628D01*
X152338095Y-66620057D02*
X152385714Y-66572438D01*
X152385714Y-66572438D02*
X152480952Y-66524819D01*
X152480952Y-66524819D02*
X152719047Y-66524819D01*
X152719047Y-66524819D02*
X152814285Y-66572438D01*
X152814285Y-66572438D02*
X152861904Y-66620057D01*
X152861904Y-66620057D02*
X152909523Y-66715295D01*
X152909523Y-66715295D02*
X152909523Y-66810533D01*
X152909523Y-66810533D02*
X152861904Y-66953390D01*
X152861904Y-66953390D02*
X152290476Y-67524819D01*
X152290476Y-67524819D02*
X152909523Y-67524819D01*
X153242857Y-66524819D02*
X153861904Y-66524819D01*
X153861904Y-66524819D02*
X153528571Y-66905771D01*
X153528571Y-66905771D02*
X153671428Y-66905771D01*
X153671428Y-66905771D02*
X153766666Y-66953390D01*
X153766666Y-66953390D02*
X153814285Y-67001009D01*
X153814285Y-67001009D02*
X153861904Y-67096247D01*
X153861904Y-67096247D02*
X153861904Y-67334342D01*
X153861904Y-67334342D02*
X153814285Y-67429580D01*
X153814285Y-67429580D02*
X153766666Y-67477200D01*
X153766666Y-67477200D02*
X153671428Y-67524819D01*
X153671428Y-67524819D02*
X153385714Y-67524819D01*
X153385714Y-67524819D02*
X153290476Y-67477200D01*
X153290476Y-67477200D02*
X153242857Y-67429580D01*
X126889580Y-94679260D02*
X126937200Y-94726879D01*
X126937200Y-94726879D02*
X126984819Y-94869736D01*
X126984819Y-94869736D02*
X126984819Y-94964974D01*
X126984819Y-94964974D02*
X126937200Y-95107831D01*
X126937200Y-95107831D02*
X126841961Y-95203069D01*
X126841961Y-95203069D02*
X126746723Y-95250688D01*
X126746723Y-95250688D02*
X126556247Y-95298307D01*
X126556247Y-95298307D02*
X126413390Y-95298307D01*
X126413390Y-95298307D02*
X126222914Y-95250688D01*
X126222914Y-95250688D02*
X126127676Y-95203069D01*
X126127676Y-95203069D02*
X126032438Y-95107831D01*
X126032438Y-95107831D02*
X125984819Y-94964974D01*
X125984819Y-94964974D02*
X125984819Y-94869736D01*
X125984819Y-94869736D02*
X126032438Y-94726879D01*
X126032438Y-94726879D02*
X126080057Y-94679260D01*
X125984819Y-94345926D02*
X125984819Y-93726879D01*
X125984819Y-93726879D02*
X126365771Y-94060212D01*
X126365771Y-94060212D02*
X126365771Y-93917355D01*
X126365771Y-93917355D02*
X126413390Y-93822117D01*
X126413390Y-93822117D02*
X126461009Y-93774498D01*
X126461009Y-93774498D02*
X126556247Y-93726879D01*
X126556247Y-93726879D02*
X126794342Y-93726879D01*
X126794342Y-93726879D02*
X126889580Y-93774498D01*
X126889580Y-93774498D02*
X126937200Y-93822117D01*
X126937200Y-93822117D02*
X126984819Y-93917355D01*
X126984819Y-93917355D02*
X126984819Y-94203069D01*
X126984819Y-94203069D02*
X126937200Y-94298307D01*
X126937200Y-94298307D02*
X126889580Y-94345926D01*
X151893333Y-60221580D02*
X151845714Y-60269200D01*
X151845714Y-60269200D02*
X151702857Y-60316819D01*
X151702857Y-60316819D02*
X151607619Y-60316819D01*
X151607619Y-60316819D02*
X151464762Y-60269200D01*
X151464762Y-60269200D02*
X151369524Y-60173961D01*
X151369524Y-60173961D02*
X151321905Y-60078723D01*
X151321905Y-60078723D02*
X151274286Y-59888247D01*
X151274286Y-59888247D02*
X151274286Y-59745390D01*
X151274286Y-59745390D02*
X151321905Y-59554914D01*
X151321905Y-59554914D02*
X151369524Y-59459676D01*
X151369524Y-59459676D02*
X151464762Y-59364438D01*
X151464762Y-59364438D02*
X151607619Y-59316819D01*
X151607619Y-59316819D02*
X151702857Y-59316819D01*
X151702857Y-59316819D02*
X151845714Y-59364438D01*
X151845714Y-59364438D02*
X151893333Y-59412057D01*
X152845714Y-60316819D02*
X152274286Y-60316819D01*
X152560000Y-60316819D02*
X152560000Y-59316819D01*
X152560000Y-59316819D02*
X152464762Y-59459676D01*
X152464762Y-59459676D02*
X152369524Y-59554914D01*
X152369524Y-59554914D02*
X152274286Y-59602533D01*
X150782142Y-103224819D02*
X150448809Y-102748628D01*
X150210714Y-103224819D02*
X150210714Y-102224819D01*
X150210714Y-102224819D02*
X150591666Y-102224819D01*
X150591666Y-102224819D02*
X150686904Y-102272438D01*
X150686904Y-102272438D02*
X150734523Y-102320057D01*
X150734523Y-102320057D02*
X150782142Y-102415295D01*
X150782142Y-102415295D02*
X150782142Y-102558152D01*
X150782142Y-102558152D02*
X150734523Y-102653390D01*
X150734523Y-102653390D02*
X150686904Y-102701009D01*
X150686904Y-102701009D02*
X150591666Y-102748628D01*
X150591666Y-102748628D02*
X150210714Y-102748628D01*
X151734523Y-103224819D02*
X151163095Y-103224819D01*
X151448809Y-103224819D02*
X151448809Y-102224819D01*
X151448809Y-102224819D02*
X151353571Y-102367676D01*
X151353571Y-102367676D02*
X151258333Y-102462914D01*
X151258333Y-102462914D02*
X151163095Y-102510533D01*
X152591666Y-102224819D02*
X152401190Y-102224819D01*
X152401190Y-102224819D02*
X152305952Y-102272438D01*
X152305952Y-102272438D02*
X152258333Y-102320057D01*
X152258333Y-102320057D02*
X152163095Y-102462914D01*
X152163095Y-102462914D02*
X152115476Y-102653390D01*
X152115476Y-102653390D02*
X152115476Y-103034342D01*
X152115476Y-103034342D02*
X152163095Y-103129580D01*
X152163095Y-103129580D02*
X152210714Y-103177200D01*
X152210714Y-103177200D02*
X152305952Y-103224819D01*
X152305952Y-103224819D02*
X152496428Y-103224819D01*
X152496428Y-103224819D02*
X152591666Y-103177200D01*
X152591666Y-103177200D02*
X152639285Y-103129580D01*
X152639285Y-103129580D02*
X152686904Y-103034342D01*
X152686904Y-103034342D02*
X152686904Y-102796247D01*
X152686904Y-102796247D02*
X152639285Y-102701009D01*
X152639285Y-102701009D02*
X152591666Y-102653390D01*
X152591666Y-102653390D02*
X152496428Y-102605771D01*
X152496428Y-102605771D02*
X152305952Y-102605771D01*
X152305952Y-102605771D02*
X152210714Y-102653390D01*
X152210714Y-102653390D02*
X152163095Y-102701009D01*
X152163095Y-102701009D02*
X152115476Y-102796247D01*
X154417142Y-61429580D02*
X154369523Y-61477200D01*
X154369523Y-61477200D02*
X154226666Y-61524819D01*
X154226666Y-61524819D02*
X154131428Y-61524819D01*
X154131428Y-61524819D02*
X153988571Y-61477200D01*
X153988571Y-61477200D02*
X153893333Y-61381961D01*
X153893333Y-61381961D02*
X153845714Y-61286723D01*
X153845714Y-61286723D02*
X153798095Y-61096247D01*
X153798095Y-61096247D02*
X153798095Y-60953390D01*
X153798095Y-60953390D02*
X153845714Y-60762914D01*
X153845714Y-60762914D02*
X153893333Y-60667676D01*
X153893333Y-60667676D02*
X153988571Y-60572438D01*
X153988571Y-60572438D02*
X154131428Y-60524819D01*
X154131428Y-60524819D02*
X154226666Y-60524819D01*
X154226666Y-60524819D02*
X154369523Y-60572438D01*
X154369523Y-60572438D02*
X154417142Y-60620057D01*
X155369523Y-61524819D02*
X154798095Y-61524819D01*
X155083809Y-61524819D02*
X155083809Y-60524819D01*
X155083809Y-60524819D02*
X154988571Y-60667676D01*
X154988571Y-60667676D02*
X154893333Y-60762914D01*
X154893333Y-60762914D02*
X154798095Y-60810533D01*
X156274285Y-60524819D02*
X155798095Y-60524819D01*
X155798095Y-60524819D02*
X155750476Y-61001009D01*
X155750476Y-61001009D02*
X155798095Y-60953390D01*
X155798095Y-60953390D02*
X155893333Y-60905771D01*
X155893333Y-60905771D02*
X156131428Y-60905771D01*
X156131428Y-60905771D02*
X156226666Y-60953390D01*
X156226666Y-60953390D02*
X156274285Y-61001009D01*
X156274285Y-61001009D02*
X156321904Y-61096247D01*
X156321904Y-61096247D02*
X156321904Y-61334342D01*
X156321904Y-61334342D02*
X156274285Y-61429580D01*
X156274285Y-61429580D02*
X156226666Y-61477200D01*
X156226666Y-61477200D02*
X156131428Y-61524819D01*
X156131428Y-61524819D02*
X155893333Y-61524819D01*
X155893333Y-61524819D02*
X155798095Y-61477200D01*
X155798095Y-61477200D02*
X155750476Y-61429580D01*
X135639580Y-94909857D02*
X135687200Y-94957476D01*
X135687200Y-94957476D02*
X135734819Y-95100333D01*
X135734819Y-95100333D02*
X135734819Y-95195571D01*
X135734819Y-95195571D02*
X135687200Y-95338428D01*
X135687200Y-95338428D02*
X135591961Y-95433666D01*
X135591961Y-95433666D02*
X135496723Y-95481285D01*
X135496723Y-95481285D02*
X135306247Y-95528904D01*
X135306247Y-95528904D02*
X135163390Y-95528904D01*
X135163390Y-95528904D02*
X134972914Y-95481285D01*
X134972914Y-95481285D02*
X134877676Y-95433666D01*
X134877676Y-95433666D02*
X134782438Y-95338428D01*
X134782438Y-95338428D02*
X134734819Y-95195571D01*
X134734819Y-95195571D02*
X134734819Y-95100333D01*
X134734819Y-95100333D02*
X134782438Y-94957476D01*
X134782438Y-94957476D02*
X134830057Y-94909857D01*
X135734819Y-93957476D02*
X135734819Y-94528904D01*
X135734819Y-94243190D02*
X134734819Y-94243190D01*
X134734819Y-94243190D02*
X134877676Y-94338428D01*
X134877676Y-94338428D02*
X134972914Y-94433666D01*
X134972914Y-94433666D02*
X135020533Y-94528904D01*
X134734819Y-93624142D02*
X134734819Y-93005095D01*
X134734819Y-93005095D02*
X135115771Y-93338428D01*
X135115771Y-93338428D02*
X135115771Y-93195571D01*
X135115771Y-93195571D02*
X135163390Y-93100333D01*
X135163390Y-93100333D02*
X135211009Y-93052714D01*
X135211009Y-93052714D02*
X135306247Y-93005095D01*
X135306247Y-93005095D02*
X135544342Y-93005095D01*
X135544342Y-93005095D02*
X135639580Y-93052714D01*
X135639580Y-93052714D02*
X135687200Y-93100333D01*
X135687200Y-93100333D02*
X135734819Y-93195571D01*
X135734819Y-93195571D02*
X135734819Y-93481285D01*
X135734819Y-93481285D02*
X135687200Y-93576523D01*
X135687200Y-93576523D02*
X135639580Y-93624142D01*
X127198095Y-89098819D02*
X127769523Y-89098819D01*
X127483809Y-90098819D02*
X127483809Y-89098819D01*
X128102857Y-90098819D02*
X128102857Y-89098819D01*
X128102857Y-89098819D02*
X128483809Y-89098819D01*
X128483809Y-89098819D02*
X128579047Y-89146438D01*
X128579047Y-89146438D02*
X128626666Y-89194057D01*
X128626666Y-89194057D02*
X128674285Y-89289295D01*
X128674285Y-89289295D02*
X128674285Y-89432152D01*
X128674285Y-89432152D02*
X128626666Y-89527390D01*
X128626666Y-89527390D02*
X128579047Y-89575009D01*
X128579047Y-89575009D02*
X128483809Y-89622628D01*
X128483809Y-89622628D02*
X128102857Y-89622628D01*
X129531428Y-89432152D02*
X129531428Y-90098819D01*
X129293333Y-89051200D02*
X129055238Y-89765485D01*
X129055238Y-89765485D02*
X129674285Y-89765485D01*
X132198095Y-99598819D02*
X132769523Y-99598819D01*
X132483809Y-100598819D02*
X132483809Y-99598819D01*
X133102857Y-100598819D02*
X133102857Y-99598819D01*
X133102857Y-99598819D02*
X133483809Y-99598819D01*
X133483809Y-99598819D02*
X133579047Y-99646438D01*
X133579047Y-99646438D02*
X133626666Y-99694057D01*
X133626666Y-99694057D02*
X133674285Y-99789295D01*
X133674285Y-99789295D02*
X133674285Y-99932152D01*
X133674285Y-99932152D02*
X133626666Y-100027390D01*
X133626666Y-100027390D02*
X133579047Y-100075009D01*
X133579047Y-100075009D02*
X133483809Y-100122628D01*
X133483809Y-100122628D02*
X133102857Y-100122628D01*
X134007619Y-99598819D02*
X134626666Y-99598819D01*
X134626666Y-99598819D02*
X134293333Y-99979771D01*
X134293333Y-99979771D02*
X134436190Y-99979771D01*
X134436190Y-99979771D02*
X134531428Y-100027390D01*
X134531428Y-100027390D02*
X134579047Y-100075009D01*
X134579047Y-100075009D02*
X134626666Y-100170247D01*
X134626666Y-100170247D02*
X134626666Y-100408342D01*
X134626666Y-100408342D02*
X134579047Y-100503580D01*
X134579047Y-100503580D02*
X134531428Y-100551200D01*
X134531428Y-100551200D02*
X134436190Y-100598819D01*
X134436190Y-100598819D02*
X134150476Y-100598819D01*
X134150476Y-100598819D02*
X134055238Y-100551200D01*
X134055238Y-100551200D02*
X134007619Y-100503580D01*
X138808819Y-95036666D02*
X138332628Y-95369999D01*
X138808819Y-95608094D02*
X137808819Y-95608094D01*
X137808819Y-95608094D02*
X137808819Y-95227142D01*
X137808819Y-95227142D02*
X137856438Y-95131904D01*
X137856438Y-95131904D02*
X137904057Y-95084285D01*
X137904057Y-95084285D02*
X137999295Y-95036666D01*
X137999295Y-95036666D02*
X138142152Y-95036666D01*
X138142152Y-95036666D02*
X138237390Y-95084285D01*
X138237390Y-95084285D02*
X138285009Y-95131904D01*
X138285009Y-95131904D02*
X138332628Y-95227142D01*
X138332628Y-95227142D02*
X138332628Y-95608094D01*
X137904057Y-94655713D02*
X137856438Y-94608094D01*
X137856438Y-94608094D02*
X137808819Y-94512856D01*
X137808819Y-94512856D02*
X137808819Y-94274761D01*
X137808819Y-94274761D02*
X137856438Y-94179523D01*
X137856438Y-94179523D02*
X137904057Y-94131904D01*
X137904057Y-94131904D02*
X137999295Y-94084285D01*
X137999295Y-94084285D02*
X138094533Y-94084285D01*
X138094533Y-94084285D02*
X138237390Y-94131904D01*
X138237390Y-94131904D02*
X138808819Y-94703332D01*
X138808819Y-94703332D02*
X138808819Y-94084285D01*
X132324819Y-84557857D02*
X131848628Y-84891190D01*
X132324819Y-85129285D02*
X131324819Y-85129285D01*
X131324819Y-85129285D02*
X131324819Y-84748333D01*
X131324819Y-84748333D02*
X131372438Y-84653095D01*
X131372438Y-84653095D02*
X131420057Y-84605476D01*
X131420057Y-84605476D02*
X131515295Y-84557857D01*
X131515295Y-84557857D02*
X131658152Y-84557857D01*
X131658152Y-84557857D02*
X131753390Y-84605476D01*
X131753390Y-84605476D02*
X131801009Y-84653095D01*
X131801009Y-84653095D02*
X131848628Y-84748333D01*
X131848628Y-84748333D02*
X131848628Y-85129285D01*
X131420057Y-84176904D02*
X131372438Y-84129285D01*
X131372438Y-84129285D02*
X131324819Y-84034047D01*
X131324819Y-84034047D02*
X131324819Y-83795952D01*
X131324819Y-83795952D02*
X131372438Y-83700714D01*
X131372438Y-83700714D02*
X131420057Y-83653095D01*
X131420057Y-83653095D02*
X131515295Y-83605476D01*
X131515295Y-83605476D02*
X131610533Y-83605476D01*
X131610533Y-83605476D02*
X131753390Y-83653095D01*
X131753390Y-83653095D02*
X132324819Y-84224523D01*
X132324819Y-84224523D02*
X132324819Y-83605476D01*
X131324819Y-83272142D02*
X131324819Y-82605476D01*
X131324819Y-82605476D02*
X132324819Y-83034047D01*
X148532142Y-85524819D02*
X148198809Y-85048628D01*
X147960714Y-85524819D02*
X147960714Y-84524819D01*
X147960714Y-84524819D02*
X148341666Y-84524819D01*
X148341666Y-84524819D02*
X148436904Y-84572438D01*
X148436904Y-84572438D02*
X148484523Y-84620057D01*
X148484523Y-84620057D02*
X148532142Y-84715295D01*
X148532142Y-84715295D02*
X148532142Y-84858152D01*
X148532142Y-84858152D02*
X148484523Y-84953390D01*
X148484523Y-84953390D02*
X148436904Y-85001009D01*
X148436904Y-85001009D02*
X148341666Y-85048628D01*
X148341666Y-85048628D02*
X147960714Y-85048628D01*
X148913095Y-84620057D02*
X148960714Y-84572438D01*
X148960714Y-84572438D02*
X149055952Y-84524819D01*
X149055952Y-84524819D02*
X149294047Y-84524819D01*
X149294047Y-84524819D02*
X149389285Y-84572438D01*
X149389285Y-84572438D02*
X149436904Y-84620057D01*
X149436904Y-84620057D02*
X149484523Y-84715295D01*
X149484523Y-84715295D02*
X149484523Y-84810533D01*
X149484523Y-84810533D02*
X149436904Y-84953390D01*
X149436904Y-84953390D02*
X148865476Y-85524819D01*
X148865476Y-85524819D02*
X149484523Y-85524819D01*
X150436904Y-85524819D02*
X149865476Y-85524819D01*
X150151190Y-85524819D02*
X150151190Y-84524819D01*
X150151190Y-84524819D02*
X150055952Y-84667676D01*
X150055952Y-84667676D02*
X149960714Y-84762914D01*
X149960714Y-84762914D02*
X149865476Y-84810533D01*
X129124819Y-69341666D02*
X128648628Y-69674999D01*
X129124819Y-69913094D02*
X128124819Y-69913094D01*
X128124819Y-69913094D02*
X128124819Y-69532142D01*
X128124819Y-69532142D02*
X128172438Y-69436904D01*
X128172438Y-69436904D02*
X128220057Y-69389285D01*
X128220057Y-69389285D02*
X128315295Y-69341666D01*
X128315295Y-69341666D02*
X128458152Y-69341666D01*
X128458152Y-69341666D02*
X128553390Y-69389285D01*
X128553390Y-69389285D02*
X128601009Y-69436904D01*
X128601009Y-69436904D02*
X128648628Y-69532142D01*
X128648628Y-69532142D02*
X128648628Y-69913094D01*
X128124819Y-68484523D02*
X128124819Y-68674999D01*
X128124819Y-68674999D02*
X128172438Y-68770237D01*
X128172438Y-68770237D02*
X128220057Y-68817856D01*
X128220057Y-68817856D02*
X128362914Y-68913094D01*
X128362914Y-68913094D02*
X128553390Y-68960713D01*
X128553390Y-68960713D02*
X128934342Y-68960713D01*
X128934342Y-68960713D02*
X129029580Y-68913094D01*
X129029580Y-68913094D02*
X129077200Y-68865475D01*
X129077200Y-68865475D02*
X129124819Y-68770237D01*
X129124819Y-68770237D02*
X129124819Y-68579761D01*
X129124819Y-68579761D02*
X129077200Y-68484523D01*
X129077200Y-68484523D02*
X129029580Y-68436904D01*
X129029580Y-68436904D02*
X128934342Y-68389285D01*
X128934342Y-68389285D02*
X128696247Y-68389285D01*
X128696247Y-68389285D02*
X128601009Y-68436904D01*
X128601009Y-68436904D02*
X128553390Y-68484523D01*
X128553390Y-68484523D02*
X128505771Y-68579761D01*
X128505771Y-68579761D02*
X128505771Y-68770237D01*
X128505771Y-68770237D02*
X128553390Y-68865475D01*
X128553390Y-68865475D02*
X128601009Y-68913094D01*
X128601009Y-68913094D02*
X128696247Y-68960713D01*
X131921580Y-60524666D02*
X131969200Y-60572285D01*
X131969200Y-60572285D02*
X132016819Y-60715142D01*
X132016819Y-60715142D02*
X132016819Y-60810380D01*
X132016819Y-60810380D02*
X131969200Y-60953237D01*
X131969200Y-60953237D02*
X131873961Y-61048475D01*
X131873961Y-61048475D02*
X131778723Y-61096094D01*
X131778723Y-61096094D02*
X131588247Y-61143713D01*
X131588247Y-61143713D02*
X131445390Y-61143713D01*
X131445390Y-61143713D02*
X131254914Y-61096094D01*
X131254914Y-61096094D02*
X131159676Y-61048475D01*
X131159676Y-61048475D02*
X131064438Y-60953237D01*
X131064438Y-60953237D02*
X131016819Y-60810380D01*
X131016819Y-60810380D02*
X131016819Y-60715142D01*
X131016819Y-60715142D02*
X131064438Y-60572285D01*
X131064438Y-60572285D02*
X131112057Y-60524666D01*
X131016819Y-59619904D02*
X131016819Y-60096094D01*
X131016819Y-60096094D02*
X131493009Y-60143713D01*
X131493009Y-60143713D02*
X131445390Y-60096094D01*
X131445390Y-60096094D02*
X131397771Y-60000856D01*
X131397771Y-60000856D02*
X131397771Y-59762761D01*
X131397771Y-59762761D02*
X131445390Y-59667523D01*
X131445390Y-59667523D02*
X131493009Y-59619904D01*
X131493009Y-59619904D02*
X131588247Y-59572285D01*
X131588247Y-59572285D02*
X131826342Y-59572285D01*
X131826342Y-59572285D02*
X131921580Y-59619904D01*
X131921580Y-59619904D02*
X131969200Y-59667523D01*
X131969200Y-59667523D02*
X132016819Y-59762761D01*
X132016819Y-59762761D02*
X132016819Y-60000856D01*
X132016819Y-60000856D02*
X131969200Y-60096094D01*
X131969200Y-60096094D02*
X131921580Y-60143713D01*
X146932142Y-81974819D02*
X146598809Y-81498628D01*
X146360714Y-81974819D02*
X146360714Y-80974819D01*
X146360714Y-80974819D02*
X146741666Y-80974819D01*
X146741666Y-80974819D02*
X146836904Y-81022438D01*
X146836904Y-81022438D02*
X146884523Y-81070057D01*
X146884523Y-81070057D02*
X146932142Y-81165295D01*
X146932142Y-81165295D02*
X146932142Y-81308152D01*
X146932142Y-81308152D02*
X146884523Y-81403390D01*
X146884523Y-81403390D02*
X146836904Y-81451009D01*
X146836904Y-81451009D02*
X146741666Y-81498628D01*
X146741666Y-81498628D02*
X146360714Y-81498628D01*
X147884523Y-81974819D02*
X147313095Y-81974819D01*
X147598809Y-81974819D02*
X147598809Y-80974819D01*
X147598809Y-80974819D02*
X147503571Y-81117676D01*
X147503571Y-81117676D02*
X147408333Y-81212914D01*
X147408333Y-81212914D02*
X147313095Y-81260533D01*
X148217857Y-80974819D02*
X148836904Y-80974819D01*
X148836904Y-80974819D02*
X148503571Y-81355771D01*
X148503571Y-81355771D02*
X148646428Y-81355771D01*
X148646428Y-81355771D02*
X148741666Y-81403390D01*
X148741666Y-81403390D02*
X148789285Y-81451009D01*
X148789285Y-81451009D02*
X148836904Y-81546247D01*
X148836904Y-81546247D02*
X148836904Y-81784342D01*
X148836904Y-81784342D02*
X148789285Y-81879580D01*
X148789285Y-81879580D02*
X148741666Y-81927200D01*
X148741666Y-81927200D02*
X148646428Y-81974819D01*
X148646428Y-81974819D02*
X148360714Y-81974819D01*
X148360714Y-81974819D02*
X148265476Y-81927200D01*
X148265476Y-81927200D02*
X148217857Y-81879580D01*
X133824819Y-78532857D02*
X133348628Y-78866190D01*
X133824819Y-79104285D02*
X132824819Y-79104285D01*
X132824819Y-79104285D02*
X132824819Y-78723333D01*
X132824819Y-78723333D02*
X132872438Y-78628095D01*
X132872438Y-78628095D02*
X132920057Y-78580476D01*
X132920057Y-78580476D02*
X133015295Y-78532857D01*
X133015295Y-78532857D02*
X133158152Y-78532857D01*
X133158152Y-78532857D02*
X133253390Y-78580476D01*
X133253390Y-78580476D02*
X133301009Y-78628095D01*
X133301009Y-78628095D02*
X133348628Y-78723333D01*
X133348628Y-78723333D02*
X133348628Y-79104285D01*
X133824819Y-77580476D02*
X133824819Y-78151904D01*
X133824819Y-77866190D02*
X132824819Y-77866190D01*
X132824819Y-77866190D02*
X132967676Y-77961428D01*
X132967676Y-77961428D02*
X133062914Y-78056666D01*
X133062914Y-78056666D02*
X133110533Y-78151904D01*
X132824819Y-76961428D02*
X132824819Y-76866190D01*
X132824819Y-76866190D02*
X132872438Y-76770952D01*
X132872438Y-76770952D02*
X132920057Y-76723333D01*
X132920057Y-76723333D02*
X133015295Y-76675714D01*
X133015295Y-76675714D02*
X133205771Y-76628095D01*
X133205771Y-76628095D02*
X133443866Y-76628095D01*
X133443866Y-76628095D02*
X133634342Y-76675714D01*
X133634342Y-76675714D02*
X133729580Y-76723333D01*
X133729580Y-76723333D02*
X133777200Y-76770952D01*
X133777200Y-76770952D02*
X133824819Y-76866190D01*
X133824819Y-76866190D02*
X133824819Y-76961428D01*
X133824819Y-76961428D02*
X133777200Y-77056666D01*
X133777200Y-77056666D02*
X133729580Y-77104285D01*
X133729580Y-77104285D02*
X133634342Y-77151904D01*
X133634342Y-77151904D02*
X133443866Y-77199523D01*
X133443866Y-77199523D02*
X133205771Y-77199523D01*
X133205771Y-77199523D02*
X133015295Y-77151904D01*
X133015295Y-77151904D02*
X132920057Y-77104285D01*
X132920057Y-77104285D02*
X132872438Y-77056666D01*
X132872438Y-77056666D02*
X132824819Y-76961428D01*
X149389580Y-97866666D02*
X149437200Y-97914285D01*
X149437200Y-97914285D02*
X149484819Y-98057142D01*
X149484819Y-98057142D02*
X149484819Y-98152380D01*
X149484819Y-98152380D02*
X149437200Y-98295237D01*
X149437200Y-98295237D02*
X149341961Y-98390475D01*
X149341961Y-98390475D02*
X149246723Y-98438094D01*
X149246723Y-98438094D02*
X149056247Y-98485713D01*
X149056247Y-98485713D02*
X148913390Y-98485713D01*
X148913390Y-98485713D02*
X148722914Y-98438094D01*
X148722914Y-98438094D02*
X148627676Y-98390475D01*
X148627676Y-98390475D02*
X148532438Y-98295237D01*
X148532438Y-98295237D02*
X148484819Y-98152380D01*
X148484819Y-98152380D02*
X148484819Y-98057142D01*
X148484819Y-98057142D02*
X148532438Y-97914285D01*
X148532438Y-97914285D02*
X148580057Y-97866666D01*
X148484819Y-97009523D02*
X148484819Y-97199999D01*
X148484819Y-97199999D02*
X148532438Y-97295237D01*
X148532438Y-97295237D02*
X148580057Y-97342856D01*
X148580057Y-97342856D02*
X148722914Y-97438094D01*
X148722914Y-97438094D02*
X148913390Y-97485713D01*
X148913390Y-97485713D02*
X149294342Y-97485713D01*
X149294342Y-97485713D02*
X149389580Y-97438094D01*
X149389580Y-97438094D02*
X149437200Y-97390475D01*
X149437200Y-97390475D02*
X149484819Y-97295237D01*
X149484819Y-97295237D02*
X149484819Y-97104761D01*
X149484819Y-97104761D02*
X149437200Y-97009523D01*
X149437200Y-97009523D02*
X149389580Y-96961904D01*
X149389580Y-96961904D02*
X149294342Y-96914285D01*
X149294342Y-96914285D02*
X149056247Y-96914285D01*
X149056247Y-96914285D02*
X148961009Y-96961904D01*
X148961009Y-96961904D02*
X148913390Y-97009523D01*
X148913390Y-97009523D02*
X148865771Y-97104761D01*
X148865771Y-97104761D02*
X148865771Y-97295237D01*
X148865771Y-97295237D02*
X148913390Y-97390475D01*
X148913390Y-97390475D02*
X148961009Y-97438094D01*
X148961009Y-97438094D02*
X149056247Y-97485713D01*
X145457142Y-85524819D02*
X145123809Y-85048628D01*
X144885714Y-85524819D02*
X144885714Y-84524819D01*
X144885714Y-84524819D02*
X145266666Y-84524819D01*
X145266666Y-84524819D02*
X145361904Y-84572438D01*
X145361904Y-84572438D02*
X145409523Y-84620057D01*
X145409523Y-84620057D02*
X145457142Y-84715295D01*
X145457142Y-84715295D02*
X145457142Y-84858152D01*
X145457142Y-84858152D02*
X145409523Y-84953390D01*
X145409523Y-84953390D02*
X145361904Y-85001009D01*
X145361904Y-85001009D02*
X145266666Y-85048628D01*
X145266666Y-85048628D02*
X144885714Y-85048628D01*
X145838095Y-84620057D02*
X145885714Y-84572438D01*
X145885714Y-84572438D02*
X145980952Y-84524819D01*
X145980952Y-84524819D02*
X146219047Y-84524819D01*
X146219047Y-84524819D02*
X146314285Y-84572438D01*
X146314285Y-84572438D02*
X146361904Y-84620057D01*
X146361904Y-84620057D02*
X146409523Y-84715295D01*
X146409523Y-84715295D02*
X146409523Y-84810533D01*
X146409523Y-84810533D02*
X146361904Y-84953390D01*
X146361904Y-84953390D02*
X145790476Y-85524819D01*
X145790476Y-85524819D02*
X146409523Y-85524819D01*
X147028571Y-84524819D02*
X147123809Y-84524819D01*
X147123809Y-84524819D02*
X147219047Y-84572438D01*
X147219047Y-84572438D02*
X147266666Y-84620057D01*
X147266666Y-84620057D02*
X147314285Y-84715295D01*
X147314285Y-84715295D02*
X147361904Y-84905771D01*
X147361904Y-84905771D02*
X147361904Y-85143866D01*
X147361904Y-85143866D02*
X147314285Y-85334342D01*
X147314285Y-85334342D02*
X147266666Y-85429580D01*
X147266666Y-85429580D02*
X147219047Y-85477200D01*
X147219047Y-85477200D02*
X147123809Y-85524819D01*
X147123809Y-85524819D02*
X147028571Y-85524819D01*
X147028571Y-85524819D02*
X146933333Y-85477200D01*
X146933333Y-85477200D02*
X146885714Y-85429580D01*
X146885714Y-85429580D02*
X146838095Y-85334342D01*
X146838095Y-85334342D02*
X146790476Y-85143866D01*
X146790476Y-85143866D02*
X146790476Y-84905771D01*
X146790476Y-84905771D02*
X146838095Y-84715295D01*
X146838095Y-84715295D02*
X146885714Y-84620057D01*
X146885714Y-84620057D02*
X146933333Y-84572438D01*
X146933333Y-84572438D02*
X147028571Y-84524819D01*
D11*
X134593333Y-98413940D02*
X134831428Y-98413940D01*
X134831428Y-98413940D02*
X134831428Y-98913940D01*
X134164761Y-98413940D02*
X134450475Y-98413940D01*
X134307618Y-98413940D02*
X134307618Y-98913940D01*
X134307618Y-98913940D02*
X134355237Y-98842511D01*
X134355237Y-98842511D02*
X134402856Y-98794892D01*
X134402856Y-98794892D02*
X134450475Y-98771083D01*
D10*
X128346313Y-95155451D02*
X128393933Y-95203070D01*
X128393933Y-95203070D02*
X128441552Y-95345927D01*
X128441552Y-95345927D02*
X128441552Y-95441165D01*
X128441552Y-95441165D02*
X128393933Y-95584022D01*
X128393933Y-95584022D02*
X128298694Y-95679260D01*
X128298694Y-95679260D02*
X128203456Y-95726879D01*
X128203456Y-95726879D02*
X128012980Y-95774498D01*
X128012980Y-95774498D02*
X127870123Y-95774498D01*
X127870123Y-95774498D02*
X127679647Y-95726879D01*
X127679647Y-95726879D02*
X127584409Y-95679260D01*
X127584409Y-95679260D02*
X127489171Y-95584022D01*
X127489171Y-95584022D02*
X127441552Y-95441165D01*
X127441552Y-95441165D02*
X127441552Y-95345927D01*
X127441552Y-95345927D02*
X127489171Y-95203070D01*
X127489171Y-95203070D02*
X127536790Y-95155451D01*
X128441552Y-94203070D02*
X128441552Y-94774498D01*
X128441552Y-94488784D02*
X127441552Y-94488784D01*
X127441552Y-94488784D02*
X127584409Y-94584022D01*
X127584409Y-94584022D02*
X127679647Y-94679260D01*
X127679647Y-94679260D02*
X127727266Y-94774498D01*
X127870123Y-93631641D02*
X127822504Y-93726879D01*
X127822504Y-93726879D02*
X127774885Y-93774498D01*
X127774885Y-93774498D02*
X127679647Y-93822117D01*
X127679647Y-93822117D02*
X127632028Y-93822117D01*
X127632028Y-93822117D02*
X127536790Y-93774498D01*
X127536790Y-93774498D02*
X127489171Y-93726879D01*
X127489171Y-93726879D02*
X127441552Y-93631641D01*
X127441552Y-93631641D02*
X127441552Y-93441165D01*
X127441552Y-93441165D02*
X127489171Y-93345927D01*
X127489171Y-93345927D02*
X127536790Y-93298308D01*
X127536790Y-93298308D02*
X127632028Y-93250689D01*
X127632028Y-93250689D02*
X127679647Y-93250689D01*
X127679647Y-93250689D02*
X127774885Y-93298308D01*
X127774885Y-93298308D02*
X127822504Y-93345927D01*
X127822504Y-93345927D02*
X127870123Y-93441165D01*
X127870123Y-93441165D02*
X127870123Y-93631641D01*
X127870123Y-93631641D02*
X127917742Y-93726879D01*
X127917742Y-93726879D02*
X127965361Y-93774498D01*
X127965361Y-93774498D02*
X128060599Y-93822117D01*
X128060599Y-93822117D02*
X128251075Y-93822117D01*
X128251075Y-93822117D02*
X128346313Y-93774498D01*
X128346313Y-93774498D02*
X128393933Y-93726879D01*
X128393933Y-93726879D02*
X128441552Y-93631641D01*
X128441552Y-93631641D02*
X128441552Y-93441165D01*
X128441552Y-93441165D02*
X128393933Y-93345927D01*
X128393933Y-93345927D02*
X128346313Y-93298308D01*
X128346313Y-93298308D02*
X128251075Y-93250689D01*
X128251075Y-93250689D02*
X128060599Y-93250689D01*
X128060599Y-93250689D02*
X127965361Y-93298308D01*
X127965361Y-93298308D02*
X127917742Y-93345927D01*
X127917742Y-93345927D02*
X127870123Y-93441165D01*
X157289580Y-68642857D02*
X157337200Y-68690476D01*
X157337200Y-68690476D02*
X157384819Y-68833333D01*
X157384819Y-68833333D02*
X157384819Y-68928571D01*
X157384819Y-68928571D02*
X157337200Y-69071428D01*
X157337200Y-69071428D02*
X157241961Y-69166666D01*
X157241961Y-69166666D02*
X157146723Y-69214285D01*
X157146723Y-69214285D02*
X156956247Y-69261904D01*
X156956247Y-69261904D02*
X156813390Y-69261904D01*
X156813390Y-69261904D02*
X156622914Y-69214285D01*
X156622914Y-69214285D02*
X156527676Y-69166666D01*
X156527676Y-69166666D02*
X156432438Y-69071428D01*
X156432438Y-69071428D02*
X156384819Y-68928571D01*
X156384819Y-68928571D02*
X156384819Y-68833333D01*
X156384819Y-68833333D02*
X156432438Y-68690476D01*
X156432438Y-68690476D02*
X156480057Y-68642857D01*
X157384819Y-67690476D02*
X157384819Y-68261904D01*
X157384819Y-67976190D02*
X156384819Y-67976190D01*
X156384819Y-67976190D02*
X156527676Y-68071428D01*
X156527676Y-68071428D02*
X156622914Y-68166666D01*
X156622914Y-68166666D02*
X156670533Y-68261904D01*
X156384819Y-66833333D02*
X156384819Y-67023809D01*
X156384819Y-67023809D02*
X156432438Y-67119047D01*
X156432438Y-67119047D02*
X156480057Y-67166666D01*
X156480057Y-67166666D02*
X156622914Y-67261904D01*
X156622914Y-67261904D02*
X156813390Y-67309523D01*
X156813390Y-67309523D02*
X157194342Y-67309523D01*
X157194342Y-67309523D02*
X157289580Y-67261904D01*
X157289580Y-67261904D02*
X157337200Y-67214285D01*
X157337200Y-67214285D02*
X157384819Y-67119047D01*
X157384819Y-67119047D02*
X157384819Y-66928571D01*
X157384819Y-66928571D02*
X157337200Y-66833333D01*
X157337200Y-66833333D02*
X157289580Y-66785714D01*
X157289580Y-66785714D02*
X157194342Y-66738095D01*
X157194342Y-66738095D02*
X156956247Y-66738095D01*
X156956247Y-66738095D02*
X156861009Y-66785714D01*
X156861009Y-66785714D02*
X156813390Y-66833333D01*
X156813390Y-66833333D02*
X156765771Y-66928571D01*
X156765771Y-66928571D02*
X156765771Y-67119047D01*
X156765771Y-67119047D02*
X156813390Y-67214285D01*
X156813390Y-67214285D02*
X156861009Y-67261904D01*
X156861009Y-67261904D02*
X156956247Y-67309523D01*
X129754819Y-71499904D02*
X130564342Y-71499904D01*
X130564342Y-71499904D02*
X130659580Y-71452285D01*
X130659580Y-71452285D02*
X130707200Y-71404666D01*
X130707200Y-71404666D02*
X130754819Y-71309428D01*
X130754819Y-71309428D02*
X130754819Y-71118952D01*
X130754819Y-71118952D02*
X130707200Y-71023714D01*
X130707200Y-71023714D02*
X130659580Y-70976095D01*
X130659580Y-70976095D02*
X130564342Y-70928476D01*
X130564342Y-70928476D02*
X129754819Y-70928476D01*
X130754819Y-69928476D02*
X130754819Y-70499904D01*
X130754819Y-70214190D02*
X129754819Y-70214190D01*
X129754819Y-70214190D02*
X129897676Y-70309428D01*
X129897676Y-70309428D02*
X129992914Y-70404666D01*
X129992914Y-70404666D02*
X130040533Y-70499904D01*
X147904819Y-95738094D02*
X146904819Y-95738094D01*
X146904819Y-95738094D02*
X146904819Y-95499999D01*
X146904819Y-95499999D02*
X146952438Y-95357142D01*
X146952438Y-95357142D02*
X147047676Y-95261904D01*
X147047676Y-95261904D02*
X147142914Y-95214285D01*
X147142914Y-95214285D02*
X147333390Y-95166666D01*
X147333390Y-95166666D02*
X147476247Y-95166666D01*
X147476247Y-95166666D02*
X147666723Y-95214285D01*
X147666723Y-95214285D02*
X147761961Y-95261904D01*
X147761961Y-95261904D02*
X147857200Y-95357142D01*
X147857200Y-95357142D02*
X147904819Y-95499999D01*
X147904819Y-95499999D02*
X147904819Y-95738094D01*
X147000057Y-94785713D02*
X146952438Y-94738094D01*
X146952438Y-94738094D02*
X146904819Y-94642856D01*
X146904819Y-94642856D02*
X146904819Y-94404761D01*
X146904819Y-94404761D02*
X146952438Y-94309523D01*
X146952438Y-94309523D02*
X147000057Y-94261904D01*
X147000057Y-94261904D02*
X147095295Y-94214285D01*
X147095295Y-94214285D02*
X147190533Y-94214285D01*
X147190533Y-94214285D02*
X147333390Y-94261904D01*
X147333390Y-94261904D02*
X147904819Y-94833332D01*
X147904819Y-94833332D02*
X147904819Y-94214285D01*
X133633333Y-80714819D02*
X133300000Y-80238628D01*
X133061905Y-80714819D02*
X133061905Y-79714819D01*
X133061905Y-79714819D02*
X133442857Y-79714819D01*
X133442857Y-79714819D02*
X133538095Y-79762438D01*
X133538095Y-79762438D02*
X133585714Y-79810057D01*
X133585714Y-79810057D02*
X133633333Y-79905295D01*
X133633333Y-79905295D02*
X133633333Y-80048152D01*
X133633333Y-80048152D02*
X133585714Y-80143390D01*
X133585714Y-80143390D02*
X133538095Y-80191009D01*
X133538095Y-80191009D02*
X133442857Y-80238628D01*
X133442857Y-80238628D02*
X133061905Y-80238628D01*
X134109524Y-80714819D02*
X134300000Y-80714819D01*
X134300000Y-80714819D02*
X134395238Y-80667200D01*
X134395238Y-80667200D02*
X134442857Y-80619580D01*
X134442857Y-80619580D02*
X134538095Y-80476723D01*
X134538095Y-80476723D02*
X134585714Y-80286247D01*
X134585714Y-80286247D02*
X134585714Y-79905295D01*
X134585714Y-79905295D02*
X134538095Y-79810057D01*
X134538095Y-79810057D02*
X134490476Y-79762438D01*
X134490476Y-79762438D02*
X134395238Y-79714819D01*
X134395238Y-79714819D02*
X134204762Y-79714819D01*
X134204762Y-79714819D02*
X134109524Y-79762438D01*
X134109524Y-79762438D02*
X134061905Y-79810057D01*
X134061905Y-79810057D02*
X134014286Y-79905295D01*
X134014286Y-79905295D02*
X134014286Y-80143390D01*
X134014286Y-80143390D02*
X134061905Y-80238628D01*
X134061905Y-80238628D02*
X134109524Y-80286247D01*
X134109524Y-80286247D02*
X134204762Y-80333866D01*
X134204762Y-80333866D02*
X134395238Y-80333866D01*
X134395238Y-80333866D02*
X134490476Y-80286247D01*
X134490476Y-80286247D02*
X134538095Y-80238628D01*
X134538095Y-80238628D02*
X134585714Y-80143390D01*
X147184819Y-82832857D02*
X146708628Y-83166190D01*
X147184819Y-83404285D02*
X146184819Y-83404285D01*
X146184819Y-83404285D02*
X146184819Y-83023333D01*
X146184819Y-83023333D02*
X146232438Y-82928095D01*
X146232438Y-82928095D02*
X146280057Y-82880476D01*
X146280057Y-82880476D02*
X146375295Y-82832857D01*
X146375295Y-82832857D02*
X146518152Y-82832857D01*
X146518152Y-82832857D02*
X146613390Y-82880476D01*
X146613390Y-82880476D02*
X146661009Y-82928095D01*
X146661009Y-82928095D02*
X146708628Y-83023333D01*
X146708628Y-83023333D02*
X146708628Y-83404285D01*
X147184819Y-81880476D02*
X147184819Y-82451904D01*
X147184819Y-82166190D02*
X146184819Y-82166190D01*
X146184819Y-82166190D02*
X146327676Y-82261428D01*
X146327676Y-82261428D02*
X146422914Y-82356666D01*
X146422914Y-82356666D02*
X146470533Y-82451904D01*
X146280057Y-81499523D02*
X146232438Y-81451904D01*
X146232438Y-81451904D02*
X146184819Y-81356666D01*
X146184819Y-81356666D02*
X146184819Y-81118571D01*
X146184819Y-81118571D02*
X146232438Y-81023333D01*
X146232438Y-81023333D02*
X146280057Y-80975714D01*
X146280057Y-80975714D02*
X146375295Y-80928095D01*
X146375295Y-80928095D02*
X146470533Y-80928095D01*
X146470533Y-80928095D02*
X146613390Y-80975714D01*
X146613390Y-80975714D02*
X147184819Y-81547142D01*
X147184819Y-81547142D02*
X147184819Y-80928095D01*
X138791905Y-93576819D02*
X138791905Y-92576819D01*
X138791905Y-92576819D02*
X139030000Y-92576819D01*
X139030000Y-92576819D02*
X139172857Y-92624438D01*
X139172857Y-92624438D02*
X139268095Y-92719676D01*
X139268095Y-92719676D02*
X139315714Y-92814914D01*
X139315714Y-92814914D02*
X139363333Y-93005390D01*
X139363333Y-93005390D02*
X139363333Y-93148247D01*
X139363333Y-93148247D02*
X139315714Y-93338723D01*
X139315714Y-93338723D02*
X139268095Y-93433961D01*
X139268095Y-93433961D02*
X139172857Y-93529200D01*
X139172857Y-93529200D02*
X139030000Y-93576819D01*
X139030000Y-93576819D02*
X138791905Y-93576819D01*
X140315714Y-93576819D02*
X139744286Y-93576819D01*
X140030000Y-93576819D02*
X140030000Y-92576819D01*
X140030000Y-92576819D02*
X139934762Y-92719676D01*
X139934762Y-92719676D02*
X139839524Y-92814914D01*
X139839524Y-92814914D02*
X139744286Y-92862533D01*
X133265641Y-77277720D02*
X132932308Y-76801529D01*
X132694213Y-77277720D02*
X132694213Y-76277720D01*
X132694213Y-76277720D02*
X133075165Y-76277720D01*
X133075165Y-76277720D02*
X133170403Y-76325339D01*
X133170403Y-76325339D02*
X133218022Y-76372958D01*
X133218022Y-76372958D02*
X133265641Y-76468196D01*
X133265641Y-76468196D02*
X133265641Y-76611053D01*
X133265641Y-76611053D02*
X133218022Y-76706291D01*
X133218022Y-76706291D02*
X133170403Y-76753910D01*
X133170403Y-76753910D02*
X133075165Y-76801529D01*
X133075165Y-76801529D02*
X132694213Y-76801529D01*
X133598975Y-76277720D02*
X134218022Y-76277720D01*
X134218022Y-76277720D02*
X133884689Y-76658672D01*
X133884689Y-76658672D02*
X134027546Y-76658672D01*
X134027546Y-76658672D02*
X134122784Y-76706291D01*
X134122784Y-76706291D02*
X134170403Y-76753910D01*
X134170403Y-76753910D02*
X134218022Y-76849148D01*
X134218022Y-76849148D02*
X134218022Y-77087243D01*
X134218022Y-77087243D02*
X134170403Y-77182481D01*
X134170403Y-77182481D02*
X134122784Y-77230101D01*
X134122784Y-77230101D02*
X134027546Y-77277720D01*
X134027546Y-77277720D02*
X133741832Y-77277720D01*
X133741832Y-77277720D02*
X133646594Y-77230101D01*
X133646594Y-77230101D02*
X133598975Y-77182481D01*
X135170403Y-77277720D02*
X134598975Y-77277720D01*
X134884689Y-77277720D02*
X134884689Y-76277720D01*
X134884689Y-76277720D02*
X134789451Y-76420577D01*
X134789451Y-76420577D02*
X134694213Y-76515815D01*
X134694213Y-76515815D02*
X134598975Y-76563434D01*
X133265641Y-72917720D02*
X132932308Y-72441529D01*
X132694213Y-72917720D02*
X132694213Y-71917720D01*
X132694213Y-71917720D02*
X133075165Y-71917720D01*
X133075165Y-71917720D02*
X133170403Y-71965339D01*
X133170403Y-71965339D02*
X133218022Y-72012958D01*
X133218022Y-72012958D02*
X133265641Y-72108196D01*
X133265641Y-72108196D02*
X133265641Y-72251053D01*
X133265641Y-72251053D02*
X133218022Y-72346291D01*
X133218022Y-72346291D02*
X133170403Y-72393910D01*
X133170403Y-72393910D02*
X133075165Y-72441529D01*
X133075165Y-72441529D02*
X132694213Y-72441529D01*
X133598975Y-71917720D02*
X134218022Y-71917720D01*
X134218022Y-71917720D02*
X133884689Y-72298672D01*
X133884689Y-72298672D02*
X134027546Y-72298672D01*
X134027546Y-72298672D02*
X134122784Y-72346291D01*
X134122784Y-72346291D02*
X134170403Y-72393910D01*
X134170403Y-72393910D02*
X134218022Y-72489148D01*
X134218022Y-72489148D02*
X134218022Y-72727243D01*
X134218022Y-72727243D02*
X134170403Y-72822481D01*
X134170403Y-72822481D02*
X134122784Y-72870101D01*
X134122784Y-72870101D02*
X134027546Y-72917720D01*
X134027546Y-72917720D02*
X133741832Y-72917720D01*
X133741832Y-72917720D02*
X133646594Y-72870101D01*
X133646594Y-72870101D02*
X133598975Y-72822481D01*
X134837070Y-71917720D02*
X134932308Y-71917720D01*
X134932308Y-71917720D02*
X135027546Y-71965339D01*
X135027546Y-71965339D02*
X135075165Y-72012958D01*
X135075165Y-72012958D02*
X135122784Y-72108196D01*
X135122784Y-72108196D02*
X135170403Y-72298672D01*
X135170403Y-72298672D02*
X135170403Y-72536767D01*
X135170403Y-72536767D02*
X135122784Y-72727243D01*
X135122784Y-72727243D02*
X135075165Y-72822481D01*
X135075165Y-72822481D02*
X135027546Y-72870101D01*
X135027546Y-72870101D02*
X134932308Y-72917720D01*
X134932308Y-72917720D02*
X134837070Y-72917720D01*
X134837070Y-72917720D02*
X134741832Y-72870101D01*
X134741832Y-72870101D02*
X134694213Y-72822481D01*
X134694213Y-72822481D02*
X134646594Y-72727243D01*
X134646594Y-72727243D02*
X134598975Y-72536767D01*
X134598975Y-72536767D02*
X134598975Y-72298672D01*
X134598975Y-72298672D02*
X134646594Y-72108196D01*
X134646594Y-72108196D02*
X134694213Y-72012958D01*
X134694213Y-72012958D02*
X134741832Y-71965339D01*
X134741832Y-71965339D02*
X134837070Y-71917720D01*
X144238095Y-90804819D02*
X144238095Y-91614342D01*
X144238095Y-91614342D02*
X144285714Y-91709580D01*
X144285714Y-91709580D02*
X144333333Y-91757200D01*
X144333333Y-91757200D02*
X144428571Y-91804819D01*
X144428571Y-91804819D02*
X144619047Y-91804819D01*
X144619047Y-91804819D02*
X144714285Y-91757200D01*
X144714285Y-91757200D02*
X144761904Y-91709580D01*
X144761904Y-91709580D02*
X144809523Y-91614342D01*
X144809523Y-91614342D02*
X144809523Y-90804819D01*
X145190476Y-90804819D02*
X145809523Y-90804819D01*
X145809523Y-90804819D02*
X145476190Y-91185771D01*
X145476190Y-91185771D02*
X145619047Y-91185771D01*
X145619047Y-91185771D02*
X145714285Y-91233390D01*
X145714285Y-91233390D02*
X145761904Y-91281009D01*
X145761904Y-91281009D02*
X145809523Y-91376247D01*
X145809523Y-91376247D02*
X145809523Y-91614342D01*
X145809523Y-91614342D02*
X145761904Y-91709580D01*
X145761904Y-91709580D02*
X145714285Y-91757200D01*
X145714285Y-91757200D02*
X145619047Y-91804819D01*
X145619047Y-91804819D02*
X145333333Y-91804819D01*
X145333333Y-91804819D02*
X145238095Y-91757200D01*
X145238095Y-91757200D02*
X145190476Y-91709580D01*
X130484819Y-95909857D02*
X130008628Y-96243190D01*
X130484819Y-96481285D02*
X129484819Y-96481285D01*
X129484819Y-96481285D02*
X129484819Y-96100333D01*
X129484819Y-96100333D02*
X129532438Y-96005095D01*
X129532438Y-96005095D02*
X129580057Y-95957476D01*
X129580057Y-95957476D02*
X129675295Y-95909857D01*
X129675295Y-95909857D02*
X129818152Y-95909857D01*
X129818152Y-95909857D02*
X129913390Y-95957476D01*
X129913390Y-95957476D02*
X129961009Y-96005095D01*
X129961009Y-96005095D02*
X130008628Y-96100333D01*
X130008628Y-96100333D02*
X130008628Y-96481285D01*
X129484819Y-95576523D02*
X129484819Y-94957476D01*
X129484819Y-94957476D02*
X129865771Y-95290809D01*
X129865771Y-95290809D02*
X129865771Y-95147952D01*
X129865771Y-95147952D02*
X129913390Y-95052714D01*
X129913390Y-95052714D02*
X129961009Y-95005095D01*
X129961009Y-95005095D02*
X130056247Y-94957476D01*
X130056247Y-94957476D02*
X130294342Y-94957476D01*
X130294342Y-94957476D02*
X130389580Y-95005095D01*
X130389580Y-95005095D02*
X130437200Y-95052714D01*
X130437200Y-95052714D02*
X130484819Y-95147952D01*
X130484819Y-95147952D02*
X130484819Y-95433666D01*
X130484819Y-95433666D02*
X130437200Y-95528904D01*
X130437200Y-95528904D02*
X130389580Y-95576523D01*
X129484819Y-94624142D02*
X129484819Y-94005095D01*
X129484819Y-94005095D02*
X129865771Y-94338428D01*
X129865771Y-94338428D02*
X129865771Y-94195571D01*
X129865771Y-94195571D02*
X129913390Y-94100333D01*
X129913390Y-94100333D02*
X129961009Y-94052714D01*
X129961009Y-94052714D02*
X130056247Y-94005095D01*
X130056247Y-94005095D02*
X130294342Y-94005095D01*
X130294342Y-94005095D02*
X130389580Y-94052714D01*
X130389580Y-94052714D02*
X130437200Y-94100333D01*
X130437200Y-94100333D02*
X130484819Y-94195571D01*
X130484819Y-94195571D02*
X130484819Y-94481285D01*
X130484819Y-94481285D02*
X130437200Y-94576523D01*
X130437200Y-94576523D02*
X130389580Y-94624142D01*
X135324819Y-79832857D02*
X134848628Y-80166190D01*
X135324819Y-80404285D02*
X134324819Y-80404285D01*
X134324819Y-80404285D02*
X134324819Y-80023333D01*
X134324819Y-80023333D02*
X134372438Y-79928095D01*
X134372438Y-79928095D02*
X134420057Y-79880476D01*
X134420057Y-79880476D02*
X134515295Y-79832857D01*
X134515295Y-79832857D02*
X134658152Y-79832857D01*
X134658152Y-79832857D02*
X134753390Y-79880476D01*
X134753390Y-79880476D02*
X134801009Y-79928095D01*
X134801009Y-79928095D02*
X134848628Y-80023333D01*
X134848628Y-80023333D02*
X134848628Y-80404285D01*
X135324819Y-78880476D02*
X135324819Y-79451904D01*
X135324819Y-79166190D02*
X134324819Y-79166190D01*
X134324819Y-79166190D02*
X134467676Y-79261428D01*
X134467676Y-79261428D02*
X134562914Y-79356666D01*
X134562914Y-79356666D02*
X134610533Y-79451904D01*
X134324819Y-78547142D02*
X134324819Y-77880476D01*
X134324819Y-77880476D02*
X135324819Y-78309047D01*
X142895833Y-88334819D02*
X142562500Y-87858628D01*
X142324405Y-88334819D02*
X142324405Y-87334819D01*
X142324405Y-87334819D02*
X142705357Y-87334819D01*
X142705357Y-87334819D02*
X142800595Y-87382438D01*
X142800595Y-87382438D02*
X142848214Y-87430057D01*
X142848214Y-87430057D02*
X142895833Y-87525295D01*
X142895833Y-87525295D02*
X142895833Y-87668152D01*
X142895833Y-87668152D02*
X142848214Y-87763390D01*
X142848214Y-87763390D02*
X142800595Y-87811009D01*
X142800595Y-87811009D02*
X142705357Y-87858628D01*
X142705357Y-87858628D02*
X142324405Y-87858628D01*
X143229167Y-87334819D02*
X143895833Y-87334819D01*
X143895833Y-87334819D02*
X143467262Y-88334819D01*
X130964819Y-95053904D02*
X131774342Y-95053904D01*
X131774342Y-95053904D02*
X131869580Y-95006285D01*
X131869580Y-95006285D02*
X131917200Y-94958666D01*
X131917200Y-94958666D02*
X131964819Y-94863428D01*
X131964819Y-94863428D02*
X131964819Y-94672952D01*
X131964819Y-94672952D02*
X131917200Y-94577714D01*
X131917200Y-94577714D02*
X131869580Y-94530095D01*
X131869580Y-94530095D02*
X131774342Y-94482476D01*
X131774342Y-94482476D02*
X130964819Y-94482476D01*
X131060057Y-94053904D02*
X131012438Y-94006285D01*
X131012438Y-94006285D02*
X130964819Y-93911047D01*
X130964819Y-93911047D02*
X130964819Y-93672952D01*
X130964819Y-93672952D02*
X131012438Y-93577714D01*
X131012438Y-93577714D02*
X131060057Y-93530095D01*
X131060057Y-93530095D02*
X131155295Y-93482476D01*
X131155295Y-93482476D02*
X131250533Y-93482476D01*
X131250533Y-93482476D02*
X131393390Y-93530095D01*
X131393390Y-93530095D02*
X131964819Y-94101523D01*
X131964819Y-94101523D02*
X131964819Y-93482476D01*
X135184819Y-78532857D02*
X134708628Y-78866190D01*
X135184819Y-79104285D02*
X134184819Y-79104285D01*
X134184819Y-79104285D02*
X134184819Y-78723333D01*
X134184819Y-78723333D02*
X134232438Y-78628095D01*
X134232438Y-78628095D02*
X134280057Y-78580476D01*
X134280057Y-78580476D02*
X134375295Y-78532857D01*
X134375295Y-78532857D02*
X134518152Y-78532857D01*
X134518152Y-78532857D02*
X134613390Y-78580476D01*
X134613390Y-78580476D02*
X134661009Y-78628095D01*
X134661009Y-78628095D02*
X134708628Y-78723333D01*
X134708628Y-78723333D02*
X134708628Y-79104285D01*
X134280057Y-78151904D02*
X134232438Y-78104285D01*
X134232438Y-78104285D02*
X134184819Y-78009047D01*
X134184819Y-78009047D02*
X134184819Y-77770952D01*
X134184819Y-77770952D02*
X134232438Y-77675714D01*
X134232438Y-77675714D02*
X134280057Y-77628095D01*
X134280057Y-77628095D02*
X134375295Y-77580476D01*
X134375295Y-77580476D02*
X134470533Y-77580476D01*
X134470533Y-77580476D02*
X134613390Y-77628095D01*
X134613390Y-77628095D02*
X135184819Y-78199523D01*
X135184819Y-78199523D02*
X135184819Y-77580476D01*
X134613390Y-77009047D02*
X134565771Y-77104285D01*
X134565771Y-77104285D02*
X134518152Y-77151904D01*
X134518152Y-77151904D02*
X134422914Y-77199523D01*
X134422914Y-77199523D02*
X134375295Y-77199523D01*
X134375295Y-77199523D02*
X134280057Y-77151904D01*
X134280057Y-77151904D02*
X134232438Y-77104285D01*
X134232438Y-77104285D02*
X134184819Y-77009047D01*
X134184819Y-77009047D02*
X134184819Y-76818571D01*
X134184819Y-76818571D02*
X134232438Y-76723333D01*
X134232438Y-76723333D02*
X134280057Y-76675714D01*
X134280057Y-76675714D02*
X134375295Y-76628095D01*
X134375295Y-76628095D02*
X134422914Y-76628095D01*
X134422914Y-76628095D02*
X134518152Y-76675714D01*
X134518152Y-76675714D02*
X134565771Y-76723333D01*
X134565771Y-76723333D02*
X134613390Y-76818571D01*
X134613390Y-76818571D02*
X134613390Y-77009047D01*
X134613390Y-77009047D02*
X134661009Y-77104285D01*
X134661009Y-77104285D02*
X134708628Y-77151904D01*
X134708628Y-77151904D02*
X134803866Y-77199523D01*
X134803866Y-77199523D02*
X134994342Y-77199523D01*
X134994342Y-77199523D02*
X135089580Y-77151904D01*
X135089580Y-77151904D02*
X135137200Y-77104285D01*
X135137200Y-77104285D02*
X135184819Y-77009047D01*
X135184819Y-77009047D02*
X135184819Y-76818571D01*
X135184819Y-76818571D02*
X135137200Y-76723333D01*
X135137200Y-76723333D02*
X135089580Y-76675714D01*
X135089580Y-76675714D02*
X134994342Y-76628095D01*
X134994342Y-76628095D02*
X134803866Y-76628095D01*
X134803866Y-76628095D02*
X134708628Y-76675714D01*
X134708628Y-76675714D02*
X134661009Y-76723333D01*
X134661009Y-76723333D02*
X134613390Y-76818571D01*
X130484819Y-69341666D02*
X130008628Y-69674999D01*
X130484819Y-69913094D02*
X129484819Y-69913094D01*
X129484819Y-69913094D02*
X129484819Y-69532142D01*
X129484819Y-69532142D02*
X129532438Y-69436904D01*
X129532438Y-69436904D02*
X129580057Y-69389285D01*
X129580057Y-69389285D02*
X129675295Y-69341666D01*
X129675295Y-69341666D02*
X129818152Y-69341666D01*
X129818152Y-69341666D02*
X129913390Y-69389285D01*
X129913390Y-69389285D02*
X129961009Y-69436904D01*
X129961009Y-69436904D02*
X130008628Y-69532142D01*
X130008628Y-69532142D02*
X130008628Y-69913094D01*
X129484819Y-68436904D02*
X129484819Y-68913094D01*
X129484819Y-68913094D02*
X129961009Y-68960713D01*
X129961009Y-68960713D02*
X129913390Y-68913094D01*
X129913390Y-68913094D02*
X129865771Y-68817856D01*
X129865771Y-68817856D02*
X129865771Y-68579761D01*
X129865771Y-68579761D02*
X129913390Y-68484523D01*
X129913390Y-68484523D02*
X129961009Y-68436904D01*
X129961009Y-68436904D02*
X130056247Y-68389285D01*
X130056247Y-68389285D02*
X130294342Y-68389285D01*
X130294342Y-68389285D02*
X130389580Y-68436904D01*
X130389580Y-68436904D02*
X130437200Y-68484523D01*
X130437200Y-68484523D02*
X130484819Y-68579761D01*
X130484819Y-68579761D02*
X130484819Y-68817856D01*
X130484819Y-68817856D02*
X130437200Y-68913094D01*
X130437200Y-68913094D02*
X130389580Y-68960713D01*
X147454819Y-100261904D02*
X148264342Y-100261904D01*
X148264342Y-100261904D02*
X148359580Y-100214285D01*
X148359580Y-100214285D02*
X148407200Y-100166666D01*
X148407200Y-100166666D02*
X148454819Y-100071428D01*
X148454819Y-100071428D02*
X148454819Y-99880952D01*
X148454819Y-99880952D02*
X148407200Y-99785714D01*
X148407200Y-99785714D02*
X148359580Y-99738095D01*
X148359580Y-99738095D02*
X148264342Y-99690476D01*
X148264342Y-99690476D02*
X147454819Y-99690476D01*
X147454819Y-98785714D02*
X147454819Y-98976190D01*
X147454819Y-98976190D02*
X147502438Y-99071428D01*
X147502438Y-99071428D02*
X147550057Y-99119047D01*
X147550057Y-99119047D02*
X147692914Y-99214285D01*
X147692914Y-99214285D02*
X147883390Y-99261904D01*
X147883390Y-99261904D02*
X148264342Y-99261904D01*
X148264342Y-99261904D02*
X148359580Y-99214285D01*
X148359580Y-99214285D02*
X148407200Y-99166666D01*
X148407200Y-99166666D02*
X148454819Y-99071428D01*
X148454819Y-99071428D02*
X148454819Y-98880952D01*
X148454819Y-98880952D02*
X148407200Y-98785714D01*
X148407200Y-98785714D02*
X148359580Y-98738095D01*
X148359580Y-98738095D02*
X148264342Y-98690476D01*
X148264342Y-98690476D02*
X148026247Y-98690476D01*
X148026247Y-98690476D02*
X147931009Y-98738095D01*
X147931009Y-98738095D02*
X147883390Y-98785714D01*
X147883390Y-98785714D02*
X147835771Y-98880952D01*
X147835771Y-98880952D02*
X147835771Y-99071428D01*
X147835771Y-99071428D02*
X147883390Y-99166666D01*
X147883390Y-99166666D02*
X147931009Y-99214285D01*
X147931009Y-99214285D02*
X148026247Y-99261904D01*
X140221905Y-86384819D02*
X140221905Y-85384819D01*
X140221905Y-85384819D02*
X140460000Y-85384819D01*
X140460000Y-85384819D02*
X140602857Y-85432438D01*
X140602857Y-85432438D02*
X140698095Y-85527676D01*
X140698095Y-85527676D02*
X140745714Y-85622914D01*
X140745714Y-85622914D02*
X140793333Y-85813390D01*
X140793333Y-85813390D02*
X140793333Y-85956247D01*
X140793333Y-85956247D02*
X140745714Y-86146723D01*
X140745714Y-86146723D02*
X140698095Y-86241961D01*
X140698095Y-86241961D02*
X140602857Y-86337200D01*
X140602857Y-86337200D02*
X140460000Y-86384819D01*
X140460000Y-86384819D02*
X140221905Y-86384819D01*
X141698095Y-85384819D02*
X141221905Y-85384819D01*
X141221905Y-85384819D02*
X141174286Y-85861009D01*
X141174286Y-85861009D02*
X141221905Y-85813390D01*
X141221905Y-85813390D02*
X141317143Y-85765771D01*
X141317143Y-85765771D02*
X141555238Y-85765771D01*
X141555238Y-85765771D02*
X141650476Y-85813390D01*
X141650476Y-85813390D02*
X141698095Y-85861009D01*
X141698095Y-85861009D02*
X141745714Y-85956247D01*
X141745714Y-85956247D02*
X141745714Y-86194342D01*
X141745714Y-86194342D02*
X141698095Y-86289580D01*
X141698095Y-86289580D02*
X141650476Y-86337200D01*
X141650476Y-86337200D02*
X141555238Y-86384819D01*
X141555238Y-86384819D02*
X141317143Y-86384819D01*
X141317143Y-86384819D02*
X141221905Y-86337200D01*
X141221905Y-86337200D02*
X141174286Y-86289580D01*
X147324819Y-84557857D02*
X146848628Y-84891190D01*
X147324819Y-85129285D02*
X146324819Y-85129285D01*
X146324819Y-85129285D02*
X146324819Y-84748333D01*
X146324819Y-84748333D02*
X146372438Y-84653095D01*
X146372438Y-84653095D02*
X146420057Y-84605476D01*
X146420057Y-84605476D02*
X146515295Y-84557857D01*
X146515295Y-84557857D02*
X146658152Y-84557857D01*
X146658152Y-84557857D02*
X146753390Y-84605476D01*
X146753390Y-84605476D02*
X146801009Y-84653095D01*
X146801009Y-84653095D02*
X146848628Y-84748333D01*
X146848628Y-84748333D02*
X146848628Y-85129285D01*
X146420057Y-84176904D02*
X146372438Y-84129285D01*
X146372438Y-84129285D02*
X146324819Y-84034047D01*
X146324819Y-84034047D02*
X146324819Y-83795952D01*
X146324819Y-83795952D02*
X146372438Y-83700714D01*
X146372438Y-83700714D02*
X146420057Y-83653095D01*
X146420057Y-83653095D02*
X146515295Y-83605476D01*
X146515295Y-83605476D02*
X146610533Y-83605476D01*
X146610533Y-83605476D02*
X146753390Y-83653095D01*
X146753390Y-83653095D02*
X147324819Y-84224523D01*
X147324819Y-84224523D02*
X147324819Y-83605476D01*
X146658152Y-82748333D02*
X147324819Y-82748333D01*
X146277200Y-82986428D02*
X146991485Y-83224523D01*
X146991485Y-83224523D02*
X146991485Y-82605476D01*
X140626666Y-96046819D02*
X140626666Y-96761104D01*
X140626666Y-96761104D02*
X140579047Y-96903961D01*
X140579047Y-96903961D02*
X140483809Y-96999200D01*
X140483809Y-96999200D02*
X140340952Y-97046819D01*
X140340952Y-97046819D02*
X140245714Y-97046819D01*
X141531428Y-96380152D02*
X141531428Y-97046819D01*
X141293333Y-95999200D02*
X141055238Y-96713485D01*
X141055238Y-96713485D02*
X141674285Y-96713485D01*
X129124819Y-72986594D02*
X128124819Y-72986594D01*
X128124819Y-72986594D02*
X128124819Y-72748499D01*
X128124819Y-72748499D02*
X128172438Y-72605642D01*
X128172438Y-72605642D02*
X128267676Y-72510404D01*
X128267676Y-72510404D02*
X128362914Y-72462785D01*
X128362914Y-72462785D02*
X128553390Y-72415166D01*
X128553390Y-72415166D02*
X128696247Y-72415166D01*
X128696247Y-72415166D02*
X128886723Y-72462785D01*
X128886723Y-72462785D02*
X128981961Y-72510404D01*
X128981961Y-72510404D02*
X129077200Y-72605642D01*
X129077200Y-72605642D02*
X129124819Y-72748499D01*
X129124819Y-72748499D02*
X129124819Y-72986594D01*
X128124819Y-71558023D02*
X128124819Y-71748499D01*
X128124819Y-71748499D02*
X128172438Y-71843737D01*
X128172438Y-71843737D02*
X128220057Y-71891356D01*
X128220057Y-71891356D02*
X128362914Y-71986594D01*
X128362914Y-71986594D02*
X128553390Y-72034213D01*
X128553390Y-72034213D02*
X128934342Y-72034213D01*
X128934342Y-72034213D02*
X129029580Y-71986594D01*
X129029580Y-71986594D02*
X129077200Y-71938975D01*
X129077200Y-71938975D02*
X129124819Y-71843737D01*
X129124819Y-71843737D02*
X129124819Y-71653261D01*
X129124819Y-71653261D02*
X129077200Y-71558023D01*
X129077200Y-71558023D02*
X129029580Y-71510404D01*
X129029580Y-71510404D02*
X128934342Y-71462785D01*
X128934342Y-71462785D02*
X128696247Y-71462785D01*
X128696247Y-71462785D02*
X128601009Y-71510404D01*
X128601009Y-71510404D02*
X128553390Y-71558023D01*
X128553390Y-71558023D02*
X128505771Y-71653261D01*
X128505771Y-71653261D02*
X128505771Y-71843737D01*
X128505771Y-71843737D02*
X128553390Y-71938975D01*
X128553390Y-71938975D02*
X128601009Y-71986594D01*
X128601009Y-71986594D02*
X128696247Y-72034213D01*
X128536795Y-64256734D02*
X129108223Y-64256734D01*
X128822509Y-65256734D02*
X128822509Y-64256734D01*
X129441557Y-65256734D02*
X129441557Y-64256734D01*
X129441557Y-64256734D02*
X129822509Y-64256734D01*
X129822509Y-64256734D02*
X129917747Y-64304353D01*
X129917747Y-64304353D02*
X129965366Y-64351972D01*
X129965366Y-64351972D02*
X130012985Y-64447210D01*
X130012985Y-64447210D02*
X130012985Y-64590067D01*
X130012985Y-64590067D02*
X129965366Y-64685305D01*
X129965366Y-64685305D02*
X129917747Y-64732924D01*
X129917747Y-64732924D02*
X129822509Y-64780543D01*
X129822509Y-64780543D02*
X129441557Y-64780543D01*
X130393938Y-64351972D02*
X130441557Y-64304353D01*
X130441557Y-64304353D02*
X130536795Y-64256734D01*
X130536795Y-64256734D02*
X130774890Y-64256734D01*
X130774890Y-64256734D02*
X130870128Y-64304353D01*
X130870128Y-64304353D02*
X130917747Y-64351972D01*
X130917747Y-64351972D02*
X130965366Y-64447210D01*
X130965366Y-64447210D02*
X130965366Y-64542448D01*
X130965366Y-64542448D02*
X130917747Y-64685305D01*
X130917747Y-64685305D02*
X130346319Y-65256734D01*
X130346319Y-65256734D02*
X130965366Y-65256734D01*
X143002819Y-95862094D02*
X142002819Y-95862094D01*
X142002819Y-95862094D02*
X142002819Y-95623999D01*
X142002819Y-95623999D02*
X142050438Y-95481142D01*
X142050438Y-95481142D02*
X142145676Y-95385904D01*
X142145676Y-95385904D02*
X142240914Y-95338285D01*
X142240914Y-95338285D02*
X142431390Y-95290666D01*
X142431390Y-95290666D02*
X142574247Y-95290666D01*
X142574247Y-95290666D02*
X142764723Y-95338285D01*
X142764723Y-95338285D02*
X142859961Y-95385904D01*
X142859961Y-95385904D02*
X142955200Y-95481142D01*
X142955200Y-95481142D02*
X143002819Y-95623999D01*
X143002819Y-95623999D02*
X143002819Y-95862094D01*
X142336152Y-94433523D02*
X143002819Y-94433523D01*
X141955200Y-94671618D02*
X142669485Y-94909713D01*
X142669485Y-94909713D02*
X142669485Y-94290666D01*
X130484819Y-92909857D02*
X130008628Y-93243190D01*
X130484819Y-93481285D02*
X129484819Y-93481285D01*
X129484819Y-93481285D02*
X129484819Y-93100333D01*
X129484819Y-93100333D02*
X129532438Y-93005095D01*
X129532438Y-93005095D02*
X129580057Y-92957476D01*
X129580057Y-92957476D02*
X129675295Y-92909857D01*
X129675295Y-92909857D02*
X129818152Y-92909857D01*
X129818152Y-92909857D02*
X129913390Y-92957476D01*
X129913390Y-92957476D02*
X129961009Y-93005095D01*
X129961009Y-93005095D02*
X130008628Y-93100333D01*
X130008628Y-93100333D02*
X130008628Y-93481285D01*
X129484819Y-92576523D02*
X129484819Y-91957476D01*
X129484819Y-91957476D02*
X129865771Y-92290809D01*
X129865771Y-92290809D02*
X129865771Y-92147952D01*
X129865771Y-92147952D02*
X129913390Y-92052714D01*
X129913390Y-92052714D02*
X129961009Y-92005095D01*
X129961009Y-92005095D02*
X130056247Y-91957476D01*
X130056247Y-91957476D02*
X130294342Y-91957476D01*
X130294342Y-91957476D02*
X130389580Y-92005095D01*
X130389580Y-92005095D02*
X130437200Y-92052714D01*
X130437200Y-92052714D02*
X130484819Y-92147952D01*
X130484819Y-92147952D02*
X130484819Y-92433666D01*
X130484819Y-92433666D02*
X130437200Y-92528904D01*
X130437200Y-92528904D02*
X130389580Y-92576523D01*
X129818152Y-91100333D02*
X130484819Y-91100333D01*
X129437200Y-91338428D02*
X130151485Y-91576523D01*
X130151485Y-91576523D02*
X130151485Y-90957476D01*
X140038095Y-77504819D02*
X140038095Y-78314342D01*
X140038095Y-78314342D02*
X140085714Y-78409580D01*
X140085714Y-78409580D02*
X140133333Y-78457200D01*
X140133333Y-78457200D02*
X140228571Y-78504819D01*
X140228571Y-78504819D02*
X140419047Y-78504819D01*
X140419047Y-78504819D02*
X140514285Y-78457200D01*
X140514285Y-78457200D02*
X140561904Y-78409580D01*
X140561904Y-78409580D02*
X140609523Y-78314342D01*
X140609523Y-78314342D02*
X140609523Y-77504819D01*
X141514285Y-77838152D02*
X141514285Y-78504819D01*
X141276190Y-77457200D02*
X141038095Y-78171485D01*
X141038095Y-78171485D02*
X141657142Y-78171485D01*
X146685378Y-91573398D02*
X147256806Y-91573398D01*
X146971092Y-92573398D02*
X146971092Y-91573398D01*
X147590140Y-92573398D02*
X147590140Y-91573398D01*
X147590140Y-91573398D02*
X147971092Y-91573398D01*
X147971092Y-91573398D02*
X148066330Y-91621017D01*
X148066330Y-91621017D02*
X148113949Y-91668636D01*
X148113949Y-91668636D02*
X148161568Y-91763874D01*
X148161568Y-91763874D02*
X148161568Y-91906731D01*
X148161568Y-91906731D02*
X148113949Y-92001969D01*
X148113949Y-92001969D02*
X148066330Y-92049588D01*
X148066330Y-92049588D02*
X147971092Y-92097207D01*
X147971092Y-92097207D02*
X147590140Y-92097207D01*
X149066330Y-91573398D02*
X148590140Y-91573398D01*
X148590140Y-91573398D02*
X148542521Y-92049588D01*
X148542521Y-92049588D02*
X148590140Y-92001969D01*
X148590140Y-92001969D02*
X148685378Y-91954350D01*
X148685378Y-91954350D02*
X148923473Y-91954350D01*
X148923473Y-91954350D02*
X149018711Y-92001969D01*
X149018711Y-92001969D02*
X149066330Y-92049588D01*
X149066330Y-92049588D02*
X149113949Y-92144826D01*
X149113949Y-92144826D02*
X149113949Y-92382921D01*
X149113949Y-92382921D02*
X149066330Y-92478159D01*
X149066330Y-92478159D02*
X149018711Y-92525779D01*
X149018711Y-92525779D02*
X148923473Y-92573398D01*
X148923473Y-92573398D02*
X148685378Y-92573398D01*
X148685378Y-92573398D02*
X148590140Y-92525779D01*
X148590140Y-92525779D02*
X148542521Y-92478159D01*
X145824819Y-78332857D02*
X145348628Y-78666190D01*
X145824819Y-78904285D02*
X144824819Y-78904285D01*
X144824819Y-78904285D02*
X144824819Y-78523333D01*
X144824819Y-78523333D02*
X144872438Y-78428095D01*
X144872438Y-78428095D02*
X144920057Y-78380476D01*
X144920057Y-78380476D02*
X145015295Y-78332857D01*
X145015295Y-78332857D02*
X145158152Y-78332857D01*
X145158152Y-78332857D02*
X145253390Y-78380476D01*
X145253390Y-78380476D02*
X145301009Y-78428095D01*
X145301009Y-78428095D02*
X145348628Y-78523333D01*
X145348628Y-78523333D02*
X145348628Y-78904285D01*
X145824819Y-77380476D02*
X145824819Y-77951904D01*
X145824819Y-77666190D02*
X144824819Y-77666190D01*
X144824819Y-77666190D02*
X144967676Y-77761428D01*
X144967676Y-77761428D02*
X145062914Y-77856666D01*
X145062914Y-77856666D02*
X145110533Y-77951904D01*
X144824819Y-76475714D02*
X144824819Y-76951904D01*
X144824819Y-76951904D02*
X145301009Y-76999523D01*
X145301009Y-76999523D02*
X145253390Y-76951904D01*
X145253390Y-76951904D02*
X145205771Y-76856666D01*
X145205771Y-76856666D02*
X145205771Y-76618571D01*
X145205771Y-76618571D02*
X145253390Y-76523333D01*
X145253390Y-76523333D02*
X145301009Y-76475714D01*
X145301009Y-76475714D02*
X145396247Y-76428095D01*
X145396247Y-76428095D02*
X145634342Y-76428095D01*
X145634342Y-76428095D02*
X145729580Y-76475714D01*
X145729580Y-76475714D02*
X145777200Y-76523333D01*
X145777200Y-76523333D02*
X145824819Y-76618571D01*
X145824819Y-76618571D02*
X145824819Y-76856666D01*
X145824819Y-76856666D02*
X145777200Y-76951904D01*
X145777200Y-76951904D02*
X145729580Y-76999523D01*
X144324819Y-79832857D02*
X143848628Y-80166190D01*
X144324819Y-80404285D02*
X143324819Y-80404285D01*
X143324819Y-80404285D02*
X143324819Y-80023333D01*
X143324819Y-80023333D02*
X143372438Y-79928095D01*
X143372438Y-79928095D02*
X143420057Y-79880476D01*
X143420057Y-79880476D02*
X143515295Y-79832857D01*
X143515295Y-79832857D02*
X143658152Y-79832857D01*
X143658152Y-79832857D02*
X143753390Y-79880476D01*
X143753390Y-79880476D02*
X143801009Y-79928095D01*
X143801009Y-79928095D02*
X143848628Y-80023333D01*
X143848628Y-80023333D02*
X143848628Y-80404285D01*
X143420057Y-79451904D02*
X143372438Y-79404285D01*
X143372438Y-79404285D02*
X143324819Y-79309047D01*
X143324819Y-79309047D02*
X143324819Y-79070952D01*
X143324819Y-79070952D02*
X143372438Y-78975714D01*
X143372438Y-78975714D02*
X143420057Y-78928095D01*
X143420057Y-78928095D02*
X143515295Y-78880476D01*
X143515295Y-78880476D02*
X143610533Y-78880476D01*
X143610533Y-78880476D02*
X143753390Y-78928095D01*
X143753390Y-78928095D02*
X144324819Y-79499523D01*
X144324819Y-79499523D02*
X144324819Y-78880476D01*
X143324819Y-77975714D02*
X143324819Y-78451904D01*
X143324819Y-78451904D02*
X143801009Y-78499523D01*
X143801009Y-78499523D02*
X143753390Y-78451904D01*
X143753390Y-78451904D02*
X143705771Y-78356666D01*
X143705771Y-78356666D02*
X143705771Y-78118571D01*
X143705771Y-78118571D02*
X143753390Y-78023333D01*
X143753390Y-78023333D02*
X143801009Y-77975714D01*
X143801009Y-77975714D02*
X143896247Y-77928095D01*
X143896247Y-77928095D02*
X144134342Y-77928095D01*
X144134342Y-77928095D02*
X144229580Y-77975714D01*
X144229580Y-77975714D02*
X144277200Y-78023333D01*
X144277200Y-78023333D02*
X144324819Y-78118571D01*
X144324819Y-78118571D02*
X144324819Y-78356666D01*
X144324819Y-78356666D02*
X144277200Y-78451904D01*
X144277200Y-78451904D02*
X144229580Y-78499523D01*
X136589580Y-84557857D02*
X136637200Y-84605476D01*
X136637200Y-84605476D02*
X136684819Y-84748333D01*
X136684819Y-84748333D02*
X136684819Y-84843571D01*
X136684819Y-84843571D02*
X136637200Y-84986428D01*
X136637200Y-84986428D02*
X136541961Y-85081666D01*
X136541961Y-85081666D02*
X136446723Y-85129285D01*
X136446723Y-85129285D02*
X136256247Y-85176904D01*
X136256247Y-85176904D02*
X136113390Y-85176904D01*
X136113390Y-85176904D02*
X135922914Y-85129285D01*
X135922914Y-85129285D02*
X135827676Y-85081666D01*
X135827676Y-85081666D02*
X135732438Y-84986428D01*
X135732438Y-84986428D02*
X135684819Y-84843571D01*
X135684819Y-84843571D02*
X135684819Y-84748333D01*
X135684819Y-84748333D02*
X135732438Y-84605476D01*
X135732438Y-84605476D02*
X135780057Y-84557857D01*
X136684819Y-83605476D02*
X136684819Y-84176904D01*
X136684819Y-83891190D02*
X135684819Y-83891190D01*
X135684819Y-83891190D02*
X135827676Y-83986428D01*
X135827676Y-83986428D02*
X135922914Y-84081666D01*
X135922914Y-84081666D02*
X135970533Y-84176904D01*
X136684819Y-82653095D02*
X136684819Y-83224523D01*
X136684819Y-82938809D02*
X135684819Y-82938809D01*
X135684819Y-82938809D02*
X135827676Y-83034047D01*
X135827676Y-83034047D02*
X135922914Y-83129285D01*
X135922914Y-83129285D02*
X135970533Y-83224523D01*
X151893333Y-61721580D02*
X151845714Y-61769200D01*
X151845714Y-61769200D02*
X151702857Y-61816819D01*
X151702857Y-61816819D02*
X151607619Y-61816819D01*
X151607619Y-61816819D02*
X151464762Y-61769200D01*
X151464762Y-61769200D02*
X151369524Y-61673961D01*
X151369524Y-61673961D02*
X151321905Y-61578723D01*
X151321905Y-61578723D02*
X151274286Y-61388247D01*
X151274286Y-61388247D02*
X151274286Y-61245390D01*
X151274286Y-61245390D02*
X151321905Y-61054914D01*
X151321905Y-61054914D02*
X151369524Y-60959676D01*
X151369524Y-60959676D02*
X151464762Y-60864438D01*
X151464762Y-60864438D02*
X151607619Y-60816819D01*
X151607619Y-60816819D02*
X151702857Y-60816819D01*
X151702857Y-60816819D02*
X151845714Y-60864438D01*
X151845714Y-60864438D02*
X151893333Y-60912057D01*
X152274286Y-60912057D02*
X152321905Y-60864438D01*
X152321905Y-60864438D02*
X152417143Y-60816819D01*
X152417143Y-60816819D02*
X152655238Y-60816819D01*
X152655238Y-60816819D02*
X152750476Y-60864438D01*
X152750476Y-60864438D02*
X152798095Y-60912057D01*
X152798095Y-60912057D02*
X152845714Y-61007295D01*
X152845714Y-61007295D02*
X152845714Y-61102533D01*
X152845714Y-61102533D02*
X152798095Y-61245390D01*
X152798095Y-61245390D02*
X152226667Y-61816819D01*
X152226667Y-61816819D02*
X152845714Y-61816819D01*
X141094819Y-95036666D02*
X140618628Y-95369999D01*
X141094819Y-95608094D02*
X140094819Y-95608094D01*
X140094819Y-95608094D02*
X140094819Y-95227142D01*
X140094819Y-95227142D02*
X140142438Y-95131904D01*
X140142438Y-95131904D02*
X140190057Y-95084285D01*
X140190057Y-95084285D02*
X140285295Y-95036666D01*
X140285295Y-95036666D02*
X140428152Y-95036666D01*
X140428152Y-95036666D02*
X140523390Y-95084285D01*
X140523390Y-95084285D02*
X140571009Y-95131904D01*
X140571009Y-95131904D02*
X140618628Y-95227142D01*
X140618628Y-95227142D02*
X140618628Y-95608094D01*
X141094819Y-94084285D02*
X141094819Y-94655713D01*
X141094819Y-94369999D02*
X140094819Y-94369999D01*
X140094819Y-94369999D02*
X140237676Y-94465237D01*
X140237676Y-94465237D02*
X140332914Y-94560475D01*
X140332914Y-94560475D02*
X140380533Y-94655713D01*
X141839905Y-90976819D02*
X141839905Y-89976819D01*
X141839905Y-89976819D02*
X142078000Y-89976819D01*
X142078000Y-89976819D02*
X142220857Y-90024438D01*
X142220857Y-90024438D02*
X142316095Y-90119676D01*
X142316095Y-90119676D02*
X142363714Y-90214914D01*
X142363714Y-90214914D02*
X142411333Y-90405390D01*
X142411333Y-90405390D02*
X142411333Y-90548247D01*
X142411333Y-90548247D02*
X142363714Y-90738723D01*
X142363714Y-90738723D02*
X142316095Y-90833961D01*
X142316095Y-90833961D02*
X142220857Y-90929200D01*
X142220857Y-90929200D02*
X142078000Y-90976819D01*
X142078000Y-90976819D02*
X141839905Y-90976819D01*
X142744667Y-89976819D02*
X143363714Y-89976819D01*
X143363714Y-89976819D02*
X143030381Y-90357771D01*
X143030381Y-90357771D02*
X143173238Y-90357771D01*
X143173238Y-90357771D02*
X143268476Y-90405390D01*
X143268476Y-90405390D02*
X143316095Y-90453009D01*
X143316095Y-90453009D02*
X143363714Y-90548247D01*
X143363714Y-90548247D02*
X143363714Y-90786342D01*
X143363714Y-90786342D02*
X143316095Y-90881580D01*
X143316095Y-90881580D02*
X143268476Y-90929200D01*
X143268476Y-90929200D02*
X143173238Y-90976819D01*
X143173238Y-90976819D02*
X142887524Y-90976819D01*
X142887524Y-90976819D02*
X142792286Y-90929200D01*
X142792286Y-90929200D02*
X142744667Y-90881580D01*
X126198095Y-63098819D02*
X126769523Y-63098819D01*
X126483809Y-64098819D02*
X126483809Y-63098819D01*
X127102857Y-64098819D02*
X127102857Y-63098819D01*
X127102857Y-63098819D02*
X127483809Y-63098819D01*
X127483809Y-63098819D02*
X127579047Y-63146438D01*
X127579047Y-63146438D02*
X127626666Y-63194057D01*
X127626666Y-63194057D02*
X127674285Y-63289295D01*
X127674285Y-63289295D02*
X127674285Y-63432152D01*
X127674285Y-63432152D02*
X127626666Y-63527390D01*
X127626666Y-63527390D02*
X127579047Y-63575009D01*
X127579047Y-63575009D02*
X127483809Y-63622628D01*
X127483809Y-63622628D02*
X127102857Y-63622628D01*
X128626666Y-64098819D02*
X128055238Y-64098819D01*
X128340952Y-64098819D02*
X128340952Y-63098819D01*
X128340952Y-63098819D02*
X128245714Y-63241676D01*
X128245714Y-63241676D02*
X128150476Y-63336914D01*
X128150476Y-63336914D02*
X128055238Y-63384533D01*
X133249580Y-99458666D02*
X133297200Y-99506285D01*
X133297200Y-99506285D02*
X133344819Y-99649142D01*
X133344819Y-99649142D02*
X133344819Y-99744380D01*
X133344819Y-99744380D02*
X133297200Y-99887237D01*
X133297200Y-99887237D02*
X133201961Y-99982475D01*
X133201961Y-99982475D02*
X133106723Y-100030094D01*
X133106723Y-100030094D02*
X132916247Y-100077713D01*
X132916247Y-100077713D02*
X132773390Y-100077713D01*
X132773390Y-100077713D02*
X132582914Y-100030094D01*
X132582914Y-100030094D02*
X132487676Y-99982475D01*
X132487676Y-99982475D02*
X132392438Y-99887237D01*
X132392438Y-99887237D02*
X132344819Y-99744380D01*
X132344819Y-99744380D02*
X132344819Y-99649142D01*
X132344819Y-99649142D02*
X132392438Y-99506285D01*
X132392438Y-99506285D02*
X132440057Y-99458666D01*
X132773390Y-98887237D02*
X132725771Y-98982475D01*
X132725771Y-98982475D02*
X132678152Y-99030094D01*
X132678152Y-99030094D02*
X132582914Y-99077713D01*
X132582914Y-99077713D02*
X132535295Y-99077713D01*
X132535295Y-99077713D02*
X132440057Y-99030094D01*
X132440057Y-99030094D02*
X132392438Y-98982475D01*
X132392438Y-98982475D02*
X132344819Y-98887237D01*
X132344819Y-98887237D02*
X132344819Y-98696761D01*
X132344819Y-98696761D02*
X132392438Y-98601523D01*
X132392438Y-98601523D02*
X132440057Y-98553904D01*
X132440057Y-98553904D02*
X132535295Y-98506285D01*
X132535295Y-98506285D02*
X132582914Y-98506285D01*
X132582914Y-98506285D02*
X132678152Y-98553904D01*
X132678152Y-98553904D02*
X132725771Y-98601523D01*
X132725771Y-98601523D02*
X132773390Y-98696761D01*
X132773390Y-98696761D02*
X132773390Y-98887237D01*
X132773390Y-98887237D02*
X132821009Y-98982475D01*
X132821009Y-98982475D02*
X132868628Y-99030094D01*
X132868628Y-99030094D02*
X132963866Y-99077713D01*
X132963866Y-99077713D02*
X133154342Y-99077713D01*
X133154342Y-99077713D02*
X133249580Y-99030094D01*
X133249580Y-99030094D02*
X133297200Y-98982475D01*
X133297200Y-98982475D02*
X133344819Y-98887237D01*
X133344819Y-98887237D02*
X133344819Y-98696761D01*
X133344819Y-98696761D02*
X133297200Y-98601523D01*
X133297200Y-98601523D02*
X133249580Y-98553904D01*
X133249580Y-98553904D02*
X133154342Y-98506285D01*
X133154342Y-98506285D02*
X132963866Y-98506285D01*
X132963866Y-98506285D02*
X132868628Y-98553904D01*
X132868628Y-98553904D02*
X132821009Y-98601523D01*
X132821009Y-98601523D02*
X132773390Y-98696761D01*
X148589580Y-84557857D02*
X148637200Y-84605476D01*
X148637200Y-84605476D02*
X148684819Y-84748333D01*
X148684819Y-84748333D02*
X148684819Y-84843571D01*
X148684819Y-84843571D02*
X148637200Y-84986428D01*
X148637200Y-84986428D02*
X148541961Y-85081666D01*
X148541961Y-85081666D02*
X148446723Y-85129285D01*
X148446723Y-85129285D02*
X148256247Y-85176904D01*
X148256247Y-85176904D02*
X148113390Y-85176904D01*
X148113390Y-85176904D02*
X147922914Y-85129285D01*
X147922914Y-85129285D02*
X147827676Y-85081666D01*
X147827676Y-85081666D02*
X147732438Y-84986428D01*
X147732438Y-84986428D02*
X147684819Y-84843571D01*
X147684819Y-84843571D02*
X147684819Y-84748333D01*
X147684819Y-84748333D02*
X147732438Y-84605476D01*
X147732438Y-84605476D02*
X147780057Y-84557857D01*
X148684819Y-83605476D02*
X148684819Y-84176904D01*
X148684819Y-83891190D02*
X147684819Y-83891190D01*
X147684819Y-83891190D02*
X147827676Y-83986428D01*
X147827676Y-83986428D02*
X147922914Y-84081666D01*
X147922914Y-84081666D02*
X147970533Y-84176904D01*
X147780057Y-83224523D02*
X147732438Y-83176904D01*
X147732438Y-83176904D02*
X147684819Y-83081666D01*
X147684819Y-83081666D02*
X147684819Y-82843571D01*
X147684819Y-82843571D02*
X147732438Y-82748333D01*
X147732438Y-82748333D02*
X147780057Y-82700714D01*
X147780057Y-82700714D02*
X147875295Y-82653095D01*
X147875295Y-82653095D02*
X147970533Y-82653095D01*
X147970533Y-82653095D02*
X148113390Y-82700714D01*
X148113390Y-82700714D02*
X148684819Y-83272142D01*
X148684819Y-83272142D02*
X148684819Y-82653095D01*
X149067261Y-91900057D02*
X148972023Y-91852438D01*
X148972023Y-91852438D02*
X148876785Y-91757200D01*
X148876785Y-91757200D02*
X148733928Y-91614342D01*
X148733928Y-91614342D02*
X148638690Y-91566723D01*
X148638690Y-91566723D02*
X148543452Y-91566723D01*
X148591071Y-91804819D02*
X148495833Y-91757200D01*
X148495833Y-91757200D02*
X148400595Y-91661961D01*
X148400595Y-91661961D02*
X148352976Y-91471485D01*
X148352976Y-91471485D02*
X148352976Y-91138152D01*
X148352976Y-91138152D02*
X148400595Y-90947676D01*
X148400595Y-90947676D02*
X148495833Y-90852438D01*
X148495833Y-90852438D02*
X148591071Y-90804819D01*
X148591071Y-90804819D02*
X148781547Y-90804819D01*
X148781547Y-90804819D02*
X148876785Y-90852438D01*
X148876785Y-90852438D02*
X148972023Y-90947676D01*
X148972023Y-90947676D02*
X149019642Y-91138152D01*
X149019642Y-91138152D02*
X149019642Y-91471485D01*
X149019642Y-91471485D02*
X148972023Y-91661961D01*
X148972023Y-91661961D02*
X148876785Y-91757200D01*
X148876785Y-91757200D02*
X148781547Y-91804819D01*
X148781547Y-91804819D02*
X148591071Y-91804819D01*
X149972023Y-91804819D02*
X149400595Y-91804819D01*
X149686309Y-91804819D02*
X149686309Y-90804819D01*
X149686309Y-90804819D02*
X149591071Y-90947676D01*
X149591071Y-90947676D02*
X149495833Y-91042914D01*
X149495833Y-91042914D02*
X149400595Y-91090533D01*
X145995833Y-90474819D02*
X145662500Y-89998628D01*
X145424405Y-90474819D02*
X145424405Y-89474819D01*
X145424405Y-89474819D02*
X145805357Y-89474819D01*
X145805357Y-89474819D02*
X145900595Y-89522438D01*
X145900595Y-89522438D02*
X145948214Y-89570057D01*
X145948214Y-89570057D02*
X145995833Y-89665295D01*
X145995833Y-89665295D02*
X145995833Y-89808152D01*
X145995833Y-89808152D02*
X145948214Y-89903390D01*
X145948214Y-89903390D02*
X145900595Y-89951009D01*
X145900595Y-89951009D02*
X145805357Y-89998628D01*
X145805357Y-89998628D02*
X145424405Y-89998628D01*
X146567262Y-89903390D02*
X146472024Y-89855771D01*
X146472024Y-89855771D02*
X146424405Y-89808152D01*
X146424405Y-89808152D02*
X146376786Y-89712914D01*
X146376786Y-89712914D02*
X146376786Y-89665295D01*
X146376786Y-89665295D02*
X146424405Y-89570057D01*
X146424405Y-89570057D02*
X146472024Y-89522438D01*
X146472024Y-89522438D02*
X146567262Y-89474819D01*
X146567262Y-89474819D02*
X146757738Y-89474819D01*
X146757738Y-89474819D02*
X146852976Y-89522438D01*
X146852976Y-89522438D02*
X146900595Y-89570057D01*
X146900595Y-89570057D02*
X146948214Y-89665295D01*
X146948214Y-89665295D02*
X146948214Y-89712914D01*
X146948214Y-89712914D02*
X146900595Y-89808152D01*
X146900595Y-89808152D02*
X146852976Y-89855771D01*
X146852976Y-89855771D02*
X146757738Y-89903390D01*
X146757738Y-89903390D02*
X146567262Y-89903390D01*
X146567262Y-89903390D02*
X146472024Y-89951009D01*
X146472024Y-89951009D02*
X146424405Y-89998628D01*
X146424405Y-89998628D02*
X146376786Y-90093866D01*
X146376786Y-90093866D02*
X146376786Y-90284342D01*
X146376786Y-90284342D02*
X146424405Y-90379580D01*
X146424405Y-90379580D02*
X146472024Y-90427200D01*
X146472024Y-90427200D02*
X146567262Y-90474819D01*
X146567262Y-90474819D02*
X146757738Y-90474819D01*
X146757738Y-90474819D02*
X146852976Y-90427200D01*
X146852976Y-90427200D02*
X146900595Y-90379580D01*
X146900595Y-90379580D02*
X146948214Y-90284342D01*
X146948214Y-90284342D02*
X146948214Y-90093866D01*
X146948214Y-90093866D02*
X146900595Y-89998628D01*
X146900595Y-89998628D02*
X146852976Y-89951009D01*
X146852976Y-89951009D02*
X146757738Y-89903390D01*
X143949580Y-88958666D02*
X143997200Y-89006285D01*
X143997200Y-89006285D02*
X144044819Y-89149142D01*
X144044819Y-89149142D02*
X144044819Y-89244380D01*
X144044819Y-89244380D02*
X143997200Y-89387237D01*
X143997200Y-89387237D02*
X143901961Y-89482475D01*
X143901961Y-89482475D02*
X143806723Y-89530094D01*
X143806723Y-89530094D02*
X143616247Y-89577713D01*
X143616247Y-89577713D02*
X143473390Y-89577713D01*
X143473390Y-89577713D02*
X143282914Y-89530094D01*
X143282914Y-89530094D02*
X143187676Y-89482475D01*
X143187676Y-89482475D02*
X143092438Y-89387237D01*
X143092438Y-89387237D02*
X143044819Y-89244380D01*
X143044819Y-89244380D02*
X143044819Y-89149142D01*
X143044819Y-89149142D02*
X143092438Y-89006285D01*
X143092438Y-89006285D02*
X143140057Y-88958666D01*
X144044819Y-88482475D02*
X144044819Y-88291999D01*
X144044819Y-88291999D02*
X143997200Y-88196761D01*
X143997200Y-88196761D02*
X143949580Y-88149142D01*
X143949580Y-88149142D02*
X143806723Y-88053904D01*
X143806723Y-88053904D02*
X143616247Y-88006285D01*
X143616247Y-88006285D02*
X143235295Y-88006285D01*
X143235295Y-88006285D02*
X143140057Y-88053904D01*
X143140057Y-88053904D02*
X143092438Y-88101523D01*
X143092438Y-88101523D02*
X143044819Y-88196761D01*
X143044819Y-88196761D02*
X143044819Y-88387237D01*
X143044819Y-88387237D02*
X143092438Y-88482475D01*
X143092438Y-88482475D02*
X143140057Y-88530094D01*
X143140057Y-88530094D02*
X143235295Y-88577713D01*
X143235295Y-88577713D02*
X143473390Y-88577713D01*
X143473390Y-88577713D02*
X143568628Y-88530094D01*
X143568628Y-88530094D02*
X143616247Y-88482475D01*
X143616247Y-88482475D02*
X143663866Y-88387237D01*
X143663866Y-88387237D02*
X143663866Y-88196761D01*
X143663866Y-88196761D02*
X143616247Y-88101523D01*
X143616247Y-88101523D02*
X143568628Y-88053904D01*
X143568628Y-88053904D02*
X143473390Y-88006285D01*
X133157142Y-79214819D02*
X132823809Y-78738628D01*
X132585714Y-79214819D02*
X132585714Y-78214819D01*
X132585714Y-78214819D02*
X132966666Y-78214819D01*
X132966666Y-78214819D02*
X133061904Y-78262438D01*
X133061904Y-78262438D02*
X133109523Y-78310057D01*
X133109523Y-78310057D02*
X133157142Y-78405295D01*
X133157142Y-78405295D02*
X133157142Y-78548152D01*
X133157142Y-78548152D02*
X133109523Y-78643390D01*
X133109523Y-78643390D02*
X133061904Y-78691009D01*
X133061904Y-78691009D02*
X132966666Y-78738628D01*
X132966666Y-78738628D02*
X132585714Y-78738628D01*
X134109523Y-79214819D02*
X133538095Y-79214819D01*
X133823809Y-79214819D02*
X133823809Y-78214819D01*
X133823809Y-78214819D02*
X133728571Y-78357676D01*
X133728571Y-78357676D02*
X133633333Y-78452914D01*
X133633333Y-78452914D02*
X133538095Y-78500533D01*
X135061904Y-79214819D02*
X134490476Y-79214819D01*
X134776190Y-79214819D02*
X134776190Y-78214819D01*
X134776190Y-78214819D02*
X134680952Y-78357676D01*
X134680952Y-78357676D02*
X134585714Y-78452914D01*
X134585714Y-78452914D02*
X134490476Y-78500533D01*
X156789580Y-98142857D02*
X156837200Y-98190476D01*
X156837200Y-98190476D02*
X156884819Y-98333333D01*
X156884819Y-98333333D02*
X156884819Y-98428571D01*
X156884819Y-98428571D02*
X156837200Y-98571428D01*
X156837200Y-98571428D02*
X156741961Y-98666666D01*
X156741961Y-98666666D02*
X156646723Y-98714285D01*
X156646723Y-98714285D02*
X156456247Y-98761904D01*
X156456247Y-98761904D02*
X156313390Y-98761904D01*
X156313390Y-98761904D02*
X156122914Y-98714285D01*
X156122914Y-98714285D02*
X156027676Y-98666666D01*
X156027676Y-98666666D02*
X155932438Y-98571428D01*
X155932438Y-98571428D02*
X155884819Y-98428571D01*
X155884819Y-98428571D02*
X155884819Y-98333333D01*
X155884819Y-98333333D02*
X155932438Y-98190476D01*
X155932438Y-98190476D02*
X155980057Y-98142857D01*
X156884819Y-97190476D02*
X156884819Y-97761904D01*
X156884819Y-97476190D02*
X155884819Y-97476190D01*
X155884819Y-97476190D02*
X156027676Y-97571428D01*
X156027676Y-97571428D02*
X156122914Y-97666666D01*
X156122914Y-97666666D02*
X156170533Y-97761904D01*
X155884819Y-96857142D02*
X155884819Y-96190476D01*
X155884819Y-96190476D02*
X156884819Y-96619047D01*
X129333333Y-64860289D02*
X129000000Y-64384098D01*
X128761905Y-64860289D02*
X128761905Y-63860289D01*
X128761905Y-63860289D02*
X129142857Y-63860289D01*
X129142857Y-63860289D02*
X129238095Y-63907908D01*
X129238095Y-63907908D02*
X129285714Y-63955527D01*
X129285714Y-63955527D02*
X129333333Y-64050765D01*
X129333333Y-64050765D02*
X129333333Y-64193622D01*
X129333333Y-64193622D02*
X129285714Y-64288860D01*
X129285714Y-64288860D02*
X129238095Y-64336479D01*
X129238095Y-64336479D02*
X129142857Y-64384098D01*
X129142857Y-64384098D02*
X128761905Y-64384098D01*
X130190476Y-64193622D02*
X130190476Y-64860289D01*
X129952381Y-63812670D02*
X129714286Y-64526955D01*
X129714286Y-64526955D02*
X130333333Y-64526955D01*
X140157142Y-79789580D02*
X140109523Y-79837200D01*
X140109523Y-79837200D02*
X139966666Y-79884819D01*
X139966666Y-79884819D02*
X139871428Y-79884819D01*
X139871428Y-79884819D02*
X139728571Y-79837200D01*
X139728571Y-79837200D02*
X139633333Y-79741961D01*
X139633333Y-79741961D02*
X139585714Y-79646723D01*
X139585714Y-79646723D02*
X139538095Y-79456247D01*
X139538095Y-79456247D02*
X139538095Y-79313390D01*
X139538095Y-79313390D02*
X139585714Y-79122914D01*
X139585714Y-79122914D02*
X139633333Y-79027676D01*
X139633333Y-79027676D02*
X139728571Y-78932438D01*
X139728571Y-78932438D02*
X139871428Y-78884819D01*
X139871428Y-78884819D02*
X139966666Y-78884819D01*
X139966666Y-78884819D02*
X140109523Y-78932438D01*
X140109523Y-78932438D02*
X140157142Y-78980057D01*
X141109523Y-79884819D02*
X140538095Y-79884819D01*
X140823809Y-79884819D02*
X140823809Y-78884819D01*
X140823809Y-78884819D02*
X140728571Y-79027676D01*
X140728571Y-79027676D02*
X140633333Y-79122914D01*
X140633333Y-79122914D02*
X140538095Y-79170533D01*
X141728571Y-78884819D02*
X141823809Y-78884819D01*
X141823809Y-78884819D02*
X141919047Y-78932438D01*
X141919047Y-78932438D02*
X141966666Y-78980057D01*
X141966666Y-78980057D02*
X142014285Y-79075295D01*
X142014285Y-79075295D02*
X142061904Y-79265771D01*
X142061904Y-79265771D02*
X142061904Y-79503866D01*
X142061904Y-79503866D02*
X142014285Y-79694342D01*
X142014285Y-79694342D02*
X141966666Y-79789580D01*
X141966666Y-79789580D02*
X141919047Y-79837200D01*
X141919047Y-79837200D02*
X141823809Y-79884819D01*
X141823809Y-79884819D02*
X141728571Y-79884819D01*
X141728571Y-79884819D02*
X141633333Y-79837200D01*
X141633333Y-79837200D02*
X141585714Y-79789580D01*
X141585714Y-79789580D02*
X141538095Y-79694342D01*
X141538095Y-79694342D02*
X141490476Y-79503866D01*
X141490476Y-79503866D02*
X141490476Y-79265771D01*
X141490476Y-79265771D02*
X141538095Y-79075295D01*
X141538095Y-79075295D02*
X141585714Y-78980057D01*
X141585714Y-78980057D02*
X141633333Y-78932438D01*
X141633333Y-78932438D02*
X141728571Y-78884819D01*
D12*
%TO.C,R26*%
X147777500Y-77452742D02*
X147777500Y-77927258D01*
X148822500Y-77452742D02*
X148822500Y-77927258D01*
%TO.C,R14*%
X147812258Y-81167500D02*
X147337742Y-81167500D01*
X147812258Y-82212500D02*
X147337742Y-82212500D01*
D13*
%TO.C,kibuzzard-68EE7166*%
G36*
X126043942Y-65080775D02*
G01*
X125863005Y-65080775D01*
X125901777Y-65007108D01*
X125947658Y-64932795D01*
X125996123Y-64862359D01*
X126043942Y-64799031D01*
X126043942Y-65080775D01*
G37*
G36*
X126594227Y-65507701D02*
G01*
X126289607Y-65507701D01*
X126289499Y-65507701D01*
X126202908Y-65507701D01*
X125710501Y-65507701D01*
X125710393Y-65507701D01*
X125586581Y-65094992D01*
X125710501Y-65094992D01*
X125710501Y-65211309D01*
X126043942Y-65211309D01*
X126043942Y-65400000D01*
X126202908Y-65400000D01*
X126202908Y-65211309D01*
X126289499Y-65211309D01*
X126289499Y-65080775D01*
X126202908Y-65080775D01*
X126202908Y-64600000D01*
X126060743Y-64600000D01*
X126009047Y-64655089D01*
X125957351Y-64716963D01*
X125906947Y-64782714D01*
X125859128Y-64849435D01*
X125814540Y-64915832D01*
X125773829Y-64980614D01*
X125738611Y-65041195D01*
X125710501Y-65094992D01*
X125586581Y-65094992D01*
X125405773Y-64492299D01*
X125710393Y-64492299D01*
X125710501Y-64492299D01*
X126289499Y-64492299D01*
X126289607Y-64492299D01*
X126594227Y-65507701D01*
G37*
D12*
%TO.C,R32*%
X150437500Y-93029258D02*
X150437500Y-92554742D01*
X151482500Y-93029258D02*
X151482500Y-92554742D01*
%TO.C,R22*%
X152362742Y-69477500D02*
X152837258Y-69477500D01*
X152362742Y-70522500D02*
X152837258Y-70522500D01*
%TO.C,C4*%
X127990000Y-60217420D02*
X127990000Y-60498580D01*
X129010000Y-60217420D02*
X129010000Y-60498580D01*
%TO.C,R3*%
X137422742Y-83977500D02*
X137897258Y-83977500D01*
X137422742Y-85022500D02*
X137897258Y-85022500D01*
%TO.C,Q2*%
X153390000Y-92240000D02*
X155210000Y-92240000D01*
X153390000Y-92290000D02*
X153390000Y-92240000D01*
X153390000Y-94190000D02*
X153390000Y-93410000D01*
X153390000Y-95360000D02*
X153390000Y-95310000D01*
X155210000Y-92240000D02*
X155210000Y-93240000D01*
X155210000Y-94360000D02*
X155210000Y-95360000D01*
X155210000Y-95360000D02*
X153390000Y-95360000D01*
X153090000Y-93750000D02*
X152610000Y-93750000D01*
X152850000Y-93420000D01*
X153090000Y-93750000D01*
G36*
X153090000Y-93750000D02*
G01*
X152610000Y-93750000D01*
X152850000Y-93420000D01*
X153090000Y-93750000D01*
G37*
%TO.C,R29*%
X135777500Y-81952742D02*
X135777500Y-82427258D01*
X136822500Y-81952742D02*
X136822500Y-82427258D01*
D13*
%TO.C,kibuzzard-68E98065*%
G36*
X128343457Y-72236349D02*
G01*
X128373829Y-72304200D01*
X128357027Y-72373344D01*
X128300162Y-72438611D01*
X128236511Y-72408239D01*
X128195477Y-72379160D01*
X128165751Y-72305493D01*
X128197415Y-72236995D01*
X128270436Y-72213732D01*
X128343457Y-72236349D01*
G37*
G36*
X128300162Y-72578837D02*
G01*
X128355089Y-72611147D01*
X128386107Y-72646688D01*
X128395800Y-72691922D01*
X128361551Y-72758481D01*
X128269144Y-72786268D01*
X128181906Y-72759774D01*
X128145073Y-72681583D01*
X128164459Y-72611147D01*
X128220032Y-72544588D01*
X128300162Y-72578837D01*
G37*
G36*
X127016801Y-72253150D02*
G01*
X127069790Y-72313247D01*
X127096931Y-72399838D01*
X127104685Y-72500646D01*
X127102262Y-72557674D01*
X127094992Y-72609855D01*
X127062682Y-72695800D01*
X127003231Y-72752666D01*
X126912116Y-72773344D01*
X126897900Y-72773344D01*
X126883683Y-72772052D01*
X126883683Y-72234410D01*
X126906947Y-72231179D01*
X126930210Y-72230533D01*
X127016801Y-72253150D01*
G37*
G36*
X128861303Y-73025794D02*
G01*
X128545827Y-73025794D01*
X128545719Y-73025794D01*
X128266559Y-73025794D01*
X126895315Y-73025794D01*
X126090145Y-73025794D01*
X125957027Y-73025794D01*
X125454281Y-73025794D01*
X125454173Y-73025794D01*
X125416822Y-72901292D01*
X125454281Y-72901292D01*
X125957027Y-72901292D01*
X126090145Y-72901292D01*
X126603231Y-72901292D01*
X126603231Y-72769467D01*
X126249111Y-72769467D01*
X126249111Y-72544588D01*
X126532149Y-72544588D01*
X126532149Y-72412763D01*
X126249111Y-72412763D01*
X126249111Y-72233118D01*
X126574798Y-72233118D01*
X126574798Y-72111632D01*
X126724717Y-72111632D01*
X126724717Y-72892246D01*
X126811955Y-72907108D01*
X126895315Y-72911632D01*
X126973344Y-72905977D01*
X127044588Y-72889015D01*
X127107754Y-72859774D01*
X127161551Y-72817286D01*
X127205331Y-72760905D01*
X127233319Y-72700969D01*
X127996446Y-72700969D01*
X128015832Y-72792084D01*
X128070759Y-72860582D01*
X128156058Y-72903231D01*
X128208562Y-72914378D01*
X128266559Y-72918094D01*
X128337964Y-72912924D01*
X128397092Y-72897415D01*
X128483037Y-72845073D01*
X128530856Y-72773344D01*
X128545719Y-72694507D01*
X128538126Y-72636349D01*
X128515347Y-72583360D01*
X128474152Y-72534895D01*
X128411309Y-72490307D01*
X128461712Y-72449758D01*
X128496607Y-72400485D01*
X128516963Y-72346365D01*
X128523748Y-72291276D01*
X128506785Y-72205331D01*
X128455897Y-72138772D01*
X128376252Y-72096123D01*
X128273021Y-72081906D01*
X128206462Y-72087399D01*
X128151535Y-72103877D01*
X128072698Y-72159451D01*
X128029402Y-72235057D01*
X128015832Y-72315832D01*
X128036511Y-72408885D01*
X128066236Y-72451535D01*
X128114055Y-72491599D01*
X128061389Y-72536026D01*
X128024879Y-72586591D01*
X128003554Y-72642003D01*
X127996446Y-72700969D01*
X127233319Y-72700969D01*
X127238449Y-72689984D01*
X127259289Y-72603554D01*
X127266236Y-72500646D01*
X127259935Y-72400000D01*
X127241034Y-72315186D01*
X127210824Y-72245073D01*
X127170598Y-72188530D01*
X127120355Y-72145396D01*
X127060097Y-72115509D01*
X126991438Y-72098061D01*
X126915994Y-72092246D01*
X126826817Y-72096123D01*
X126724717Y-72111632D01*
X126574798Y-72111632D01*
X126574798Y-72101292D01*
X126090145Y-72101292D01*
X126090145Y-72901292D01*
X125957027Y-72901292D01*
X125957027Y-72769467D01*
X125614540Y-72769467D01*
X125614540Y-72101292D01*
X125454281Y-72101292D01*
X125454281Y-72901292D01*
X125416822Y-72901292D01*
X125138697Y-71974206D01*
X125454173Y-71974206D01*
X125454281Y-71974206D01*
X128545719Y-71974206D01*
X128545827Y-71974206D01*
X128861303Y-73025794D01*
G37*
D12*
%TO.C,J8*%
X151800000Y-90702000D02*
X151800000Y-91952000D01*
X151800000Y-91952000D02*
X153050000Y-91952000D01*
X151900000Y-89892000D02*
X151900000Y-90192000D01*
X151900000Y-90192000D02*
X152100000Y-90192000D01*
X152000000Y-89892000D02*
X152000000Y-90192000D01*
X152100000Y-89092000D02*
X152710000Y-89092000D01*
X152100000Y-89892000D02*
X151900000Y-89892000D01*
X152710000Y-86142000D02*
X152710000Y-88092000D01*
X152710000Y-88092000D02*
X152100000Y-88092000D01*
X152710000Y-89092000D02*
X152710000Y-91042000D01*
X152710000Y-91042000D02*
X156210000Y-91042000D01*
X153410000Y-85532000D02*
X153410000Y-86142000D01*
X153410000Y-91652000D02*
X153410000Y-91042000D01*
X154710000Y-85532000D02*
X154710000Y-86142000D01*
X154710000Y-91652000D02*
X154710000Y-91042000D01*
X155710000Y-88492000D02*
X156210000Y-88492000D01*
X155710000Y-88692000D02*
X155710000Y-88492000D01*
X156210000Y-86142000D02*
X152710000Y-86142000D01*
X156210000Y-88592000D02*
X155710000Y-88592000D01*
X156210000Y-88692000D02*
X155710000Y-88692000D01*
X156210000Y-91042000D02*
X156210000Y-86142000D01*
X152100000Y-91652000D02*
X156820000Y-91652000D01*
X156820000Y-85532000D01*
X152100000Y-85532000D01*
X152100000Y-91652000D01*
%TO.C,R23*%
X152362742Y-67977500D02*
X152837258Y-67977500D01*
X152362742Y-69022500D02*
X152837258Y-69022500D01*
%TO.C,C3*%
X127450000Y-94653174D02*
X127450000Y-94372014D01*
X128470000Y-94653174D02*
X128470000Y-94372014D01*
%TO.C,C1*%
X151919420Y-60782000D02*
X152200580Y-60782000D01*
X151919420Y-61802000D02*
X152200580Y-61802000D01*
%TO.C,R16*%
X151187742Y-103677500D02*
X151662258Y-103677500D01*
X151187742Y-104722500D02*
X151662258Y-104722500D01*
%TO.C,C15*%
X154919420Y-61990000D02*
X155200580Y-61990000D01*
X154919420Y-63010000D02*
X155200580Y-63010000D01*
%TO.C,C13*%
X136225000Y-94528252D02*
X136225000Y-94005748D01*
X137695000Y-94528252D02*
X137695000Y-94005748D01*
D14*
%TO.C,SW2*%
X127050000Y-102792000D02*
X127050000Y-98792000D01*
X130150000Y-102792000D02*
X130150000Y-98792000D01*
D12*
%TO.C,TP4*%
X129410000Y-91292000D02*
G75*
G02*
X127510000Y-91292000I-950000J0D01*
G01*
X127510000Y-91292000D02*
G75*
G02*
X129410000Y-91292000I950000J0D01*
G01*
%TO.C,TP3*%
X134410000Y-101792000D02*
G75*
G02*
X132510000Y-101792000I-950000J0D01*
G01*
X132510000Y-101792000D02*
G75*
G02*
X134410000Y-101792000I950000J0D01*
G01*
%TO.C,R2*%
X139261500Y-95107258D02*
X139261500Y-94632742D01*
X140306500Y-95107258D02*
X140306500Y-94632742D01*
%TO.C,R27*%
X132777500Y-84152258D02*
X132777500Y-83677742D01*
X133822500Y-84152258D02*
X133822500Y-83677742D01*
%TO.C,R21*%
X148937742Y-85977500D02*
X149412258Y-85977500D01*
X148937742Y-87022500D02*
X149412258Y-87022500D01*
%TO.C,R6*%
X129577500Y-69412258D02*
X129577500Y-68937742D01*
X130622500Y-69412258D02*
X130622500Y-68937742D01*
%TO.C,C5*%
X129622000Y-60217420D02*
X129622000Y-60498580D01*
X130642000Y-60217420D02*
X130642000Y-60498580D01*
%TO.C,R13*%
X147812258Y-79567500D02*
X147337742Y-79567500D01*
X147812258Y-80612500D02*
X147337742Y-80612500D01*
%TO.C,J2*%
X149557500Y-75962000D02*
X157097500Y-75962000D01*
X149557500Y-83812000D02*
X149557500Y-75962000D01*
X157097500Y-75962000D02*
X157097500Y-81492000D01*
X157097500Y-82092000D02*
X157097500Y-83812000D01*
X157097500Y-83812000D02*
X149557500Y-83812000D01*
X157707500Y-82232000D02*
X157097500Y-81792000D01*
X157707500Y-81352000D01*
X157707500Y-82232000D01*
G36*
X157707500Y-82232000D02*
G01*
X157097500Y-81792000D01*
X157707500Y-81352000D01*
X157707500Y-82232000D01*
G37*
%TO.C,R10*%
X134277500Y-78127258D02*
X134277500Y-77652742D01*
X135322500Y-78127258D02*
X135322500Y-77652742D01*
%TO.C,C6*%
X147090000Y-97559420D02*
X147090000Y-97840580D01*
X148110000Y-97559420D02*
X148110000Y-97840580D01*
%TO.C,R20*%
X145862742Y-85977500D02*
X146337258Y-85977500D01*
X145862742Y-87022500D02*
X146337258Y-87022500D01*
D14*
%TO.C,L1*%
X133510000Y-96842000D02*
X134710000Y-96842000D01*
X134710000Y-98242000D02*
X133510000Y-98242000D01*
D15*
%TO.C,U8*%
X153470000Y-63970000D02*
X153650000Y-63970000D01*
X153470000Y-64370000D02*
X153470000Y-63970000D01*
X153470000Y-66030000D02*
X153470000Y-65630000D01*
X153650000Y-66030000D02*
X153470000Y-66030000D01*
X155350000Y-63970000D02*
X155530000Y-63970000D01*
X155350000Y-66030000D02*
X155530000Y-66030000D01*
X155530000Y-63970000D02*
X155530000Y-64370000D01*
X155530000Y-66030000D02*
X155530000Y-65630000D01*
D16*
X153100000Y-64700000D02*
G75*
G02*
X152900000Y-64700000I-100000J0D01*
G01*
X152900000Y-64700000D02*
G75*
G02*
X153100000Y-64700000I100000J0D01*
G01*
D12*
%TO.C,C18*%
X128931733Y-94773846D02*
X128931733Y-94251342D01*
X130401733Y-94773846D02*
X130401733Y-94251342D01*
%TO.C,C16*%
X154990000Y-67859420D02*
X154990000Y-68140580D01*
X156010000Y-67859420D02*
X156010000Y-68140580D01*
%TO.C,U1*%
X131690000Y-52398000D02*
X131690000Y-58208000D01*
X131690000Y-52398000D02*
X149910000Y-52398000D01*
X131690000Y-72318000D02*
X131690000Y-72618000D01*
X131690000Y-72618000D02*
X149910000Y-72618000D01*
X149910000Y-52398000D02*
X149910000Y-58898000D01*
X149910000Y-72318000D02*
X149910000Y-72618000D01*
X131700000Y-58908000D02*
X131200000Y-58908000D01*
X131700000Y-58408000D01*
X131700000Y-58908000D01*
G36*
X131700000Y-58908000D02*
G01*
X131200000Y-58908000D01*
X131700000Y-58408000D01*
X131700000Y-58908000D01*
G37*
%TO.C,D2*%
X144750000Y-93390000D02*
X144750000Y-96050000D01*
X146450000Y-93390000D02*
X144750000Y-93390000D01*
X146450000Y-93390000D02*
X146450000Y-96050000D01*
%TO.C,R9*%
X133562742Y-81167500D02*
X134037258Y-81167500D01*
X133562742Y-82212500D02*
X134037258Y-82212500D01*
%TO.C,R12*%
X144777500Y-81952742D02*
X144777500Y-82427258D01*
X145822500Y-81952742D02*
X145822500Y-82427258D01*
%TO.C,D1*%
X138830000Y-91222000D02*
X140790000Y-91222000D01*
X138830000Y-92422000D02*
X140790000Y-92422000D01*
X140790000Y-92422000D02*
X140790000Y-91222000D01*
%TO.C,R31*%
X134145757Y-74870401D02*
X133671241Y-74870401D01*
X134145757Y-75915401D02*
X133671241Y-75915401D01*
D13*
%TO.C,kibuzzard-679A5C2F*%
G36*
X126028110Y-102358236D02*
G01*
X126057795Y-102417606D01*
X126067690Y-102505247D01*
X126067690Y-102548866D01*
X125767205Y-102548866D01*
X125763166Y-102516556D01*
X125762359Y-102489092D01*
X125771648Y-102417606D01*
X125799515Y-102361467D01*
X125847173Y-102325118D01*
X125915832Y-102313002D01*
X126028110Y-102358236D01*
G37*
G36*
X126756435Y-100309771D02*
G01*
X126756435Y-100844504D01*
X126756435Y-101925279D01*
X126756435Y-102044827D01*
X126756435Y-102747574D01*
X126756435Y-103084138D01*
X125443565Y-103477999D01*
X125443565Y-103084138D01*
X125443565Y-102747574D01*
X125443565Y-102489092D01*
X125589499Y-102489092D01*
X125591115Y-102545635D01*
X125595153Y-102613486D01*
X125603231Y-102683761D01*
X125615347Y-102747574D01*
X126600808Y-102747574D01*
X126600808Y-102548866D01*
X126232472Y-102548866D01*
X126232472Y-102445473D01*
X126323950Y-102390748D01*
X126414216Y-102339658D01*
X126505695Y-102293414D01*
X126600808Y-102253228D01*
X126600808Y-102044827D01*
X126494992Y-102090869D01*
X126383522Y-102146604D01*
X126276898Y-102206378D01*
X126184006Y-102264536D01*
X126138368Y-102193858D01*
X126075767Y-102146604D01*
X126000646Y-102119948D01*
X125917447Y-102111063D01*
X125838893Y-102117727D01*
X125771244Y-102137719D01*
X125668659Y-102214456D01*
X125633522Y-102269383D01*
X125608885Y-102334003D01*
X125594346Y-102407509D01*
X125589499Y-102489092D01*
X125443565Y-102489092D01*
X125443565Y-101319464D01*
X125600808Y-101319464D01*
X125600808Y-101925279D01*
X126600808Y-101925279D01*
X126600808Y-101283922D01*
X126436026Y-101283922D01*
X126436026Y-101726572D01*
X126154927Y-101726572D01*
X126154927Y-101372775D01*
X125990145Y-101372775D01*
X125990145Y-101726572D01*
X125765590Y-101726572D01*
X125765590Y-101319464D01*
X125600808Y-101319464D01*
X125443565Y-101319464D01*
X125443565Y-100797654D01*
X125578191Y-100797654D01*
X125586986Y-100896649D01*
X125613373Y-100980386D01*
X125657351Y-101048866D01*
X125751858Y-101117323D01*
X125877060Y-101140142D01*
X125995800Y-101114294D01*
X126075767Y-101048866D01*
X126129079Y-100960821D01*
X126166236Y-100867121D01*
X126194507Y-100799270D01*
X126228433Y-100737880D01*
X126271244Y-100692646D01*
X126326171Y-100674876D01*
X126373829Y-100682145D01*
X126415832Y-100708801D01*
X126444911Y-100761305D01*
X126455412Y-100844504D01*
X126449758Y-100925078D01*
X126432795Y-100992323D01*
X126384330Y-101096523D01*
X126545880Y-101154682D01*
X126595153Y-101043212D01*
X126615145Y-100956378D01*
X126621809Y-100844504D01*
X126613283Y-100731149D01*
X126587704Y-100638796D01*
X126545073Y-100567444D01*
X126452383Y-100498987D01*
X126327787Y-100476168D01*
X126252464Y-100483034D01*
X126191276Y-100503632D01*
X126100808Y-100573906D01*
X126042649Y-100667606D01*
X126003069Y-100765344D01*
X125978837Y-100827541D01*
X125948950Y-100884084D01*
X125910178Y-100925279D01*
X125859289Y-100941435D01*
X125795566Y-100923843D01*
X125757333Y-100871070D01*
X125744588Y-100783115D01*
X125760743Y-100669221D01*
X125799515Y-100579561D01*
X125646042Y-100521402D01*
X125599192Y-100636911D01*
X125583441Y-100711426D01*
X125578191Y-100797654D01*
X125443565Y-100797654D01*
X125443565Y-99703955D01*
X125600808Y-99703955D01*
X125600808Y-100309771D01*
X126600808Y-100309771D01*
X126600808Y-99668414D01*
X126436026Y-99668414D01*
X126436026Y-100111063D01*
X126154927Y-100111063D01*
X126154927Y-99757267D01*
X125990145Y-99757267D01*
X125990145Y-100111063D01*
X125765590Y-100111063D01*
X125765590Y-99703955D01*
X125600808Y-99703955D01*
X125443565Y-99703955D01*
X125443565Y-98836426D01*
X125600808Y-98836426D01*
X125600808Y-99563405D01*
X125765590Y-99563405D01*
X125765590Y-99300078D01*
X126600808Y-99300078D01*
X126600808Y-99099754D01*
X125765590Y-99099754D01*
X125765590Y-98836426D01*
X125600808Y-98836426D01*
X125443565Y-98836426D01*
X125443565Y-98499862D01*
X126756435Y-98106001D01*
X126756435Y-98499862D01*
X126756435Y-98836426D01*
X126756435Y-99099754D01*
X126756435Y-100309771D01*
G37*
D12*
%TO.C,R30*%
X133671241Y-73370401D02*
X134145757Y-73370401D01*
X133671241Y-74415401D02*
X134145757Y-74415401D01*
%TO.C,U3*%
X144090000Y-87390000D02*
X145910000Y-87390000D01*
X144090000Y-87440000D02*
X144090000Y-87390000D01*
X144090000Y-90510000D02*
X144090000Y-90460000D01*
X145910000Y-87390000D02*
X145910000Y-87440000D01*
X145910000Y-90460000D02*
X145910000Y-90510000D01*
X145910000Y-90510000D02*
X144090000Y-90510000D01*
X146690000Y-90790000D02*
X146210000Y-90790000D01*
X146450000Y-90460000D01*
X146690000Y-90790000D01*
G36*
X146690000Y-90790000D02*
G01*
X146210000Y-90790000D01*
X146450000Y-90460000D01*
X146690000Y-90790000D01*
G37*
%TO.C,R33*%
X130937500Y-95504258D02*
X130937500Y-95029742D01*
X131982500Y-95504258D02*
X131982500Y-95029742D01*
%TO.C,R17*%
X135777500Y-79427258D02*
X135777500Y-78952742D01*
X136822500Y-79427258D02*
X136822500Y-78952742D01*
%TO.C,R7*%
X143299758Y-85927500D02*
X142825242Y-85927500D01*
X143299758Y-86972500D02*
X142825242Y-86972500D01*
%TO.C,U2*%
X132350000Y-92682000D02*
X132575000Y-92682000D01*
X132350000Y-95902000D02*
X132350000Y-92682000D01*
X132575000Y-95902000D02*
X132350000Y-95902000D01*
X135345000Y-92682000D02*
X135570000Y-92682000D01*
X135570000Y-92682000D02*
X135570000Y-95902000D01*
X135570000Y-95902000D02*
X135345000Y-95902000D01*
X133200000Y-96742000D02*
X132720000Y-96742000D01*
X132960000Y-96412000D01*
X133200000Y-96742000D01*
G36*
X133200000Y-96742000D02*
G01*
X132720000Y-96742000D01*
X132960000Y-96412000D01*
X133200000Y-96742000D01*
G37*
D13*
%TO.C,kibuzzard-68E9870E*%
G36*
X148714362Y-96205727D02*
G01*
X148377798Y-96205727D01*
X147889914Y-96205727D01*
X147108008Y-96205727D01*
X146838218Y-96205727D01*
X146501654Y-96205727D01*
X146501654Y-95884780D01*
X146838218Y-95884780D01*
X146884260Y-95902550D01*
X146951304Y-95919513D01*
X147028848Y-95931629D01*
X147108008Y-95936476D01*
X147200496Y-95930418D01*
X147280867Y-95912243D01*
X147349123Y-95883164D01*
X147405262Y-95844392D01*
X147479575Y-95741807D01*
X147503808Y-95613374D01*
X147492858Y-95519675D01*
X147460009Y-95441053D01*
X147405262Y-95377510D01*
X147328256Y-95329403D01*
X147228633Y-95297093D01*
X147106392Y-95280579D01*
X147114470Y-95188495D01*
X147122548Y-95080256D01*
X147466651Y-95080256D01*
X147466651Y-94915474D01*
X147610431Y-94915474D01*
X147629010Y-95005943D01*
X147655666Y-95119028D01*
X147677026Y-95203663D01*
X147700182Y-95291708D01*
X147725132Y-95383164D01*
X147751519Y-95476415D01*
X147778983Y-95569845D01*
X147807523Y-95663455D01*
X147849930Y-95796734D01*
X147889914Y-95915474D01*
X148095084Y-95915474D01*
X148125958Y-95829403D01*
X148156114Y-95741358D01*
X148185552Y-95651338D01*
X148213824Y-95560870D01*
X148240480Y-95471479D01*
X148265520Y-95383164D01*
X148299850Y-95254529D01*
X148330140Y-95131952D01*
X148356191Y-95018059D01*
X148377798Y-94915474D01*
X148169397Y-94915474D01*
X148154858Y-94999481D01*
X148137087Y-95096411D01*
X148116893Y-95201217D01*
X148095084Y-95308851D01*
X148071659Y-95417090D01*
X148046619Y-95523713D01*
X148020771Y-95623673D01*
X147994922Y-95711920D01*
X147968872Y-95622461D01*
X147942418Y-95522098D01*
X147916570Y-95415474D01*
X147892338Y-95307235D01*
X147869922Y-95199804D01*
X147849527Y-95095603D01*
X147832564Y-94999279D01*
X147820447Y-94915474D01*
X147610431Y-94915474D01*
X147466651Y-94915474D01*
X146956150Y-94915474D01*
X146950092Y-95038859D01*
X146941611Y-95166686D01*
X146930302Y-95298148D01*
X146915762Y-95432437D01*
X147026829Y-95435870D01*
X147114470Y-95446169D01*
X147231594Y-95484941D01*
X147286522Y-95544715D01*
X147300254Y-95621452D01*
X147292176Y-95674763D01*
X147262289Y-95720805D01*
X147202515Y-95753923D01*
X147106392Y-95766847D01*
X147030867Y-95763212D01*
X146969074Y-95752308D01*
X146878606Y-95719998D01*
X146838218Y-95884780D01*
X146501654Y-95884780D01*
X146501654Y-94646223D01*
X146838218Y-94646223D01*
X148377798Y-94646223D01*
X148714362Y-94646223D01*
X148714362Y-96205727D01*
G37*
D12*
%TO.C,R28*%
X132777500Y-77652742D02*
X132777500Y-78127258D01*
X133822500Y-77652742D02*
X133822500Y-78127258D01*
%TO.C,R5*%
X128077500Y-68937742D02*
X128077500Y-69412258D01*
X129122500Y-68937742D02*
X129122500Y-69412258D01*
%TO.C,U6*%
X148840000Y-97440000D02*
X148935000Y-97440000D01*
X148840000Y-101560000D02*
X148840000Y-97440000D01*
X148935000Y-101560000D02*
X148840000Y-101560000D01*
X153865000Y-97440000D02*
X153960000Y-97440000D01*
X153960000Y-97440000D02*
X153960000Y-101560000D01*
X153960000Y-101560000D02*
X153865000Y-101560000D01*
X148930000Y-102100000D02*
X148600000Y-102340000D01*
X148600000Y-101860000D01*
X148930000Y-102100000D01*
G36*
X148930000Y-102100000D02*
G01*
X148600000Y-102340000D01*
X148600000Y-101860000D01*
X148930000Y-102100000D01*
G37*
%TO.C,J1*%
X124322500Y-75962000D02*
X131862500Y-75962000D01*
X124322500Y-77682000D02*
X124322500Y-75962000D01*
X124322500Y-83812000D02*
X124322500Y-78282000D01*
X131862500Y-75962000D02*
X131862500Y-83812000D01*
X131862500Y-83812000D02*
X124322500Y-83812000D01*
X124322500Y-77982000D02*
X123712500Y-78422000D01*
X123712500Y-77542000D01*
X124322500Y-77982000D01*
G36*
X124322500Y-77982000D02*
G01*
X123712500Y-78422000D01*
X123712500Y-77542000D01*
X124322500Y-77982000D01*
G37*
%TO.C,D5*%
X140160000Y-85235000D02*
X142445000Y-85235000D01*
X142445000Y-83765000D02*
X140160000Y-83765000D01*
X142445000Y-85235000D02*
X142445000Y-83765000D01*
D13*
%TO.C,kibuzzard-68EE716B*%
G36*
X128576004Y-67516101D02*
G01*
X128266344Y-67516101D01*
X128266236Y-67516101D01*
X127949596Y-67516101D01*
X127733764Y-67516101D01*
X127733656Y-67516101D01*
X127688939Y-67367044D01*
X127733764Y-67367044D01*
X127770598Y-67381260D01*
X127824233Y-67394830D01*
X127886268Y-67404523D01*
X127949596Y-67408401D01*
X128023586Y-67403554D01*
X128087884Y-67389015D01*
X128142488Y-67365751D01*
X128187399Y-67334733D01*
X128246850Y-67252666D01*
X128266236Y-67149919D01*
X128257476Y-67074960D01*
X128231197Y-67012062D01*
X128187399Y-66961228D01*
X128125794Y-66922743D01*
X128046096Y-66896895D01*
X127948304Y-66883683D01*
X127954766Y-66810016D01*
X127961228Y-66723425D01*
X128236511Y-66723425D01*
X128236511Y-66591599D01*
X127828110Y-66591599D01*
X127823263Y-66690307D01*
X127816478Y-66792569D01*
X127807431Y-66897738D01*
X127795800Y-67005170D01*
X127884653Y-67007916D01*
X127954766Y-67016155D01*
X128048465Y-67047173D01*
X128092407Y-67094992D01*
X128103393Y-67156381D01*
X128096931Y-67199031D01*
X128073021Y-67235864D01*
X128025202Y-67262359D01*
X127948304Y-67272698D01*
X127887884Y-67269790D01*
X127838449Y-67261066D01*
X127766074Y-67235218D01*
X127733764Y-67367044D01*
X127688939Y-67367044D01*
X127423996Y-66483899D01*
X127733656Y-66483899D01*
X127733764Y-66483899D01*
X128266236Y-66483899D01*
X128266344Y-66483899D01*
X128576004Y-67516101D01*
G37*
D12*
%TO.C,R24*%
X147777500Y-84152258D02*
X147777500Y-83677742D01*
X148822500Y-84152258D02*
X148822500Y-83677742D01*
%TO.C,J4*%
X136290000Y-101992000D02*
X136290000Y-100292000D01*
X145630000Y-101992000D02*
X145630000Y-100292000D01*
%TO.C,D6*%
X129365000Y-71448500D02*
X129365000Y-73733500D01*
X129365000Y-73733500D02*
X130835000Y-73733500D01*
X130835000Y-73733500D02*
X130835000Y-71448500D01*
%TO.C,TP2*%
X130748700Y-66449915D02*
G75*
G02*
X128848700Y-66449915I-950000J0D01*
G01*
X128848700Y-66449915D02*
G75*
G02*
X130748700Y-66449915I950000J0D01*
G01*
%TO.C,D4*%
X143248000Y-94424000D02*
X143248000Y-96384000D01*
X143248000Y-96384000D02*
X144448000Y-96384000D01*
X144448000Y-94424000D02*
X144448000Y-96384000D01*
%TO.C,R34*%
X130937500Y-92504258D02*
X130937500Y-92029742D01*
X131982500Y-92504258D02*
X131982500Y-92029742D01*
%TO.C,U4*%
X139190000Y-78890000D02*
X142410000Y-78890000D01*
X139190000Y-79090000D02*
X139190000Y-78890000D01*
X139190000Y-82110000D02*
X139190000Y-81910000D01*
X142410000Y-78890000D02*
X142410000Y-79090000D01*
X142410000Y-81910000D02*
X142410000Y-82110000D01*
X142410000Y-82110000D02*
X139190000Y-82110000D01*
X138600000Y-79090000D02*
X138360000Y-78760000D01*
X138840000Y-78760000D01*
X138600000Y-79090000D01*
G36*
X138600000Y-79090000D02*
G01*
X138360000Y-78760000D01*
X138840000Y-78760000D01*
X138600000Y-79090000D01*
G37*
%TO.C,TP5*%
X148897283Y-93766579D02*
G75*
G02*
X146997283Y-93766579I-950000J0D01*
G01*
X146997283Y-93766579D02*
G75*
G02*
X148897283Y-93766579I950000J0D01*
G01*
%TO.C,R15*%
X146277500Y-77927258D02*
X146277500Y-77452742D01*
X147322500Y-77927258D02*
X147322500Y-77452742D01*
%TO.C,R25*%
X144777500Y-79427258D02*
X144777500Y-78952742D01*
X145822500Y-79427258D02*
X145822500Y-78952742D01*
%TO.C,C11*%
X134290000Y-83774420D02*
X134290000Y-84055580D01*
X135310000Y-83774420D02*
X135310000Y-84055580D01*
%TO.C,C2*%
X151919420Y-62282000D02*
X152200580Y-62282000D01*
X151919420Y-63302000D02*
X152200580Y-63302000D01*
%TO.C,R1*%
X141547500Y-95107258D02*
X141547500Y-94632742D01*
X142592500Y-95107258D02*
X142592500Y-94632742D01*
D13*
%TO.C,kibuzzard-68E980D7*%
G36*
X137283199Y-73341680D02*
G01*
X137303877Y-73421809D01*
X137321325Y-73501292D01*
X137336834Y-73584006D01*
X137180452Y-73584006D01*
X137196607Y-73501292D01*
X137214701Y-73421809D01*
X137235380Y-73341680D01*
X137259289Y-73255735D01*
X137283199Y-73341680D01*
G37*
G36*
X136653150Y-73252504D02*
G01*
X136706139Y-73312601D01*
X136733279Y-73399192D01*
X136741034Y-73500000D01*
X136738611Y-73557027D01*
X136731341Y-73609208D01*
X136699031Y-73695153D01*
X136639580Y-73752019D01*
X136548465Y-73772698D01*
X136534249Y-73772698D01*
X136520032Y-73771405D01*
X136520032Y-73233764D01*
X136543296Y-73230533D01*
X136566559Y-73229887D01*
X136653150Y-73252504D01*
G37*
G36*
X145053796Y-73252504D02*
G01*
X145106785Y-73312601D01*
X145133926Y-73399192D01*
X145141680Y-73500000D01*
X145139257Y-73557027D01*
X145131987Y-73609208D01*
X145099677Y-73695153D01*
X145040226Y-73752019D01*
X144949111Y-73772698D01*
X144934895Y-73772698D01*
X144920679Y-73771405D01*
X144920679Y-73233764D01*
X144943942Y-73230533D01*
X144967205Y-73229887D01*
X145053796Y-73252504D01*
G37*
G36*
X145618428Y-74025148D02*
G01*
X145303339Y-74025148D01*
X145303231Y-74025148D01*
X144932310Y-74025148D01*
X144504523Y-74025148D01*
X143761389Y-74025148D01*
X142382391Y-74025148D01*
X141701292Y-74025148D01*
X141089984Y-74025148D01*
X140116801Y-74025148D01*
X139258643Y-74025148D01*
X138529725Y-74025148D01*
X137401454Y-74025148D01*
X136531664Y-74025148D01*
X135944911Y-74025148D01*
X135696769Y-74025148D01*
X135696661Y-74025148D01*
X135646128Y-73856704D01*
X135696769Y-73856704D01*
X135785945Y-73896123D01*
X135855412Y-73912116D01*
X135944911Y-73917447D01*
X136035595Y-73910626D01*
X136109478Y-73890163D01*
X136166559Y-73856058D01*
X136221325Y-73781906D01*
X136239580Y-73682229D01*
X136234087Y-73621971D01*
X136217609Y-73573021D01*
X136161389Y-73500646D01*
X136086430Y-73454120D01*
X136008239Y-73422456D01*
X135958481Y-73403069D01*
X135913247Y-73379160D01*
X135880291Y-73348142D01*
X135867367Y-73307431D01*
X135881440Y-73256453D01*
X135923658Y-73225866D01*
X135994023Y-73215670D01*
X136085137Y-73228595D01*
X136156866Y-73259612D01*
X136203393Y-73136834D01*
X136139662Y-73110985D01*
X136361066Y-73110985D01*
X136361066Y-73891599D01*
X136448304Y-73906462D01*
X136531664Y-73910985D01*
X136609693Y-73905331D01*
X136629370Y-73900646D01*
X136949111Y-73900646D01*
X137114540Y-73900646D01*
X137150727Y-73715832D01*
X137363974Y-73715832D01*
X137401454Y-73900646D01*
X137572052Y-73900646D01*
X137561721Y-73856704D01*
X138281583Y-73856704D01*
X138370759Y-73896123D01*
X138440226Y-73912116D01*
X138529725Y-73917447D01*
X138620409Y-73910626D01*
X138694292Y-73890163D01*
X138751373Y-73856058D01*
X138806139Y-73781906D01*
X138824394Y-73682229D01*
X138818901Y-73621971D01*
X138802423Y-73573021D01*
X138746204Y-73500646D01*
X138745163Y-73500000D01*
X138910985Y-73500000D01*
X138916559Y-73594426D01*
X138933279Y-73677383D01*
X138961147Y-73748869D01*
X139000162Y-73808885D01*
X139068516Y-73869198D01*
X139154676Y-73905385D01*
X139258643Y-73917447D01*
X139329241Y-73913086D01*
X139388061Y-73900646D01*
X139614055Y-73900646D01*
X140116801Y-73900646D01*
X140116801Y-73873506D01*
X140867690Y-73873506D01*
X140907754Y-73887722D01*
X140963974Y-73901939D01*
X141027302Y-73912924D01*
X141089984Y-73917447D01*
X141164620Y-73912763D01*
X141228271Y-73898708D01*
X141281260Y-73876090D01*
X141323910Y-73845719D01*
X141379483Y-73764943D01*
X141397577Y-73662843D01*
X141389015Y-73597900D01*
X141363328Y-73542649D01*
X141322132Y-73498384D01*
X141267044Y-73466397D01*
X141339418Y-73399192D01*
X141366559Y-73307431D01*
X141351050Y-73218255D01*
X141303231Y-73146527D01*
X141223411Y-73100646D01*
X141477706Y-73100646D01*
X141492569Y-73173021D01*
X141513893Y-73263489D01*
X141530982Y-73331197D01*
X141549506Y-73401633D01*
X141569467Y-73474798D01*
X141590576Y-73549399D01*
X141612547Y-73624143D01*
X141635380Y-73699031D01*
X141669305Y-73805654D01*
X141701292Y-73900646D01*
X141865428Y-73900646D01*
X141875163Y-73873506D01*
X142160097Y-73873506D01*
X142200162Y-73887722D01*
X142256381Y-73901939D01*
X142319709Y-73912924D01*
X142382391Y-73917447D01*
X142457027Y-73912763D01*
X142520679Y-73898708D01*
X142573667Y-73876090D01*
X142616317Y-73845719D01*
X142671890Y-73764943D01*
X142689984Y-73662843D01*
X142681422Y-73597900D01*
X142655735Y-73542649D01*
X142616044Y-73500000D01*
X143434410Y-73500000D01*
X143440226Y-73597092D01*
X143457674Y-73681583D01*
X143485784Y-73753312D01*
X143523586Y-73812116D01*
X143570598Y-73857997D01*
X143626333Y-73890953D01*
X143690145Y-73910824D01*
X143761389Y-73917447D01*
X143840388Y-73914216D01*
X143906785Y-73904523D01*
X143921539Y-73900646D01*
X144105170Y-73900646D01*
X144248627Y-73900646D01*
X144248627Y-73369467D01*
X144296661Y-73458140D01*
X144342542Y-73546670D01*
X144386268Y-73635057D01*
X144427841Y-73723443D01*
X144467259Y-73811973D01*
X144504523Y-73900646D01*
X144632472Y-73900646D01*
X144632472Y-73110985D01*
X144761712Y-73110985D01*
X144761712Y-73891599D01*
X144848950Y-73906462D01*
X144932310Y-73910985D01*
X145010339Y-73905331D01*
X145081583Y-73888368D01*
X145144750Y-73859128D01*
X145198546Y-73816640D01*
X145242326Y-73760258D01*
X145275444Y-73689338D01*
X145296284Y-73602908D01*
X145303231Y-73500000D01*
X145296931Y-73399354D01*
X145278029Y-73314540D01*
X145247819Y-73244426D01*
X145207593Y-73187884D01*
X145157351Y-73144750D01*
X145097092Y-73114863D01*
X145028433Y-73097415D01*
X144952989Y-73091599D01*
X144863813Y-73095477D01*
X144761712Y-73110985D01*
X144632472Y-73110985D01*
X144632472Y-73100646D01*
X144489015Y-73100646D01*
X144489015Y-73593053D01*
X144466236Y-73542649D01*
X144439257Y-73484491D01*
X144408885Y-73421486D01*
X144375929Y-73356543D01*
X144341195Y-73290468D01*
X144305493Y-73224071D01*
X144269305Y-73159935D01*
X144233118Y-73100646D01*
X144105170Y-73100646D01*
X144105170Y-73900646D01*
X143921539Y-73900646D01*
X143995315Y-73881260D01*
X143995315Y-73481906D01*
X143836349Y-73481906D01*
X143836349Y-73773990D01*
X143805331Y-73777868D01*
X143774313Y-73779160D01*
X143697092Y-73762197D01*
X143641195Y-73711309D01*
X143616065Y-73657674D01*
X143600987Y-73587237D01*
X143595961Y-73500000D01*
X143598708Y-73440711D01*
X143606947Y-73386914D01*
X143643134Y-73299031D01*
X143707108Y-73241519D01*
X143802746Y-73220840D01*
X143888045Y-73235057D01*
X143957835Y-73267367D01*
X143999192Y-73140711D01*
X143972698Y-73125202D01*
X143928110Y-73105816D01*
X143864136Y-73089661D01*
X143780775Y-73082553D01*
X143710662Y-73089176D01*
X143645073Y-73109047D01*
X143585945Y-73142165D01*
X143535218Y-73188530D01*
X143493538Y-73247819D01*
X143461551Y-73319709D01*
X143441195Y-73403877D01*
X143434410Y-73500000D01*
X142616044Y-73500000D01*
X142614540Y-73498384D01*
X142559451Y-73466397D01*
X142631826Y-73399192D01*
X142658966Y-73307431D01*
X142643457Y-73218255D01*
X142595638Y-73146527D01*
X142513570Y-73099354D01*
X142459451Y-73086753D01*
X142396607Y-73082553D01*
X142327948Y-73088530D01*
X142266721Y-73106462D01*
X142174313Y-73153635D01*
X142231179Y-73269952D01*
X142308078Y-73233118D01*
X142397900Y-73218255D01*
X142470921Y-73243457D01*
X142497415Y-73312601D01*
X142485137Y-73361712D01*
X142453473Y-73392730D01*
X142409532Y-73409532D01*
X142360420Y-73414701D01*
X142300969Y-73414701D01*
X142300969Y-73546527D01*
X142350081Y-73546527D01*
X142420840Y-73552827D01*
X142478029Y-73571729D01*
X142515832Y-73606462D01*
X142528433Y-73660258D01*
X142495477Y-73746850D01*
X142450404Y-73773021D01*
X142381099Y-73781745D01*
X142319871Y-73778191D01*
X142268013Y-73767528D01*
X142191115Y-73740388D01*
X142160097Y-73873506D01*
X141875163Y-73873506D01*
X141890127Y-73831790D01*
X141914252Y-73761353D01*
X141937803Y-73689338D01*
X141960420Y-73616963D01*
X141981745Y-73545450D01*
X142001777Y-73474798D01*
X142029241Y-73371890D01*
X142053473Y-73273829D01*
X142074313Y-73182714D01*
X142091599Y-73100646D01*
X141924879Y-73100646D01*
X141913247Y-73167851D01*
X141899031Y-73245396D01*
X141882876Y-73329241D01*
X141865428Y-73415347D01*
X141846688Y-73501939D01*
X141826656Y-73587237D01*
X141805977Y-73667205D01*
X141785299Y-73737803D01*
X141764459Y-73666236D01*
X141743296Y-73585945D01*
X141722617Y-73500646D01*
X141703231Y-73414055D01*
X141685299Y-73328110D01*
X141668982Y-73244750D01*
X141655412Y-73167690D01*
X141645719Y-73100646D01*
X141477706Y-73100646D01*
X141223411Y-73100646D01*
X141221163Y-73099354D01*
X141167044Y-73086753D01*
X141104200Y-73082553D01*
X141035541Y-73088530D01*
X140974313Y-73106462D01*
X140881906Y-73153635D01*
X140938772Y-73269952D01*
X141015670Y-73233118D01*
X141105493Y-73218255D01*
X141178514Y-73243457D01*
X141205008Y-73312601D01*
X141192730Y-73361712D01*
X141161066Y-73392730D01*
X141117124Y-73409532D01*
X141068013Y-73414701D01*
X141008562Y-73414701D01*
X141008562Y-73546527D01*
X141057674Y-73546527D01*
X141128433Y-73552827D01*
X141185622Y-73571729D01*
X141223425Y-73606462D01*
X141236026Y-73660258D01*
X141203069Y-73746850D01*
X141157997Y-73773021D01*
X141088691Y-73781745D01*
X141027464Y-73778191D01*
X140975606Y-73767528D01*
X140898708Y-73740388D01*
X140867690Y-73873506D01*
X140116801Y-73873506D01*
X140116801Y-73768821D01*
X139774313Y-73768821D01*
X139774313Y-73100646D01*
X139614055Y-73100646D01*
X139614055Y-73900646D01*
X139388061Y-73900646D01*
X139391115Y-73900000D01*
X139482229Y-73861874D01*
X139442165Y-73736511D01*
X139376898Y-73764943D01*
X139274152Y-73779160D01*
X139181906Y-73760905D01*
X139119709Y-73706139D01*
X139093502Y-73650350D01*
X139077778Y-73580345D01*
X139072536Y-73496123D01*
X139076898Y-73423748D01*
X139089984Y-73364297D01*
X139135218Y-73279645D01*
X139198546Y-73234410D01*
X139271567Y-73220840D01*
X139367851Y-73234410D01*
X139439580Y-73267367D01*
X139480937Y-73140711D01*
X139454443Y-73125202D01*
X139411147Y-73105816D01*
X139351050Y-73089661D01*
X139274152Y-73082553D01*
X139198384Y-73089499D01*
X139128756Y-73110339D01*
X139066721Y-73144588D01*
X139013732Y-73191761D01*
X138970598Y-73251373D01*
X138938126Y-73322940D01*
X138917771Y-73405977D01*
X138910985Y-73500000D01*
X138745163Y-73500000D01*
X138671244Y-73454120D01*
X138593053Y-73422456D01*
X138543296Y-73403069D01*
X138498061Y-73379160D01*
X138465105Y-73348142D01*
X138452181Y-73307431D01*
X138466254Y-73256453D01*
X138508472Y-73225866D01*
X138578837Y-73215670D01*
X138669952Y-73228595D01*
X138741680Y-73259612D01*
X138788207Y-73136834D01*
X138695800Y-73099354D01*
X138636187Y-73086753D01*
X138567205Y-73082553D01*
X138488009Y-73089589D01*
X138421020Y-73110698D01*
X138366236Y-73145880D01*
X138311470Y-73221486D01*
X138293215Y-73321648D01*
X138313893Y-73416640D01*
X138366236Y-73480614D01*
X138436672Y-73523263D01*
X138511632Y-73552989D01*
X138565913Y-73575606D01*
X138615024Y-73602746D01*
X138651212Y-73636995D01*
X138665428Y-73680937D01*
X138659612Y-73719063D01*
X138638288Y-73752666D01*
X138596284Y-73775929D01*
X138529725Y-73784330D01*
X138465267Y-73779806D01*
X138411470Y-73766236D01*
X138328110Y-73727464D01*
X138281583Y-73856704D01*
X137561721Y-73856704D01*
X137550727Y-73809945D01*
X137529144Y-73721880D01*
X137507302Y-73636452D01*
X137485202Y-73553661D01*
X137462843Y-73473506D01*
X137434693Y-73376292D01*
X137406462Y-73281745D01*
X137378150Y-73189863D01*
X137349758Y-73100646D01*
X137176575Y-73100646D01*
X137149192Y-73189136D01*
X137121325Y-73280129D01*
X137092973Y-73373627D01*
X137064136Y-73469628D01*
X137040924Y-73549111D01*
X137017816Y-73631955D01*
X136994811Y-73718158D01*
X136971910Y-73807722D01*
X136949111Y-73900646D01*
X136629370Y-73900646D01*
X136680937Y-73888368D01*
X136744103Y-73859128D01*
X136797900Y-73816640D01*
X136841680Y-73760258D01*
X136874798Y-73689338D01*
X136895638Y-73602908D01*
X136902585Y-73500000D01*
X136896284Y-73399354D01*
X136877383Y-73314540D01*
X136847173Y-73244426D01*
X136806947Y-73187884D01*
X136756704Y-73144750D01*
X136696446Y-73114863D01*
X136627787Y-73097415D01*
X136552342Y-73091599D01*
X136463166Y-73095477D01*
X136361066Y-73110985D01*
X136139662Y-73110985D01*
X136110985Y-73099354D01*
X136051373Y-73086753D01*
X135982391Y-73082553D01*
X135903195Y-73089589D01*
X135836205Y-73110698D01*
X135781422Y-73145880D01*
X135726656Y-73221486D01*
X135708401Y-73321648D01*
X135729079Y-73416640D01*
X135781422Y-73480614D01*
X135851858Y-73523263D01*
X135926817Y-73552989D01*
X135981099Y-73575606D01*
X136030210Y-73602746D01*
X136066397Y-73636995D01*
X136080614Y-73680937D01*
X136074798Y-73719063D01*
X136053473Y-73752666D01*
X136011470Y-73775929D01*
X135944911Y-73784330D01*
X135880452Y-73779806D01*
X135826656Y-73766236D01*
X135743296Y-73727464D01*
X135696769Y-73856704D01*
X135646128Y-73856704D01*
X135381572Y-72974852D01*
X135696661Y-72974852D01*
X135696769Y-72974852D01*
X145303231Y-72974852D01*
X145303339Y-72974852D01*
X145618428Y-74025148D01*
G37*
D12*
%TO.C,D3*%
X141318000Y-91222000D02*
X141318000Y-92422000D01*
X143278000Y-91222000D02*
X141318000Y-91222000D01*
X143278000Y-92422000D02*
X141318000Y-92422000D01*
%TO.C,TP1*%
X128410000Y-65292000D02*
G75*
G02*
X126510000Y-65292000I-950000J0D01*
G01*
X126510000Y-65292000D02*
G75*
G02*
X128410000Y-65292000I950000J0D01*
G01*
D13*
%TO.C,kibuzzard-696E7314*%
G36*
X129795324Y-89686422D02*
G01*
X129458760Y-89686422D01*
X129074269Y-89686422D01*
X128222895Y-89686422D01*
X127458760Y-89686422D01*
X127180892Y-89686422D01*
X126844328Y-89686422D01*
X126844328Y-89362243D01*
X127180892Y-89362243D01*
X127230973Y-89380014D01*
X127301248Y-89397784D01*
X127380408Y-89411516D01*
X127458760Y-89417170D01*
X127552055Y-89411314D01*
X127631619Y-89393745D01*
X127697855Y-89365474D01*
X127751167Y-89327510D01*
X127820634Y-89226540D01*
X127843251Y-89098915D01*
X127832548Y-89017736D01*
X127800440Y-88948673D01*
X127748946Y-88893342D01*
X127680084Y-88853358D01*
X127770553Y-88769351D01*
X127804479Y-88654650D01*
X127785093Y-88543180D01*
X127725319Y-88453519D01*
X127625545Y-88396169D01*
X127943412Y-88396169D01*
X127961991Y-88486637D01*
X127988647Y-88599723D01*
X128010007Y-88684358D01*
X128033163Y-88772403D01*
X128058114Y-88863859D01*
X128084500Y-88957109D01*
X128111964Y-89050540D01*
X128140505Y-89144149D01*
X128182912Y-89277429D01*
X128222895Y-89396169D01*
X128428065Y-89396169D01*
X128440234Y-89362243D01*
X128796401Y-89362243D01*
X128846482Y-89380014D01*
X128916757Y-89397784D01*
X128995916Y-89411516D01*
X129074269Y-89417170D01*
X129167564Y-89411314D01*
X129247128Y-89393745D01*
X129313364Y-89365474D01*
X129366676Y-89327510D01*
X129436143Y-89226540D01*
X129458760Y-89098915D01*
X129448057Y-89017736D01*
X129415949Y-88948673D01*
X129364454Y-88893342D01*
X129295593Y-88853358D01*
X129386062Y-88769351D01*
X129419988Y-88654650D01*
X129400601Y-88543180D01*
X129340828Y-88453519D01*
X129238243Y-88394553D01*
X129170593Y-88378802D01*
X129092039Y-88373552D01*
X129006215Y-88381023D01*
X128929681Y-88403439D01*
X128814172Y-88462405D01*
X128885254Y-88607800D01*
X128981377Y-88561758D01*
X129093655Y-88543180D01*
X129184931Y-88574682D01*
X129218049Y-88661112D01*
X129202702Y-88722502D01*
X129163122Y-88761274D01*
X129108194Y-88782275D01*
X129046805Y-88788737D01*
X128972492Y-88788737D01*
X128972492Y-88953519D01*
X129033881Y-88953519D01*
X129122330Y-88961395D01*
X129193816Y-88985022D01*
X129241070Y-89028439D01*
X129256821Y-89095684D01*
X129215626Y-89203923D01*
X129159285Y-89236637D01*
X129072653Y-89247542D01*
X128996118Y-89243099D01*
X128931296Y-89229771D01*
X128835173Y-89195846D01*
X128796401Y-89362243D01*
X128440234Y-89362243D01*
X128458939Y-89310098D01*
X128489095Y-89222053D01*
X128518534Y-89132033D01*
X128546805Y-89041565D01*
X128573461Y-88952173D01*
X128598501Y-88863859D01*
X128632831Y-88735224D01*
X128663122Y-88612647D01*
X128689172Y-88498754D01*
X128710779Y-88396169D01*
X128502379Y-88396169D01*
X128487839Y-88480175D01*
X128470068Y-88577106D01*
X128449874Y-88681912D01*
X128428065Y-88789545D01*
X128404640Y-88897784D01*
X128379600Y-89004408D01*
X128353752Y-89104367D01*
X128327904Y-89192615D01*
X128301853Y-89103156D01*
X128275400Y-89002792D01*
X128249551Y-88896169D01*
X128225319Y-88787930D01*
X128202904Y-88680498D01*
X128182508Y-88576298D01*
X128165545Y-88479973D01*
X128153429Y-88396169D01*
X127943412Y-88396169D01*
X127625545Y-88396169D01*
X127622734Y-88394553D01*
X127555084Y-88378802D01*
X127476530Y-88373552D01*
X127390706Y-88381023D01*
X127314172Y-88403439D01*
X127198663Y-88462405D01*
X127269745Y-88607800D01*
X127365868Y-88561758D01*
X127478146Y-88543180D01*
X127569422Y-88574682D01*
X127602540Y-88661112D01*
X127587193Y-88722502D01*
X127547613Y-88761274D01*
X127492685Y-88782275D01*
X127431296Y-88788737D01*
X127356983Y-88788737D01*
X127356983Y-88953519D01*
X127418372Y-88953519D01*
X127506821Y-88961395D01*
X127578307Y-88985022D01*
X127625561Y-89028439D01*
X127641312Y-89095684D01*
X127600117Y-89203923D01*
X127543776Y-89236637D01*
X127457144Y-89247542D01*
X127380610Y-89243099D01*
X127315787Y-89229771D01*
X127219664Y-89195846D01*
X127180892Y-89362243D01*
X126844328Y-89362243D01*
X126844328Y-88104300D01*
X127180892Y-88104300D01*
X129458760Y-88104300D01*
X129795324Y-88104300D01*
X129795324Y-89686422D01*
G37*
D12*
%TO.C,C8*%
X130950000Y-99151420D02*
X130950000Y-99432580D01*
X131970000Y-99151420D02*
X131970000Y-99432580D01*
%TO.C,C12*%
X146290000Y-83774420D02*
X146290000Y-84055580D01*
X147310000Y-83774420D02*
X147310000Y-84055580D01*
%TO.C,Q1*%
X148252500Y-87390000D02*
X150072500Y-87390000D01*
X148252500Y-87440000D02*
X148252500Y-87390000D01*
X148252500Y-90510000D02*
X148252500Y-90460000D01*
X150072500Y-87390000D02*
X150072500Y-87440000D01*
X150072500Y-90460000D02*
X150072500Y-90510000D01*
X150072500Y-90510000D02*
X148252500Y-90510000D01*
X150852500Y-90790000D02*
X150372500Y-90790000D01*
X150612500Y-90460000D01*
X150852500Y-90790000D01*
G36*
X150852500Y-90790000D02*
G01*
X150372500Y-90790000D01*
X150612500Y-90460000D01*
X150852500Y-90790000D01*
G37*
%TO.C,R8*%
X145925242Y-90927500D02*
X146399758Y-90927500D01*
X145925242Y-91972500D02*
X146399758Y-91972500D01*
D13*
%TO.C,kibuzzard-68E986EB*%
G36*
X133518595Y-103398083D02*
G01*
X133584831Y-103473204D01*
X133618756Y-103581443D01*
X133628449Y-103707453D01*
X133625420Y-103778737D01*
X133616333Y-103843964D01*
X133575945Y-103951395D01*
X133501632Y-104022477D01*
X133387738Y-104048325D01*
X133369968Y-104048325D01*
X133352197Y-104046710D01*
X133352197Y-103374658D01*
X133381276Y-103370619D01*
X133410356Y-103369812D01*
X133518595Y-103398083D01*
G37*
G36*
X134166952Y-104498514D02*
G01*
X133830388Y-104498514D01*
X133366737Y-104498514D01*
X132832003Y-104498514D01*
X131903086Y-104498514D01*
X131494362Y-104498514D01*
X131157798Y-104498514D01*
X131157798Y-103707453D01*
X131494362Y-103707453D01*
X131501632Y-103828818D01*
X131523441Y-103934432D01*
X131558579Y-104024093D01*
X131605832Y-104097598D01*
X131664596Y-104154949D01*
X131734265Y-104196144D01*
X131814031Y-104220983D01*
X131903086Y-104229262D01*
X132001834Y-104225224D01*
X132084831Y-104213107D01*
X132103273Y-104208261D01*
X132332811Y-104208261D01*
X132512133Y-104208261D01*
X132512133Y-103544287D01*
X132572176Y-103655128D01*
X132629526Y-103765791D01*
X132684184Y-103876274D01*
X132736150Y-103986757D01*
X132785423Y-104097419D01*
X132832003Y-104208261D01*
X132991939Y-104208261D01*
X132991939Y-103221185D01*
X133153490Y-103221185D01*
X133153490Y-104196952D01*
X133262537Y-104215531D01*
X133366737Y-104221185D01*
X133464273Y-104214117D01*
X133553328Y-104192913D01*
X133632286Y-104156363D01*
X133699532Y-104103253D01*
X133754257Y-104032776D01*
X133795654Y-103944125D01*
X133821705Y-103836088D01*
X133830388Y-103707453D01*
X133822512Y-103581645D01*
X133798886Y-103475627D01*
X133761123Y-103387986D01*
X133710840Y-103317308D01*
X133648037Y-103263390D01*
X133572714Y-103226031D01*
X133486890Y-103204222D01*
X133392585Y-103196952D01*
X133281115Y-103201799D01*
X133153490Y-103221185D01*
X132991939Y-103221185D01*
X132991939Y-103208261D01*
X132812617Y-103208261D01*
X132812617Y-103823770D01*
X132784144Y-103760765D01*
X132750420Y-103688067D01*
X132712456Y-103609311D01*
X132671260Y-103528132D01*
X132627843Y-103445539D01*
X132583215Y-103362542D01*
X132537981Y-103282372D01*
X132492747Y-103208261D01*
X132332811Y-103208261D01*
X132332811Y-104208261D01*
X132103273Y-104208261D01*
X132195493Y-104184028D01*
X132195493Y-103684836D01*
X131996785Y-103684836D01*
X131996785Y-104049941D01*
X131958013Y-104054787D01*
X131919241Y-104056403D01*
X131822714Y-104035199D01*
X131752843Y-103971589D01*
X131721431Y-103904545D01*
X131702583Y-103816500D01*
X131696301Y-103707453D01*
X131699734Y-103633342D01*
X131710033Y-103566096D01*
X131755267Y-103456241D01*
X131835234Y-103384351D01*
X131954782Y-103358503D01*
X132061406Y-103376274D01*
X132148643Y-103416661D01*
X132200339Y-103258342D01*
X132167222Y-103238955D01*
X132111486Y-103214723D01*
X132031519Y-103194529D01*
X131927318Y-103185644D01*
X131839677Y-103193923D01*
X131757690Y-103218762D01*
X131683780Y-103260159D01*
X131620372Y-103318115D01*
X131568272Y-103392227D01*
X131528288Y-103482090D01*
X131502843Y-103587300D01*
X131494362Y-103707453D01*
X131157798Y-103707453D01*
X131157798Y-102916392D01*
X131494362Y-102916392D01*
X133830388Y-102916392D01*
X134166952Y-102916392D01*
X134166952Y-104498514D01*
G37*
D12*
%TO.C,C9*%
X141650000Y-88651420D02*
X141650000Y-88932580D01*
X142670000Y-88651420D02*
X142670000Y-88932580D01*
%TO.C,R11*%
X133562742Y-79667500D02*
X134037258Y-79667500D01*
X133562742Y-80712500D02*
X134037258Y-80712500D01*
%TO.C,C17*%
X154490000Y-97359420D02*
X154490000Y-97640580D01*
X155510000Y-97359420D02*
X155510000Y-97640580D01*
%TO.C,R4*%
X129737258Y-62452970D02*
X129262742Y-62452970D01*
X129737258Y-63497970D02*
X129262742Y-63497970D01*
%TO.C,C10*%
X140940580Y-77490000D02*
X140659420Y-77490000D01*
X140940580Y-78510000D02*
X140659420Y-78510000D01*
%TD*%
M02*
