M48
; DRILL file {KiCad 9.0.7-9.0.7~ubuntu24.04.1} date 2026-02-18T22:07:07+0100
; FORMAT={-:-/ absolute / metric / decimal}
; #@! TF.CreationDate,2026-02-18T22:07:07+01:00
; #@! TF.GenerationSoftware,Kicad,Pcbnew,9.0.7-9.0.7~ubuntu24.04.1
; #@! TF.FileFunction,MixedPlating,1,2
FMAT,2
METRIC
; #@! TA.AperFunction,Plated,PTH,ComponentDrill
T1C0.200
; #@! TA.AperFunction,Plated,PTH,ViaDrill
T2C0.300
; #@! TA.AperFunction,Plated,PTH,ComponentDrill
T3C0.600
; #@! TA.AperFunction,Plated,PTH,ComponentDrill
T4C0.750
; #@! TA.AperFunction,Plated,PTH,ComponentDrill
T5C1.000
; #@! TA.AperFunction,Plated,PTH,ComponentDrill
T6C1.100
; #@! TA.AperFunction,Plated,PTH,ComponentDrill
T7C2.500
; #@! TA.AperFunction,NonPlated,NPTH,ComponentDrill
T8C0.650
%
G90
G05
T1
X140.66Y-65.258
X140.66Y-66.358
X141.21Y-64.708
X141.21Y-65.808
X141.21Y-66.908
X141.76Y-65.258
X141.76Y-66.358
X142.31Y-64.708
X142.31Y-65.808
X142.31Y-66.908
X142.86Y-65.258
X142.86Y-66.358
X150.2Y-98.8
X150.2Y-100.2
X151.4Y-98.8
X151.4Y-100.2
X152.6Y-98.8
X152.6Y-100.2
T2
X125.5Y-60.0
X125.5Y-64.0
X126.0Y-86.0
X129.321Y-61.141
X130.0Y-64.0
X131.46Y-83.292
X132.255Y-74.619
X132.5Y-73.0
X133.46Y-66.792
X133.5Y-70.0
X133.5Y-71.5
X133.5Y-72.5
X133.86Y-91.797
X135.46Y-91.267
X135.5Y-69.5
X135.5Y-73.0
X135.68Y-83.927
X135.872Y-74.256
X135.96Y-94.267
X136.5Y-87.5
X136.96Y-96.267
X137.31Y-81.345
X137.46Y-77.792
X137.5Y-92.0
X138.435Y-92.792
X138.5Y-82.5
X138.714Y-78.1
X139.46Y-90.792
X139.959Y-93.0
X140.5Y-70.5
X140.629Y-90.756
X141.0Y-82.5
X141.479Y-90.756
X141.54Y-85.452
X142.0Y-93.0
X142.716Y-92.643
X142.96Y-90.792
X143.0Y-78.5
X143.5Y-93.5
X144.0Y-82.5
X145.0Y-84.5
X146.3Y-67.0
X147.0Y-74.0
X147.1Y-67.0
X147.5Y-99.5
X147.617Y-86.5
X147.7Y-91.45
X148.5Y-76.0
X148.5Y-96.0
X149.182Y-87.533
X150.0Y-81.0
X150.0Y-82.5
X150.5Y-84.5
X150.765Y-95.292
X150.96Y-90.792
X151.0Y-67.108
X151.4Y-86.5
X151.451Y-70.976
X151.463Y-88.792
X151.5Y-60.0
X151.5Y-64.5
X151.5Y-65.82
X152.035Y-95.292
X152.825Y-71.692
X152.826Y-65.174
X153.1Y-91.5
X153.121Y-66.5
X154.0Y-61.5
X154.5Y-67.0
X155.5Y-61.0
X156.34Y-65.5
T4
X153.91Y-87.592
X153.91Y-89.592
T5
X136.95Y-75.5
X139.49Y-75.5
X142.03Y-75.5
X144.57Y-75.5
T6
X128.042Y-77.982
X128.042Y-81.792
X153.377Y-77.982
X153.377Y-81.792
T7
X126.96Y-54.292
X154.96Y-54.292
T8
X138.07Y-99.487
X143.85Y-99.487
T3
X136.64Y-98.437G85X136.64Y-99.537
G05
X136.64Y-102.767G85X136.64Y-103.567
G05
X145.28Y-98.437G85X145.28Y-99.537
G05
X145.28Y-102.767G85X145.28Y-103.567
G05
M30
